G04 Layer_Color=15065295*
%FSLAX43Y43*%
%MOMM*%
G71*
G01*
G75*
%ADD34C,0.500*%
%ADD37C,0.200*%
%ADD40C,0.300*%
%ADD70C,0.250*%
%ADD71C,0.254*%
%ADD72C,0.150*%
%ADD73R,2.600X1.250*%
%ADD74R,1.250X2.600*%
G36*
X116230Y87109D02*
X116252D01*
Y87087D01*
Y87065D01*
Y87043D01*
X116274D01*
Y87021D01*
Y86998D01*
Y86976D01*
Y86954D01*
Y86932D01*
Y86910D01*
X116296D01*
Y86888D01*
Y86866D01*
Y86843D01*
Y86821D01*
Y86799D01*
X116318D01*
Y86777D01*
Y86755D01*
Y86733D01*
Y86710D01*
Y86688D01*
X116340D01*
Y86666D01*
Y86644D01*
Y86622D01*
Y86600D01*
Y86578D01*
Y86555D01*
X116363D01*
Y86533D01*
Y86511D01*
Y86489D01*
Y86467D01*
Y86445D01*
X116385D01*
Y86422D01*
Y86400D01*
Y86378D01*
Y86356D01*
Y86334D01*
X116407D01*
Y86312D01*
Y86289D01*
Y86267D01*
Y86245D01*
Y86223D01*
Y86201D01*
X116429D01*
Y86179D01*
Y86157D01*
Y86134D01*
Y86112D01*
Y86090D01*
X116451D01*
Y86068D01*
Y86046D01*
Y86024D01*
Y86001D01*
Y85979D01*
X116473D01*
Y85957D01*
X116495D01*
Y85935D01*
X116540D01*
Y85913D01*
X116584D01*
Y85891D01*
X116651D01*
Y85868D01*
X116695D01*
Y85846D01*
X116761D01*
Y85824D01*
X116806D01*
Y85802D01*
X116850D01*
Y85780D01*
X116916D01*
Y85758D01*
X116961D01*
Y85736D01*
X117027D01*
Y85713D01*
X117072D01*
Y85691D01*
X117138D01*
Y85669D01*
X117182D01*
Y85647D01*
X117249D01*
Y85625D01*
X117315D01*
Y85647D01*
X117337D01*
Y85669D01*
X117382D01*
Y85691D01*
X117404D01*
Y85713D01*
X117448D01*
Y85736D01*
X117470D01*
Y85758D01*
X117515D01*
Y85780D01*
X117537D01*
Y85802D01*
X117559D01*
Y85824D01*
X117603D01*
Y85846D01*
X117625D01*
Y85868D01*
X117670D01*
Y85891D01*
X117692D01*
Y85913D01*
X117736D01*
Y85935D01*
X117758D01*
Y85957D01*
X117803D01*
Y85979D01*
X117825D01*
Y86001D01*
X117869D01*
Y86024D01*
X117891D01*
Y86046D01*
X117936D01*
Y86068D01*
X117958D01*
Y86090D01*
X117980D01*
Y86112D01*
X118024D01*
Y86134D01*
X118046D01*
Y86157D01*
X118091D01*
Y86179D01*
X118113D01*
Y86201D01*
X118157D01*
Y86223D01*
X118179D01*
Y86245D01*
X118224D01*
Y86267D01*
X118312D01*
Y86245D01*
X118335D01*
Y86223D01*
X118357D01*
Y86201D01*
X118379D01*
Y86179D01*
X118401D01*
Y86157D01*
X118423D01*
Y86134D01*
X118445D01*
Y86112D01*
X118467D01*
Y86090D01*
X118490D01*
Y86068D01*
X118512D01*
Y86046D01*
X118534D01*
Y86024D01*
X118556D01*
Y86001D01*
X118578D01*
Y85979D01*
X118600D01*
Y85957D01*
X118623D01*
Y85935D01*
X118645D01*
Y85913D01*
X118667D01*
Y85891D01*
X118689D01*
Y85868D01*
X118711D01*
Y85846D01*
X118733D01*
Y85824D01*
X118756D01*
Y85802D01*
X118778D01*
Y85780D01*
X118800D01*
Y85758D01*
X118822D01*
Y85736D01*
X118844D01*
Y85713D01*
X118866D01*
Y85691D01*
X118888D01*
Y85669D01*
X118911D01*
Y85647D01*
X118933D01*
Y85625D01*
X118955D01*
Y85603D01*
X118977D01*
Y85580D01*
X118999D01*
Y85558D01*
X119021D01*
Y85536D01*
X119044D01*
Y85514D01*
X119066D01*
Y85492D01*
X119088D01*
Y85470D01*
Y85447D01*
Y85425D01*
Y85403D01*
Y85381D01*
X119066D01*
Y85359D01*
X119044D01*
Y85337D01*
Y85315D01*
X119021D01*
Y85292D01*
X118999D01*
Y85270D01*
X118977D01*
Y85248D01*
Y85226D01*
X118955D01*
Y85204D01*
X118933D01*
Y85182D01*
Y85159D01*
X118911D01*
Y85137D01*
X118888D01*
Y85115D01*
Y85093D01*
X118866D01*
Y85071D01*
X118844D01*
Y85049D01*
Y85026D01*
X118822D01*
Y85004D01*
X118800D01*
Y84982D01*
Y84960D01*
X118778D01*
Y84938D01*
X118756D01*
Y84916D01*
X118733D01*
Y84894D01*
Y84871D01*
X118711D01*
Y84849D01*
X118689D01*
Y84827D01*
Y84805D01*
X118667D01*
Y84783D01*
X118645D01*
Y84761D01*
Y84738D01*
X118623D01*
Y84716D01*
X118600D01*
Y84694D01*
Y84672D01*
X118578D01*
Y84650D01*
X118556D01*
Y84628D01*
Y84606D01*
X118534D01*
Y84583D01*
X118512D01*
Y84561D01*
X118490D01*
Y84539D01*
Y84517D01*
X118467D01*
Y84495D01*
Y84473D01*
Y84450D01*
Y84428D01*
Y84406D01*
X118490D01*
Y84384D01*
Y84362D01*
X118512D01*
Y84340D01*
Y84317D01*
X118534D01*
Y84295D01*
Y84273D01*
Y84251D01*
X118556D01*
Y84229D01*
Y84207D01*
X118578D01*
Y84185D01*
Y84162D01*
X118600D01*
Y84140D01*
Y84118D01*
Y84096D01*
X118623D01*
Y84074D01*
Y84052D01*
X118645D01*
Y84029D01*
Y84007D01*
X118667D01*
Y83985D01*
Y83963D01*
Y83941D01*
X118689D01*
Y83919D01*
Y83896D01*
X118711D01*
Y83874D01*
Y83852D01*
X118733D01*
Y83830D01*
Y83808D01*
Y83786D01*
X118756D01*
Y83764D01*
Y83741D01*
X118778D01*
Y83719D01*
Y83697D01*
X118800D01*
Y83675D01*
Y83653D01*
X118822D01*
Y83631D01*
X118911D01*
Y83608D01*
X119044D01*
Y83586D01*
X119154D01*
Y83564D01*
X119265D01*
Y83542D01*
X119398D01*
Y83520D01*
X119509D01*
Y83498D01*
X119620D01*
Y83475D01*
X119753D01*
Y83453D01*
X119863D01*
Y83431D01*
X119930D01*
Y83409D01*
X119952D01*
Y83387D01*
Y83365D01*
Y83343D01*
Y83320D01*
Y83298D01*
Y83276D01*
Y83254D01*
Y83232D01*
Y83210D01*
Y83187D01*
Y83165D01*
Y83143D01*
Y83121D01*
Y83099D01*
Y83077D01*
Y83054D01*
Y83032D01*
Y83010D01*
Y82988D01*
Y82966D01*
Y82944D01*
Y82922D01*
Y82899D01*
Y82877D01*
Y82855D01*
Y82833D01*
Y82811D01*
Y82789D01*
Y82766D01*
Y82744D01*
Y82722D01*
Y82700D01*
Y82678D01*
Y82656D01*
Y82634D01*
Y82611D01*
Y82589D01*
Y82567D01*
Y82545D01*
Y82523D01*
Y82501D01*
Y82478D01*
Y82456D01*
Y82434D01*
Y82412D01*
Y82390D01*
Y82368D01*
Y82345D01*
Y82323D01*
Y82301D01*
Y82279D01*
Y82257D01*
Y82235D01*
X119908D01*
Y82213D01*
X119797D01*
Y82190D01*
X119664D01*
Y82168D01*
X119553D01*
Y82146D01*
X119442D01*
Y82124D01*
X119309D01*
Y82102D01*
X119199D01*
Y82080D01*
X119066D01*
Y82057D01*
X118955D01*
Y82035D01*
X118866D01*
Y82013D01*
X118844D01*
Y81991D01*
X118822D01*
Y81969D01*
Y81947D01*
X118800D01*
Y81924D01*
Y81902D01*
X118778D01*
Y81880D01*
Y81858D01*
Y81836D01*
X118756D01*
Y81814D01*
Y81792D01*
X118733D01*
Y81769D01*
Y81747D01*
Y81725D01*
X118711D01*
Y81703D01*
Y81681D01*
X118689D01*
Y81659D01*
Y81636D01*
Y81614D01*
X118667D01*
Y81592D01*
Y81570D01*
X118645D01*
Y81548D01*
Y81526D01*
Y81503D01*
X118623D01*
Y81481D01*
Y81459D01*
X118600D01*
Y81437D01*
Y81415D01*
X118578D01*
Y81393D01*
Y81371D01*
Y81348D01*
X118556D01*
Y81326D01*
Y81304D01*
X118534D01*
Y81282D01*
Y81260D01*
Y81238D01*
X118512D01*
Y81215D01*
Y81193D01*
Y81171D01*
X118490D01*
Y81149D01*
Y81127D01*
Y81105D01*
X118512D01*
Y81082D01*
X118534D01*
Y81060D01*
Y81038D01*
X118556D01*
Y81016D01*
X118578D01*
Y80994D01*
Y80972D01*
X118600D01*
Y80950D01*
X118623D01*
Y80927D01*
Y80905D01*
X118645D01*
Y80883D01*
X118667D01*
Y80861D01*
Y80839D01*
X118689D01*
Y80817D01*
X118711D01*
Y80794D01*
X118733D01*
Y80772D01*
Y80750D01*
X118756D01*
Y80728D01*
X118778D01*
Y80706D01*
Y80684D01*
X118800D01*
Y80662D01*
X118822D01*
Y80639D01*
Y80617D01*
X118844D01*
Y80595D01*
X118866D01*
Y80573D01*
Y80551D01*
X118888D01*
Y80529D01*
X118911D01*
Y80506D01*
Y80484D01*
X118933D01*
Y80462D01*
X118955D01*
Y80440D01*
X118977D01*
Y80418D01*
Y80396D01*
X118999D01*
Y80373D01*
X119021D01*
Y80351D01*
Y80329D01*
X119044D01*
Y80307D01*
X119066D01*
Y80285D01*
Y80263D01*
X119088D01*
Y80241D01*
Y80218D01*
Y80196D01*
Y80174D01*
Y80152D01*
X119066D01*
Y80130D01*
X119044D01*
Y80108D01*
X119021D01*
Y80085D01*
X118999D01*
Y80063D01*
X118977D01*
Y80041D01*
X118955D01*
Y80019D01*
X118933D01*
Y79997D01*
X118911D01*
Y79975D01*
X118888D01*
Y79952D01*
X118866D01*
Y79930D01*
X118844D01*
Y79908D01*
X118822D01*
Y79886D01*
X118800D01*
Y79864D01*
X118778D01*
Y79842D01*
X118756D01*
Y79820D01*
X118733D01*
Y79797D01*
X118711D01*
Y79775D01*
X118689D01*
Y79753D01*
X118667D01*
Y79731D01*
X118645D01*
Y79709D01*
X118623D01*
Y79687D01*
X118600D01*
Y79664D01*
X118578D01*
Y79642D01*
X118556D01*
Y79620D01*
X118534D01*
Y79598D01*
X118512D01*
Y79576D01*
X118490D01*
Y79554D01*
X118467D01*
Y79531D01*
X118445D01*
Y79509D01*
X118423D01*
Y79487D01*
X118401D01*
Y79465D01*
X118379D01*
Y79443D01*
X118357D01*
Y79421D01*
X118335D01*
Y79399D01*
X118290D01*
Y79376D01*
X118246D01*
Y79399D01*
X118202D01*
Y79421D01*
X118179D01*
Y79443D01*
X118135D01*
Y79465D01*
X118113D01*
Y79487D01*
X118069D01*
Y79509D01*
X118046D01*
Y79531D01*
X118002D01*
Y79554D01*
X117980D01*
Y79576D01*
X117936D01*
Y79598D01*
X117914D01*
Y79620D01*
X117869D01*
Y79642D01*
X117847D01*
Y79664D01*
X117825D01*
Y79687D01*
X117781D01*
Y79709D01*
X117758D01*
Y79731D01*
X117714D01*
Y79753D01*
X117692D01*
Y79775D01*
X117648D01*
Y79797D01*
X117625D01*
Y79820D01*
X117581D01*
Y79842D01*
X117559D01*
Y79864D01*
X117515D01*
Y79886D01*
X117493D01*
Y79908D01*
X117470D01*
Y79930D01*
X117426D01*
Y79952D01*
X117404D01*
Y79975D01*
X117315D01*
Y79952D01*
X117271D01*
Y79930D01*
X117227D01*
Y79908D01*
X117182D01*
Y79886D01*
X117138D01*
Y79864D01*
X117094D01*
Y79842D01*
X117072D01*
Y79820D01*
X117027D01*
Y79797D01*
X116983D01*
Y79775D01*
X116894D01*
Y79797D01*
X116872D01*
Y79820D01*
Y79842D01*
X116850D01*
Y79864D01*
Y79886D01*
X116828D01*
Y79908D01*
Y79930D01*
Y79952D01*
X116806D01*
Y79975D01*
Y79997D01*
X116784D01*
Y80019D01*
Y80041D01*
Y80063D01*
X116761D01*
Y80085D01*
Y80108D01*
X116739D01*
Y80130D01*
Y80152D01*
X116717D01*
Y80174D01*
Y80196D01*
Y80218D01*
X116695D01*
Y80241D01*
Y80263D01*
X116673D01*
Y80285D01*
Y80307D01*
Y80329D01*
X116651D01*
Y80351D01*
Y80373D01*
X116628D01*
Y80396D01*
Y80418D01*
X116606D01*
Y80440D01*
Y80462D01*
Y80484D01*
X116584D01*
Y80506D01*
Y80529D01*
X116562D01*
Y80551D01*
Y80573D01*
Y80595D01*
X116540D01*
Y80617D01*
Y80639D01*
X116518D01*
Y80662D01*
Y80684D01*
Y80706D01*
X116495D01*
Y80728D01*
Y80750D01*
X116473D01*
Y80772D01*
Y80794D01*
X116451D01*
Y80817D01*
Y80839D01*
Y80861D01*
X116429D01*
Y80883D01*
Y80905D01*
X116407D01*
Y80927D01*
Y80950D01*
Y80972D01*
X116385D01*
Y80994D01*
Y81016D01*
X116363D01*
Y81038D01*
Y81060D01*
X116340D01*
Y81082D01*
Y81105D01*
Y81127D01*
X116318D01*
Y81149D01*
Y81171D01*
X116296D01*
Y81193D01*
Y81215D01*
Y81238D01*
X116274D01*
Y81260D01*
Y81282D01*
X116252D01*
Y81304D01*
Y81326D01*
Y81348D01*
X116230D01*
Y81371D01*
Y81393D01*
X116207D01*
Y81415D01*
Y81437D01*
X116185D01*
Y81459D01*
Y81481D01*
Y81503D01*
X116163D01*
Y81526D01*
Y81548D01*
X116141D01*
Y81570D01*
Y81592D01*
Y81614D01*
X116119D01*
Y81636D01*
Y81659D01*
Y81681D01*
Y81703D01*
X116141D01*
Y81725D01*
X116185D01*
Y81747D01*
X116207D01*
Y81769D01*
X116252D01*
Y81792D01*
X116274D01*
Y81814D01*
X116296D01*
Y81836D01*
X116340D01*
Y81858D01*
X116363D01*
Y81880D01*
X116385D01*
Y81902D01*
X116429D01*
Y81924D01*
X116451D01*
Y81947D01*
X116473D01*
Y81969D01*
X116495D01*
Y81991D01*
X116518D01*
Y82013D01*
X116540D01*
Y82035D01*
X116562D01*
Y82057D01*
X116584D01*
Y82080D01*
Y82102D01*
X116606D01*
Y82124D01*
X116628D01*
Y82146D01*
X116651D01*
Y82168D01*
Y82190D01*
X116673D01*
Y82213D01*
Y82235D01*
X116695D01*
Y82257D01*
X116717D01*
Y82279D01*
Y82301D01*
X116739D01*
Y82323D01*
Y82345D01*
Y82368D01*
X116761D01*
Y82390D01*
Y82412D01*
X116784D01*
Y82434D01*
Y82456D01*
Y82478D01*
X116806D01*
Y82501D01*
Y82523D01*
Y82545D01*
Y82567D01*
X116828D01*
Y82589D01*
Y82611D01*
Y82634D01*
Y82656D01*
Y82678D01*
Y82700D01*
X116850D01*
Y82722D01*
Y82744D01*
Y82766D01*
Y82789D01*
Y82811D01*
Y82833D01*
Y82855D01*
Y82877D01*
Y82899D01*
Y82922D01*
Y82944D01*
X116828D01*
Y82966D01*
Y82988D01*
Y83010D01*
Y83032D01*
Y83054D01*
Y83077D01*
X116806D01*
Y83099D01*
Y83121D01*
Y83143D01*
Y83165D01*
X116784D01*
Y83187D01*
Y83210D01*
Y83232D01*
X116761D01*
Y83254D01*
Y83276D01*
Y83298D01*
X116739D01*
Y83320D01*
Y83343D01*
X116717D01*
Y83365D01*
Y83387D01*
X116695D01*
Y83409D01*
X116673D01*
Y83431D01*
Y83453D01*
X116651D01*
Y83475D01*
Y83498D01*
X116628D01*
Y83520D01*
X116606D01*
Y83542D01*
X116584D01*
Y83564D01*
Y83586D01*
X116562D01*
Y83608D01*
X116540D01*
Y83631D01*
X116518D01*
Y83653D01*
X116495D01*
Y83675D01*
X116473D01*
Y83697D01*
X116451D01*
Y83719D01*
X116429D01*
Y83741D01*
X116407D01*
Y83764D01*
X116363D01*
Y83786D01*
X116340D01*
Y83808D01*
X116318D01*
Y83830D01*
X116274D01*
Y83852D01*
X116230D01*
Y83874D01*
X116185D01*
Y83896D01*
X116141D01*
Y83919D01*
X116097D01*
Y83941D01*
X116030D01*
Y83963D01*
X115964D01*
Y83985D01*
X115875D01*
Y84007D01*
X115676D01*
Y84029D01*
X115631D01*
Y84007D01*
X115410D01*
Y83985D01*
X115321D01*
Y83963D01*
X115255D01*
Y83941D01*
X115188D01*
Y83919D01*
X115144D01*
Y83896D01*
X115100D01*
Y83874D01*
X115055D01*
Y83852D01*
X115033D01*
Y83830D01*
X114989D01*
Y83808D01*
X114944D01*
Y83786D01*
X114922D01*
Y83764D01*
X114900D01*
Y83741D01*
X114878D01*
Y83719D01*
X114856D01*
Y83697D01*
X114812D01*
Y83675D01*
X114789D01*
Y83653D01*
X114767D01*
Y83631D01*
Y83608D01*
X114745D01*
Y83586D01*
X114723D01*
Y83564D01*
X114701D01*
Y83542D01*
X114679D01*
Y83520D01*
Y83498D01*
X114656D01*
Y83475D01*
X114634D01*
Y83453D01*
Y83431D01*
X114612D01*
Y83409D01*
X114590D01*
Y83387D01*
Y83365D01*
X114568D01*
Y83343D01*
Y83320D01*
X114546D01*
Y83298D01*
Y83276D01*
Y83254D01*
X114523D01*
Y83232D01*
Y83210D01*
X114501D01*
Y83187D01*
Y83165D01*
Y83143D01*
Y83121D01*
X114479D01*
Y83099D01*
Y83077D01*
Y83054D01*
Y83032D01*
X114457D01*
Y83010D01*
Y82988D01*
Y82966D01*
Y82944D01*
Y82922D01*
Y82899D01*
Y82877D01*
Y82855D01*
Y82833D01*
Y82811D01*
Y82789D01*
Y82766D01*
Y82744D01*
Y82722D01*
Y82700D01*
Y82678D01*
Y82656D01*
Y82634D01*
Y82611D01*
X114479D01*
Y82589D01*
Y82567D01*
Y82545D01*
Y82523D01*
X114501D01*
Y82501D01*
Y82478D01*
Y82456D01*
Y82434D01*
X114523D01*
Y82412D01*
Y82390D01*
X114546D01*
Y82368D01*
Y82345D01*
Y82323D01*
X114568D01*
Y82301D01*
Y82279D01*
X114590D01*
Y82257D01*
Y82235D01*
X114612D01*
Y82213D01*
X114634D01*
Y82190D01*
Y82168D01*
X114656D01*
Y82146D01*
X114679D01*
Y82124D01*
Y82102D01*
X114701D01*
Y82080D01*
X114723D01*
Y82057D01*
X114745D01*
Y82035D01*
X114767D01*
Y82013D01*
X114789D01*
Y81991D01*
X114812D01*
Y81969D01*
X114834D01*
Y81947D01*
X114856D01*
Y81924D01*
X114878D01*
Y81902D01*
X114900D01*
Y81880D01*
X114922D01*
Y81858D01*
X114967D01*
Y81836D01*
X114989D01*
Y81814D01*
X115011D01*
Y81792D01*
X115055D01*
Y81769D01*
X115077D01*
Y81747D01*
X115122D01*
Y81725D01*
X115166D01*
Y81703D01*
Y81681D01*
X115188D01*
Y81659D01*
Y81636D01*
X115166D01*
Y81614D01*
Y81592D01*
Y81570D01*
X115144D01*
Y81548D01*
Y81526D01*
X115122D01*
Y81503D01*
Y81481D01*
X115100D01*
Y81459D01*
Y81437D01*
Y81415D01*
X115077D01*
Y81393D01*
Y81371D01*
X115055D01*
Y81348D01*
Y81326D01*
Y81304D01*
X115033D01*
Y81282D01*
Y81260D01*
X115011D01*
Y81238D01*
Y81215D01*
Y81193D01*
X114989D01*
Y81171D01*
Y81149D01*
X114967D01*
Y81127D01*
Y81105D01*
X114944D01*
Y81082D01*
Y81060D01*
Y81038D01*
X114922D01*
Y81016D01*
Y80994D01*
X114900D01*
Y80972D01*
Y80950D01*
Y80927D01*
X114878D01*
Y80905D01*
Y80883D01*
X114856D01*
Y80861D01*
Y80839D01*
X114834D01*
Y80817D01*
Y80794D01*
Y80772D01*
X114812D01*
Y80750D01*
Y80728D01*
X114789D01*
Y80706D01*
Y80684D01*
Y80662D01*
X114767D01*
Y80639D01*
Y80617D01*
X114745D01*
Y80595D01*
Y80573D01*
X114723D01*
Y80551D01*
Y80529D01*
Y80506D01*
X114701D01*
Y80484D01*
Y80462D01*
X114679D01*
Y80440D01*
Y80418D01*
Y80396D01*
X114656D01*
Y80373D01*
Y80351D01*
X114634D01*
Y80329D01*
Y80307D01*
Y80285D01*
X114612D01*
Y80263D01*
Y80241D01*
X114590D01*
Y80218D01*
Y80196D01*
X114568D01*
Y80174D01*
Y80152D01*
Y80130D01*
X114546D01*
Y80108D01*
Y80085D01*
X114523D01*
Y80063D01*
Y80041D01*
Y80019D01*
X114501D01*
Y79997D01*
Y79975D01*
X114479D01*
Y79952D01*
Y79930D01*
X114457D01*
Y79908D01*
Y79886D01*
Y79864D01*
X114435D01*
Y79842D01*
Y79820D01*
X114413D01*
Y79797D01*
Y79775D01*
X114324D01*
Y79797D01*
X114280D01*
Y79820D01*
X114235D01*
Y79842D01*
X114191D01*
Y79864D01*
X114147D01*
Y79886D01*
X114102D01*
Y79908D01*
X114058D01*
Y79930D01*
X114036D01*
Y79952D01*
X113992D01*
Y79975D01*
X113903D01*
Y79952D01*
X113859D01*
Y79930D01*
X113837D01*
Y79908D01*
X113814D01*
Y79886D01*
X113770D01*
Y79864D01*
X113748D01*
Y79842D01*
X113704D01*
Y79820D01*
X113681D01*
Y79797D01*
X113637D01*
Y79775D01*
X113615D01*
Y79753D01*
X113571D01*
Y79731D01*
X113549D01*
Y79709D01*
X113504D01*
Y79687D01*
X113482D01*
Y79664D01*
X113438D01*
Y79642D01*
X113416D01*
Y79620D01*
X113393D01*
Y79598D01*
X113349D01*
Y79576D01*
X113327D01*
Y79554D01*
X113283D01*
Y79531D01*
X113260D01*
Y79509D01*
X113216D01*
Y79487D01*
X113194D01*
Y79465D01*
X113150D01*
Y79443D01*
X113128D01*
Y79421D01*
X113083D01*
Y79399D01*
X113061D01*
Y79376D01*
X112995D01*
Y79399D01*
X112972D01*
Y79421D01*
X112950D01*
Y79443D01*
X112928D01*
Y79465D01*
X112906D01*
Y79487D01*
X112884D01*
Y79509D01*
X112862D01*
Y79531D01*
X112840D01*
Y79554D01*
X112817D01*
Y79576D01*
X112795D01*
Y79598D01*
X112773D01*
Y79620D01*
X112751D01*
Y79642D01*
X112729D01*
Y79664D01*
X112707D01*
Y79687D01*
X112684D01*
Y79709D01*
X112662D01*
Y79731D01*
X112640D01*
Y79753D01*
X112618D01*
Y79775D01*
X112596D01*
Y79797D01*
X112574D01*
Y79820D01*
X112551D01*
Y79842D01*
X112529D01*
Y79864D01*
X112507D01*
Y79886D01*
X112485D01*
Y79908D01*
X112463D01*
Y79930D01*
X112441D01*
Y79952D01*
X112419D01*
Y79975D01*
X112396D01*
Y79997D01*
X112374D01*
Y80019D01*
X112352D01*
Y80041D01*
X112330D01*
Y80063D01*
X112308D01*
Y80085D01*
X112286D01*
Y80108D01*
X112263D01*
Y80130D01*
X112241D01*
Y80152D01*
X112219D01*
Y80174D01*
X112197D01*
Y80196D01*
Y80218D01*
Y80241D01*
Y80263D01*
X112219D01*
Y80285D01*
X112241D01*
Y80307D01*
X112263D01*
Y80329D01*
Y80351D01*
X112286D01*
Y80373D01*
X112308D01*
Y80396D01*
Y80418D01*
X112330D01*
Y80440D01*
X112352D01*
Y80462D01*
Y80484D01*
X112374D01*
Y80506D01*
X112396D01*
Y80529D01*
Y80551D01*
X112419D01*
Y80573D01*
X112441D01*
Y80595D01*
Y80617D01*
X112463D01*
Y80639D01*
X112485D01*
Y80662D01*
X112507D01*
Y80684D01*
Y80706D01*
X112529D01*
Y80728D01*
X112551D01*
Y80750D01*
Y80772D01*
X112574D01*
Y80794D01*
X112596D01*
Y80817D01*
Y80839D01*
X112618D01*
Y80861D01*
X112640D01*
Y80883D01*
Y80905D01*
X112662D01*
Y80927D01*
X112684D01*
Y80950D01*
Y80972D01*
X112707D01*
Y80994D01*
X112729D01*
Y81016D01*
X112751D01*
Y81038D01*
Y81060D01*
X112773D01*
Y81082D01*
X112795D01*
Y81105D01*
Y81127D01*
Y81149D01*
Y81171D01*
Y81193D01*
Y81215D01*
X112773D01*
Y81238D01*
Y81260D01*
X112751D01*
Y81282D01*
Y81304D01*
Y81326D01*
X112729D01*
Y81348D01*
Y81371D01*
X112707D01*
Y81393D01*
Y81415D01*
Y81437D01*
X112684D01*
Y81459D01*
Y81481D01*
X112662D01*
Y81503D01*
Y81526D01*
Y81548D01*
X112640D01*
Y81570D01*
Y81592D01*
X112618D01*
Y81614D01*
Y81636D01*
Y81659D01*
X112596D01*
Y81681D01*
Y81703D01*
X112574D01*
Y81725D01*
Y81747D01*
Y81769D01*
X112551D01*
Y81792D01*
Y81814D01*
X112529D01*
Y81836D01*
Y81858D01*
Y81880D01*
X112507D01*
Y81902D01*
Y81924D01*
X112485D01*
Y81947D01*
Y81969D01*
Y81991D01*
X112463D01*
Y82013D01*
X112441D01*
Y82035D01*
X112330D01*
Y82057D01*
X112219D01*
Y82080D01*
X112108D01*
Y82102D01*
X111975D01*
Y82124D01*
X111865D01*
Y82146D01*
X111754D01*
Y82168D01*
X111621D01*
Y82190D01*
X111510D01*
Y82213D01*
X111377D01*
Y82235D01*
X111355D01*
Y82257D01*
X111333D01*
Y82279D01*
Y82301D01*
Y82323D01*
Y82345D01*
Y82368D01*
Y82390D01*
Y82412D01*
Y82434D01*
Y82456D01*
Y82478D01*
Y82501D01*
Y82523D01*
Y82545D01*
Y82567D01*
Y82589D01*
Y82611D01*
Y82634D01*
Y82656D01*
Y82678D01*
Y82700D01*
Y82722D01*
Y82744D01*
Y82766D01*
Y82789D01*
Y82811D01*
Y82833D01*
Y82855D01*
Y82877D01*
Y82899D01*
Y82922D01*
Y82944D01*
Y82966D01*
Y82988D01*
Y83010D01*
Y83032D01*
Y83054D01*
Y83077D01*
Y83099D01*
Y83121D01*
Y83143D01*
Y83165D01*
Y83187D01*
Y83210D01*
Y83232D01*
Y83254D01*
Y83276D01*
Y83298D01*
Y83320D01*
Y83343D01*
Y83365D01*
Y83387D01*
Y83409D01*
X111355D01*
Y83431D01*
X111421D01*
Y83453D01*
X111554D01*
Y83475D01*
X111665D01*
Y83498D01*
X111776D01*
Y83520D01*
X111909D01*
Y83542D01*
X112020D01*
Y83564D01*
X112153D01*
Y83586D01*
X112263D01*
Y83608D01*
X112396D01*
Y83631D01*
X112463D01*
Y83653D01*
X112485D01*
Y83675D01*
X112507D01*
Y83697D01*
Y83719D01*
X112529D01*
Y83741D01*
Y83764D01*
X112551D01*
Y83786D01*
Y83808D01*
Y83830D01*
X112574D01*
Y83852D01*
Y83874D01*
X112596D01*
Y83896D01*
Y83919D01*
X112618D01*
Y83941D01*
Y83963D01*
Y83985D01*
X112640D01*
Y84007D01*
Y84029D01*
X112662D01*
Y84052D01*
Y84074D01*
X112684D01*
Y84096D01*
Y84118D01*
Y84140D01*
X112707D01*
Y84162D01*
Y84185D01*
X112729D01*
Y84207D01*
Y84229D01*
X112751D01*
Y84251D01*
Y84273D01*
Y84295D01*
X112773D01*
Y84317D01*
Y84340D01*
X112795D01*
Y84362D01*
Y84384D01*
X112817D01*
Y84406D01*
Y84428D01*
Y84450D01*
X112840D01*
Y84473D01*
Y84495D01*
X112817D01*
Y84517D01*
Y84539D01*
X112795D01*
Y84561D01*
X112773D01*
Y84583D01*
Y84606D01*
X112751D01*
Y84628D01*
X112729D01*
Y84650D01*
Y84672D01*
X112707D01*
Y84694D01*
X112684D01*
Y84716D01*
Y84738D01*
X112662D01*
Y84761D01*
X112640D01*
Y84783D01*
X112618D01*
Y84805D01*
Y84827D01*
X112596D01*
Y84849D01*
X112574D01*
Y84871D01*
Y84894D01*
X112551D01*
Y84916D01*
X112529D01*
Y84938D01*
Y84960D01*
X112507D01*
Y84982D01*
X112485D01*
Y85004D01*
Y85026D01*
X112463D01*
Y85049D01*
X112441D01*
Y85071D01*
Y85093D01*
X112419D01*
Y85115D01*
X112396D01*
Y85137D01*
X112374D01*
Y85159D01*
Y85182D01*
X112352D01*
Y85204D01*
X112330D01*
Y85226D01*
Y85248D01*
X112308D01*
Y85270D01*
X112286D01*
Y85292D01*
Y85315D01*
X112263D01*
Y85337D01*
X112241D01*
Y85359D01*
Y85381D01*
X112219D01*
Y85403D01*
X112197D01*
Y85425D01*
Y85447D01*
Y85470D01*
Y85492D01*
X112219D01*
Y85514D01*
X112241D01*
Y85536D01*
X112263D01*
Y85558D01*
X112286D01*
Y85580D01*
X112308D01*
Y85603D01*
X112330D01*
Y85625D01*
X112352D01*
Y85647D01*
X112374D01*
Y85669D01*
X112396D01*
Y85691D01*
X112419D01*
Y85713D01*
X112441D01*
Y85736D01*
X112463D01*
Y85758D01*
X112485D01*
Y85780D01*
X112507D01*
Y85802D01*
X112529D01*
Y85824D01*
X112551D01*
Y85846D01*
X112574D01*
Y85868D01*
X112596D01*
Y85891D01*
X112618D01*
Y85913D01*
X112640D01*
Y85935D01*
X112662D01*
Y85957D01*
X112684D01*
Y85979D01*
X112707D01*
Y86001D01*
X112729D01*
Y86024D01*
X112751D01*
Y86046D01*
X112773D01*
Y86068D01*
X112795D01*
Y86090D01*
X112817D01*
Y86112D01*
X112840D01*
Y86134D01*
X112862D01*
Y86157D01*
X112884D01*
Y86179D01*
X112906D01*
Y86201D01*
X112928D01*
Y86223D01*
X112950D01*
Y86245D01*
X112972D01*
Y86267D01*
X113083D01*
Y86245D01*
X113105D01*
Y86223D01*
X113150D01*
Y86201D01*
X113172D01*
Y86179D01*
X113216D01*
Y86157D01*
X113238D01*
Y86134D01*
X113283D01*
Y86112D01*
X113305D01*
Y86090D01*
X113349D01*
Y86068D01*
X113371D01*
Y86046D01*
X113393D01*
Y86024D01*
X113438D01*
Y86001D01*
X113460D01*
Y85979D01*
X113504D01*
Y85957D01*
X113526D01*
Y85935D01*
X113571D01*
Y85913D01*
X113593D01*
Y85891D01*
X113637D01*
Y85868D01*
X113659D01*
Y85846D01*
X113704D01*
Y85824D01*
X113726D01*
Y85802D01*
X113770D01*
Y85780D01*
X113792D01*
Y85758D01*
X113814D01*
Y85736D01*
X113859D01*
Y85713D01*
X113881D01*
Y85691D01*
X113925D01*
Y85669D01*
X113947D01*
Y85647D01*
X113992D01*
Y85625D01*
X114058D01*
Y85647D01*
X114102D01*
Y85669D01*
X114169D01*
Y85691D01*
X114213D01*
Y85713D01*
X114280D01*
Y85736D01*
X114324D01*
Y85758D01*
X114391D01*
Y85780D01*
X114435D01*
Y85802D01*
X114479D01*
Y85824D01*
X114546D01*
Y85846D01*
X114590D01*
Y85868D01*
X114656D01*
Y85891D01*
X114701D01*
Y85913D01*
X114767D01*
Y85935D01*
X114812D01*
Y85957D01*
X114834D01*
Y85979D01*
Y86001D01*
Y86024D01*
X114856D01*
Y86046D01*
Y86068D01*
Y86090D01*
Y86112D01*
Y86134D01*
Y86157D01*
X114878D01*
Y86179D01*
Y86201D01*
Y86223D01*
Y86245D01*
Y86267D01*
X114900D01*
Y86289D01*
Y86312D01*
Y86334D01*
Y86356D01*
Y86378D01*
X114922D01*
Y86400D01*
Y86422D01*
Y86445D01*
Y86467D01*
Y86489D01*
Y86511D01*
X114944D01*
Y86533D01*
Y86555D01*
Y86578D01*
Y86600D01*
Y86622D01*
X114967D01*
Y86644D01*
Y86666D01*
Y86688D01*
Y86710D01*
Y86733D01*
X114989D01*
Y86755D01*
Y86777D01*
Y86799D01*
Y86821D01*
Y86843D01*
Y86866D01*
X115011D01*
Y86888D01*
Y86910D01*
Y86932D01*
Y86954D01*
Y86976D01*
X115033D01*
Y86998D01*
Y87021D01*
Y87043D01*
Y87065D01*
Y87087D01*
X115055D01*
Y87109D01*
Y87131D01*
X116230D01*
Y87109D01*
D02*
G37*
D34*
X87750Y114000D02*
Y116000D01*
D37*
X137548Y110600D02*
G03*
X137548Y110600I-898J0D01*
G01*
X170000Y132680D02*
G03*
X170000Y128720I-1500J-1980D01*
G01*
X158100Y132880D02*
G03*
X158100Y128920I-1500J-1980D01*
G01*
X141000Y140300D02*
G03*
X141000Y140300I-3150J0D01*
G01*
X153100Y131100D02*
G03*
X153100Y131100I-3150J0D01*
G01*
X129200Y132400D02*
Y133200D01*
X130100D01*
X129200Y130200D02*
Y131000D01*
Y130200D02*
X130100D01*
X133300Y124675D02*
Y128660D01*
Y124675D02*
X134700D01*
X137900D02*
X139300D01*
Y128650D01*
X137550Y128660D02*
Y129295D01*
X135050D02*
X137550D01*
X135050Y128660D02*
Y129295D01*
X125400Y124675D02*
Y128660D01*
Y124675D02*
X126800D01*
X130000D02*
X131400D01*
Y128650D01*
X129650Y128660D02*
Y129295D01*
X127150D02*
X129650D01*
X127150Y128660D02*
Y129295D01*
X120200Y105825D02*
Y109810D01*
Y105825D02*
X121600D01*
X124800D02*
X126200D01*
Y109800D01*
X124450Y109810D02*
Y110445D01*
X121950D02*
X124450D01*
X121950Y109810D02*
Y110445D01*
X136610Y110560D02*
X136610D01*
X128650Y109350D02*
Y114600D01*
X129650D01*
Y114350D02*
Y114600D01*
X137150Y114350D02*
Y114600D01*
X138150Y109350D02*
X138150Y114600D01*
X128650Y109350D02*
X138150D01*
X137150Y114600D02*
X138150D01*
X136150Y110100D02*
X136610Y110560D01*
X136610D02*
X137150Y111100D01*
X102500Y141210D02*
Y141845D01*
X104300D01*
Y141210D02*
Y141845D01*
X105950Y137225D02*
Y141200D01*
X104550Y137225D02*
X105950D01*
X100850D02*
X102250D01*
X100850D02*
Y141210D01*
X129000Y141185D02*
Y141820D01*
X130800D01*
Y141185D02*
Y141820D01*
X132450Y137200D02*
Y141175D01*
X131050Y137200D02*
X132450D01*
X127350D02*
X128750D01*
X127350D02*
Y141185D01*
X141882Y140572D02*
X153058D01*
Y134984D02*
Y140572D01*
X141882Y134984D02*
Y140572D01*
Y134984D02*
X142390D01*
X152550D02*
X153058D01*
X170000Y128720D02*
Y132680D01*
X126000Y134700D02*
Y135600D01*
X126800D01*
X129000Y134700D02*
Y135600D01*
X128200D02*
X129000D01*
X117150Y112200D02*
Y113100D01*
X117950D01*
X120150Y112200D02*
Y113100D01*
X119350D02*
X120150D01*
X98900Y111800D02*
Y112700D01*
X99700D01*
X101900Y111800D02*
Y112700D01*
X101100D02*
X101900D01*
X120500Y112200D02*
Y113100D01*
X121300D01*
X123500Y112200D02*
Y113100D01*
X122700D02*
X123500D01*
X98550Y111300D02*
Y112200D01*
X97750Y111300D02*
X98550D01*
X95550D02*
Y112200D01*
Y111300D02*
X96350D01*
X95200D02*
Y112200D01*
X94400Y111300D02*
X95200D01*
X92200D02*
Y112200D01*
Y111300D02*
X93000D01*
X114200Y109700D02*
X115100D01*
X114200D02*
Y110500D01*
Y112700D02*
X115100D01*
X114200Y111900D02*
Y112700D01*
X132200Y118750D02*
Y119650D01*
X133000D01*
X135200Y118750D02*
Y119650D01*
X134400D02*
X135200D01*
X135550Y118750D02*
Y119650D01*
X136350D01*
X138550Y118750D02*
Y119650D01*
X137750D02*
X138550D01*
X72000Y121250D02*
Y133250D01*
Y121250D02*
X87000D01*
Y133250D01*
X72000D02*
X87000D01*
X116416Y128500D02*
Y133500D01*
X114384Y128500D02*
X116416D01*
X114384D02*
Y132734D01*
X115150Y133500D01*
X116416D01*
X158100Y128920D02*
Y132880D01*
X109034Y115000D02*
Y120000D01*
X111066D01*
Y115766D02*
Y120000D01*
X110300Y115000D02*
X111066Y115766D01*
X109034Y115000D02*
X110300D01*
X108416Y104250D02*
Y109250D01*
X106384Y104250D02*
X108416D01*
X106384D02*
Y108484D01*
X107150Y109250D01*
X108416D01*
X151816Y119950D02*
Y124950D01*
X149784Y119950D02*
X151816D01*
X149784D02*
Y124184D01*
X150550Y124950D01*
X151816D01*
X130350Y102084D02*
X135350D01*
X130350D02*
Y104116D01*
X134584D01*
X135350Y103350D01*
Y102084D02*
Y103350D01*
X108800Y132700D02*
X109700D01*
X108800D02*
Y133500D01*
Y135700D02*
X109700D01*
X108800Y134900D02*
Y135700D01*
X123500Y134000D02*
X124400D01*
Y133200D02*
Y134000D01*
X123500Y131000D02*
X124400D01*
Y131800D01*
X87200Y120700D02*
X92300D01*
X90100Y116100D02*
Y120700D01*
Y116100D02*
X90400Y115800D01*
X91400D01*
X88800Y120700D02*
X90100D01*
X90900Y116300D02*
X91400Y115800D01*
X90900Y115300D02*
X91400Y115800D01*
X142250Y141200D02*
X146450D01*
X142250Y144400D02*
X146450D01*
X142250Y143800D02*
Y144400D01*
X146450Y143800D02*
Y144400D01*
Y141200D02*
Y141800D01*
X142250Y141200D02*
Y141800D01*
X164308Y92250D02*
X164520Y92038D01*
Y91615D01*
X164308Y91404D01*
X163462D01*
X163250Y91615D01*
Y92038D01*
X163462Y92250D01*
X164308D01*
X163250Y90980D02*
X164520D01*
Y90346D01*
X164308Y90134D01*
X163885D01*
X163673Y90346D01*
Y90980D01*
Y90557D02*
X163250Y90134D01*
Y89711D02*
Y89288D01*
Y89499D01*
X164520D01*
X164308Y89711D01*
X94500Y80300D02*
X94923D01*
X94712D01*
Y81570D01*
X94500Y81358D01*
X96404Y80300D02*
X95558D01*
X96404Y81146D01*
Y81358D01*
X96193Y81570D01*
X95770D01*
X95558Y81358D01*
X96828Y81570D02*
Y80723D01*
X97251Y80300D01*
X97674Y80723D01*
Y81570D01*
X99367D02*
Y80300D01*
X100002D01*
X100213Y80512D01*
Y81358D01*
X100002Y81570D01*
X99367D01*
X101483Y81358D02*
X101271Y81570D01*
X100848D01*
X100636Y81358D01*
Y80512D01*
X100848Y80300D01*
X101271D01*
X101483Y80512D01*
X76846Y81358D02*
X76635Y81570D01*
X76212D01*
X76000Y81358D01*
Y81146D01*
X76212Y80935D01*
X76635D01*
X76846Y80723D01*
Y80512D01*
X76635Y80300D01*
X76212D01*
X76000Y80512D01*
X77270Y81146D02*
Y80512D01*
X77481Y80300D01*
X78116D01*
Y81146D01*
X78539Y79877D02*
Y81146D01*
X79174D01*
X79386Y80935D01*
Y80512D01*
X79174Y80300D01*
X78539D01*
X79809Y79877D02*
Y81146D01*
X80444D01*
X80655Y80935D01*
Y80512D01*
X80444Y80300D01*
X79809D01*
X81078D02*
X81502D01*
X81290D01*
Y81570D01*
X81078D01*
X82136Y81146D02*
Y80512D01*
X82348Y80300D01*
X82983D01*
Y80088D01*
X82771Y79877D01*
X82560D01*
X82983Y80300D02*
Y81146D01*
X84676Y81570D02*
Y80723D01*
X85099Y80300D01*
X85522Y80723D01*
Y81570D01*
X86157Y80300D02*
X86580D01*
X86791Y80512D01*
Y80935D01*
X86580Y81146D01*
X86157D01*
X85945Y80935D01*
Y80512D01*
X86157Y80300D01*
X87215D02*
X87638D01*
X87426D01*
Y81570D01*
X87215D01*
X88484Y81358D02*
Y81146D01*
X88273D01*
X88696D01*
X88484D01*
Y80512D01*
X88696Y80300D01*
X89542Y81146D02*
X89965D01*
X90177Y80935D01*
Y80300D01*
X89542D01*
X89331Y80512D01*
X89542Y80723D01*
X90177D01*
X91023Y79877D02*
X91235D01*
X91447Y80088D01*
Y81146D01*
X90812D01*
X90600Y80935D01*
Y80512D01*
X90812Y80300D01*
X91447D01*
X92505D02*
X92081D01*
X91870Y80512D01*
Y80935D01*
X92081Y81146D01*
X92505D01*
X92716Y80935D01*
Y80723D01*
X91870D01*
X93139Y81146D02*
X93351D01*
Y80935D01*
X93139D01*
Y81146D01*
Y80512D02*
X93351D01*
Y80300D01*
X93139D01*
Y80512D01*
X94500Y83300D02*
Y84146D01*
X94712D01*
X94923Y83935D01*
Y83300D01*
Y83935D01*
X95135Y84146D01*
X95346Y83935D01*
Y83300D01*
X95981Y84146D02*
X96404D01*
X96616Y83935D01*
Y83300D01*
X95981D01*
X95770Y83512D01*
X95981Y83723D01*
X96616D01*
X97039Y84146D02*
X97886Y83300D01*
X97462Y83723D01*
X97886Y84146D01*
X97039Y83300D01*
X98309D02*
Y83512D01*
X98520D01*
Y83300D01*
X98309D01*
X100636D02*
X101060D01*
X100848D01*
Y84570D01*
X100636Y84358D01*
X101694D02*
X101906Y84570D01*
X102329D01*
X102541Y84358D01*
Y83512D01*
X102329Y83300D01*
X101906D01*
X101694Y83512D01*
Y84358D01*
X102964D02*
X103176Y84570D01*
X103599D01*
X103810Y84358D01*
Y83512D01*
X103599Y83300D01*
X103176D01*
X102964Y83512D01*
Y84358D01*
X104233Y84570D02*
Y83723D01*
X104657Y83300D01*
X105080Y83723D01*
Y84570D01*
X77500D02*
X77923D01*
X77712D01*
Y83300D01*
X77500D01*
X77923D01*
X78558D02*
Y84146D01*
X79193D01*
X79404Y83935D01*
Y83300D01*
X79828Y82877D02*
Y84146D01*
X80462D01*
X80674Y83935D01*
Y83512D01*
X80462Y83300D01*
X79828D01*
X81097Y84146D02*
Y83512D01*
X81309Y83300D01*
X81944D01*
Y84146D01*
X82578Y84358D02*
Y84146D01*
X82367D01*
X82790D01*
X82578D01*
Y83512D01*
X82790Y83300D01*
X84694Y84570D02*
Y83723D01*
X85118Y83300D01*
X85541Y83723D01*
Y84570D01*
X86176Y83300D02*
X86599D01*
X86810Y83512D01*
Y83935D01*
X86599Y84146D01*
X86176D01*
X85964Y83935D01*
Y83512D01*
X86176Y83300D01*
X87233D02*
X87657D01*
X87445D01*
Y84570D01*
X87233D01*
X88503Y84358D02*
Y84146D01*
X88291D01*
X88715D01*
X88503D01*
Y83512D01*
X88715Y83300D01*
X89561Y84146D02*
X89984D01*
X90196Y83935D01*
Y83300D01*
X89561D01*
X89349Y83512D01*
X89561Y83723D01*
X90196D01*
X91042Y82877D02*
X91254D01*
X91465Y83088D01*
Y84146D01*
X90831D01*
X90619Y83935D01*
Y83512D01*
X90831Y83300D01*
X91465D01*
X92523D02*
X92100D01*
X91889Y83512D01*
Y83935D01*
X92100Y84146D01*
X92523D01*
X92735Y83935D01*
Y83723D01*
X91889D01*
X93158Y84146D02*
X93370D01*
Y83935D01*
X93158D01*
Y84146D01*
Y83512D02*
X93370D01*
Y83300D01*
X93158D01*
Y83512D01*
X94500Y85800D02*
X94923D01*
X94712D01*
Y87070D01*
X94500Y86858D01*
X96404Y85800D02*
X95558D01*
X96404Y86646D01*
Y86858D01*
X96193Y87070D01*
X95770D01*
X95558Y86858D01*
X96828Y85800D02*
Y86646D01*
X97251Y87070D01*
X97674Y86646D01*
Y85800D01*
Y86435D01*
X96828D01*
X99367Y85800D02*
Y87070D01*
X99790Y86646D01*
X100213Y87070D01*
Y85800D01*
X95346Y89070D02*
X94500D01*
Y88435D01*
X94923Y88646D01*
X95135D01*
X95346Y88435D01*
Y88012D01*
X95135Y87800D01*
X94712D01*
X94500Y88012D01*
X95770Y88646D02*
X96616Y87800D01*
X96193Y88223D01*
X96616Y88646D01*
X95770Y87800D01*
X97886D02*
X97039D01*
X97886Y88646D01*
Y88858D01*
X97674Y89070D01*
X97251D01*
X97039Y88858D01*
X98309D02*
X98520Y89070D01*
X98944D01*
X99155Y88858D01*
Y88012D01*
X98944Y87800D01*
X98520D01*
X98309Y88012D01*
Y88858D01*
X99578Y87800D02*
Y88646D01*
X99790D01*
X100002Y88435D01*
Y87800D01*
Y88435D01*
X100213Y88646D01*
X100425Y88435D01*
Y87800D01*
X100848D02*
Y88646D01*
X101060D01*
X101271Y88435D01*
Y87800D01*
Y88435D01*
X101483Y88646D01*
X101694Y88435D01*
Y87800D01*
X88846Y89070D02*
X88000D01*
Y88435D01*
X88423D01*
X88000D01*
Y87800D01*
X89270Y88646D02*
Y88012D01*
X89481Y87800D01*
X90116D01*
Y88646D01*
X90539Y87800D02*
X91174D01*
X91386Y88012D01*
X91174Y88223D01*
X90751D01*
X90539Y88435D01*
X90751Y88646D01*
X91386D01*
X92444Y87800D02*
X92020D01*
X91809Y88012D01*
Y88435D01*
X92020Y88646D01*
X92444D01*
X92655Y88435D01*
Y88223D01*
X91809D01*
X93078Y88646D02*
X93290D01*
Y88435D01*
X93078D01*
Y88646D01*
Y88012D02*
X93290D01*
Y87800D01*
X93078D01*
Y88012D01*
X97300Y96735D02*
X98146D01*
X97723Y97158D02*
Y96312D01*
X99416Y97370D02*
X98570D01*
Y96735D01*
X98993Y96946D01*
X99204D01*
X99416Y96735D01*
Y96312D01*
X99204Y96100D01*
X98781D01*
X98570Y96312D01*
X99839Y97370D02*
Y96523D01*
X100262Y96100D01*
X100686Y96523D01*
Y97370D01*
X84075Y106900D02*
X84498D01*
X84287D01*
Y108170D01*
X84075Y107958D01*
X85979Y106900D02*
X85133D01*
X85979Y107746D01*
Y107958D01*
X85768Y108170D01*
X85345D01*
X85133Y107958D01*
X86403Y108170D02*
Y107323D01*
X86826Y106900D01*
X87249Y107323D01*
Y108170D01*
X139100Y112500D02*
X139523D01*
X139312D01*
Y113770D01*
X139100Y113558D01*
X140158D02*
X140370Y113770D01*
X140793D01*
X141004Y113558D01*
Y112712D01*
X140793Y112500D01*
X140370D01*
X140158Y112712D01*
Y113558D01*
X141428D02*
X141639Y113770D01*
X142062D01*
X142274Y113558D01*
Y112712D01*
X142062Y112500D01*
X141639D01*
X141428Y112712D01*
Y113558D01*
X142697Y113770D02*
Y112500D01*
Y113135D01*
X143544D01*
Y113770D01*
Y112500D01*
X143967Y113346D02*
X144813D01*
X143967Y112500D01*
X144813D01*
X112700Y97735D02*
X113546D01*
X113123Y98158D02*
Y97312D01*
X113970Y97100D02*
X114393D01*
X114181D01*
Y98370D01*
X113970Y98158D01*
X115028D02*
X115239Y98370D01*
X115662D01*
X115874Y98158D01*
Y97312D01*
X115662Y97100D01*
X115239D01*
X115028Y97312D01*
Y98158D01*
X116297Y98370D02*
Y97523D01*
X116720Y97100D01*
X117144Y97523D01*
Y98370D01*
X159500Y127835D02*
X160346D01*
X159923Y128258D02*
Y127412D01*
X160770D02*
X160981Y127200D01*
X161404D01*
X161616Y127412D01*
Y128258D01*
X161404Y128470D01*
X160981D01*
X160770Y128258D01*
Y128046D01*
X160981Y127835D01*
X161616D01*
X162039Y128470D02*
Y127623D01*
X162462Y127200D01*
X162886Y127623D01*
Y128470D01*
X108346Y95758D02*
X108135Y95970D01*
X107712D01*
X107500Y95758D01*
Y94912D01*
X107712Y94700D01*
X108135D01*
X108346Y94912D01*
Y95335D01*
X107923D01*
X108770Y94700D02*
Y95970D01*
X109616Y94700D01*
Y95970D01*
X110039D02*
Y94700D01*
X110674D01*
X110886Y94912D01*
Y95758D01*
X110674Y95970D01*
X110039D01*
X150846Y127458D02*
X150635Y127670D01*
X150212D01*
X150000Y127458D01*
Y126612D01*
X150212Y126400D01*
X150635D01*
X150846Y126612D01*
Y127035D01*
X150423D01*
X151270Y126400D02*
Y127670D01*
X152116Y126400D01*
Y127670D01*
X152539D02*
Y126400D01*
X153174D01*
X153386Y126612D01*
Y127458D01*
X153174Y127670D01*
X152539D01*
X83500Y77400D02*
Y78670D01*
X84135D01*
X84346Y78458D01*
Y78035D01*
X84135Y77823D01*
X83500D01*
X83923D02*
X84346Y77400D01*
X85404D02*
X84981D01*
X84770Y77612D01*
Y78035D01*
X84981Y78246D01*
X85404D01*
X85616Y78035D01*
Y77823D01*
X84770D01*
X86039Y78246D02*
X86462Y77400D01*
X86886Y78246D01*
X87309Y77400D02*
X87732D01*
X87520D01*
Y78246D01*
X87309D01*
X88367Y77400D02*
X89002D01*
X89213Y77612D01*
X89002Y77823D01*
X88578D01*
X88367Y78035D01*
X88578Y78246D01*
X89213D01*
X89636Y77400D02*
X90060D01*
X89848D01*
Y78246D01*
X89636D01*
X90906Y77400D02*
X91329D01*
X91541Y77612D01*
Y78035D01*
X91329Y78246D01*
X90906D01*
X90694Y78035D01*
Y77612D01*
X90906Y77400D01*
X91964D02*
Y78246D01*
X92599D01*
X92810Y78035D01*
Y77400D01*
X93233Y78246D02*
X93445D01*
Y78035D01*
X93233D01*
Y78246D01*
Y77612D02*
X93445D01*
Y77400D01*
X93233D01*
Y77612D01*
X94500Y77400D02*
X94923D01*
X94712D01*
Y78670D01*
X94500Y78458D01*
X95558Y77400D02*
Y77612D01*
X95770D01*
Y77400D01*
X95558D01*
X96616D02*
X97039D01*
X96828D01*
Y78670D01*
X96616Y78458D01*
X100435Y132550D02*
Y131704D01*
X100858Y132127D02*
X100012D01*
X105335Y132550D02*
Y131704D01*
X105758Y132127D02*
X104912D01*
X138550Y133335D02*
X139396D01*
X138973Y133758D02*
Y132912D01*
D40*
X127350Y133400D02*
G03*
X127350Y133400I-50J0D01*
G01*
X112500Y137000D02*
G03*
X112500Y137000I-100J0D01*
G01*
X118500Y110900D02*
G03*
X118500Y110900I-50J0D01*
G01*
X100250Y110500D02*
G03*
X100250Y110500I-50J0D01*
G01*
X121850Y110900D02*
G03*
X121850Y110900I-50J0D01*
G01*
X97300Y113500D02*
G03*
X97300Y113500I-50J0D01*
G01*
X93950D02*
G03*
X93950Y113500I-50J0D01*
G01*
X116450Y111000D02*
G03*
X116450Y111000I-50J0D01*
G01*
X133550Y117450D02*
G03*
X133550Y117450I-50J0D01*
G01*
X136900D02*
G03*
X136900Y117450I-50J0D01*
G01*
X91525Y105000D02*
G03*
X91525Y105000I-100J0D01*
G01*
X111050Y134000D02*
G03*
X111050Y134000I-50J0D01*
G01*
X122250Y132700D02*
G03*
X122250Y132700I-50J0D01*
G01*
X85425Y100400D02*
X87225D01*
X158450Y131930D02*
X160250D01*
D70*
X131625Y131500D02*
G03*
X131625Y131500I-125J0D01*
G01*
X142360Y134303D02*
G03*
X142390Y134222I-95J-81D01*
G01*
X169895Y133494D02*
G03*
X169895Y133494I-125J0D01*
G01*
X113493Y133794D02*
G03*
X113493Y133794I-125J0D01*
G01*
X158075Y128070D02*
G03*
X158075Y128070I-125J0D01*
G01*
X112207Y114706D02*
G03*
X112207Y114706I-125J0D01*
G01*
X105493Y109544D02*
G03*
X105493Y109544I-125J0D01*
G01*
X148893Y125244D02*
G03*
X148893Y125244I-125J0D01*
G01*
X135769Y105132D02*
G03*
X135769Y105132I-125J0D01*
G01*
D71*
X89750Y117500D02*
G03*
X89750Y117500I-2000J0D01*
G01*
X84750Y113500D02*
G03*
X84750Y113500I-6500J0D01*
G01*
X115100Y119075D02*
Y123060D01*
Y119075D02*
X116500D01*
X122600D02*
X124000D01*
Y123050D01*
X121455Y123060D02*
X122725D01*
X121455D02*
Y123695D01*
X117645D02*
X121455D01*
X117645Y123060D02*
Y123695D01*
X116375Y123060D02*
X117645D01*
X92700Y119075D02*
Y123060D01*
Y119075D02*
X94100D01*
X100200D02*
X101600D01*
Y123050D01*
X99055Y123060D02*
X100325D01*
X99055D02*
Y123695D01*
X95245D02*
X99055D01*
X95245Y123060D02*
Y123695D01*
X93975Y123060D02*
X95245D01*
X80000Y136750D02*
Y141750D01*
Y136750D02*
X89000D01*
Y141750D01*
X80000D02*
X89000D01*
X80000D02*
Y143000D01*
X89000D01*
Y141750D02*
Y143000D01*
X160250Y68250D02*
Y73250D01*
X151250D02*
X160250D01*
X151250Y68250D02*
Y73250D01*
Y68250D02*
X160250D01*
Y67000D02*
Y68250D01*
X151250Y67000D02*
X160250D01*
X151250D02*
Y68250D01*
X170000Y82300D02*
Y104072D01*
X165100D02*
X170000D01*
X165106Y82300D02*
X170000D01*
X165868Y102040D02*
Y104000D01*
X165100Y102040D02*
X165868D01*
X165106Y84260D02*
Y102040D01*
Y84260D02*
X165868D01*
Y82350D02*
Y84260D01*
X165100Y102040D02*
Y104072D01*
X165106Y94420D02*
X165868D01*
Y91880D02*
Y94420D01*
X165106Y91880D02*
X165868D01*
X165106Y82300D02*
Y84260D01*
X113200Y136300D02*
Y142300D01*
X110200D02*
X113200D01*
X110200Y136300D02*
Y142300D01*
Y136300D02*
X113200D01*
X164106Y125420D02*
X164995D01*
Y127452D01*
Y108148D02*
Y110180D01*
X164106D02*
X164995D01*
X164106D02*
Y125420D01*
X164995Y108148D02*
X169440D01*
X164995Y127452D02*
X169440D01*
Y108148D02*
Y127452D01*
X90625Y99700D02*
Y105700D01*
Y99700D02*
X93625D01*
Y105700D01*
X90625D02*
X93625D01*
X161300Y84250D02*
Y86500D01*
X138800Y77000D02*
Y79250D01*
Y84250D02*
Y86500D01*
Y77000D02*
X161300D01*
Y79250D01*
X138800Y86500D02*
X161300D01*
X88500Y114000D02*
X89500D01*
X89750Y113750D01*
X88250Y114250D02*
X88500Y114000D01*
X89000D02*
X89500Y115000D01*
X88500D02*
X89000Y114000D01*
X88500Y115000D02*
X89500D01*
X148500Y74650D02*
X149500D01*
Y67650D02*
Y74650D01*
X148500Y67650D02*
X149500D01*
X143500D02*
X144500D01*
X143500D02*
Y74650D01*
X144500D01*
X136500Y67650D02*
X137500D01*
X136500D02*
Y74650D01*
X137500D01*
X141500D02*
X142500D01*
Y67650D02*
Y74650D01*
X141500Y67650D02*
X142500D01*
X134250Y74650D02*
X135250D01*
Y67650D02*
Y74650D01*
X134250Y67650D02*
X135250D01*
X129250D02*
X130250D01*
X129250D02*
Y74650D01*
X130250D01*
X148000Y113500D02*
X149000D01*
X150500D02*
X151500D01*
X150500Y114500D02*
X151000D01*
X150500Y112500D02*
Y114500D01*
X150000Y112500D02*
X150500D01*
X149000D02*
X150500Y113500D01*
X149000Y114500D02*
X150500Y113500D01*
X149000Y112500D02*
Y114500D01*
X145428Y108460D02*
Y113032D01*
X148222D01*
X151778D02*
X154572D01*
Y108460D02*
Y113032D01*
X145428Y109222D02*
X154572D01*
X145428Y108460D02*
X154572D01*
X143150Y96000D02*
X158150D01*
X159150Y95000D01*
Y94000D02*
Y95000D01*
X142150D02*
X143150Y96000D01*
X142150Y94000D02*
Y95000D01*
X143150Y88000D02*
X158150D01*
X142150Y89000D02*
X143150Y88000D01*
X142150Y89000D02*
Y90000D01*
X158150Y88000D02*
X159150Y89000D01*
Y90000D01*
X134250Y84700D02*
X135250D01*
Y77700D02*
Y84700D01*
X134250Y77700D02*
X135250D01*
X129250D02*
X130250D01*
X129250D02*
Y84700D01*
X130250D01*
X161000Y75862D02*
X162016D01*
X149200D02*
X150216D01*
X149708Y76370D02*
Y75354D01*
X90900Y138000D02*
X91408D01*
X91154D01*
Y139523D01*
X90900Y139270D01*
X93185Y138000D02*
X92170D01*
X93185Y139016D01*
Y139270D01*
X92931Y139523D01*
X92424D01*
X92170Y139270D01*
X93693Y139523D02*
Y138508D01*
X94201Y138000D01*
X94709Y138508D01*
Y139523D01*
X96232D02*
Y138000D01*
X95471D01*
X95217Y138254D01*
Y138762D01*
X95471Y139016D01*
X96232D01*
X97756D02*
X96994D01*
X96740Y138762D01*
Y138254D01*
X96994Y138000D01*
X97756D01*
X90500Y143800D02*
X91833D01*
X91166Y144466D02*
Y143133D01*
X77800Y143800D02*
X79133D01*
X91666Y142020D02*
X91412Y142273D01*
X90904D01*
X90650Y142020D01*
Y141766D01*
X90904Y141512D01*
X91412D01*
X91666Y141258D01*
Y141004D01*
X91412Y140750D01*
X90904D01*
X90650Y141004D01*
X92173Y141766D02*
Y141004D01*
X92427Y140750D01*
X93189D01*
Y141766D01*
X93697Y140242D02*
Y141766D01*
X94459D01*
X94713Y141512D01*
Y141004D01*
X94459Y140750D01*
X93697D01*
X95221Y140242D02*
Y141766D01*
X95982D01*
X96236Y141512D01*
Y141004D01*
X95982Y140750D01*
X95221D01*
X96744D02*
X97252D01*
X96998D01*
Y142273D01*
X96744D01*
X98014Y141766D02*
Y141004D01*
X98268Y140750D01*
X99029D01*
Y140496D01*
X98775Y140242D01*
X98521D01*
X99029Y140750D02*
Y141766D01*
X161300Y75323D02*
Y73800D01*
X162062D01*
X162316Y74054D01*
Y75070D01*
X162062Y75323D01*
X161300D01*
X162823D02*
Y74054D01*
X163077Y73800D01*
X163585D01*
X163839Y74054D01*
Y75323D01*
X164347D02*
X165363D01*
X164855D01*
Y73800D01*
X163270Y124734D02*
X163523Y124988D01*
Y125496D01*
X163270Y125750D01*
X162254D01*
X162000Y125496D01*
Y124988D01*
X162254Y124734D01*
X162762D01*
Y125242D01*
X163343Y118308D02*
X161820D01*
Y117546D01*
X162074Y117292D01*
X163090D01*
X163343Y117546D01*
Y118308D01*
X163090Y111704D02*
X163343Y111958D01*
Y112466D01*
X163090Y112720D01*
X162836D01*
X162582Y112466D01*
Y111958D01*
X162328Y111704D01*
X162074D01*
X161820Y111958D01*
Y112466D01*
X162074Y112720D01*
X139100Y138538D02*
X138084D01*
X138592Y138030D02*
Y139046D01*
X81750Y110750D02*
X80417D01*
X81084Y110084D02*
Y111417D01*
X151200Y129338D02*
X150184D01*
X150692Y128830D02*
Y129846D01*
D72*
X115714Y114300D02*
Y117500D01*
X113886Y114300D02*
X115714D01*
X113886D02*
Y117500D01*
X115714D01*
X143500Y110000D02*
X144500D01*
X143500D02*
Y111500D01*
X142000D02*
X143500D01*
X142000Y110000D02*
Y111500D01*
X140500Y110000D02*
X142000D01*
X140500D02*
Y111500D01*
X139500D02*
X140500D01*
X141474Y120986D02*
Y122814D01*
Y120986D02*
X144751D01*
Y122814D01*
X141474D02*
X144751D01*
X140000Y117500D02*
X160000D01*
X140000Y97500D02*
X160000D01*
Y108000D02*
Y117500D01*
Y97500D02*
Y104000D01*
X140000Y97500D02*
Y104000D01*
Y108000D02*
Y117500D01*
X91911Y117250D02*
X93739D01*
X91911Y114050D02*
Y117250D01*
Y114050D02*
X93739D01*
Y117250D01*
X125786Y120000D02*
Y123200D01*
X127614D01*
Y120000D02*
Y123200D01*
X125786Y120000D02*
X127614D01*
X101200Y127500D02*
Y134500D01*
X97200Y127500D02*
Y134500D01*
X94600Y108186D02*
Y110014D01*
Y108186D02*
X97800D01*
Y110014D01*
X94600D02*
X97800D01*
X133600Y116814D02*
X136800D01*
Y114986D02*
Y116814D01*
X133600Y114986D02*
X136800D01*
X133600D02*
Y116814D01*
X132825Y134086D02*
Y135914D01*
X129625D02*
X132825D01*
X129625Y134086D02*
Y135914D01*
Y134086D02*
X132825D01*
X125014Y127700D02*
Y130900D01*
X123186Y127700D02*
X125014D01*
X123186D02*
Y130900D01*
X125014D01*
X106786Y128900D02*
X108614D01*
X106786Y125700D02*
Y128900D01*
Y125700D02*
X108614D01*
Y128900D01*
X125786Y129600D02*
Y132800D01*
X127614D01*
Y129600D02*
Y132800D01*
X125786Y129600D02*
X127614D01*
X106786Y130400D02*
X108614D01*
Y133600D01*
X106786D02*
X108614D01*
X106786Y130400D02*
Y133600D01*
X115900Y126486D02*
X119100D01*
X115900D02*
Y128314D01*
X119100D01*
Y126486D02*
Y128314D01*
X119286Y134200D02*
X121114D01*
X119286Y131000D02*
Y134200D01*
Y131000D02*
X121114D01*
Y134200D01*
X121286Y127700D02*
Y130900D01*
X123114D01*
Y127700D02*
Y130900D01*
X121286Y127700D02*
X123114D01*
X114800Y133786D02*
Y135614D01*
X111600D02*
X114800D01*
X111600Y133786D02*
Y135614D01*
Y133786D02*
X114800D01*
X108586Y125700D02*
Y128900D01*
X110414D01*
Y125700D02*
Y128900D01*
X108586Y125700D02*
X110414D01*
X96225Y95086D02*
Y96914D01*
X93025D02*
X96225D01*
X93025Y95086D02*
Y96914D01*
Y95086D02*
X96225D01*
X160386Y128980D02*
Y132180D01*
X162214D01*
Y128980D02*
Y132180D01*
X160386Y128980D02*
X162214D01*
X119100Y101386D02*
Y103214D01*
X115900D02*
X119100D01*
X115900Y101386D02*
Y103214D01*
Y101386D02*
X119100D01*
X90800Y125664D02*
X94000D01*
Y123836D02*
Y125664D01*
X90800Y123836D02*
X94000D01*
X90800D02*
Y125664D01*
X119536Y114450D02*
X121364D01*
Y117650D01*
X119536D02*
X121364D01*
X119536Y114450D02*
Y117650D01*
X119564Y114450D02*
Y117650D01*
X117736Y114450D02*
X119564D01*
X117736D02*
Y117650D01*
X119564D01*
X95536Y117250D02*
X97364D01*
X95536Y114050D02*
Y117250D01*
Y114050D02*
X97364D01*
Y117250D01*
X99164Y114050D02*
Y117250D01*
X97336Y114050D02*
X99164D01*
X97336D02*
Y117250D01*
X99164D01*
X101636Y104200D02*
X103464D01*
X101636Y101000D02*
Y104200D01*
Y101000D02*
X103464D01*
Y104200D01*
X101286Y106600D02*
Y109800D01*
X103114D01*
Y106600D02*
Y109800D01*
X101286Y106600D02*
X103114D01*
X93736Y117250D02*
X95564D01*
X93736Y114050D02*
Y117250D01*
Y114050D02*
X95564D01*
Y117250D01*
X105800Y109486D02*
X109000D01*
X105800D02*
Y111314D01*
X109000D01*
Y109486D02*
Y111314D01*
X103486Y101000D02*
X105314D01*
Y104200D01*
X103486D02*
X105314D01*
X103486Y101000D02*
Y104200D01*
X134414Y136500D02*
Y139700D01*
X132586Y136500D02*
X134414D01*
X132586D02*
Y139700D01*
X134414D01*
X156286Y137400D02*
X158114D01*
Y140600D01*
X156286D02*
X158114D01*
X156286Y137400D02*
Y140600D01*
X146464Y128500D02*
Y131700D01*
X144636Y128500D02*
X146464D01*
X144636D02*
Y131700D01*
X146464D01*
X104186Y118835D02*
X106014D01*
X104186Y115635D02*
Y118835D01*
Y115635D02*
X106014D01*
Y118835D01*
X113400Y112836D02*
Y114664D01*
X110200D02*
X113400D01*
X110200Y112836D02*
Y114664D01*
Y112836D02*
X113400D01*
X106200Y102086D02*
X109400D01*
X106200D02*
Y103914D01*
X109400D01*
Y102086D02*
Y103914D01*
X104486Y120200D02*
X106314D01*
Y123400D01*
X104486D02*
X106314D01*
X104486Y120200D02*
Y123400D01*
X114886Y106150D02*
Y109350D01*
X116714D01*
Y106150D02*
Y109350D01*
X114886Y106150D02*
X116714D01*
X124986Y70500D02*
X126814D01*
Y73700D01*
X124986D02*
X126814D01*
X124986Y70500D02*
Y73700D01*
X114864Y106155D02*
Y109355D01*
X113036Y106155D02*
X114864D01*
X113036D02*
Y109355D01*
X114864D01*
X109486Y100900D02*
X111314D01*
Y104100D01*
X109486D02*
X111314D01*
X109486Y100900D02*
Y104100D01*
X111236Y104515D02*
Y107715D01*
X113064D01*
Y104515D02*
Y107715D01*
X111236Y104515D02*
X113064D01*
X160800Y96286D02*
Y98114D01*
Y96286D02*
X164000D01*
Y98114D01*
X160800D02*
X164000D01*
X160800Y100014D02*
X164000D01*
Y98186D02*
Y100014D01*
X160800Y98186D02*
X164000D01*
X160800D02*
Y100014D01*
X161486Y121065D02*
X163314D01*
Y124265D01*
X161486D02*
X163314D01*
X161486Y121065D02*
Y124265D01*
X132486Y121000D02*
Y124200D01*
X134314D01*
Y121000D02*
Y124200D01*
X132486Y121000D02*
X134314D01*
X132725Y107086D02*
Y108914D01*
X129525D02*
X132725D01*
X129525Y107086D02*
Y108914D01*
Y107086D02*
X132725D01*
X132514Y121000D02*
Y124200D01*
X130686Y121000D02*
X132514D01*
X130686D02*
Y124200D01*
X132514D01*
X126786Y70500D02*
X128614D01*
Y73700D01*
X126786D02*
X128614D01*
X126786Y70500D02*
Y73700D01*
X128286Y103000D02*
Y106200D01*
X130114D01*
Y103000D02*
Y106200D01*
X128286Y103000D02*
X130114D01*
X138174Y120986D02*
Y122814D01*
Y120986D02*
X141451D01*
Y122814D01*
X138174D02*
X141451D01*
X134874Y120986D02*
Y122814D01*
Y120986D02*
X138151D01*
Y122814D01*
X134874D02*
X138151D01*
X84835Y96292D02*
X85372Y95396D01*
X84300Y96300D02*
X85375D01*
X85375Y94225D02*
Y95125D01*
Y94225D02*
X87175D01*
X85375Y97225D02*
Y98225D01*
X87175D01*
Y94225D02*
Y98225D01*
X84223Y97443D02*
X85106Y96560D01*
X84223Y97443D02*
X84723Y97277D01*
X84223Y97443D02*
X84390Y96944D01*
X84244Y98170D02*
X84411Y97671D01*
X84244Y98170D02*
X84744Y98004D01*
X84244Y98170D02*
X85127Y97287D01*
X84285Y95375D02*
X85375D01*
X84285D02*
X84835Y96292D01*
X161571Y136503D02*
X162467Y137040D01*
X162475Y136500D02*
Y137575D01*
X160400Y136500D02*
X161300D01*
X160400Y134700D02*
Y136500D01*
X163400D02*
X164400D01*
Y134700D02*
Y136500D01*
X160400Y134700D02*
X164400D01*
X162735Y136769D02*
X163618Y137652D01*
X163452Y137152D02*
X163618Y137652D01*
X163119Y137485D02*
X163618Y137652D01*
X163846Y137464D02*
X164345Y137631D01*
X164179Y137131D02*
X164345Y137631D01*
X163462Y136748D02*
X164345Y137631D01*
X161550Y136500D02*
Y137590D01*
X162467Y137040D01*
X116971Y105203D02*
X117867Y105740D01*
X117875Y105200D02*
Y106275D01*
X115800Y105200D02*
X116700D01*
X115800Y103400D02*
Y105200D01*
X118800D02*
X119800D01*
Y103400D02*
Y105200D01*
X115800Y103400D02*
X119800D01*
X118135Y105469D02*
X119018Y106352D01*
X118852Y105852D02*
X119018Y106352D01*
X118519Y106185D02*
X119018Y106352D01*
X119246Y106164D02*
X119745Y106331D01*
X119579Y105831D02*
X119745Y106331D01*
X118862Y105448D02*
X119745Y106331D01*
X116950Y105200D02*
Y106290D01*
X117867Y105740D01*
X94160Y127017D02*
X94697Y126121D01*
X93625Y127025D02*
X94700D01*
X94700Y124950D02*
Y125850D01*
Y124950D02*
X96500D01*
X94700Y127950D02*
Y128950D01*
X96500D01*
Y124950D02*
Y128950D01*
X93548Y128168D02*
X94431Y127285D01*
X93548Y128168D02*
X94048Y128002D01*
X93548Y128168D02*
X93715Y127669D01*
X93569Y128895D02*
X93736Y128396D01*
X93569Y128895D02*
X94069Y128729D01*
X93569Y128895D02*
X94452Y128012D01*
X93610Y126100D02*
X94700D01*
X93610D02*
X94160Y127017D01*
X155571Y142703D02*
X156467Y143240D01*
X156475Y142700D02*
Y143775D01*
X154400Y142700D02*
X155300D01*
X154400Y140900D02*
Y142700D01*
X157400D02*
X158400D01*
Y140900D02*
Y142700D01*
X154400Y140900D02*
X158400D01*
X156735Y142969D02*
X157618Y143852D01*
X157452Y143352D02*
X157618Y143852D01*
X157119Y143685D02*
X157618Y143852D01*
X157846Y143664D02*
X158345Y143831D01*
X158179Y143331D02*
X158345Y143831D01*
X157462Y142948D02*
X158345Y143831D01*
X155550Y142700D02*
Y143790D01*
X156467Y143240D01*
X85325Y99600D02*
X85525D01*
X85325D02*
Y102400D01*
X87125Y99600D02*
X87325D01*
Y102400D01*
X85325D02*
X85525D01*
X87125D02*
X87325D01*
X160150Y132730D02*
X160350D01*
Y129930D02*
Y132730D01*
X158350D02*
X158550D01*
X158350Y129930D02*
Y132730D01*
X160150Y129930D02*
X160350D01*
X158350D02*
X158550D01*
X106100Y127500D02*
Y134500D01*
X102100Y127500D02*
Y134500D01*
X134550Y134325D02*
Y136675D01*
Y134325D02*
X139650D01*
Y136675D01*
X134550D02*
X139650D01*
X136600Y134100D02*
X143600D01*
X136600Y130100D02*
X143600D01*
X139550Y126525D02*
Y128875D01*
Y126525D02*
X144650D01*
Y128875D01*
X139550D02*
X144650D01*
X146825Y119900D02*
X149175D01*
X146825Y114800D02*
Y119900D01*
Y114800D02*
X149175D01*
Y119900D01*
X133950Y95200D02*
Y97200D01*
Y95200D02*
X137450D01*
Y97200D01*
X133950D02*
X137450D01*
X131350Y124650D02*
Y128150D01*
X133350D01*
Y124650D02*
Y128150D01*
X131350Y124650D02*
X133350D01*
X115050Y122200D02*
Y124200D01*
X111550D02*
X115050D01*
X111550Y122200D02*
Y124200D01*
Y122200D02*
X115050D01*
X91050Y108000D02*
X94550D01*
X91050D02*
Y110000D01*
X94550D01*
Y108000D02*
Y110000D01*
X117300Y133450D02*
X119300D01*
Y136950D01*
X117300D02*
X119300D01*
X117300Y133450D02*
Y136950D01*
X121300Y127450D02*
Y130950D01*
X119300Y127450D02*
X121300D01*
X119300D02*
Y130950D01*
X121300D01*
X109500Y132450D02*
X111500D01*
X109500Y128950D02*
Y132450D01*
Y128950D02*
X111500D01*
Y132450D01*
X112350Y126500D02*
X115850D01*
X112350D02*
Y128500D01*
X115850D01*
Y126500D02*
Y128500D01*
X119300Y127450D02*
X121300D01*
X119300Y123950D02*
Y127450D01*
Y123950D02*
X121300D01*
Y127450D01*
X109200Y111400D02*
X112700D01*
Y109400D02*
Y111400D01*
X109200Y109400D02*
X112700D01*
X109200D02*
Y111400D01*
X121450Y115700D02*
Y117700D01*
Y115700D02*
X124950D01*
Y117700D01*
X121450D02*
X124950D01*
X101100Y114050D02*
Y117550D01*
X99100Y114050D02*
X101100D01*
X99100D02*
Y117550D01*
X101100D01*
X99650Y104200D02*
X101650D01*
X99650Y100700D02*
Y104200D01*
Y100700D02*
X101650D01*
Y104200D01*
X131900Y129950D02*
Y133450D01*
X133900D01*
Y129950D02*
Y133450D01*
X131900Y129950D02*
X133900D01*
X96375Y97200D02*
Y99200D01*
X92875D02*
X96375D01*
X92875Y97200D02*
Y99200D01*
Y97200D02*
X96375D01*
X88025Y99200D02*
X91525D01*
Y97200D02*
Y99200D01*
X88025Y97200D02*
X91525D01*
X88025D02*
Y99200D01*
X157400Y126300D02*
Y128300D01*
X153900D02*
X157400D01*
X153900Y126300D02*
Y128300D01*
Y126300D02*
X157400D01*
X153900Y133500D02*
X157400D01*
X153900D02*
Y135500D01*
X157400D01*
Y133500D02*
Y135500D01*
X113450Y120200D02*
Y122200D01*
X109950D02*
X113450D01*
X109950Y120200D02*
Y122200D01*
Y120200D02*
X113450D01*
X106650Y112750D02*
X110150D01*
X106650D02*
Y114750D01*
X110150D01*
Y112750D02*
Y114750D01*
X144800Y120950D02*
X146800D01*
X144800Y117450D02*
Y120950D01*
Y117450D02*
X146800D01*
Y120950D01*
X144800Y117450D02*
Y120950D01*
X142800Y117450D02*
X144800D01*
X142800D02*
Y120950D01*
X144800D01*
X109500Y100000D02*
Y102000D01*
X106000D02*
X109500D01*
X106000Y100000D02*
Y102000D01*
Y100000D02*
X109500D01*
X106450Y122200D02*
X109950D01*
Y120200D02*
Y122200D01*
X106450Y120200D02*
X109950D01*
X106450D02*
Y122200D01*
X154800Y122500D02*
X156800D01*
Y126000D01*
X154800D02*
X156800D01*
X154800Y122500D02*
Y126000D01*
X156800Y122500D02*
Y126000D01*
X158800D01*
Y122500D02*
Y126000D01*
X156800Y122500D02*
X158800D01*
X113100Y106150D02*
X115100D01*
X113100Y102650D02*
Y106150D01*
Y102650D02*
X115100D01*
Y106150D01*
X149450Y117900D02*
X152950D01*
X149450D02*
Y119900D01*
X152950D01*
Y117900D02*
Y119900D01*
X132700Y107000D02*
Y109000D01*
Y107000D02*
X136200D01*
Y109000D01*
X132700D02*
X136200D01*
X144800Y121015D02*
Y124515D01*
X146800D01*
Y121015D02*
Y124515D01*
X144800Y121015D02*
X146800D01*
X140800Y120950D02*
X142800D01*
X140800Y117450D02*
Y120950D01*
Y117450D02*
X142800D01*
Y120950D01*
X140800Y117450D02*
Y120950D01*
X138800Y117450D02*
X140800D01*
X138800D02*
Y120950D01*
X140800D01*
X130145Y97200D02*
Y99200D01*
Y97200D02*
X133645D01*
Y99200D01*
X130145D02*
X133645D01*
X127825Y121000D02*
X131325D01*
Y119000D02*
Y121000D01*
X127825Y119000D02*
X131325D01*
X127825D02*
Y121000D01*
X133950Y97200D02*
Y99200D01*
Y97200D02*
X137450D01*
Y99200D01*
X133950D02*
X137450D01*
X144650Y126200D02*
X148150D01*
X144650D02*
Y128200D01*
X148150D01*
Y126200D02*
Y128200D01*
X146300Y125750D02*
X146150Y125900D01*
X145850D01*
X145700Y125750D01*
Y125150D01*
X145850Y125000D01*
X146150D01*
X146300Y125150D01*
X147199Y125000D02*
X146600D01*
X147199Y125600D01*
Y125750D01*
X147050Y125900D01*
X146750D01*
X146600Y125750D01*
X147499D02*
X147649Y125900D01*
X147949D01*
X148099Y125750D01*
Y125600D01*
X147949Y125450D01*
X147799D01*
X147949D01*
X148099Y125300D01*
Y125150D01*
X147949Y125000D01*
X147649D01*
X147499Y125150D01*
X122300Y134350D02*
Y134950D01*
X122150Y135100D01*
X121850D01*
X121700Y134950D01*
Y134350D01*
X121850Y134200D01*
X122150D01*
X122000Y134500D02*
X122300Y134200D01*
X122150D02*
X122300Y134350D01*
X122600Y134200D02*
X122900D01*
X122750D01*
Y135100D01*
X122600Y134950D01*
X123349Y134200D02*
X123649D01*
X123499D01*
Y135100D01*
X123349Y134950D01*
X105200Y135950D02*
Y136550D01*
X105050Y136700D01*
X104750D01*
X104600Y136550D01*
Y135950D01*
X104750Y135800D01*
X105050D01*
X104900Y136100D02*
X105200Y135800D01*
X105050D02*
X105200Y135950D01*
X105500Y135800D02*
X105800D01*
X105650D01*
Y136700D01*
X105500Y136550D01*
X106249D02*
X106399Y136700D01*
X106699D01*
X106849Y136550D01*
Y135950D01*
X106699Y135800D01*
X106399D01*
X106249Y135950D01*
Y136550D01*
X136900Y100250D02*
X136750Y100400D01*
X136450D01*
X136300Y100250D01*
Y99650D01*
X136450Y99500D01*
X136750D01*
X136900Y99650D01*
X137200Y99500D02*
X137500D01*
X137350D01*
Y100400D01*
X137200Y100250D01*
X128600Y118450D02*
X128450Y118600D01*
X128150D01*
X128000Y118450D01*
Y117850D01*
X128150Y117700D01*
X128450D01*
X128600Y117850D01*
X129499Y117700D02*
X128900D01*
X129499Y118300D01*
Y118450D01*
X129350Y118600D01*
X129050D01*
X128900Y118450D01*
X130700Y96750D02*
X130550Y96900D01*
X130250D01*
X130100Y96750D01*
Y96150D01*
X130250Y96000D01*
X130550D01*
X130700Y96150D01*
X131000Y96750D02*
X131150Y96900D01*
X131450D01*
X131600Y96750D01*
Y96600D01*
X131450Y96450D01*
X131300D01*
X131450D01*
X131600Y96300D01*
Y96150D01*
X131450Y96000D01*
X131150D01*
X131000Y96150D01*
X139650Y116600D02*
X139800Y116750D01*
Y117050D01*
X139650Y117200D01*
X139050D01*
X138900Y117050D01*
Y116750D01*
X139050Y116600D01*
X138900Y115850D02*
X139800D01*
X139350Y116300D01*
Y115700D01*
X142050Y116500D02*
X142200Y116650D01*
Y116950D01*
X142050Y117100D01*
X141450D01*
X141300Y116950D01*
Y116650D01*
X141450Y116500D01*
X142200Y115600D02*
Y116200D01*
X141750D01*
X141900Y115900D01*
Y115750D01*
X141750Y115600D01*
X141450D01*
X141300Y115750D01*
Y116050D01*
X141450Y116200D01*
X143500Y125025D02*
X143350Y125175D01*
X143050D01*
X142900Y125025D01*
Y124425D01*
X143050Y124275D01*
X143350D01*
X143500Y124425D01*
X144400Y125175D02*
X144100Y125025D01*
X143800Y124725D01*
Y124425D01*
X143950Y124275D01*
X144250D01*
X144400Y124425D01*
Y124575D01*
X144250Y124725D01*
X143800D01*
X141600Y96250D02*
X141450Y96400D01*
X141150D01*
X141000Y96250D01*
Y95650D01*
X141150Y95500D01*
X141450D01*
X141600Y95650D01*
X141900Y96400D02*
X142499D01*
Y96250D01*
X141900Y95650D01*
Y95500D01*
X137100Y108850D02*
X136950Y109000D01*
X136650D01*
X136500Y108850D01*
Y108250D01*
X136650Y108100D01*
X136950D01*
X137100Y108250D01*
X137400Y108850D02*
X137550Y109000D01*
X137850D01*
X137999Y108850D01*
Y108700D01*
X137850Y108550D01*
X137999Y108400D01*
Y108250D01*
X137850Y108100D01*
X137550D01*
X137400Y108250D01*
Y108400D01*
X137550Y108550D01*
X137400Y108700D01*
Y108850D01*
X137550Y108550D02*
X137850D01*
X153800Y119150D02*
X153650Y119300D01*
X153350D01*
X153200Y119150D01*
Y118550D01*
X153350Y118400D01*
X153650D01*
X153800Y118550D01*
X154100D02*
X154250Y118400D01*
X154550D01*
X154699Y118550D01*
Y119150D01*
X154550Y119300D01*
X154250D01*
X154100Y119150D01*
Y119000D01*
X154250Y118850D01*
X154699D01*
X114350Y101675D02*
X114500Y101825D01*
Y102125D01*
X114350Y102275D01*
X113750D01*
X113600Y102125D01*
Y101825D01*
X113750Y101675D01*
X113600Y101375D02*
Y101075D01*
Y101225D01*
X114500D01*
X114350Y101375D01*
Y100626D02*
X114500Y100476D01*
Y100176D01*
X114350Y100026D01*
X113750D01*
X113600Y100176D01*
Y100476D01*
X113750Y100626D01*
X114350D01*
X158050Y121600D02*
X158200Y121750D01*
Y122050D01*
X158050Y122200D01*
X157450D01*
X157300Y122050D01*
Y121750D01*
X157450Y121600D01*
X157300Y121300D02*
Y121000D01*
Y121150D01*
X158200D01*
X158050Y121300D01*
X157300Y120551D02*
Y120251D01*
Y120401D01*
X158200D01*
X158050Y120551D01*
X156050Y121600D02*
X156200Y121750D01*
Y122050D01*
X156050Y122200D01*
X155450D01*
X155300Y122050D01*
Y121750D01*
X155450Y121600D01*
X155300Y121300D02*
Y121000D01*
Y121150D01*
X156200D01*
X156050Y121300D01*
X155300Y119951D02*
Y120551D01*
X155900Y119951D01*
X156050D01*
X156200Y120101D01*
Y120401D01*
X156050Y120551D01*
X107400Y123250D02*
X107250Y123400D01*
X106950D01*
X106800Y123250D01*
Y122650D01*
X106950Y122500D01*
X107250D01*
X107400Y122650D01*
X107700Y122500D02*
X108000D01*
X107850D01*
Y123400D01*
X107700Y123250D01*
X108449D02*
X108599Y123400D01*
X108899D01*
X109049Y123250D01*
Y123100D01*
X108899Y122950D01*
X108749D01*
X108899D01*
X109049Y122800D01*
Y122650D01*
X108899Y122500D01*
X108599D01*
X108449Y122650D01*
X106725Y98225D02*
X106575Y98375D01*
X106275D01*
X106125Y98225D01*
Y97625D01*
X106275Y97475D01*
X106575D01*
X106725Y97625D01*
X107025Y97475D02*
X107325D01*
X107175D01*
Y98375D01*
X107025Y98225D01*
X108224Y97475D02*
Y98375D01*
X107774Y97925D01*
X108374D01*
X150100Y115750D02*
X149950Y115900D01*
X149650D01*
X149500Y115750D01*
Y115150D01*
X149650Y115000D01*
X149950D01*
X150100Y115150D01*
X150400Y115000D02*
X150700D01*
X150550D01*
Y115900D01*
X150400Y115750D01*
X151749Y115900D02*
X151149D01*
Y115450D01*
X151449Y115600D01*
X151599D01*
X151749Y115450D01*
Y115150D01*
X151599Y115000D01*
X151299D01*
X151149Y115150D01*
X144050Y116500D02*
X144200Y116650D01*
Y116950D01*
X144050Y117100D01*
X143450D01*
X143300Y116950D01*
Y116650D01*
X143450Y116500D01*
X143300Y116200D02*
Y115900D01*
Y116050D01*
X144200D01*
X144050Y116200D01*
X144200Y114851D02*
X144050Y115151D01*
X143750Y115451D01*
X143450D01*
X143300Y115301D01*
Y115001D01*
X143450Y114851D01*
X143600D01*
X143750Y115001D01*
Y115451D01*
X146050Y116500D02*
X146200Y116650D01*
Y116950D01*
X146050Y117100D01*
X145450D01*
X145300Y116950D01*
Y116650D01*
X145450Y116500D01*
X145300Y116200D02*
Y115900D01*
Y116050D01*
X146200D01*
X146050Y116200D01*
X146200Y115451D02*
Y114851D01*
X146050D01*
X145450Y115451D01*
X145300D01*
X104775Y114550D02*
X104625Y114700D01*
X104325D01*
X104175Y114550D01*
Y113950D01*
X104325Y113800D01*
X104625D01*
X104775Y113950D01*
X105075Y113800D02*
X105375D01*
X105225D01*
Y114700D01*
X105075Y114550D01*
X105824D02*
X105974Y114700D01*
X106274D01*
X106424Y114550D01*
Y114400D01*
X106274Y114250D01*
X106424Y114100D01*
Y113950D01*
X106274Y113800D01*
X105974D01*
X105824Y113950D01*
Y114100D01*
X105974Y114250D01*
X105824Y114400D01*
Y114550D01*
X105974Y114250D02*
X106274D01*
X114550Y121400D02*
X114700Y121550D01*
Y121850D01*
X114550Y122000D01*
X113950D01*
X113800Y121850D01*
Y121550D01*
X113950Y121400D01*
X113800Y121100D02*
Y120800D01*
Y120950D01*
X114700D01*
X114550Y121100D01*
X113950Y120351D02*
X113800Y120201D01*
Y119901D01*
X113950Y119751D01*
X114550D01*
X114700Y119901D01*
Y120201D01*
X114550Y120351D01*
X114400D01*
X114250Y120201D01*
Y119751D01*
X149300Y133150D02*
X149150Y133300D01*
X148850D01*
X148700Y133150D01*
Y132550D01*
X148850Y132400D01*
X149150D01*
X149300Y132550D01*
X150199Y132400D02*
X149600D01*
X150199Y133000D01*
Y133150D01*
X150050Y133300D01*
X149750D01*
X149600Y133150D01*
X150499D02*
X150649Y133300D01*
X150949D01*
X151099Y133150D01*
Y132550D01*
X150949Y132400D01*
X150649D01*
X150499Y132550D01*
Y133150D01*
X142350Y129100D02*
X142500Y129250D01*
Y129550D01*
X142350Y129700D01*
X141750D01*
X141600Y129550D01*
Y129250D01*
X141750Y129100D01*
X141600Y128200D02*
Y128800D01*
X142200Y128200D01*
X142350D01*
X142500Y128350D01*
Y128650D01*
X142350Y128800D01*
X141600Y127901D02*
Y127601D01*
Y127751D01*
X142500D01*
X142350Y127901D01*
X141125Y132650D02*
X141275Y132800D01*
Y133100D01*
X141125Y133250D01*
X140525D01*
X140375Y133100D01*
Y132800D01*
X140525Y132650D01*
X140375Y131750D02*
Y132350D01*
X140975Y131750D01*
X141125D01*
X141275Y131900D01*
Y132200D01*
X141125Y132350D01*
X140375Y130851D02*
Y131451D01*
X140975Y130851D01*
X141125D01*
X141275Y131001D01*
Y131301D01*
X141125Y131451D01*
X75400Y105750D02*
X75250Y105900D01*
X74950D01*
X74800Y105750D01*
Y105150D01*
X74950Y105000D01*
X75250D01*
X75400Y105150D01*
X76299Y105000D02*
X75700D01*
X76299Y105600D01*
Y105750D01*
X76150Y105900D01*
X75850D01*
X75700Y105750D01*
X77049Y105000D02*
Y105900D01*
X76599Y105450D01*
X77199D01*
X133700Y143850D02*
X133550Y144000D01*
X133250D01*
X133100Y143850D01*
Y143250D01*
X133250Y143100D01*
X133550D01*
X133700Y143250D01*
X134600Y143100D02*
X134000D01*
X134600Y143700D01*
Y143850D01*
X134450Y144000D01*
X134150D01*
X134000Y143850D01*
X135499Y144000D02*
X134899D01*
Y143550D01*
X135199Y143700D01*
X135349D01*
X135499Y143550D01*
Y143250D01*
X135349Y143100D01*
X135049D01*
X134899Y143250D01*
X154500Y136550D02*
X154350Y136700D01*
X154050D01*
X153900Y136550D01*
Y135950D01*
X154050Y135800D01*
X154350D01*
X154500Y135950D01*
X155400Y135800D02*
X154800D01*
X155400Y136400D01*
Y136550D01*
X155250Y136700D01*
X154950D01*
X154800Y136550D01*
X156299Y136700D02*
X155999Y136550D01*
X155699Y136250D01*
Y135950D01*
X155849Y135800D01*
X156149D01*
X156299Y135950D01*
Y136100D01*
X156149Y136250D01*
X155699D01*
X158200Y126950D02*
X158050Y127100D01*
X157750D01*
X157600Y126950D01*
Y126350D01*
X157750Y126200D01*
X158050D01*
X158200Y126350D01*
X159100Y126200D02*
X158500D01*
X159100Y126800D01*
Y126950D01*
X158950Y127100D01*
X158650D01*
X158500Y126950D01*
X159399Y127100D02*
X159999D01*
Y126950D01*
X159399Y126350D01*
Y126200D01*
X88800Y96650D02*
X88650Y96800D01*
X88350D01*
X88200Y96650D01*
Y96050D01*
X88350Y95900D01*
X88650D01*
X88800Y96050D01*
X89700Y95900D02*
X89100D01*
X89700Y96500D01*
Y96650D01*
X89550Y96800D01*
X89250D01*
X89100Y96650D01*
X89999D02*
X90149Y96800D01*
X90449D01*
X90599Y96650D01*
Y96500D01*
X90449Y96350D01*
X90599Y96200D01*
Y96050D01*
X90449Y95900D01*
X90149D01*
X89999Y96050D01*
Y96200D01*
X90149Y96350D01*
X89999Y96500D01*
Y96650D01*
X90149Y96350D02*
X90449D01*
X94925Y100225D02*
X94775Y100375D01*
X94475D01*
X94325Y100225D01*
Y99625D01*
X94475Y99475D01*
X94775D01*
X94925Y99625D01*
X95825Y99475D02*
X95225D01*
X95825Y100075D01*
Y100225D01*
X95675Y100375D01*
X95375D01*
X95225Y100225D01*
X96124Y99625D02*
X96274Y99475D01*
X96574D01*
X96724Y99625D01*
Y100225D01*
X96574Y100375D01*
X96274D01*
X96124Y100225D01*
Y100075D01*
X96274Y99925D01*
X96724D01*
X140625Y136075D02*
X140775Y136225D01*
Y136525D01*
X140625Y136675D01*
X140025D01*
X139875Y136525D01*
Y136225D01*
X140025Y136075D01*
X140625Y135775D02*
X140775Y135625D01*
Y135325D01*
X140625Y135175D01*
X140475D01*
X140325Y135325D01*
Y135475D01*
Y135325D01*
X140175Y135175D01*
X140025D01*
X139875Y135325D01*
Y135625D01*
X140025Y135775D01*
X140625Y134876D02*
X140775Y134726D01*
Y134426D01*
X140625Y134276D01*
X140025D01*
X139875Y134426D01*
Y134726D01*
X140025Y134876D01*
X140625D01*
X134850Y132300D02*
X135000Y132450D01*
Y132750D01*
X134850Y132900D01*
X134250D01*
X134100Y132750D01*
Y132450D01*
X134250Y132300D01*
X134850Y132000D02*
X135000Y131850D01*
Y131550D01*
X134850Y131400D01*
X134700D01*
X134550Y131550D01*
Y131700D01*
Y131550D01*
X134400Y131400D01*
X134250D01*
X134100Y131550D01*
Y131850D01*
X134250Y132000D01*
X134100Y131101D02*
Y130801D01*
Y130951D01*
X135000D01*
X134850Y131101D01*
X100875Y99825D02*
X101025Y99975D01*
Y100275D01*
X100875Y100425D01*
X100275D01*
X100125Y100275D01*
Y99975D01*
X100275Y99825D01*
X100875Y99525D02*
X101025Y99375D01*
Y99075D01*
X100875Y98925D01*
X100725D01*
X100575Y99075D01*
Y99225D01*
Y99075D01*
X100425Y98925D01*
X100275D01*
X100125Y99075D01*
Y99375D01*
X100275Y99525D01*
X100125Y98026D02*
Y98626D01*
X100725Y98026D01*
X100875D01*
X101025Y98176D01*
Y98476D01*
X100875Y98626D01*
X102100Y116825D02*
X102250Y116975D01*
Y117275D01*
X102100Y117425D01*
X101500D01*
X101350Y117275D01*
Y116975D01*
X101500Y116825D01*
X102100Y116525D02*
X102250Y116375D01*
Y116075D01*
X102100Y115925D01*
X101950D01*
X101800Y116075D01*
Y116225D01*
Y116075D01*
X101650Y115925D01*
X101500D01*
X101350Y116075D01*
Y116375D01*
X101500Y116525D01*
X102100Y115626D02*
X102250Y115476D01*
Y115176D01*
X102100Y115026D01*
X101950D01*
X101800Y115176D01*
Y115326D01*
Y115176D01*
X101650Y115026D01*
X101500D01*
X101350Y115176D01*
Y115476D01*
X101500Y115626D01*
X123800Y118750D02*
X123650Y118900D01*
X123350D01*
X123200Y118750D01*
Y118150D01*
X123350Y118000D01*
X123650D01*
X123800Y118150D01*
X124100Y118750D02*
X124250Y118900D01*
X124550D01*
X124700Y118750D01*
Y118600D01*
X124550Y118450D01*
X124400D01*
X124550D01*
X124700Y118300D01*
Y118150D01*
X124550Y118000D01*
X124250D01*
X124100Y118150D01*
X125449Y118000D02*
Y118900D01*
X124999Y118450D01*
X125599D01*
X109100Y112375D02*
X108950Y112525D01*
X108650D01*
X108500Y112375D01*
Y111775D01*
X108650Y111625D01*
X108950D01*
X109100Y111775D01*
X109400Y112375D02*
X109550Y112525D01*
X109850D01*
X109999Y112375D01*
Y112225D01*
X109850Y112075D01*
X109700D01*
X109850D01*
X109999Y111925D01*
Y111775D01*
X109850Y111625D01*
X109550D01*
X109400Y111775D01*
X110899Y112525D02*
X110299D01*
Y112075D01*
X110599Y112225D01*
X110749D01*
X110899Y112075D01*
Y111775D01*
X110749Y111625D01*
X110449D01*
X110299Y111775D01*
X117100Y124750D02*
X116950Y124900D01*
X116650D01*
X116500Y124750D01*
Y124150D01*
X116650Y124000D01*
X116950D01*
X117100Y124150D01*
X117400Y124750D02*
X117550Y124900D01*
X117850D01*
X117999Y124750D01*
Y124600D01*
X117850Y124450D01*
X117700D01*
X117850D01*
X117999Y124300D01*
Y124150D01*
X117850Y124000D01*
X117550D01*
X117400Y124150D01*
X118899Y124900D02*
X118599Y124750D01*
X118299Y124450D01*
Y124150D01*
X118449Y124000D01*
X118749D01*
X118899Y124150D01*
Y124300D01*
X118749Y124450D01*
X118299D01*
X111850Y127800D02*
X112000Y127950D01*
Y128250D01*
X111850Y128400D01*
X111250D01*
X111100Y128250D01*
Y127950D01*
X111250Y127800D01*
X111850Y127500D02*
X112000Y127350D01*
Y127050D01*
X111850Y126900D01*
X111700D01*
X111550Y127050D01*
Y127200D01*
Y127050D01*
X111400Y126900D01*
X111250D01*
X111100Y127050D01*
Y127350D01*
X111250Y127500D01*
X112000Y126601D02*
Y126001D01*
X111850D01*
X111250Y126601D01*
X111100D01*
X107200Y129950D02*
X107050Y130100D01*
X106750D01*
X106600Y129950D01*
Y129350D01*
X106750Y129200D01*
X107050D01*
X107200Y129350D01*
X107500Y129950D02*
X107650Y130100D01*
X107950D01*
X108100Y129950D01*
Y129800D01*
X107950Y129650D01*
X107800D01*
X107950D01*
X108100Y129500D01*
Y129350D01*
X107950Y129200D01*
X107650D01*
X107500Y129350D01*
X108399Y129950D02*
X108549Y130100D01*
X108849D01*
X108999Y129950D01*
Y129800D01*
X108849Y129650D01*
X108999Y129500D01*
Y129350D01*
X108849Y129200D01*
X108549D01*
X108399Y129350D01*
Y129500D01*
X108549Y129650D01*
X108399Y129800D01*
Y129950D01*
X108549Y129650D02*
X108849D01*
X103000Y126150D02*
X102850Y126300D01*
X102550D01*
X102400Y126150D01*
Y125550D01*
X102550Y125400D01*
X102850D01*
X103000Y125550D01*
X103750Y125400D02*
Y126300D01*
X103300Y125850D01*
X103899D01*
X104199Y126150D02*
X104349Y126300D01*
X104649D01*
X104799Y126150D01*
Y125550D01*
X104649Y125400D01*
X104349D01*
X104199Y125550D01*
Y126150D01*
X119500Y138050D02*
X119350Y138200D01*
X119050D01*
X118900Y138050D01*
Y137450D01*
X119050Y137300D01*
X119350D01*
X119500Y137450D01*
X120250Y137300D02*
Y138200D01*
X119800Y137750D01*
X120399D01*
X120699Y137300D02*
X120999D01*
X120849D01*
Y138200D01*
X120699Y138050D01*
X128350Y86125D02*
Y85225D01*
X128800D01*
X128950Y85375D01*
Y85975D01*
X128800Y86125D01*
X128350D01*
X129250Y85225D02*
X129550D01*
X129400D01*
Y86125D01*
X129250Y85975D01*
X156050Y112450D02*
X155150D01*
Y112000D01*
X155300Y111850D01*
X155900D01*
X156050Y112000D01*
Y112450D01*
X155150Y110950D02*
Y111550D01*
X155750Y110950D01*
X155900D01*
X156050Y111100D01*
Y111400D01*
X155900Y111550D01*
X127400Y66800D02*
Y65900D01*
X127850D01*
X128000Y66050D01*
Y66650D01*
X127850Y66800D01*
X127400D01*
X128300Y66650D02*
X128450Y66800D01*
X128750D01*
X128900Y66650D01*
Y66500D01*
X128750Y66350D01*
X128600D01*
X128750D01*
X128900Y66200D01*
Y66050D01*
X128750Y65900D01*
X128450D01*
X128300Y66050D01*
X134800Y66800D02*
Y65900D01*
X135250D01*
X135400Y66050D01*
Y66650D01*
X135250Y66800D01*
X134800D01*
X136150Y65900D02*
Y66800D01*
X135700Y66350D01*
X136299D01*
X142000Y66800D02*
Y65900D01*
X142450D01*
X142600Y66050D01*
Y66650D01*
X142450Y66800D01*
X142000D01*
X143499D02*
X142900D01*
Y66350D01*
X143200Y66500D01*
X143350D01*
X143499Y66350D01*
Y66050D01*
X143350Y65900D01*
X143050D01*
X142900Y66050D01*
X158300Y134800D02*
Y133900D01*
X158750D01*
X158900Y134050D01*
Y134650D01*
X158750Y134800D01*
X158300D01*
X159799D02*
X159500Y134650D01*
X159200Y134350D01*
Y134050D01*
X159350Y133900D01*
X159650D01*
X159799Y134050D01*
Y134200D01*
X159650Y134350D01*
X159200D01*
X83500Y103100D02*
Y102200D01*
X83950D01*
X84100Y102350D01*
Y102950D01*
X83950Y103100D01*
X83500D01*
X84400D02*
X84999D01*
Y102950D01*
X84400Y102350D01*
Y102200D01*
X85650Y115075D02*
Y114175D01*
X86100D01*
X86250Y114325D01*
Y114925D01*
X86100Y115075D01*
X85650D01*
X86550Y114925D02*
X86700Y115075D01*
X87000D01*
X87149Y114925D01*
Y114775D01*
X87000Y114625D01*
X87149Y114475D01*
Y114325D01*
X87000Y114175D01*
X86700D01*
X86550Y114325D01*
Y114475D01*
X86700Y114625D01*
X86550Y114775D01*
Y114925D01*
X86700Y114625D02*
X87000D01*
X158600Y142600D02*
Y141700D01*
X159050D01*
X159200Y141850D01*
Y142450D01*
X159050Y142600D01*
X158600D01*
X159500Y141850D02*
X159650Y141700D01*
X159950D01*
X160099Y141850D01*
Y142450D01*
X159950Y142600D01*
X159650D01*
X159500Y142450D01*
Y142300D01*
X159650Y142150D01*
X160099D01*
X93700Y130300D02*
Y129400D01*
X94150D01*
X94300Y129550D01*
Y130150D01*
X94150Y130300D01*
X93700D01*
X94600Y129400D02*
X94900D01*
X94750D01*
Y130300D01*
X94600Y130150D01*
X95349Y129400D02*
X95649D01*
X95499D01*
Y130300D01*
X95349Y130150D01*
X120100Y104700D02*
Y103800D01*
X120550D01*
X120700Y103950D01*
Y104550D01*
X120550Y104700D01*
X120100D01*
X121000Y103800D02*
X121300D01*
X121150D01*
Y104700D01*
X121000Y104550D01*
X122349Y103800D02*
X121749D01*
X122349Y104400D01*
Y104550D01*
X122199Y104700D01*
X121899D01*
X121749Y104550D01*
X161300Y134300D02*
Y133400D01*
X161750D01*
X161900Y133550D01*
Y134150D01*
X161750Y134300D01*
X161300D01*
X162200Y133400D02*
X162500D01*
X162350D01*
Y134300D01*
X162200Y134150D01*
X162949D02*
X163099Y134300D01*
X163399D01*
X163549Y134150D01*
Y134000D01*
X163399Y133850D01*
X163249D01*
X163399D01*
X163549Y133700D01*
Y133550D01*
X163399Y133400D01*
X163099D01*
X162949Y133550D01*
X85350Y93850D02*
Y92950D01*
X85800D01*
X85950Y93100D01*
Y93700D01*
X85800Y93850D01*
X85350D01*
X86250Y92950D02*
X86550D01*
X86400D01*
Y93850D01*
X86250Y93700D01*
X87449Y92950D02*
Y93850D01*
X86999Y93400D01*
X87599D01*
X137525Y86225D02*
X136925D01*
Y85775D01*
X137225D01*
X136925D01*
Y85325D01*
X137825D02*
X138125D01*
X137975D01*
Y86225D01*
X137825Y86075D01*
X134900Y120700D02*
X134300D01*
Y120250D01*
X134600D01*
X134300D01*
Y119800D01*
X135200Y120700D02*
Y119800D01*
X135650D01*
X135799Y119950D01*
Y120100D01*
X135650Y120250D01*
X135200D01*
X135650D01*
X135799Y120400D01*
Y120550D01*
X135650Y120700D01*
X135200D01*
X136099Y119800D02*
X136399D01*
X136249D01*
Y120700D01*
X136099Y120550D01*
X138825Y124025D02*
X138225D01*
Y123575D01*
X138525D01*
X138225D01*
Y123125D01*
X139125Y124025D02*
Y123125D01*
X139575D01*
X139725Y123275D01*
Y123425D01*
X139575Y123575D01*
X139125D01*
X139575D01*
X139725Y123725D01*
Y123875D01*
X139575Y124025D01*
X139125D01*
X140624Y123125D02*
X140024D01*
X140624Y123725D01*
Y123875D01*
X140474Y124025D01*
X140174D01*
X140024Y123875D01*
X135900Y103300D02*
X136200D01*
X136050D01*
Y102400D01*
X135900D01*
X136200D01*
X137250Y103150D02*
X137100Y103300D01*
X136800D01*
X136650Y103150D01*
Y102550D01*
X136800Y102400D01*
X137100D01*
X137250Y102550D01*
X137549Y102400D02*
X137849D01*
X137699D01*
Y103300D01*
X137549Y103150D01*
X152000Y126100D02*
X152300D01*
X152150D01*
Y125200D01*
X152000D01*
X152300D01*
X153350Y125950D02*
X153200Y126100D01*
X152900D01*
X152750Y125950D01*
Y125350D01*
X152900Y125200D01*
X153200D01*
X153350Y125350D01*
X154249Y125200D02*
X153649D01*
X154249Y125800D01*
Y125950D01*
X154099Y126100D01*
X153799D01*
X153649Y125950D01*
X103000Y110800D02*
X103300D01*
X103150D01*
Y109900D01*
X103000D01*
X103300D01*
X104350Y110650D02*
X104200Y110800D01*
X103900D01*
X103750Y110650D01*
Y110050D01*
X103900Y109900D01*
X104200D01*
X104350Y110050D01*
X104649Y110650D02*
X104799Y110800D01*
X105099D01*
X105249Y110650D01*
Y110500D01*
X105099Y110350D01*
X104949D01*
X105099D01*
X105249Y110200D01*
Y110050D01*
X105099Y109900D01*
X104799D01*
X104649Y110050D01*
X103700Y119900D02*
X104000D01*
X103850D01*
Y119000D01*
X103700D01*
X104000D01*
X105050Y119750D02*
X104900Y119900D01*
X104600D01*
X104450Y119750D01*
Y119150D01*
X104600Y119000D01*
X104900D01*
X105050Y119150D01*
X105799Y119000D02*
Y119900D01*
X105349Y119450D01*
X105949D01*
X154000Y133400D02*
Y133100D01*
Y133250D01*
X153100D01*
Y133400D01*
Y133100D01*
X153850Y132050D02*
X154000Y132200D01*
Y132500D01*
X153850Y132650D01*
X153250D01*
X153100Y132500D01*
Y132200D01*
X153250Y132050D01*
X154000Y131151D02*
Y131751D01*
X153550D01*
X153700Y131451D01*
Y131301D01*
X153550Y131151D01*
X153250D01*
X153100Y131301D01*
Y131601D01*
X153250Y131751D01*
X94300Y106000D02*
X94600D01*
X94450D01*
Y105100D01*
X94300D01*
X94600D01*
X95650Y105850D02*
X95500Y106000D01*
X95200D01*
X95050Y105850D01*
Y105250D01*
X95200Y105100D01*
X95500D01*
X95650Y105250D01*
X96549Y106000D02*
X96249Y105850D01*
X95949Y105550D01*
Y105250D01*
X96099Y105100D01*
X96399D01*
X96549Y105250D01*
Y105400D01*
X96399Y105550D01*
X95949D01*
X117000Y136300D02*
Y136000D01*
Y136150D01*
X116100D01*
Y136300D01*
Y136000D01*
X116850Y134950D02*
X117000Y135100D01*
Y135400D01*
X116850Y135550D01*
X116250D01*
X116100Y135400D01*
Y135100D01*
X116250Y134950D01*
X117000Y134651D02*
Y134051D01*
X116850D01*
X116250Y134651D01*
X116100D01*
X71500Y135150D02*
Y134250D01*
X72100D01*
X72400D02*
X72700D01*
X72550D01*
Y135150D01*
X72400Y135000D01*
X147500Y142400D02*
Y141500D01*
X148100D01*
X148999D02*
X148400D01*
X148999Y142100D01*
Y142250D01*
X148850Y142400D01*
X148550D01*
X148400Y142250D01*
X163900Y126450D02*
Y127050D01*
X163750Y127200D01*
X163450D01*
X163300Y127050D01*
Y126450D01*
X163450Y126300D01*
X163750D01*
X163600Y126600D02*
X163900Y126300D01*
X163750D02*
X163900Y126450D01*
X164200Y126300D02*
X164500D01*
X164350D01*
Y127200D01*
X164200Y127050D01*
X137700Y116050D02*
Y116650D01*
X137550Y116800D01*
X137250D01*
X137100Y116650D01*
Y116050D01*
X137250Y115900D01*
X137550D01*
X137400Y116200D02*
X137700Y115900D01*
X137550D02*
X137700Y116050D01*
X138600Y115900D02*
X138000D01*
X138600Y116500D01*
Y116650D01*
X138450Y116800D01*
X138150D01*
X138000Y116650D01*
X132100Y116150D02*
Y116750D01*
X131950Y116900D01*
X131650D01*
X131500Y116750D01*
Y116150D01*
X131650Y116000D01*
X131950D01*
X131800Y116300D02*
X132100Y116000D01*
X131950D02*
X132100Y116150D01*
X132400Y116750D02*
X132550Y116900D01*
X132850D01*
X132999Y116750D01*
Y116600D01*
X132850Y116450D01*
X132700D01*
X132850D01*
X132999Y116300D01*
Y116150D01*
X132850Y116000D01*
X132550D01*
X132400Y116150D01*
X114400Y113150D02*
Y113750D01*
X114250Y113900D01*
X113950D01*
X113800Y113750D01*
Y113150D01*
X113950Y113000D01*
X114250D01*
X114100Y113300D02*
X114400Y113000D01*
X114250D02*
X114400Y113150D01*
X115150Y113000D02*
Y113900D01*
X114700Y113450D01*
X115299D01*
X90900Y110575D02*
Y111175D01*
X90750Y111325D01*
X90450D01*
X90300Y111175D01*
Y110575D01*
X90450Y110425D01*
X90750D01*
X90600Y110725D02*
X90900Y110425D01*
X90750D02*
X90900Y110575D01*
X91799Y111325D02*
X91200D01*
Y110875D01*
X91500Y111025D01*
X91650D01*
X91799Y110875D01*
Y110575D01*
X91650Y110425D01*
X91350D01*
X91200Y110575D01*
X98700Y109250D02*
Y109850D01*
X98550Y110000D01*
X98250D01*
X98100Y109850D01*
Y109250D01*
X98250Y109100D01*
X98550D01*
X98400Y109400D02*
X98700Y109100D01*
X98550D02*
X98700Y109250D01*
X99600Y110000D02*
X99300Y109850D01*
X99000Y109550D01*
Y109250D01*
X99150Y109100D01*
X99450D01*
X99600Y109250D01*
Y109400D01*
X99450Y109550D01*
X99000D01*
X124400Y112450D02*
Y113050D01*
X124250Y113200D01*
X123950D01*
X123800Y113050D01*
Y112450D01*
X123950Y112300D01*
X124250D01*
X124100Y112600D02*
X124400Y112300D01*
X124250D02*
X124400Y112450D01*
X124700Y113200D02*
X125299D01*
Y113050D01*
X124700Y112450D01*
Y112300D01*
X101700Y113150D02*
Y113750D01*
X101550Y113900D01*
X101250D01*
X101100Y113750D01*
Y113150D01*
X101250Y113000D01*
X101550D01*
X101400Y113300D02*
X101700Y113000D01*
X101550D02*
X101700Y113150D01*
X102000Y113750D02*
X102150Y113900D01*
X102450D01*
X102600Y113750D01*
Y113600D01*
X102450Y113450D01*
X102600Y113300D01*
Y113150D01*
X102450Y113000D01*
X102150D01*
X102000Y113150D01*
Y113300D01*
X102150Y113450D01*
X102000Y113600D01*
Y113750D01*
X102150Y113450D02*
X102450D01*
X116500Y113550D02*
Y114150D01*
X116350Y114300D01*
X116050D01*
X115900Y114150D01*
Y113550D01*
X116050Y113400D01*
X116350D01*
X116200Y113700D02*
X116500Y113400D01*
X116350D02*
X116500Y113550D01*
X116800D02*
X116950Y113400D01*
X117250D01*
X117399Y113550D01*
Y114150D01*
X117250Y114300D01*
X116950D01*
X116800Y114150D01*
Y114000D01*
X116950Y113850D01*
X117399D01*
X107250Y142150D02*
Y142750D01*
X107100Y142900D01*
X106800D01*
X106650Y142750D01*
Y142150D01*
X106800Y142000D01*
X107100D01*
X106950Y142300D02*
X107250Y142000D01*
X107100D02*
X107250Y142150D01*
X107550Y142000D02*
X107850D01*
X107700D01*
Y142900D01*
X107550Y142750D01*
X108899Y142000D02*
X108299D01*
X108899Y142600D01*
Y142750D01*
X108749Y142900D01*
X108449D01*
X108299Y142750D01*
X124900Y136150D02*
Y136750D01*
X124750Y136900D01*
X124450D01*
X124300Y136750D01*
Y136150D01*
X124450Y136000D01*
X124750D01*
X124600Y136300D02*
X124900Y136000D01*
X124750D02*
X124900Y136150D01*
X125200Y136000D02*
X125500D01*
X125350D01*
Y136900D01*
X125200Y136750D01*
X125949D02*
X126099Y136900D01*
X126399D01*
X126549Y136750D01*
Y136600D01*
X126399Y136450D01*
X126249D01*
X126399D01*
X126549Y136300D01*
Y136150D01*
X126399Y136000D01*
X126099D01*
X125949Y136150D01*
X128600Y102600D02*
X129500D01*
Y102150D01*
X129350Y102000D01*
X129050D01*
X128900Y102150D01*
Y102600D01*
Y102300D02*
X128600Y102000D01*
Y101700D02*
Y101400D01*
Y101550D01*
X129500D01*
X129350Y101700D01*
X126900Y74100D02*
Y75000D01*
X127350D01*
X127500Y74850D01*
Y74550D01*
X127350Y74400D01*
X126900D01*
X127200D02*
X127500Y74100D01*
X128400D02*
X127800D01*
X128400Y74700D01*
Y74850D01*
X128250Y75000D01*
X127950D01*
X127800Y74850D01*
X129400Y123200D02*
X130300D01*
Y122750D01*
X130150Y122600D01*
X129850D01*
X129700Y122750D01*
Y123200D01*
Y122900D02*
X129400Y122600D01*
X130150Y122300D02*
X130300Y122150D01*
Y121850D01*
X130150Y121700D01*
X130000D01*
X129850Y121850D01*
Y122000D01*
Y121850D01*
X129700Y121700D01*
X129550D01*
X129400Y121850D01*
Y122150D01*
X129550Y122300D01*
X127700Y108000D02*
Y108900D01*
X128150D01*
X128300Y108750D01*
Y108450D01*
X128150Y108300D01*
X127700D01*
X128000D02*
X128300Y108000D01*
X129199Y108900D02*
X128600D01*
Y108450D01*
X128900Y108600D01*
X129050D01*
X129199Y108450D01*
Y108150D01*
X129050Y108000D01*
X128750D01*
X128600Y108150D01*
X131500Y119800D02*
Y120700D01*
X131950D01*
X132100Y120550D01*
Y120250D01*
X131950Y120100D01*
X131500D01*
X131800D02*
X132100Y119800D01*
X132999Y120700D02*
X132700Y120550D01*
X132400Y120250D01*
Y119950D01*
X132550Y119800D01*
X132850D01*
X132999Y119950D01*
Y120100D01*
X132850Y120250D01*
X132400D01*
X159500Y121300D02*
Y122200D01*
X159950D01*
X160100Y122050D01*
Y121750D01*
X159950Y121600D01*
X159500D01*
X159800D02*
X160100Y121300D01*
X160400Y122050D02*
X160550Y122200D01*
X160850D01*
X160999Y122050D01*
Y121900D01*
X160850Y121750D01*
X160999Y121600D01*
Y121450D01*
X160850Y121300D01*
X160550D01*
X160400Y121450D01*
Y121600D01*
X160550Y121750D01*
X160400Y121900D01*
Y122050D01*
X160550Y121750D02*
X160850D01*
X160875Y100350D02*
Y101250D01*
X161325D01*
X161475Y101100D01*
Y100800D01*
X161325Y100650D01*
X160875D01*
X161175D02*
X161475Y100350D01*
X161775Y100500D02*
X161925Y100350D01*
X162225D01*
X162374Y100500D01*
Y101100D01*
X162225Y101250D01*
X161925D01*
X161775Y101100D01*
Y100950D01*
X161925Y100800D01*
X162374D01*
X163500Y95500D02*
X164400D01*
Y95050D01*
X164250Y94900D01*
X163950D01*
X163800Y95050D01*
Y95500D01*
Y95200D02*
X163500Y94900D01*
Y94600D02*
Y94300D01*
Y94450D01*
X164400D01*
X164250Y94600D01*
Y93851D02*
X164400Y93701D01*
Y93401D01*
X164250Y93251D01*
X163650D01*
X163500Y93401D01*
Y93701D01*
X163650Y93851D01*
X164250D01*
X160800Y95000D02*
Y95900D01*
X161250D01*
X161400Y95750D01*
Y95450D01*
X161250Y95300D01*
X160800D01*
X161100D02*
X161400Y95000D01*
X161700D02*
X162000D01*
X161850D01*
Y95900D01*
X161700Y95750D01*
X162449Y95000D02*
X162749D01*
X162599D01*
Y95900D01*
X162449Y95750D01*
X111725Y104200D02*
X112625D01*
Y103750D01*
X112475Y103600D01*
X112175D01*
X112025Y103750D01*
Y104200D01*
Y103900D02*
X111725Y103600D01*
Y103300D02*
Y103000D01*
Y103150D01*
X112625D01*
X112475Y103300D01*
X111725Y101951D02*
Y102551D01*
X112325Y101951D01*
X112475D01*
X112625Y102101D01*
Y102401D01*
X112475Y102551D01*
X109800Y99700D02*
Y100600D01*
X110250D01*
X110400Y100450D01*
Y100150D01*
X110250Y100000D01*
X109800D01*
X110100D02*
X110400Y99700D01*
X110700D02*
X111000D01*
X110850D01*
Y100600D01*
X110700Y100450D01*
X111449D02*
X111599Y100600D01*
X111899D01*
X112049Y100450D01*
Y100300D01*
X111899Y100150D01*
X111749D01*
X111899D01*
X112049Y100000D01*
Y99850D01*
X111899Y99700D01*
X111599D01*
X111449Y99850D01*
X117075Y109175D02*
X117975D01*
Y108725D01*
X117825Y108575D01*
X117525D01*
X117375Y108725D01*
Y109175D01*
Y108875D02*
X117075Y108575D01*
Y108275D02*
Y107975D01*
Y108125D01*
X117975D01*
X117825Y108275D01*
X117075Y107076D02*
X117975D01*
X117525Y107526D01*
Y106926D01*
X122200Y72700D02*
Y73600D01*
X122650D01*
X122800Y73450D01*
Y73150D01*
X122650Y73000D01*
X122200D01*
X122500D02*
X122800Y72700D01*
X123100D02*
X123400D01*
X123250D01*
Y73600D01*
X123100Y73450D01*
X124449Y73600D02*
X123849D01*
Y73150D01*
X124149Y73300D01*
X124299D01*
X124449Y73150D01*
Y72850D01*
X124299Y72700D01*
X123999D01*
X123849Y72850D01*
X118450Y109175D02*
X119350D01*
Y108725D01*
X119200Y108575D01*
X118900D01*
X118750Y108725D01*
Y109175D01*
Y108875D02*
X118450Y108575D01*
Y108275D02*
Y107975D01*
Y108125D01*
X119350D01*
X119200Y108275D01*
X119350Y106926D02*
X119200Y107226D01*
X118900Y107526D01*
X118600D01*
X118450Y107376D01*
Y107076D01*
X118600Y106926D01*
X118750D01*
X118900Y107076D01*
Y107526D01*
X103200Y123100D02*
X104100D01*
Y122650D01*
X103950Y122500D01*
X103650D01*
X103500Y122650D01*
Y123100D01*
Y122800D02*
X103200Y122500D01*
Y122200D02*
Y121900D01*
Y122050D01*
X104100D01*
X103950Y122200D01*
X104100Y121451D02*
Y120851D01*
X103950D01*
X103350Y121451D01*
X103200D01*
X106100Y98775D02*
Y99675D01*
X106550D01*
X106700Y99525D01*
Y99225D01*
X106550Y99075D01*
X106100D01*
X106400D02*
X106700Y98775D01*
X107000D02*
X107300D01*
X107150D01*
Y99675D01*
X107000Y99525D01*
X107749D02*
X107899Y99675D01*
X108199D01*
X108349Y99525D01*
Y99375D01*
X108199Y99225D01*
X108349Y99075D01*
Y98925D01*
X108199Y98775D01*
X107899D01*
X107749Y98925D01*
Y99075D01*
X107899Y99225D01*
X107749Y99375D01*
Y99525D01*
X107899Y99225D02*
X108199D01*
X111600Y111775D02*
Y112675D01*
X112050D01*
X112200Y112525D01*
Y112225D01*
X112050Y112075D01*
X111600D01*
X111900D02*
X112200Y111775D01*
X112500D02*
X112800D01*
X112650D01*
Y112675D01*
X112500Y112525D01*
X113249Y111925D02*
X113399Y111775D01*
X113699D01*
X113849Y111925D01*
Y112525D01*
X113699Y112675D01*
X113399D01*
X113249Y112525D01*
Y112375D01*
X113399Y112225D01*
X113849D01*
X114000Y117725D02*
Y118625D01*
X114450D01*
X114600Y118475D01*
Y118175D01*
X114450Y118025D01*
X114000D01*
X114300D02*
X114600Y117725D01*
X115499D02*
X114900D01*
X115499Y118325D01*
Y118475D01*
X115350Y118625D01*
X115050D01*
X114900Y118475D01*
X115799D02*
X115949Y118625D01*
X116249D01*
X116399Y118475D01*
Y117875D01*
X116249Y117725D01*
X115949D01*
X115799Y117875D01*
Y118475D01*
X103000Y118300D02*
X103900D01*
Y117850D01*
X103750Y117700D01*
X103450D01*
X103300Y117850D01*
Y118300D01*
Y118000D02*
X103000Y117700D01*
Y116800D02*
Y117400D01*
X103600Y116800D01*
X103750D01*
X103900Y116950D01*
Y117250D01*
X103750Y117400D01*
X103000Y116501D02*
Y116201D01*
Y116351D01*
X103900D01*
X103750Y116501D01*
X144800Y134700D02*
X145700D01*
Y134250D01*
X145550Y134100D01*
X145250D01*
X145100Y134250D01*
Y134700D01*
Y134400D02*
X144800Y134100D01*
Y133200D02*
Y133800D01*
X145400Y133200D01*
X145550D01*
X145700Y133350D01*
Y133650D01*
X145550Y133800D01*
X144800Y132301D02*
Y132901D01*
X145400Y132301D01*
X145550D01*
X145700Y132451D01*
Y132751D01*
X145550Y132901D01*
X158400Y139600D02*
Y140500D01*
X158850D01*
X159000Y140350D01*
Y140050D01*
X158850Y139900D01*
X158400D01*
X158700D02*
X159000Y139600D01*
X159900D02*
X159300D01*
X159900Y140200D01*
Y140350D01*
X159750Y140500D01*
X159450D01*
X159300Y140350D01*
X160199D02*
X160349Y140500D01*
X160649D01*
X160799Y140350D01*
Y140200D01*
X160649Y140050D01*
X160499D01*
X160649D01*
X160799Y139900D01*
Y139750D01*
X160649Y139600D01*
X160349D01*
X160199Y139750D01*
X133100Y142500D02*
X134000D01*
Y142050D01*
X133850Y141900D01*
X133550D01*
X133400Y142050D01*
Y142500D01*
Y142200D02*
X133100Y141900D01*
Y141000D02*
Y141600D01*
X133700Y141000D01*
X133850D01*
X134000Y141150D01*
Y141450D01*
X133850Y141600D01*
X133100Y140251D02*
X134000D01*
X133550Y140701D01*
Y140101D01*
X103900Y100675D02*
X104800D01*
Y100225D01*
X104650Y100075D01*
X104350D01*
X104200Y100225D01*
Y100675D01*
Y100375D02*
X103900Y100075D01*
Y99175D02*
Y99775D01*
X104500Y99175D01*
X104650D01*
X104800Y99325D01*
Y99625D01*
X104650Y99775D01*
X104800Y98276D02*
Y98876D01*
X104350D01*
X104500Y98576D01*
Y98426D01*
X104350Y98276D01*
X104050D01*
X103900Y98426D01*
Y98726D01*
X104050Y98876D01*
X105400Y111475D02*
Y112375D01*
X105850D01*
X106000Y112225D01*
Y111925D01*
X105850Y111775D01*
X105400D01*
X105700D02*
X106000Y111475D01*
X106899D02*
X106300D01*
X106899Y112075D01*
Y112225D01*
X106750Y112375D01*
X106450D01*
X106300Y112225D01*
X107799Y112375D02*
X107499Y112225D01*
X107199Y111925D01*
Y111625D01*
X107349Y111475D01*
X107649D01*
X107799Y111625D01*
Y111775D01*
X107649Y111925D01*
X107199D01*
X87350Y123475D02*
X88250D01*
Y123025D01*
X88100Y122875D01*
X87800D01*
X87650Y123025D01*
Y123475D01*
Y123175D02*
X87350Y122875D01*
Y121975D02*
Y122575D01*
X87950Y121975D01*
X88100D01*
X88250Y122125D01*
Y122425D01*
X88100Y122575D01*
X88250Y121676D02*
Y121076D01*
X88100D01*
X87500Y121676D01*
X87350D01*
X100100Y109500D02*
X101000D01*
Y109050D01*
X100850Y108900D01*
X100550D01*
X100400Y109050D01*
Y109500D01*
Y109200D02*
X100100Y108900D01*
Y108000D02*
Y108600D01*
X100700Y108000D01*
X100850D01*
X101000Y108150D01*
Y108450D01*
X100850Y108600D01*
Y107701D02*
X101000Y107551D01*
Y107251D01*
X100850Y107101D01*
X100700D01*
X100550Y107251D01*
X100400Y107101D01*
X100250D01*
X100100Y107251D01*
Y107551D01*
X100250Y107701D01*
X100400D01*
X100550Y107551D01*
X100700Y107701D01*
X100850D01*
X100550Y107551D02*
Y107251D01*
X102000Y100625D02*
X102900D01*
Y100175D01*
X102750Y100025D01*
X102450D01*
X102300Y100175D01*
Y100625D01*
Y100325D02*
X102000Y100025D01*
Y99125D02*
Y99725D01*
X102600Y99125D01*
X102750D01*
X102900Y99275D01*
Y99575D01*
X102750Y99725D01*
X102150Y98826D02*
X102000Y98676D01*
Y98376D01*
X102150Y98226D01*
X102750D01*
X102900Y98376D01*
Y98676D01*
X102750Y98826D01*
X102600D01*
X102450Y98676D01*
Y98226D01*
X89950Y123450D02*
X90850D01*
Y123000D01*
X90700Y122850D01*
X90400D01*
X90250Y123000D01*
Y123450D01*
Y123150D02*
X89950Y122850D01*
X90700Y122550D02*
X90850Y122400D01*
Y122100D01*
X90700Y121950D01*
X90550D01*
X90400Y122100D01*
Y122250D01*
Y122100D01*
X90250Y121950D01*
X90100D01*
X89950Y122100D01*
Y122400D01*
X90100Y122550D01*
X90700Y121651D02*
X90850Y121501D01*
Y121201D01*
X90700Y121051D01*
X90100D01*
X89950Y121201D01*
Y121501D01*
X90100Y121651D01*
X90700D01*
X88650Y123450D02*
X89550D01*
Y123000D01*
X89400Y122850D01*
X89100D01*
X88950Y123000D01*
Y123450D01*
Y123150D02*
X88650Y122850D01*
X89400Y122550D02*
X89550Y122400D01*
Y122100D01*
X89400Y121950D01*
X89250D01*
X89100Y122100D01*
Y122250D01*
Y122100D01*
X88950Y121950D01*
X88800D01*
X88650Y122100D01*
Y122400D01*
X88800Y122550D01*
X88650Y121651D02*
Y121351D01*
Y121501D01*
X89550D01*
X89400Y121651D01*
X116500Y117600D02*
X117400D01*
Y117150D01*
X117250Y117000D01*
X116950D01*
X116800Y117150D01*
Y117600D01*
Y117300D02*
X116500Y117000D01*
X117250Y116700D02*
X117400Y116550D01*
Y116250D01*
X117250Y116100D01*
X117100D01*
X116950Y116250D01*
Y116400D01*
Y116250D01*
X116800Y116100D01*
X116650D01*
X116500Y116250D01*
Y116550D01*
X116650Y116700D01*
X116500Y115201D02*
Y115801D01*
X117100Y115201D01*
X117250D01*
X117400Y115351D01*
Y115651D01*
X117250Y115801D01*
X121600Y114400D02*
Y115300D01*
X122050D01*
X122200Y115150D01*
Y114850D01*
X122050Y114700D01*
X121600D01*
X121900D02*
X122200Y114400D01*
X122500Y115150D02*
X122650Y115300D01*
X122950D01*
X123100Y115150D01*
Y115000D01*
X122950Y114850D01*
X122800D01*
X122950D01*
X123100Y114700D01*
Y114550D01*
X122950Y114400D01*
X122650D01*
X122500Y114550D01*
X123399Y115150D02*
X123549Y115300D01*
X123849D01*
X123999Y115150D01*
Y115000D01*
X123849Y114850D01*
X123699D01*
X123849D01*
X123999Y114700D01*
Y114550D01*
X123849Y114400D01*
X123549D01*
X123399Y114550D01*
X90400Y126000D02*
Y126900D01*
X90850D01*
X91000Y126750D01*
Y126450D01*
X90850Y126300D01*
X90400D01*
X90700D02*
X91000Y126000D01*
X91300Y126750D02*
X91450Y126900D01*
X91750D01*
X91899Y126750D01*
Y126600D01*
X91750Y126450D01*
X91600D01*
X91750D01*
X91899Y126300D01*
Y126150D01*
X91750Y126000D01*
X91450D01*
X91300Y126150D01*
X92649Y126000D02*
Y126900D01*
X92199Y126450D01*
X92799D01*
X119400Y101600D02*
Y102500D01*
X119850D01*
X120000Y102350D01*
Y102050D01*
X119850Y101900D01*
X119400D01*
X119700D02*
X120000Y101600D01*
X120300Y102350D02*
X120450Y102500D01*
X120750D01*
X120899Y102350D01*
Y102200D01*
X120750Y102050D01*
X120600D01*
X120750D01*
X120899Y101900D01*
Y101750D01*
X120750Y101600D01*
X120450D01*
X120300Y101750D01*
X121799Y102500D02*
X121199D01*
Y102050D01*
X121499Y102200D01*
X121649D01*
X121799Y102050D01*
Y101750D01*
X121649Y101600D01*
X121349D01*
X121199Y101750D01*
X162400Y132100D02*
X163300D01*
Y131650D01*
X163150Y131500D01*
X162850D01*
X162700Y131650D01*
Y132100D01*
Y131800D02*
X162400Y131500D01*
X163150Y131200D02*
X163300Y131050D01*
Y130750D01*
X163150Y130600D01*
X163000D01*
X162850Y130750D01*
Y130900D01*
Y130750D01*
X162700Y130600D01*
X162550D01*
X162400Y130750D01*
Y131050D01*
X162550Y131200D01*
X163300Y129701D02*
X163150Y130001D01*
X162850Y130301D01*
X162550D01*
X162400Y130151D01*
Y129851D01*
X162550Y129701D01*
X162700D01*
X162850Y129851D01*
Y130301D01*
X93075Y93750D02*
Y94650D01*
X93525D01*
X93675Y94500D01*
Y94200D01*
X93525Y94050D01*
X93075D01*
X93375D02*
X93675Y93750D01*
X93975Y94500D02*
X94125Y94650D01*
X94425D01*
X94575Y94500D01*
Y94350D01*
X94425Y94200D01*
X94275D01*
X94425D01*
X94575Y94050D01*
Y93900D01*
X94425Y93750D01*
X94125D01*
X93975Y93900D01*
X94874Y94650D02*
X95474D01*
Y94500D01*
X94874Y93900D01*
Y93750D01*
X108900Y124500D02*
Y125400D01*
X109350D01*
X109500Y125250D01*
Y124950D01*
X109350Y124800D01*
X108900D01*
X109200D02*
X109500Y124500D01*
X109800Y125250D02*
X109950Y125400D01*
X110250D01*
X110399Y125250D01*
Y125100D01*
X110250Y124950D01*
X110100D01*
X110250D01*
X110399Y124800D01*
Y124650D01*
X110250Y124500D01*
X109950D01*
X109800Y124650D01*
X110699Y125250D02*
X110849Y125400D01*
X111149D01*
X111299Y125250D01*
Y125100D01*
X111149Y124950D01*
X111299Y124800D01*
Y124650D01*
X111149Y124500D01*
X110849D01*
X110699Y124650D01*
Y124800D01*
X110849Y124950D01*
X110699Y125100D01*
Y125250D01*
X110849Y124950D02*
X111149D01*
X111200Y140200D02*
X112100D01*
Y139750D01*
X111950Y139600D01*
X111650D01*
X111500Y139750D01*
Y140200D01*
Y139900D02*
X111200Y139600D01*
X111950Y139300D02*
X112100Y139150D01*
Y138850D01*
X111950Y138700D01*
X111800D01*
X111650Y138850D01*
Y139000D01*
Y138850D01*
X111500Y138700D01*
X111350D01*
X111200Y138850D01*
Y139150D01*
X111350Y139300D01*
Y138401D02*
X111200Y138251D01*
Y137951D01*
X111350Y137801D01*
X111950D01*
X112100Y137951D01*
Y138251D01*
X111950Y138401D01*
X111800D01*
X111650Y138251D01*
Y137801D01*
X121800Y127400D02*
X122700D01*
Y126950D01*
X122550Y126800D01*
X122250D01*
X122100Y126950D01*
Y127400D01*
Y127100D02*
X121800Y126800D01*
Y126050D02*
X122700D01*
X122250Y126500D01*
Y125900D01*
X122550Y125601D02*
X122700Y125451D01*
Y125151D01*
X122550Y125001D01*
X121950D01*
X121800Y125151D01*
Y125451D01*
X121950Y125601D01*
X122550D01*
X119900Y136800D02*
X120800D01*
Y136350D01*
X120650Y136200D01*
X120350D01*
X120200Y136350D01*
Y136800D01*
Y136500D02*
X119900Y136200D01*
Y135450D02*
X120800D01*
X120350Y135900D01*
Y135300D01*
X119900Y135001D02*
Y134701D01*
Y134851D01*
X120800D01*
X120650Y135001D01*
X116000Y125300D02*
Y126200D01*
X116450D01*
X116600Y126050D01*
Y125750D01*
X116450Y125600D01*
X116000D01*
X116300D02*
X116600Y125300D01*
X117350D02*
Y126200D01*
X116900Y125750D01*
X117499D01*
X118399Y125300D02*
X117799D01*
X118399Y125900D01*
Y126050D01*
X118249Y126200D01*
X117949D01*
X117799Y126050D01*
X103700Y130300D02*
Y131200D01*
X104150D01*
X104300Y131050D01*
Y130750D01*
X104150Y130600D01*
X103700D01*
X104000D02*
X104300Y130300D01*
X105050D02*
Y131200D01*
X104600Y130750D01*
X105200D01*
X105499Y131050D02*
X105649Y131200D01*
X105949D01*
X106099Y131050D01*
Y130900D01*
X105949Y130750D01*
X105799D01*
X105949D01*
X106099Y130600D01*
Y130450D01*
X105949Y130300D01*
X105649D01*
X105499Y130450D01*
X124700Y135700D02*
X125600D01*
Y135250D01*
X125450Y135100D01*
X125150D01*
X125000Y135250D01*
Y135700D01*
Y135400D02*
X124700Y135100D01*
Y134350D02*
X125600D01*
X125150Y134800D01*
Y134200D01*
X124700Y133451D02*
X125600D01*
X125150Y133901D01*
Y133301D01*
X105900Y124500D02*
Y125400D01*
X106350D01*
X106500Y125250D01*
Y124950D01*
X106350Y124800D01*
X105900D01*
X106200D02*
X106500Y124500D01*
X107250D02*
Y125400D01*
X106800Y124950D01*
X107399D01*
X108299Y125400D02*
X107699D01*
Y124950D01*
X107999Y125100D01*
X108149D01*
X108299Y124950D01*
Y124650D01*
X108149Y124500D01*
X107849D01*
X107699Y124650D01*
X124000Y127400D02*
X124900D01*
Y126950D01*
X124750Y126800D01*
X124450D01*
X124300Y126950D01*
Y127400D01*
Y127100D02*
X124000Y126800D01*
Y126050D02*
X124900D01*
X124450Y126500D01*
Y125900D01*
X124900Y125001D02*
X124750Y125301D01*
X124450Y125601D01*
X124150D01*
X124000Y125451D01*
Y125151D01*
X124150Y125001D01*
X124300D01*
X124450Y125151D01*
Y125601D01*
X131000Y138700D02*
X131900D01*
Y138250D01*
X131750Y138100D01*
X131450D01*
X131300Y138250D01*
Y138700D01*
Y138400D02*
X131000Y138100D01*
Y137350D02*
X131900D01*
X131450Y137800D01*
Y137200D01*
X131900Y136901D02*
Y136301D01*
X131750D01*
X131150Y136901D01*
X131000D01*
X118500Y140500D02*
Y141400D01*
X118950D01*
X119100Y141250D01*
Y140950D01*
X118950Y140800D01*
X118500D01*
X118800D02*
X119100Y140500D01*
X119850D02*
Y141400D01*
X119400Y140950D01*
X119999D01*
X120299Y141250D02*
X120449Y141400D01*
X120749D01*
X120899Y141250D01*
Y141100D01*
X120749Y140950D01*
X120899Y140800D01*
Y140650D01*
X120749Y140500D01*
X120449D01*
X120299Y140650D01*
Y140800D01*
X120449Y140950D01*
X120299Y141100D01*
Y141250D01*
X120449Y140950D02*
X120749D01*
X166800Y133700D02*
Y134600D01*
X167250D01*
X167400Y134450D01*
Y134150D01*
X167250Y134000D01*
X166800D01*
X167100D02*
X167400Y133700D01*
X167700Y134600D02*
X168299D01*
X168000D01*
Y133700D01*
X168599D02*
X168899D01*
X168749D01*
Y134600D01*
X168599Y134450D01*
X150800Y142000D02*
Y141400D01*
X151100Y141100D01*
X151400Y141400D01*
Y142000D01*
X151700Y141100D02*
Y142000D01*
X152150D01*
X152299Y141850D01*
Y141550D01*
X152150Y141400D01*
X151700D01*
X152000D02*
X152299Y141100D01*
X152599D02*
X152899D01*
X152749D01*
Y142000D01*
X152599Y141850D01*
X160800Y66500D02*
X161400Y65600D01*
Y66500D02*
X160800Y65600D01*
X162150D02*
Y66500D01*
X161700Y66050D01*
X162299D01*
X91000Y135900D02*
X91600Y135000D01*
Y135900D02*
X91000Y135000D01*
X92499Y135900D02*
X91900D01*
Y135450D01*
X92200Y135600D01*
X92350D01*
X92499Y135450D01*
Y135150D01*
X92350Y135000D01*
X92050D01*
X91900Y135150D01*
X99500Y124500D02*
X100100Y123600D01*
Y124500D02*
X99500Y123600D01*
X100999Y124500D02*
X100700Y124350D01*
X100400Y124050D01*
Y123750D01*
X100550Y123600D01*
X100850D01*
X100999Y123750D01*
Y123900D01*
X100850Y124050D01*
X100400D01*
X121900Y124300D02*
X122500Y123400D01*
Y124300D02*
X121900Y123400D01*
X122800Y124300D02*
X123399D01*
Y124150D01*
X122800Y123550D01*
Y123400D01*
X127800Y143500D02*
X128400Y142600D01*
Y143500D02*
X127800Y142600D01*
X128700Y143350D02*
X128850Y143500D01*
X129150D01*
X129299Y143350D01*
Y143200D01*
X129150Y143050D01*
X129299Y142900D01*
Y142750D01*
X129150Y142600D01*
X128850D01*
X128700Y142750D01*
Y142900D01*
X128850Y143050D01*
X128700Y143200D01*
Y143350D01*
X128850Y143050D02*
X129150D01*
X100889Y143495D02*
X101489Y142596D01*
Y143495D02*
X100889Y142596D01*
X101789Y142746D02*
X101938Y142596D01*
X102238D01*
X102388Y142746D01*
Y143345D01*
X102238Y143495D01*
X101938D01*
X101789Y143345D01*
Y143195D01*
X101938Y143045D01*
X102388D01*
X131700Y114500D02*
Y115400D01*
X132150D01*
X132300Y115250D01*
Y114950D01*
X132150Y114800D01*
X131700D01*
X132000D02*
X132300Y114500D01*
X133050D02*
Y115400D01*
X132600Y114950D01*
X133199D01*
X128700Y114900D02*
Y115800D01*
X129150D01*
X129300Y115650D01*
Y115350D01*
X129150Y115200D01*
X128700D01*
X129000D02*
X129300Y114900D01*
X129600Y115800D02*
X130199D01*
Y115650D01*
X129600Y115050D01*
Y114900D01*
X124900Y111500D02*
X125500Y110600D01*
Y111500D02*
X124900Y110600D01*
X125800D02*
X126100D01*
X125950D01*
Y111500D01*
X125800Y111350D01*
X125300Y124425D02*
X125900Y123525D01*
Y124425D02*
X125300Y123525D01*
X126799D02*
X126200D01*
X126799Y124125D01*
Y124275D01*
X126650Y124425D01*
X126350D01*
X126200Y124275D01*
X134375Y130400D02*
X134975Y129500D01*
Y130400D02*
X134375Y129500D01*
X135275Y130250D02*
X135425Y130400D01*
X135725D01*
X135874Y130250D01*
Y130100D01*
X135725Y129950D01*
X135575D01*
X135725D01*
X135874Y129800D01*
Y129650D01*
X135725Y129500D01*
X135425D01*
X135275Y129650D01*
X94900Y107025D02*
Y107925D01*
X95350D01*
X95500Y107775D01*
Y107475D01*
X95350Y107325D01*
X94900D01*
X95200D02*
X95500Y107025D01*
X96250D02*
Y107925D01*
X95800Y107475D01*
X96399D01*
X96699Y107175D02*
X96849Y107025D01*
X97149D01*
X97299Y107175D01*
Y107775D01*
X97149Y107925D01*
X96849D01*
X96699Y107775D01*
Y107625D01*
X96849Y107475D01*
X97299D01*
X91650Y107550D02*
X91500Y107700D01*
X91200D01*
X91050Y107550D01*
Y106950D01*
X91200Y106800D01*
X91500D01*
X91650Y106950D01*
X92400Y106800D02*
Y107700D01*
X91950Y107250D01*
X92549D01*
X93449Y106800D02*
X92849D01*
X93449Y107400D01*
Y107550D01*
X93299Y107700D01*
X92999D01*
X92849Y107550D01*
X98300Y126150D02*
X98150Y126300D01*
X97850D01*
X97700Y126150D01*
Y125550D01*
X97850Y125400D01*
X98150D01*
X98300Y125550D01*
X99050Y125400D02*
Y126300D01*
X98600Y125850D01*
X99200D01*
X99499Y126150D02*
X99649Y126300D01*
X99949D01*
X100099Y126150D01*
Y126000D01*
X99949Y125850D01*
X99799D01*
X99949D01*
X100099Y125700D01*
Y125550D01*
X99949Y125400D01*
X99649D01*
X99499Y125550D01*
X129175Y134150D02*
Y133250D01*
X129625D01*
X129775Y133400D01*
Y134000D01*
X129625Y134150D01*
X129175D01*
X130075Y133250D02*
X130375D01*
X130225D01*
Y134150D01*
X130075Y134000D01*
X130824D02*
X130974Y134150D01*
X131274D01*
X131424Y134000D01*
Y133400D01*
X131274Y133250D01*
X130974D01*
X130824Y133400D01*
Y134000D01*
X113100Y125150D02*
X112950Y125300D01*
X112650D01*
X112500Y125150D01*
Y124550D01*
X112650Y124400D01*
X112950D01*
X113100Y124550D01*
X113850Y124400D02*
Y125300D01*
X113400Y124850D01*
X113999D01*
X114749Y124400D02*
Y125300D01*
X114299Y124850D01*
X114899D01*
X130500Y129750D02*
X130350Y129900D01*
X130050D01*
X129900Y129750D01*
Y129150D01*
X130050Y129000D01*
X130350D01*
X130500Y129150D01*
X131250Y129000D02*
Y129900D01*
X130800Y129450D01*
X131400D01*
X132299Y129900D02*
X131699D01*
Y129450D01*
X131999Y129600D01*
X132149D01*
X132299Y129450D01*
Y129150D01*
X132149Y129000D01*
X131849D01*
X131699Y129150D01*
X124500Y123000D02*
X125400D01*
Y122550D01*
X125250Y122400D01*
X124950D01*
X124800Y122550D01*
Y123000D01*
Y122700D02*
X124500Y122400D01*
X125400Y121500D02*
Y122100D01*
X124950D01*
X125100Y121800D01*
Y121650D01*
X124950Y121500D01*
X124650D01*
X124500Y121650D01*
Y121950D01*
X124650Y122100D01*
X125250Y121201D02*
X125400Y121051D01*
Y120751D01*
X125250Y120601D01*
X124650D01*
X124500Y120751D01*
Y121051D01*
X124650Y121201D01*
X125250D01*
X134600Y94750D02*
X134450Y94900D01*
X134150D01*
X134000Y94750D01*
Y94150D01*
X134150Y94000D01*
X134450D01*
X134600Y94150D01*
X135350Y94000D02*
Y94900D01*
X134900Y94450D01*
X135499D01*
X136399Y94900D02*
X136099Y94750D01*
X135799Y94450D01*
Y94150D01*
X135949Y94000D01*
X136249D01*
X136399Y94150D01*
Y94300D01*
X136249Y94450D01*
X135799D01*
X91200Y123450D02*
X92100D01*
Y123000D01*
X91950Y122850D01*
X91650D01*
X91500Y123000D01*
Y123450D01*
Y123150D02*
X91200Y122850D01*
X92100Y121950D02*
Y122550D01*
X91650D01*
X91800Y122250D01*
Y122100D01*
X91650Y121950D01*
X91350D01*
X91200Y122100D01*
Y122400D01*
X91350Y122550D01*
X91200Y121651D02*
Y121351D01*
Y121501D01*
X92100D01*
X91950Y121651D01*
X139500Y125735D02*
X140346D01*
X140770Y126158D02*
X140981Y126370D01*
X141404D01*
X141616Y126158D01*
Y125946D01*
X141404Y125735D01*
X141193D01*
X141404D01*
X141616Y125523D01*
Y125312D01*
X141404Y125100D01*
X140981D01*
X140770Y125312D01*
X142039Y126370D02*
Y125523D01*
X142462Y125100D01*
X142886Y125523D01*
Y126370D01*
D73*
X98500Y132125D02*
D03*
X103400D02*
D03*
D74*
X138975Y131400D02*
D03*
M02*
