G04 Layer_Color=3509965*
%FSLAX43Y43*%
%MOMM*%
G71*
G01*
G75*
%ADD37C,0.200*%
G04:AMPARAMS|DCode=75|XSize=1.05mm|YSize=1.5mm|CornerRadius=0.142mm|HoleSize=0mm|Usage=FLASHONLY|Rotation=270.000|XOffset=0mm|YOffset=0mm|HoleType=Round|Shape=RoundedRectangle|*
%AMROUNDEDRECTD75*
21,1,1.050,1.215,0,0,270.0*
21,1,0.765,1.500,0,0,270.0*
1,1,0.285,-0.608,-0.383*
1,1,0.285,-0.608,0.383*
1,1,0.285,0.608,0.383*
1,1,0.285,0.608,-0.383*
%
%ADD75ROUNDEDRECTD75*%
%ADD76R,1.100X1.500*%
%ADD77C,2.000*%
%ADD78C,1.200*%
%ADD79R,1.350X0.800*%
%ADD80R,3.200X2.450*%
G04:AMPARAMS|DCode=81|XSize=1.05mm|YSize=1.5mm|CornerRadius=0.142mm|HoleSize=0mm|Usage=FLASHONLY|Rotation=0.000|XOffset=0mm|YOffset=0mm|HoleType=Round|Shape=RoundedRectangle|*
%AMROUNDEDRECTD81*
21,1,1.050,1.215,0,0,0.0*
21,1,0.765,1.500,0,0,0.0*
1,1,0.285,0.383,-0.608*
1,1,0.285,-0.383,-0.608*
1,1,0.285,-0.383,0.608*
1,1,0.285,0.383,0.608*
%
%ADD81ROUNDEDRECTD81*%
%ADD82R,0.900X2.400*%
%ADD83R,0.700X2.150*%
%ADD84R,0.800X1.350*%
%ADD85R,2.450X1.700*%
%ADD86R,2.700X4.200*%
%ADD87R,2.200X0.800*%
%ADD88R,0.800X2.200*%
%ADD89R,1.400X1.400*%
%ADD90R,1.400X1.400*%
%ADD91R,1.200X1.400*%
%ADD92R,3.700X2.950*%
%ADD93R,1.550X2.000*%
%ADD94R,2.450X3.200*%
%ADD95R,2.000X1.550*%
G04:AMPARAMS|DCode=96|XSize=1.25mm|YSize=1.65mm|CornerRadius=0.153mm|HoleSize=0mm|Usage=FLASHONLY|Rotation=0.000|XOffset=0mm|YOffset=0mm|HoleType=Round|Shape=RoundedRectangle|*
%AMROUNDEDRECTD96*
21,1,1.250,1.345,0,0,0.0*
21,1,0.945,1.650,0,0,0.0*
1,1,0.305,0.472,-0.672*
1,1,0.305,-0.472,-0.672*
1,1,0.305,-0.472,0.672*
1,1,0.305,0.472,0.672*
%
%ADD96ROUNDEDRECTD96*%
G04:AMPARAMS|DCode=97|XSize=1.25mm|YSize=1.65mm|CornerRadius=0.153mm|HoleSize=0mm|Usage=FLASHONLY|Rotation=90.000|XOffset=0mm|YOffset=0mm|HoleType=Round|Shape=RoundedRectangle|*
%AMROUNDEDRECTD97*
21,1,1.250,1.345,0,0,90.0*
21,1,0.945,1.650,0,0,90.0*
1,1,0.305,0.672,0.472*
1,1,0.305,0.672,-0.472*
1,1,0.305,-0.672,-0.472*
1,1,0.305,-0.672,0.472*
%
%ADD97ROUNDEDRECTD97*%
%ADD98R,1.900X1.800*%
%ADD99C,7.200*%
%ADD100C,3.200*%
%ADD101R,2.000X2.000*%
%ADD102O,2.400X2.700*%
%ADD103R,2.400X2.700*%
G04:AMPARAMS|DCode=104|XSize=1.7mm|YSize=2.2mm|CornerRadius=0.325mm|HoleSize=0mm|Usage=FLASHONLY|Rotation=0.000|XOffset=0mm|YOffset=0mm|HoleType=Round|Shape=RoundedRectangle|*
%AMROUNDEDRECTD104*
21,1,1.700,1.550,0,0,0.0*
21,1,1.050,2.200,0,0,0.0*
1,1,0.650,0.525,-0.775*
1,1,0.650,-0.525,-0.775*
1,1,0.650,-0.525,0.775*
1,1,0.650,0.525,0.775*
%
%ADD104ROUNDEDRECTD104*%
%ADD105O,1.700X2.200*%
%ADD106O,1.950X1.100*%
%ADD107C,1.950*%
%ADD108R,3.200X2.700*%
%ADD109O,3.200X2.700*%
%ADD110R,4.200X3.200*%
%ADD111O,4.200X3.200*%
%ADD112C,2.500*%
%ADD113R,2.500X2.500*%
%ADD114O,3.200X4.200*%
%ADD115C,2.200*%
%ADD116O,2.200X3.200*%
G04:AMPARAMS|DCode=117|XSize=2.2mm|YSize=3.2mm|CornerRadius=0.6mm|HoleSize=0mm|Usage=FLASHONLY|Rotation=180.000|XOffset=0mm|YOffset=0mm|HoleType=Round|Shape=RoundedRectangle|*
%AMROUNDEDRECTD117*
21,1,2.200,2.000,0,0,180.0*
21,1,1.000,3.200,0,0,180.0*
1,1,1.200,-0.500,1.000*
1,1,1.200,0.500,1.000*
1,1,1.200,0.500,-1.000*
1,1,1.200,-0.500,-1.000*
%
%ADD117ROUNDEDRECTD117*%
%ADD118R,1.700X1.700*%
%ADD119C,1.700*%
%ADD120R,2.200X2.200*%
%ADD121O,2.200X2.700*%
%ADD122C,0.900*%
G36*
X91400Y67200D02*
X86650D01*
Y68400D01*
X91400D01*
Y67200D01*
D02*
G37*
G36*
X95400Y65425D02*
X92000D01*
Y66625D01*
X96825D01*
X95400Y65425D01*
D02*
G37*
G36*
X91400D02*
X88000D01*
X86575Y66625D01*
X91400D01*
Y65425D01*
D02*
G37*
G36*
X91400Y70175D02*
Y68975D01*
X86575Y68975D01*
X88000Y70175D01*
X91400Y70175D01*
D02*
G37*
G36*
X84578Y67788D02*
X84644Y67744D01*
X84688Y67678D01*
X84704Y67600D01*
X84700Y65400D01*
X84704D01*
X84688Y65322D01*
X84644Y65256D01*
X84578Y65212D01*
X84500Y65196D01*
X80100Y65200D01*
Y65196D01*
X80022Y65212D01*
X79956Y65256D01*
X79912Y65322D01*
X79896Y65400D01*
X79900Y67600D01*
X79896D01*
X79912Y67678D01*
X79956Y67744D01*
X80022Y67788D01*
X80100Y67804D01*
X84500Y67800D01*
Y67804D01*
X84578Y67788D01*
D02*
G37*
G36*
X93200Y67200D02*
X92000D01*
Y70175D01*
X93200D01*
Y67200D01*
D02*
G37*
D37*
X98950Y66000D02*
X99373D01*
X99162D01*
Y67270D01*
X98950Y67058D01*
X100854Y67270D02*
X100431Y67058D01*
X100008Y66635D01*
Y66212D01*
X100220Y66000D01*
X100643D01*
X100854Y66212D01*
Y66423D01*
X100643Y66635D01*
X100008D01*
X101278Y66000D02*
Y66212D01*
X101489D01*
Y66000D01*
X101278D01*
X102336D02*
X102759D01*
X102547D01*
Y67270D01*
X102336Y67058D01*
X104240Y66000D02*
X103394D01*
X104240Y66846D01*
Y67058D01*
X104028Y67270D01*
X103605D01*
X103394Y67058D01*
X104663Y66000D02*
Y66212D01*
X104875D01*
Y66000D01*
X104663D01*
X106568D02*
X105721D01*
X106568Y66846D01*
Y67058D01*
X106356Y67270D01*
X105933D01*
X105721Y67058D01*
X106991D02*
X107202Y67270D01*
X107626D01*
X107837Y67058D01*
Y66212D01*
X107626Y66000D01*
X107202D01*
X106991Y66212D01*
Y67058D01*
X108260Y66000D02*
X108684D01*
X108472D01*
Y67270D01*
X108260Y67058D01*
X109318Y66212D02*
X109530Y66000D01*
X109953D01*
X110165Y66212D01*
Y67058D01*
X109953Y67270D01*
X109530D01*
X109318Y67058D01*
Y66846D01*
X109530Y66635D01*
X110165D01*
X99796Y69470D02*
X98950D01*
Y68200D01*
X99796D01*
X98950Y68835D02*
X99373D01*
X100220D02*
X101066D01*
X101489Y69470D02*
Y68200D01*
X102336D01*
X102970Y69046D02*
X103394D01*
X103605Y68835D01*
Y68200D01*
X102970D01*
X102759Y68412D01*
X102970Y68623D01*
X103605D01*
X104028Y68200D02*
X104663D01*
X104875Y68412D01*
X104663Y68623D01*
X104240D01*
X104028Y68835D01*
X104240Y69046D01*
X104875D01*
X105510Y69258D02*
Y69046D01*
X105298D01*
X105721D01*
X105510D01*
Y68412D01*
X105721Y68200D01*
D75*
X114800Y114950D02*
D03*
Y116850D02*
D03*
X92825Y116600D02*
D03*
Y114700D02*
D03*
X126700Y122550D02*
D03*
Y120650D02*
D03*
X124100Y128350D02*
D03*
Y130250D02*
D03*
X107700Y128250D02*
D03*
Y126350D02*
D03*
X126700Y132150D02*
D03*
Y130250D02*
D03*
X107700Y131050D02*
D03*
Y132950D02*
D03*
X120200Y133550D02*
D03*
Y131650D02*
D03*
X122200Y130250D02*
D03*
Y128350D02*
D03*
X109500Y128250D02*
D03*
Y126350D02*
D03*
X161300Y131530D02*
D03*
Y129630D02*
D03*
X120450Y115100D02*
D03*
Y117000D02*
D03*
X118650Y115100D02*
D03*
Y117000D02*
D03*
X96450Y116600D02*
D03*
Y114700D02*
D03*
X98250D02*
D03*
Y116600D02*
D03*
X102550Y103550D02*
D03*
Y101650D02*
D03*
X102200Y109150D02*
D03*
Y107250D02*
D03*
X94650Y116600D02*
D03*
Y114700D02*
D03*
X104400Y101650D02*
D03*
Y103550D02*
D03*
X133500Y137150D02*
D03*
Y139050D02*
D03*
X157200Y138050D02*
D03*
Y139950D02*
D03*
X145550Y129150D02*
D03*
Y131050D02*
D03*
X105100Y118185D02*
D03*
Y116285D02*
D03*
X105400Y120850D02*
D03*
Y122750D02*
D03*
X115800Y108700D02*
D03*
Y106800D02*
D03*
X125900Y71150D02*
D03*
Y73050D02*
D03*
X113950Y106805D02*
D03*
Y108705D02*
D03*
X110400Y101550D02*
D03*
Y103450D02*
D03*
X112150Y107065D02*
D03*
Y105165D02*
D03*
X162400Y121715D02*
D03*
Y123615D02*
D03*
X133400Y123550D02*
D03*
Y121650D02*
D03*
X131600D02*
D03*
Y123550D02*
D03*
X127700Y71150D02*
D03*
Y73050D02*
D03*
X129200Y105550D02*
D03*
Y103650D02*
D03*
D76*
X142200Y121900D02*
D03*
X144000D02*
D03*
X138900D02*
D03*
X140700D02*
D03*
X135600D02*
D03*
X137400D02*
D03*
D77*
X72300Y106900D02*
D03*
X123700Y67400D02*
D03*
X160000Y138000D02*
D03*
X133400Y110600D02*
D03*
X130900Y113100D02*
D03*
D78*
X143650Y125900D02*
D03*
X107000Y96500D02*
D03*
X149100Y127400D02*
D03*
X98200Y106500D02*
D03*
X97800Y98200D02*
D03*
X112600Y98800D02*
D03*
X158700Y127600D02*
D03*
X85900Y109200D02*
D03*
X143900Y123500D02*
D03*
D79*
X128775Y131700D02*
D03*
X131025Y132650D02*
D03*
Y130750D02*
D03*
X116025Y110250D02*
D03*
Y112150D02*
D03*
X113775Y111200D02*
D03*
X110625Y133250D02*
D03*
Y135150D02*
D03*
X108375Y134200D02*
D03*
X122575Y133450D02*
D03*
Y131550D02*
D03*
X124825Y132500D02*
D03*
D80*
X99200Y134125D02*
D03*
Y127875D02*
D03*
X104100Y134125D02*
D03*
Y127875D02*
D03*
D81*
X95250Y109100D02*
D03*
X97150D02*
D03*
X136150Y115900D02*
D03*
X134250D02*
D03*
X132175Y135000D02*
D03*
X130275D02*
D03*
X116550Y127400D02*
D03*
X118450D02*
D03*
X114150Y134700D02*
D03*
X112250D02*
D03*
X95575Y96000D02*
D03*
X93675D02*
D03*
X118450Y102300D02*
D03*
X116550D02*
D03*
X93350Y124750D02*
D03*
X91450D02*
D03*
X106450Y110400D02*
D03*
X108350D02*
D03*
X112750Y113750D02*
D03*
X110850D02*
D03*
X106850Y103000D02*
D03*
X108750D02*
D03*
X161450Y97200D02*
D03*
X163350D02*
D03*
Y99100D02*
D03*
X161450D02*
D03*
X132075Y108000D02*
D03*
X130175D02*
D03*
D82*
X138600Y127625D02*
D03*
X134000D02*
D03*
X130700Y127625D02*
D03*
X126100D02*
D03*
X125500Y108775D02*
D03*
X120900D02*
D03*
X101600Y140175D02*
D03*
X105200D02*
D03*
X128100Y140150D02*
D03*
X131700D02*
D03*
X123350Y122025D02*
D03*
X115750D02*
D03*
X100950Y122025D02*
D03*
X93350D02*
D03*
D83*
X137300Y124600D02*
D03*
X136300D02*
D03*
X135300D02*
D03*
X129400Y124600D02*
D03*
X128400D02*
D03*
X127400D02*
D03*
X124200Y105750D02*
D03*
X123200D02*
D03*
X122200D02*
D03*
X102900Y137150D02*
D03*
X103900D02*
D03*
X129400Y137125D02*
D03*
X130400D02*
D03*
X122050Y119000D02*
D03*
X121050D02*
D03*
X120050D02*
D03*
X119050D02*
D03*
X118050D02*
D03*
X117050D02*
D03*
X99650Y119000D02*
D03*
X98650D02*
D03*
X97650D02*
D03*
X96650D02*
D03*
X95650D02*
D03*
X94650D02*
D03*
D84*
X126550Y133775D02*
D03*
X128450D02*
D03*
X127500Y136025D02*
D03*
X117700Y111275D02*
D03*
X119600D02*
D03*
X118650Y113525D02*
D03*
X99450Y110875D02*
D03*
X101350D02*
D03*
X100400Y113125D02*
D03*
X121050Y111275D02*
D03*
X122950D02*
D03*
X122000Y113525D02*
D03*
X98000Y113125D02*
D03*
X96100D02*
D03*
X97050Y110875D02*
D03*
X94650Y113125D02*
D03*
X92750D02*
D03*
X93700Y110875D02*
D03*
X132750Y117825D02*
D03*
X134650D02*
D03*
X133700Y120075D02*
D03*
X136100Y117825D02*
D03*
X138000D02*
D03*
X137050Y120075D02*
D03*
D85*
X115000Y141600D02*
D03*
Y137000D02*
D03*
Y139300D02*
D03*
X88825Y100400D02*
D03*
Y105000D02*
D03*
Y102700D02*
D03*
D86*
X108250Y139300D02*
D03*
X95575Y102700D02*
D03*
D87*
X112800Y132905D02*
D03*
Y131635D02*
D03*
Y130365D02*
D03*
Y129095D02*
D03*
X118000Y132905D02*
D03*
Y131635D02*
D03*
Y130365D02*
D03*
Y129095D02*
D03*
X112650Y115595D02*
D03*
Y116865D02*
D03*
Y118135D02*
D03*
Y119405D02*
D03*
X107450Y115595D02*
D03*
Y116865D02*
D03*
Y118135D02*
D03*
Y119405D02*
D03*
X104800Y108655D02*
D03*
Y107385D02*
D03*
Y106115D02*
D03*
Y104845D02*
D03*
X110000Y108655D02*
D03*
Y107385D02*
D03*
Y106115D02*
D03*
Y104845D02*
D03*
X148200Y124355D02*
D03*
Y123085D02*
D03*
Y121815D02*
D03*
Y120545D02*
D03*
X153400Y124355D02*
D03*
Y123085D02*
D03*
Y121815D02*
D03*
Y120545D02*
D03*
D88*
X134755Y105700D02*
D03*
X133485D02*
D03*
X132215D02*
D03*
X130945D02*
D03*
X134755Y100500D02*
D03*
X133485D02*
D03*
X132215D02*
D03*
X130945D02*
D03*
D89*
X86275Y97325D02*
D03*
Y95125D02*
D03*
X95600Y128050D02*
D03*
Y125850D02*
D03*
D90*
X163500Y135600D02*
D03*
X161300D02*
D03*
X118900Y104300D02*
D03*
X116700D02*
D03*
X157500Y141800D02*
D03*
X155300D02*
D03*
D91*
X86325Y102700D02*
D03*
Y99300D02*
D03*
X159350Y129630D02*
D03*
Y133030D02*
D03*
D92*
X146500Y74450D02*
D03*
Y67850D02*
D03*
X139500D02*
D03*
Y74450D02*
D03*
X132250D02*
D03*
Y67850D02*
D03*
Y84500D02*
D03*
Y77900D02*
D03*
D93*
X135500Y135500D02*
D03*
X138700D02*
D03*
X140500Y127700D02*
D03*
X143700D02*
D03*
D94*
X136975Y132100D02*
D03*
X143225D02*
D03*
D95*
X148000Y118950D02*
D03*
Y115750D02*
D03*
D96*
X134750Y96200D02*
D03*
X136650D02*
D03*
X114250Y123200D02*
D03*
X112350D02*
D03*
X91850Y109000D02*
D03*
X93750D02*
D03*
X113150Y127500D02*
D03*
X115050D02*
D03*
X111900Y110400D02*
D03*
X110000D02*
D03*
X122250Y116700D02*
D03*
X124150D02*
D03*
X95575Y98200D02*
D03*
X93675D02*
D03*
X90725D02*
D03*
X88825D02*
D03*
X156600Y127300D02*
D03*
X154700D02*
D03*
Y134500D02*
D03*
X156600D02*
D03*
X112650Y121200D02*
D03*
X110750D02*
D03*
X107450Y113750D02*
D03*
X109350D02*
D03*
X108700Y101000D02*
D03*
X106800D02*
D03*
X109150Y121200D02*
D03*
X107250D02*
D03*
X150250Y118900D02*
D03*
X152150D02*
D03*
X133500Y108000D02*
D03*
X135400D02*
D03*
X130945Y98200D02*
D03*
X132845D02*
D03*
X130525Y120000D02*
D03*
X128625D02*
D03*
X134750Y98200D02*
D03*
X136650D02*
D03*
X145450Y127200D02*
D03*
X147350D02*
D03*
D97*
X132350Y127350D02*
D03*
Y125450D02*
D03*
X118300Y134250D02*
D03*
Y136150D02*
D03*
X120300Y128250D02*
D03*
Y130150D02*
D03*
X110500Y131650D02*
D03*
Y129750D02*
D03*
X120300Y126650D02*
D03*
Y124750D02*
D03*
X100100Y114850D02*
D03*
Y116750D02*
D03*
X100650Y103400D02*
D03*
Y101500D02*
D03*
X132900Y132650D02*
D03*
Y130750D02*
D03*
X145800Y120150D02*
D03*
Y118250D02*
D03*
X143800D02*
D03*
Y120150D02*
D03*
X155800Y123300D02*
D03*
Y125200D02*
D03*
X157800D02*
D03*
Y123300D02*
D03*
X114100Y105350D02*
D03*
Y103450D02*
D03*
X145800Y123715D02*
D03*
Y121815D02*
D03*
X141800Y120150D02*
D03*
Y118250D02*
D03*
X139800Y118250D02*
D03*
Y120150D02*
D03*
D98*
X146250Y142800D02*
D03*
X142450D02*
D03*
D99*
X74000Y141000D02*
D03*
X166000D02*
D03*
Y69000D02*
D03*
X74000D02*
D03*
X120800Y95500D02*
D03*
D100*
X160750Y106000D02*
D03*
X139250D02*
D03*
D101*
X135900Y113100D02*
D03*
D102*
X87080Y139250D02*
D03*
X153170Y70750D02*
D03*
D103*
X82000Y139250D02*
D03*
X158250Y70750D02*
D03*
D104*
X143660Y136000D02*
D03*
D105*
X146200D02*
D03*
X148740D02*
D03*
X151280D02*
D03*
D106*
X168500Y129430D02*
D03*
Y131970D02*
D03*
X156600Y129630D02*
D03*
X155330Y130900D02*
D03*
X156600Y132170D02*
D03*
D107*
X124050Y139300D02*
D03*
X117700D02*
D03*
D108*
X167900Y102040D02*
D03*
D109*
Y96960D02*
D03*
Y89340D02*
D03*
Y84260D02*
D03*
D110*
X166900Y123261D02*
D03*
D111*
Y117800D02*
D03*
Y112339D02*
D03*
D112*
X75650Y129750D02*
D03*
Y124750D02*
D03*
X83350D02*
D03*
D113*
Y129750D02*
D03*
D114*
X137550Y81750D02*
D03*
X162550D02*
D03*
D115*
X87750Y112420D02*
D03*
Y117500D02*
D03*
X75750Y113500D02*
D03*
D116*
X147460Y111000D02*
D03*
D117*
X152540D02*
D03*
D118*
X139100Y140300D02*
D03*
X151200Y131100D02*
D03*
D119*
X136600Y140300D02*
D03*
X148700Y131100D02*
D03*
D120*
X80750Y113500D02*
D03*
D121*
X143150Y92000D02*
D03*
X158150D02*
D03*
D122*
X132845Y98200D02*
D03*
X106800Y134700D02*
D03*
X141900Y124900D02*
D03*
X114100Y100000D02*
D03*
X82100Y107000D02*
D03*
M02*
