G04 Layer_Color=2752767*
%FSLAX43Y43*%
%MOMM*%
G71*
G01*
G75*
%ADD123C,0.127*%
%ADD124C,0.169*%
D123*
X73492Y140492D02*
Y141508D01*
X74508D01*
Y140492D01*
X73492D01*
X165492D02*
Y141508D01*
X166508D01*
Y140492D01*
X165492D01*
Y68492D02*
Y69508D01*
X166508D01*
Y68492D01*
X165492D01*
X73492D02*
Y69508D01*
X74508D01*
Y68492D01*
X73492D01*
X120292Y94992D02*
Y96008D01*
X121308D01*
Y94992D01*
X120292D01*
X135900Y112592D02*
X135392Y113608D01*
X136408D01*
X135900Y112592D01*
X133400Y110092D02*
X132892Y111108D01*
X133908D01*
X133400Y110092D01*
X130900Y112592D02*
X130392Y113608D01*
X131408D01*
X130900Y112592D01*
X87080Y138742D02*
X87334Y138996D01*
X87588D01*
X87334Y139250D01*
X87588Y139504D01*
X87334D01*
X87080Y139758D01*
X86826Y139504D01*
X86572D01*
X86826Y139250D01*
X86572Y138996D01*
X86826D01*
X87080Y138742D01*
X82000D02*
X82254Y138996D01*
X82508D01*
X82254Y139250D01*
X82508Y139504D01*
X82254D01*
X82000Y139758D01*
X81746Y139504D01*
X81492D01*
X81746Y139250D01*
X81492Y138996D01*
X81746D01*
X82000Y138742D01*
X153170Y70242D02*
X153424Y70496D01*
X153678D01*
X153424Y70750D01*
X153678Y71004D01*
X153424D01*
X153170Y71258D01*
X152916Y71004D01*
X152662D01*
X152916Y70750D01*
X152662Y70496D01*
X152916D01*
X153170Y70242D01*
X158250D02*
X158504Y70496D01*
X158758D01*
X158504Y70750D01*
X158758Y71004D01*
X158504D01*
X158250Y71258D01*
X157996Y71004D01*
X157742D01*
X157996Y70750D01*
X157742Y70496D01*
X157996D01*
X158250Y70242D01*
X143152Y135492D02*
X143406Y136000D01*
X143152Y136508D01*
X143660Y136254D01*
X144168Y136508D01*
X143914Y136000D01*
X144168Y135492D01*
X143660Y135746D01*
X143152Y135492D01*
X145692D02*
X145946Y136000D01*
X145692Y136508D01*
X146200Y136254D01*
X146708Y136508D01*
X146454Y136000D01*
X146708Y135492D01*
X146200Y135746D01*
X145692Y135492D01*
X148232D02*
X148486Y136000D01*
X148232Y136508D01*
X148740Y136254D01*
X149248Y136508D01*
X148994Y136000D01*
X149248Y135492D01*
X148740Y135746D01*
X148232Y135492D01*
X150772D02*
X151026Y136000D01*
X150772Y136508D01*
X151280Y136254D01*
X151788Y136508D01*
X151534Y136000D01*
X151788Y135492D01*
X151280Y135746D01*
X150772Y135492D01*
X168246Y129176D02*
Y128922D01*
X168754D01*
Y129176D01*
X169008D01*
Y129684D01*
X168754D01*
Y129938D01*
X168246D01*
Y129684D01*
X167992D01*
Y129176D01*
X168246D01*
Y131716D02*
Y131462D01*
X168754D01*
Y131716D01*
X169008D01*
Y132224D01*
X168754D01*
Y132478D01*
X168246D01*
Y132224D01*
X167992D01*
Y131716D01*
X168246D01*
X123542Y138792D02*
X123796Y139300D01*
X123542Y139808D01*
X124050Y139554D01*
X124558Y139808D01*
X124304Y139300D01*
X124558Y138792D01*
X124050Y139046D01*
X123542Y138792D01*
X117192D02*
X117446Y139300D01*
X117192Y139808D01*
X117700Y139554D01*
X118208Y139808D01*
X117954Y139300D01*
X118208Y138792D01*
X117700Y139046D01*
X117192Y138792D01*
X167392Y96452D02*
X167646D01*
X167900Y96706D01*
X168154Y96452D01*
X168408D01*
Y96706D01*
X168154Y96960D01*
X168408Y97214D01*
Y97468D01*
X168154D01*
X167900Y97214D01*
X167646Y97468D01*
X167392D01*
Y97214D01*
X167646Y96960D01*
X167392Y96706D01*
Y96452D01*
Y88832D02*
X167646D01*
X167900Y89086D01*
X168154Y88832D01*
X168408D01*
Y89086D01*
X168154Y89340D01*
X168408Y89594D01*
Y89848D01*
X168154D01*
X167900Y89594D01*
X167646Y89848D01*
X167392D01*
Y89594D01*
X167646Y89340D01*
X167392Y89086D01*
Y88832D01*
X166392Y123261D02*
X166900Y123769D01*
X167408Y123261D01*
X166900Y122753D01*
X166392Y123261D01*
Y117800D02*
X166900Y118308D01*
X167408Y117800D01*
X166900Y117292D01*
X166392Y117800D01*
Y112339D02*
X166900Y112847D01*
X167408Y112339D01*
X166900Y111831D01*
X166392Y112339D01*
X75142Y129242D02*
X75396D01*
X75650Y129496D01*
X75904Y129242D01*
X76158D01*
Y129496D01*
X75904Y129750D01*
X76158Y130004D01*
Y130258D01*
X75904D01*
X75650Y130004D01*
X75396Y130258D01*
X75142D01*
Y130004D01*
X75396Y129750D01*
X75142Y129496D01*
Y129242D01*
Y124242D02*
X75396D01*
X75650Y124496D01*
X75904Y124242D01*
X76158D01*
Y124496D01*
X75904Y124750D01*
X76158Y125004D01*
Y125258D01*
X75904D01*
X75650Y125004D01*
X75396Y125258D01*
X75142D01*
Y125004D01*
X75396Y124750D01*
X75142Y124496D01*
Y124242D01*
X82842D02*
X83096D01*
X83350Y124496D01*
X83604Y124242D01*
X83858D01*
Y124496D01*
X83604Y124750D01*
X83858Y125004D01*
Y125258D01*
X83604D01*
X83350Y125004D01*
X83096Y125258D01*
X82842D01*
Y125004D01*
X83096Y124750D01*
X82842Y124496D01*
Y124242D01*
Y129242D02*
X83096D01*
X83350Y129496D01*
X83604Y129242D01*
X83858D01*
Y129496D01*
X83604Y129750D01*
X83858Y130004D01*
Y130258D01*
X83604D01*
X83350Y130004D01*
X83096Y130258D01*
X82842D01*
Y130004D01*
X83096Y129750D01*
X82842Y129496D01*
Y129242D01*
X156346Y129376D02*
Y129122D01*
X156854D01*
Y129376D01*
X157108D01*
Y129884D01*
X156854D01*
Y130138D01*
X156346D01*
Y129884D01*
X156092D01*
Y129376D01*
X156346D01*
X155076Y130646D02*
Y130392D01*
X155584D01*
Y130646D01*
X155838D01*
Y131154D01*
X155584D01*
Y131408D01*
X155076D01*
Y131154D01*
X154822D01*
Y130646D01*
X155076D01*
X156346Y131916D02*
Y131662D01*
X156854D01*
Y131916D01*
X157108D01*
Y132424D01*
X156854D01*
Y132678D01*
X156346D01*
Y132424D01*
X156092D01*
Y131916D01*
X156346D01*
X137042Y81242D02*
X137296D01*
X137550Y81496D01*
X137804Y81242D01*
X138058D01*
Y81496D01*
X137804Y81750D01*
X138058Y82004D01*
Y82258D01*
X137804D01*
X137550Y82004D01*
X137296Y82258D01*
X137042D01*
Y82004D01*
X137296Y81750D01*
X137042Y81496D01*
Y81242D01*
X162042D02*
X162296D01*
X162550Y81496D01*
X162804Y81242D01*
X163058D01*
Y81496D01*
X162804Y81750D01*
X163058Y82004D01*
Y82258D01*
X162804D01*
X162550Y82004D01*
X162296Y82258D01*
X162042D01*
Y82004D01*
X162296Y81750D01*
X162042Y81496D01*
Y81242D01*
X87242Y111912D02*
X87496D01*
X87750Y112166D01*
X88004Y111912D01*
X88258D01*
Y112166D01*
X88004Y112420D01*
X88258Y112674D01*
Y112928D01*
X88004D01*
X87750Y112674D01*
X87496Y112928D01*
X87242D01*
Y112674D01*
X87496Y112420D01*
X87242Y112166D01*
Y111912D01*
Y116992D02*
X87496D01*
X87750Y117246D01*
X88004Y116992D01*
X88258D01*
Y117246D01*
X88004Y117500D01*
X88258Y117754D01*
Y118008D01*
X88004D01*
X87750Y117754D01*
X87496Y118008D01*
X87242D01*
Y117754D01*
X87496Y117500D01*
X87242Y117246D01*
Y116992D01*
X146952Y110492D02*
X147206Y111000D01*
X146952Y111508D01*
X147460Y111254D01*
X147968Y111508D01*
X147714Y111000D01*
X147968Y110492D01*
X147460Y110746D01*
X146952Y110492D01*
X152032D02*
X152286Y111000D01*
X152032Y111508D01*
X152540Y111254D01*
X153048Y111508D01*
X152794Y111000D01*
X153048Y110492D01*
X152540Y110746D01*
X152032Y110492D01*
X138846Y140046D02*
Y139792D01*
X139354D01*
Y140046D01*
X139608D01*
Y140554D01*
X139354D01*
Y140808D01*
X138846D01*
Y140554D01*
X138592D01*
Y140046D01*
X138846D01*
X136346D02*
Y139792D01*
X136854D01*
Y140046D01*
X137108D01*
Y140554D01*
X136854D01*
Y140808D01*
X136346D01*
Y140554D01*
X136092D01*
Y140046D01*
X136346D01*
X80242Y112992D02*
X80496Y113500D01*
X80242Y114008D01*
X80750Y113754D01*
X81258Y114008D01*
X81004Y113500D01*
X81258Y112992D01*
X80750Y113246D01*
X80242Y112992D01*
X75242D02*
X75496Y113500D01*
X75242Y114008D01*
X75750Y113754D01*
X76258Y114008D01*
X76004Y113500D01*
X76258Y112992D01*
X75750Y113246D01*
X75242Y112992D01*
X148446Y130846D02*
Y130592D01*
X148954D01*
Y130846D01*
X149208D01*
Y131354D01*
X148954D01*
Y131608D01*
X148446D01*
Y131354D01*
X148192D01*
Y130846D01*
X148446D01*
X150946D02*
Y130592D01*
X151454D01*
Y130846D01*
X151708D01*
Y131354D01*
X151454D01*
Y131608D01*
X150946D01*
Y131354D01*
X150692D01*
Y130846D01*
X150946D01*
X142642Y91492D02*
X142896Y92000D01*
X142642Y92508D01*
X143150Y92254D01*
X143658Y92508D01*
X143404Y92000D01*
X143658Y91492D01*
X143150Y91746D01*
X142642Y91492D01*
X157642D02*
X157896Y92000D01*
X157642Y92508D01*
X158150Y92254D01*
X158658Y92508D01*
X158404Y92000D01*
X158658Y91492D01*
X158150Y91746D01*
X157642Y91492D01*
X168492Y108992D02*
Y110008D01*
X169508D01*
Y108992D01*
X168492D01*
X168695Y109195D02*
Y109805D01*
X169305D01*
Y109195D01*
X168695D01*
X168492Y104992D02*
Y106008D01*
X169508D01*
Y104992D01*
X168492D01*
X168695Y105195D02*
Y105805D01*
X169305D01*
Y105195D01*
X168695D01*
X163492Y104992D02*
Y106008D01*
X164508D01*
Y104992D01*
X163492D01*
X163695Y105195D02*
Y105805D01*
X164305D01*
Y105195D01*
X163695D01*
X163492Y108992D02*
Y110008D01*
X164508D01*
Y108992D01*
X163492D01*
X163695Y109195D02*
Y109805D01*
X164305D01*
Y109195D01*
X163695D01*
X162492Y114992D02*
Y116008D01*
X163508D01*
Y114992D01*
X162492D01*
X162695Y115195D02*
Y115805D01*
X163305D01*
Y115195D01*
X162695D01*
X160492Y112992D02*
Y114008D01*
X161508D01*
Y112992D01*
X160492D01*
X160695Y113195D02*
Y113805D01*
X161305D01*
Y113195D01*
X160695D01*
X158492Y110992D02*
Y112008D01*
X159508D01*
Y110992D01*
X158492D01*
X158695Y111195D02*
Y111805D01*
X159305D01*
Y111195D01*
X158695D01*
X156492Y108992D02*
Y110008D01*
X157508D01*
Y108992D01*
X156492D01*
X156695Y109195D02*
Y109805D01*
X157305D01*
Y109195D01*
X156695D01*
X153992Y108492D02*
Y109508D01*
X155008D01*
Y108492D01*
X153992D01*
X154195Y108695D02*
Y109305D01*
X154805D01*
Y108695D01*
X154195D01*
X152992Y112992D02*
Y114008D01*
X154008D01*
Y112992D01*
X152992D01*
X153195Y113195D02*
Y113805D01*
X153805D01*
Y113195D01*
X153195D01*
X154992Y114992D02*
Y116008D01*
X156008D01*
Y114992D01*
X154992D01*
X155195Y115195D02*
Y115805D01*
X155805D01*
Y115195D01*
X155195D01*
X156992Y116992D02*
Y118008D01*
X158008D01*
Y116992D01*
X156992D01*
X157195Y117195D02*
Y117805D01*
X157805D01*
Y117195D01*
X157195D01*
X158992Y118992D02*
Y120008D01*
X160008D01*
Y118992D01*
X158992D01*
X159195Y119195D02*
Y119805D01*
X159805D01*
Y119195D01*
X159195D01*
X162492Y118992D02*
Y120008D01*
X163508D01*
Y118992D01*
X162492D01*
X162695Y119195D02*
Y119805D01*
X163305D01*
Y119195D01*
X162695D01*
X137992Y86492D02*
Y87508D01*
X139008D01*
Y86492D01*
X137992D01*
X138195Y86695D02*
Y87305D01*
X138805D01*
Y86695D01*
X138195D01*
X138492Y89492D02*
Y90508D01*
X139508D01*
Y89492D01*
X138492D01*
X138695Y89695D02*
Y90305D01*
X139305D01*
Y89695D01*
X138695D01*
X138492Y93492D02*
Y94508D01*
X139508D01*
Y93492D01*
X138492D01*
X138695Y93695D02*
Y94305D01*
X139305D01*
Y93695D01*
X138695D01*
X138492Y97492D02*
Y98508D01*
X139508D01*
Y97492D01*
X138492D01*
X138695Y97695D02*
Y98305D01*
X139305D01*
Y97695D01*
X138695D01*
X150242Y89492D02*
Y90508D01*
X151258D01*
Y89492D01*
X150242D01*
X150445Y89695D02*
Y90305D01*
X151055D01*
Y89695D01*
X150445D01*
X150242Y93492D02*
Y94508D01*
X151258D01*
Y93492D01*
X150242D01*
X150445Y93695D02*
Y94305D01*
X151055D01*
Y93695D01*
X150445D01*
X150242Y97492D02*
Y98508D01*
X151258D01*
Y97492D01*
X150242D01*
X150445Y97695D02*
Y98305D01*
X151055D01*
Y97695D01*
X150445D01*
X150242Y101492D02*
Y102508D01*
X151258D01*
Y101492D01*
X150242D01*
X150445Y101695D02*
Y102305D01*
X151055D01*
Y101695D01*
X150445D01*
X164592Y87292D02*
Y88308D01*
X165608D01*
Y87292D01*
X164592D01*
X164795Y87495D02*
Y88105D01*
X165405D01*
Y87495D01*
X164795D01*
X148992Y79992D02*
Y81008D01*
X150008D01*
Y79992D01*
X148992D01*
X149195Y80195D02*
Y80805D01*
X149805D01*
Y80195D01*
X149195D01*
X151992Y82992D02*
Y84008D01*
X153008D01*
Y82992D01*
X151992D01*
X152195Y83195D02*
Y83805D01*
X152805D01*
Y83195D01*
X152195D01*
X154992Y85992D02*
Y87008D01*
X156008D01*
Y85992D01*
X154992D01*
X155195Y86195D02*
Y86805D01*
X155805D01*
Y86195D01*
X155195D01*
X143992Y79992D02*
Y81008D01*
X145008D01*
Y79992D01*
X143992D01*
X144195Y80195D02*
Y80805D01*
X144805D01*
Y80195D01*
X144195D01*
X146492Y82992D02*
Y84008D01*
X147508D01*
Y82992D01*
X146492D01*
X146695Y83195D02*
Y83805D01*
X147305D01*
Y83195D01*
X146695D01*
X149492Y85992D02*
Y87008D01*
X150508D01*
Y85992D01*
X149492D01*
X149695Y86195D02*
Y86805D01*
X150305D01*
Y86195D01*
X149695D01*
X140492Y89492D02*
Y90508D01*
X141508D01*
Y89492D01*
X140492D01*
X140695Y89695D02*
Y90305D01*
X141305D01*
Y89695D01*
X140695D01*
X140492Y93492D02*
Y94508D01*
X141508D01*
Y93492D01*
X140492D01*
X140695Y93695D02*
Y94305D01*
X141305D01*
Y93695D01*
X140695D01*
X140492Y97492D02*
Y98508D01*
X141508D01*
Y97492D01*
X140492D01*
X140695Y97695D02*
Y98305D01*
X141305D01*
Y97695D01*
X140695D01*
X141992Y101492D02*
Y102508D01*
X143008D01*
Y101492D01*
X141992D01*
X142195Y101695D02*
Y102305D01*
X142805D01*
Y101695D01*
X142195D01*
X142992Y105492D02*
Y106508D01*
X144008D01*
Y105492D01*
X142992D01*
X143195Y105695D02*
Y106305D01*
X143805D01*
Y105695D01*
X143195D01*
X142992Y109492D02*
Y110508D01*
X144008D01*
Y109492D01*
X142992D01*
X143195Y109695D02*
Y110305D01*
X143805D01*
Y109695D01*
X143195D01*
X143992Y111992D02*
Y113008D01*
X145008D01*
Y111992D01*
X143992D01*
X144195Y112195D02*
Y112805D01*
X144805D01*
Y112195D01*
X144195D01*
X147492Y105492D02*
Y106508D01*
X148508D01*
Y105492D01*
X147492D01*
X147695Y105695D02*
Y106305D01*
X148305D01*
Y105695D01*
X147695D01*
X147992Y101492D02*
Y102508D01*
X149008D01*
Y101492D01*
X147992D01*
X148195Y101695D02*
Y102305D01*
X148805D01*
Y101695D01*
X148195D01*
X147992Y97492D02*
Y98508D01*
X149008D01*
Y97492D01*
X147992D01*
X148195Y97695D02*
Y98305D01*
X148805D01*
Y97695D01*
X148195D01*
X147992Y93492D02*
Y94508D01*
X149008D01*
Y93492D01*
X147992D01*
X148195Y93695D02*
Y94305D01*
X148805D01*
Y93695D01*
X148195D01*
X147992Y89492D02*
Y90508D01*
X149008D01*
Y89492D01*
X147992D01*
X148195Y89695D02*
Y90305D01*
X148805D01*
Y89695D01*
X148195D01*
X146492Y85992D02*
Y87008D01*
X147508D01*
Y85992D01*
X146492D01*
X146695Y86195D02*
Y86805D01*
X147305D01*
Y86195D01*
X146695D01*
X143492Y82992D02*
Y84008D01*
X144508D01*
Y82992D01*
X143492D01*
X143695Y83195D02*
Y83805D01*
X144305D01*
Y83195D01*
X143695D01*
X140492Y79992D02*
Y81008D01*
X141508D01*
Y79992D01*
X140492D01*
X140695Y80195D02*
Y80805D01*
X141305D01*
Y80195D01*
X140695D01*
X139492Y84992D02*
Y86008D01*
X140508D01*
Y84992D01*
X139492D01*
X139695Y85195D02*
Y85805D01*
X140305D01*
Y85195D01*
X139695D01*
X89392Y92792D02*
Y93808D01*
X90408D01*
Y92792D01*
X89392D01*
X89595Y92995D02*
Y93605D01*
X90205D01*
Y92995D01*
X89595D01*
X142492Y67492D02*
Y68508D01*
X143508D01*
Y67492D01*
X142492D01*
X142695Y67695D02*
Y68305D01*
X143305D01*
Y67695D01*
X142695D01*
X114392Y112892D02*
Y113908D01*
X115408D01*
Y112892D01*
X114392D01*
X114595Y113095D02*
Y113705D01*
X115205D01*
Y113095D01*
X114595D01*
X101492Y113192D02*
Y114208D01*
X102508D01*
Y113192D01*
X101492D01*
X101695Y113395D02*
Y114005D01*
X102305D01*
Y113395D01*
X101695D01*
X154292Y117692D02*
Y118708D01*
X155308D01*
Y117692D01*
X154292D01*
X154495Y117895D02*
Y118505D01*
X155105D01*
Y117895D01*
X154495D01*
X129292Y122092D02*
Y123108D01*
X130308D01*
Y122092D01*
X129292D01*
X129495Y122295D02*
Y122905D01*
X130105D01*
Y122295D01*
X129495D01*
X131842Y128292D02*
Y129308D01*
X132858D01*
Y128292D01*
X131842D01*
X132045Y128495D02*
Y129105D01*
X132655D01*
Y128495D01*
X132045D01*
X125492Y123292D02*
Y124308D01*
X126508D01*
Y123292D01*
X125492D01*
X125695Y123495D02*
Y124105D01*
X126305D01*
Y123495D01*
X125695D01*
X124092Y130942D02*
Y131958D01*
X125108D01*
Y130942D01*
X124092D01*
X124295Y131145D02*
Y131755D01*
X124905D01*
Y131145D01*
X124295D01*
X114492Y125492D02*
Y126508D01*
X115508D01*
Y125492D01*
X114492D01*
X114695Y125695D02*
Y126305D01*
X115305D01*
Y125695D01*
X114695D01*
X125242Y84492D02*
Y85508D01*
X126258D01*
Y84492D01*
X125242D01*
X125445Y84695D02*
Y85305D01*
X126055D01*
Y84695D01*
X125445D01*
X128492Y84492D02*
Y85508D01*
X129508D01*
Y84492D01*
X128492D01*
X128695Y84695D02*
Y85305D01*
X129305D01*
Y84695D01*
X128695D01*
X125242Y79492D02*
Y80508D01*
X126258D01*
Y79492D01*
X125242D01*
X125445Y79695D02*
Y80305D01*
X126055D01*
Y79695D01*
X125445D01*
X125242Y89492D02*
Y90508D01*
X126258D01*
Y89492D01*
X125242D01*
X125445Y89695D02*
Y90305D01*
X126055D01*
Y89695D01*
X125445D01*
X125242Y94492D02*
Y95508D01*
X126258D01*
Y94492D01*
X125242D01*
X125445Y94695D02*
Y95305D01*
X126055D01*
Y94695D01*
X125445D01*
X128492Y79492D02*
Y80508D01*
X129508D01*
Y79492D01*
X128492D01*
X128695Y79695D02*
Y80305D01*
X129305D01*
Y79695D01*
X128695D01*
X128492Y89492D02*
Y90508D01*
X129508D01*
Y89492D01*
X128492D01*
X128695Y89695D02*
Y90305D01*
X129305D01*
Y89695D01*
X128695D01*
X128492Y94492D02*
Y95508D01*
X129508D01*
Y94492D01*
X128492D01*
X128695Y94695D02*
Y95305D01*
X129305D01*
Y94695D01*
X128695D01*
X132337Y97692D02*
Y98708D01*
X133353D01*
Y97692D01*
X132337D01*
X132540Y97895D02*
Y98505D01*
X133150D01*
Y97895D01*
X132540D01*
X119792Y127742D02*
Y128758D01*
X120808D01*
Y127742D01*
X119792D01*
X119995Y127945D02*
Y128555D01*
X120605D01*
Y127945D01*
X119995D01*
X146292Y119517D02*
Y120533D01*
X147308D01*
Y119517D01*
X146292D01*
X146495Y119720D02*
Y120330D01*
X147105D01*
Y119720D01*
X146495D01*
X131092Y117317D02*
Y118333D01*
X132108D01*
Y117317D01*
X131092D01*
X131295Y117520D02*
Y118130D01*
X131905D01*
Y117520D01*
X131295D01*
X112142Y119592D02*
Y120608D01*
X113158D01*
Y119592D01*
X112142D01*
X112345Y119795D02*
Y120405D01*
X112955D01*
Y119795D01*
X112345D01*
X144992Y124492D02*
Y125508D01*
X146008D01*
Y124492D01*
X144992D01*
X145195Y124695D02*
Y125305D01*
X145805D01*
Y124695D01*
X145195D01*
X128392Y110892D02*
Y111908D01*
X129408D01*
Y110892D01*
X128392D01*
X128595Y111095D02*
Y111705D01*
X129205D01*
Y111095D01*
X128595D01*
X126092Y108592D02*
Y109608D01*
X127108D01*
Y108592D01*
X126092D01*
X126295Y108795D02*
Y109405D01*
X126905D01*
Y108795D01*
X126295D01*
X124892Y105242D02*
Y106258D01*
X125908D01*
Y105242D01*
X124892D01*
X125095Y105445D02*
Y106055D01*
X125705D01*
Y105445D01*
X125095D01*
X128492Y106292D02*
Y107308D01*
X129508D01*
Y106292D01*
X128492D01*
X128695Y106495D02*
Y107105D01*
X129305D01*
Y106495D01*
X128695D01*
X99292Y107692D02*
Y108708D01*
X100308D01*
Y107692D01*
X99292D01*
X99495Y107895D02*
Y108505D01*
X100105D01*
Y107895D01*
X99495D01*
X102192Y110617D02*
Y111633D01*
X103208D01*
Y110617D01*
X102192D01*
X102395Y110820D02*
Y111430D01*
X103005D01*
Y110820D01*
X102395D01*
X114067Y117627D02*
Y118643D01*
X115083D01*
Y117627D01*
X114067D01*
X114270Y117830D02*
Y118440D01*
X114880D01*
Y117830D01*
X114270D01*
X148792Y113792D02*
Y114808D01*
X149808D01*
Y113792D01*
X148792D01*
X148995Y113995D02*
Y114605D01*
X149605D01*
Y113995D01*
X148995D01*
X97792Y110367D02*
Y111383D01*
X98808D01*
Y110367D01*
X97792D01*
X97995Y110570D02*
Y111180D01*
X98605D01*
Y110570D01*
X97995D01*
X94792Y110367D02*
Y111383D01*
X95808D01*
Y110367D01*
X94792D01*
X94995Y110570D02*
Y111180D01*
X95605D01*
Y110570D01*
X94995D01*
X116042Y125392D02*
Y126408D01*
X117058D01*
Y125392D01*
X116042D01*
X116245Y125595D02*
Y126205D01*
X116855D01*
Y125595D01*
X116245D01*
X104892Y118997D02*
Y120013D01*
X105908D01*
Y118997D01*
X104892D01*
X105095Y119200D02*
Y119810D01*
X105705D01*
Y119200D01*
X105095D01*
X124492Y99492D02*
Y100508D01*
X125508D01*
Y99492D01*
X124492D01*
X124695Y99695D02*
Y100305D01*
X125305D01*
Y99695D01*
X124695D01*
X117392Y108792D02*
Y109808D01*
X118408D01*
Y108792D01*
X117392D01*
X117595Y108995D02*
Y109605D01*
X118205D01*
Y108995D01*
X117595D01*
X125492Y117317D02*
Y118333D01*
X126508D01*
Y117317D01*
X125492D01*
X125695Y117520D02*
Y118130D01*
X126305D01*
Y117520D01*
X125695D01*
X122992Y126492D02*
Y127508D01*
X124008D01*
Y126492D01*
X122992D01*
X123195Y126695D02*
Y127305D01*
X123805D01*
Y126695D01*
X123195D01*
X122992Y131992D02*
Y133008D01*
X124008D01*
Y131992D01*
X122992D01*
X123195Y132195D02*
Y132805D01*
X123805D01*
Y132195D01*
X123195D01*
X106292Y134192D02*
Y135208D01*
X107308D01*
Y134192D01*
X106292D01*
X106495Y134395D02*
Y135005D01*
X107105D01*
Y134395D01*
X106495D01*
X115392Y134192D02*
Y135208D01*
X116408D01*
Y134192D01*
X115392D01*
X115595Y134395D02*
Y135005D01*
X116205D01*
Y134395D01*
X115595D01*
X104192Y111392D02*
Y112408D01*
X105208D01*
Y111392D01*
X104192D01*
X104395Y111595D02*
Y112205D01*
X105005D01*
Y111595D01*
X104395D01*
X91592Y120192D02*
Y121208D01*
X92608D01*
Y120192D01*
X91592D01*
X91795Y120395D02*
Y121005D01*
X92405D01*
Y120395D01*
X91795D01*
X121542Y120192D02*
Y121208D01*
X122558D01*
Y120192D01*
X121542D01*
X121745Y120395D02*
Y121005D01*
X122355D01*
Y120395D01*
X121745D01*
X99142Y120192D02*
Y121208D01*
X100158D01*
Y120192D01*
X99142D01*
X99345Y120395D02*
Y121005D01*
X99955D01*
Y120395D01*
X99345D01*
X145492Y115992D02*
Y117008D01*
X146508D01*
Y115992D01*
X145492D01*
X145695Y116195D02*
Y116805D01*
X146305D01*
Y116195D01*
X145695D01*
X158892Y123292D02*
Y124308D01*
X159908D01*
Y123292D01*
X158892D01*
X159095Y123495D02*
Y124105D01*
X159705D01*
Y123495D01*
X159095D01*
X168492Y81492D02*
Y82508D01*
X169508D01*
Y81492D01*
X168492D01*
X168695Y81695D02*
Y82305D01*
X169305D01*
Y81695D01*
X168695D01*
X168492Y78492D02*
Y79508D01*
X169508D01*
Y78492D01*
X168492D01*
X168695Y78695D02*
Y79305D01*
X169305D01*
Y78695D01*
X168695D01*
X168492Y75492D02*
Y76508D01*
X169508D01*
Y75492D01*
X168492D01*
X168695Y75695D02*
Y76305D01*
X169305D01*
Y75695D01*
X168695D01*
X166992Y72992D02*
Y74008D01*
X168008D01*
Y72992D01*
X166992D01*
X167195Y73195D02*
Y73805D01*
X167805D01*
Y73195D01*
X167195D01*
X162992Y72492D02*
Y73508D01*
X164008D01*
Y72492D01*
X162992D01*
X163195Y72695D02*
Y73305D01*
X163805D01*
Y72695D01*
X163195D01*
X160992Y69992D02*
Y71008D01*
X162008D01*
Y69992D01*
X160992D01*
X161195Y70195D02*
Y70805D01*
X161805D01*
Y70195D01*
X161195D01*
X165992Y81492D02*
Y82508D01*
X167008D01*
Y81492D01*
X165992D01*
X166195Y81695D02*
Y82305D01*
X166805D01*
Y81695D01*
X166195D01*
X165992Y78492D02*
Y79508D01*
X167008D01*
Y78492D01*
X165992D01*
X166195Y78695D02*
Y79305D01*
X166805D01*
Y78695D01*
X166195D01*
X163492Y76492D02*
Y77508D01*
X164508D01*
Y76492D01*
X163492D01*
X163695Y76695D02*
Y77305D01*
X164305D01*
Y76695D01*
X163695D01*
X159992Y75242D02*
Y76258D01*
X161008D01*
Y75242D01*
X159992D01*
X160195Y75445D02*
Y76055D01*
X160805D01*
Y75445D01*
X160195D01*
X157742Y72992D02*
Y74008D01*
X158758D01*
Y72992D01*
X157742D01*
X157945Y73195D02*
Y73805D01*
X158555D01*
Y73195D01*
X157945D01*
X161092Y84292D02*
Y85308D01*
X162108D01*
Y84292D01*
X161092D01*
X161295Y84495D02*
Y85105D01*
X161905D01*
Y84495D01*
X161295D01*
X157192Y84292D02*
Y85308D01*
X158208D01*
Y84292D01*
X157192D01*
X157395Y84495D02*
Y85105D01*
X158005D01*
Y84495D01*
X157395D01*
X153992Y81392D02*
Y82408D01*
X155008D01*
Y81392D01*
X153992D01*
X154195Y81595D02*
Y82205D01*
X154805D01*
Y81595D01*
X154195D01*
X150792Y78392D02*
Y79408D01*
X151808D01*
Y78392D01*
X150792D01*
X150995Y78595D02*
Y79205D01*
X151605D01*
Y78595D01*
X150995D01*
X150792Y74992D02*
Y76008D01*
X151808D01*
Y74992D01*
X150792D01*
X150995Y75195D02*
Y75805D01*
X151605D01*
Y75195D01*
X150995D01*
X150792Y71892D02*
Y72908D01*
X151808D01*
Y71892D01*
X150792D01*
X150995Y72095D02*
Y72705D01*
X151605D01*
Y72095D01*
X150995D01*
X160092Y78192D02*
Y79208D01*
X161108D01*
Y78192D01*
X160092D01*
X160295Y78395D02*
Y79005D01*
X160905D01*
Y78395D01*
X160295D01*
X156392Y75992D02*
Y77008D01*
X157408D01*
Y75992D01*
X156392D01*
X156595Y76195D02*
Y76805D01*
X157205D01*
Y76195D01*
X156595D01*
X153992Y72992D02*
Y74008D01*
X155008D01*
Y72992D01*
X153992D01*
X154195Y73195D02*
Y73805D01*
X154805D01*
Y73195D01*
X154195D01*
X115692Y129392D02*
Y130408D01*
X116708D01*
Y129392D01*
X115692D01*
X115895Y129595D02*
Y130205D01*
X116505D01*
Y129595D01*
X115895D01*
X159692Y90092D02*
Y91108D01*
X160708D01*
Y90092D01*
X159692D01*
X159895Y90295D02*
Y90905D01*
X160505D01*
Y90295D01*
X159895D01*
X160992Y88792D02*
Y89808D01*
X162008D01*
Y88792D01*
X160992D01*
X161195Y88995D02*
Y89605D01*
X161805D01*
Y88995D01*
X161195D01*
X158392Y86892D02*
Y87908D01*
X159408D01*
Y86892D01*
X158392D01*
X158595Y87095D02*
Y87705D01*
X159205D01*
Y87095D01*
X158595D01*
X157192Y87992D02*
Y89008D01*
X158208D01*
Y87992D01*
X157192D01*
X157395Y88195D02*
Y88805D01*
X158005D01*
Y88195D01*
X157395D01*
X153492Y105992D02*
Y107008D01*
X154508D01*
Y105992D01*
X153492D01*
X153695Y106195D02*
Y106805D01*
X154305D01*
Y106195D01*
X153695D01*
X155992Y103492D02*
Y104508D01*
X157008D01*
Y103492D01*
X155992D01*
X156195Y103695D02*
Y104305D01*
X156805D01*
Y103695D01*
X156195D01*
X158492Y100992D02*
Y102008D01*
X159508D01*
Y100992D01*
X158492D01*
X158695Y101195D02*
Y101805D01*
X159305D01*
Y101195D01*
X158695D01*
X156242Y98742D02*
Y99758D01*
X157258D01*
Y98742D01*
X156242D01*
X156445Y98945D02*
Y99555D01*
X157055D01*
Y98945D01*
X156445D01*
X153742Y101242D02*
Y102258D01*
X154758D01*
Y101242D01*
X153742D01*
X153945Y101445D02*
Y102055D01*
X154555D01*
Y101445D01*
X153945D01*
X151242Y103742D02*
Y104758D01*
X152258D01*
Y103742D01*
X151242D01*
X151445Y103945D02*
Y104555D01*
X152055D01*
Y103945D01*
X151445D01*
X135492Y76492D02*
Y77508D01*
X136508D01*
Y76492D01*
X135492D01*
X135695Y76695D02*
Y77305D01*
X136305D01*
Y76695D01*
X135695D01*
X135492Y72992D02*
Y74008D01*
X136508D01*
Y72992D01*
X135492D01*
X135695Y73195D02*
Y73805D01*
X136305D01*
Y73195D01*
X135695D01*
X164992Y127892D02*
Y128908D01*
X166008D01*
Y127892D01*
X164992D01*
X165195Y128095D02*
Y128705D01*
X165805D01*
Y128095D01*
X165195D01*
X164992Y129992D02*
Y131008D01*
X166008D01*
Y129992D01*
X164992D01*
X165195Y130195D02*
Y130805D01*
X165805D01*
Y130195D01*
X165195D01*
X141392Y126392D02*
Y127408D01*
X142408D01*
Y126392D01*
X141392D01*
X141595Y126595D02*
Y127205D01*
X142205D01*
Y126595D01*
X141595D01*
X141392Y124392D02*
Y125408D01*
X142408D01*
Y124392D01*
X141392D01*
X141595Y124595D02*
Y125205D01*
X142205D01*
Y124595D01*
X141595D01*
X150492Y124392D02*
Y125408D01*
X151508D01*
Y124392D01*
X150492D01*
X150695Y124595D02*
Y125205D01*
X151305D01*
Y124595D01*
X150695D01*
X150492Y126392D02*
Y127408D01*
X151508D01*
Y126392D01*
X150492D01*
X150695Y126595D02*
Y127205D01*
X151305D01*
Y126595D01*
X150695D01*
X119692Y101492D02*
Y102508D01*
X120708D01*
Y101492D01*
X119692D01*
X119895Y101695D02*
Y102305D01*
X120505D01*
Y101695D01*
X119895D01*
X119692Y99492D02*
Y100508D01*
X120708D01*
Y99492D01*
X119692D01*
X119895Y99695D02*
Y100305D01*
X120505D01*
Y99695D01*
X119895D01*
X123392Y103292D02*
Y104308D01*
X124408D01*
Y103292D01*
X123392D01*
X123595Y103495D02*
Y104105D01*
X124205D01*
Y103495D01*
X123595D01*
X125092Y101792D02*
Y102808D01*
X126108D01*
Y101792D01*
X125092D01*
X125295Y101995D02*
Y102605D01*
X125905D01*
Y101995D01*
X125295D01*
X138092Y113292D02*
Y114308D01*
X139108D01*
Y113292D01*
X138092D01*
X138295Y113495D02*
Y114105D01*
X138905D01*
Y113495D01*
X138295D01*
X138092Y115292D02*
Y116308D01*
X139108D01*
Y115292D01*
X138092D01*
X138295Y115495D02*
Y116105D01*
X138905D01*
Y115495D01*
X138295D01*
X106092Y103992D02*
Y105008D01*
X107108D01*
Y103992D01*
X106092D01*
X106295Y104195D02*
Y104805D01*
X106905D01*
Y104195D01*
X106295D01*
X113592Y101492D02*
Y102508D01*
X114608D01*
Y101492D01*
X113592D01*
X113795Y101695D02*
Y102305D01*
X114405D01*
Y101695D01*
X113795D01*
X113592Y99492D02*
Y100508D01*
X114608D01*
Y99492D01*
X113592D01*
X113795Y99695D02*
Y100305D01*
X114405D01*
Y99695D01*
X113795D01*
X125992Y115592D02*
Y116608D01*
X127008D01*
Y115592D01*
X125992D01*
X126195Y115795D02*
Y116405D01*
X126805D01*
Y115795D01*
X126195D01*
X129392Y115592D02*
Y116608D01*
X130408D01*
Y115592D01*
X129392D01*
X129595Y115795D02*
Y116405D01*
X130205D01*
Y115795D01*
X129595D01*
X120492Y121592D02*
Y122608D01*
X121508D01*
Y121592D01*
X120492D01*
X120695Y121795D02*
Y122405D01*
X121305D01*
Y121795D01*
X120695D01*
X117492Y121592D02*
Y122608D01*
X118508D01*
Y121592D01*
X117492D01*
X117695Y121795D02*
Y122405D01*
X118305D01*
Y121795D01*
X117695D01*
X124392Y126592D02*
Y127608D01*
X125408D01*
Y126592D01*
X124392D01*
X124595Y126795D02*
Y127405D01*
X125205D01*
Y126795D01*
X124595D01*
X131692Y141692D02*
Y142708D01*
X132708D01*
Y141692D01*
X131692D01*
X131895Y141895D02*
Y142505D01*
X132505D01*
Y141895D01*
X131895D01*
X126692Y141692D02*
Y142708D01*
X127708D01*
Y141692D01*
X126692D01*
X126895Y141895D02*
Y142505D01*
X127505D01*
Y141895D01*
X126895D01*
X121692Y141692D02*
Y142708D01*
X122708D01*
Y141692D01*
X121692D01*
X121895Y141895D02*
Y142505D01*
X122505D01*
Y141895D01*
X121895D01*
X116692Y141692D02*
Y142708D01*
X117708D01*
Y141692D01*
X116692D01*
X116895Y141895D02*
Y142505D01*
X117505D01*
Y141895D01*
X116895D01*
X133092Y134792D02*
Y135808D01*
X134108D01*
Y134792D01*
X133092D01*
X133295Y134995D02*
Y135605D01*
X133905D01*
Y134995D01*
X133295D01*
X81592Y106492D02*
Y107508D01*
X82608D01*
Y106492D01*
X81592D01*
X81795Y106695D02*
Y107305D01*
X82405D01*
Y106695D01*
X81795D01*
X78892Y106492D02*
Y107508D01*
X79908D01*
Y106492D01*
X78892D01*
X79095Y106695D02*
Y107305D01*
X79705D01*
Y106695D01*
X79095D01*
X82192Y118492D02*
Y119508D01*
X83208D01*
Y118492D01*
X82192D01*
X82395Y118695D02*
Y119305D01*
X83005D01*
Y118695D01*
X82395D01*
X78292Y118492D02*
Y119508D01*
X79308D01*
Y118492D01*
X78292D01*
X78495Y118695D02*
Y119305D01*
X79105D01*
Y118695D01*
X78495D01*
X91792Y126792D02*
Y127808D01*
X92808D01*
Y126792D01*
X91792D01*
X91995Y126995D02*
Y127605D01*
X92605D01*
Y126995D01*
X91995D01*
X88892Y129592D02*
Y130608D01*
X89908D01*
Y129592D01*
X88892D01*
X89095Y129795D02*
Y130405D01*
X89705D01*
Y129795D01*
X89095D01*
X97292Y137992D02*
Y139008D01*
X98308D01*
Y137992D01*
X97292D01*
X97495Y138195D02*
Y138805D01*
X98105D01*
Y138195D01*
X97495D01*
X94092Y137892D02*
Y138908D01*
X95108D01*
Y137892D01*
X94092D01*
X94295Y138095D02*
Y138705D01*
X94905D01*
Y138095D01*
X94295D01*
X111692Y141692D02*
Y142708D01*
X112708D01*
Y141692D01*
X111692D01*
X111895Y141895D02*
Y142505D01*
X112505D01*
Y141895D01*
X111895D01*
X110492Y136592D02*
Y137608D01*
X111508D01*
Y136592D01*
X110492D01*
X110695Y136795D02*
Y137405D01*
X111305D01*
Y136795D01*
X110695D01*
X108792Y114692D02*
Y115708D01*
X109808D01*
Y114692D01*
X108792D01*
X108995Y114895D02*
Y115505D01*
X109605D01*
Y114895D01*
X108995D01*
X108692Y122792D02*
Y123808D01*
X109708D01*
Y122792D01*
X108692D01*
X108895Y122995D02*
Y123605D01*
X109505D01*
Y122995D01*
X108895D01*
X138692Y100892D02*
Y101908D01*
X139708D01*
Y100892D01*
X138692D01*
X138895Y101095D02*
Y101705D01*
X139505D01*
Y101095D01*
X138895D01*
X135492Y100892D02*
Y101908D01*
X136508D01*
Y100892D01*
X135492D01*
X135695Y101095D02*
Y101705D01*
X136305D01*
Y101095D01*
X135695D01*
X133592Y102692D02*
Y103708D01*
X134608D01*
Y102692D01*
X133592D01*
X133795Y102895D02*
Y103505D01*
X134405D01*
Y102895D01*
X133795D01*
X101092Y131592D02*
Y132608D01*
X102108D01*
Y131592D01*
X101092D01*
X101295Y131795D02*
Y132405D01*
X101905D01*
Y131795D01*
X101295D01*
X91892Y110692D02*
Y111708D01*
X92908D01*
Y110692D01*
X91892D01*
X92095Y110895D02*
Y111505D01*
X92705D01*
Y110895D01*
X92095D01*
X112592Y109492D02*
Y110508D01*
X113608D01*
Y109492D01*
X112592D01*
X112795Y109695D02*
Y110305D01*
X113405D01*
Y109695D01*
X112795D01*
X107692Y103992D02*
Y105008D01*
X108708D01*
Y103992D01*
X107692D01*
X107895Y104195D02*
Y104805D01*
X108505D01*
Y104195D01*
X107895D01*
D124*
X161258Y106000D02*
G03*
X161258Y106000I-508J0D01*
G01*
X139758D02*
G03*
X139758Y106000I-508J0D01*
G01*
X168408Y102040D02*
G03*
X168408Y102040I-508J0D01*
G01*
Y84260D02*
G03*
X168408Y84260I-508J0D01*
G01*
M02*
