G04 Layer_Color=128*
%FSLAX43Y43*%
%MOMM*%
G71*
G01*
G75*
%ADD123C,0.127*%
D123*
X72300Y141000D02*
X75700D01*
X74000Y139300D02*
Y142700D01*
X164300Y141000D02*
X167700D01*
X166000Y139300D02*
Y142700D01*
X164300Y69000D02*
X167700D01*
X166000Y67300D02*
Y70700D01*
X72300Y69000D02*
X75700D01*
X74000Y67300D02*
Y70700D01*
X119100Y95500D02*
X122500D01*
X120800Y93800D02*
Y97200D01*
X159875Y106000D02*
X161625D01*
X160750Y105125D02*
Y106875D01*
X138375Y106000D02*
X140125D01*
X139250Y105125D02*
Y106875D01*
X135450Y113100D02*
X136350D01*
X135900Y112650D02*
Y113550D01*
X132950Y110600D02*
X133850D01*
X133400Y110150D02*
Y111050D01*
X130450Y113100D02*
X131350D01*
X130900Y112650D02*
Y113550D01*
X86480Y139250D02*
X87680D01*
X87080Y138650D02*
Y139850D01*
X81400Y139250D02*
X82600D01*
X82000Y138650D02*
Y139850D01*
X152570Y70750D02*
X153770D01*
X153170Y70150D02*
Y71350D01*
X157650Y70750D02*
X158850D01*
X158250Y70150D02*
Y71350D01*
X143160Y136000D02*
X144160D01*
X143660Y135500D02*
Y136500D01*
X145700Y136000D02*
X146700D01*
X146200Y135500D02*
Y136500D01*
X148240Y136000D02*
X149240D01*
X148740Y135500D02*
Y136500D01*
X150780Y136000D02*
X151780D01*
X151280Y135500D02*
Y136500D01*
X168150Y129430D02*
X168850D01*
X168500Y129080D02*
Y129780D01*
X168150Y131970D02*
X168850D01*
X168500Y131620D02*
Y132320D01*
X123550Y139300D02*
X124550D01*
X124050Y138800D02*
Y139800D01*
X117200Y139300D02*
X118200D01*
X117700Y138800D02*
Y139800D01*
X167025Y102040D02*
X168775D01*
X167900Y101165D02*
Y102915D01*
X167250Y96960D02*
X168550D01*
X167900Y96310D02*
Y97610D01*
X167250Y89340D02*
X168550D01*
X167900Y88690D02*
Y89990D01*
X167025Y84260D02*
X168775D01*
X167900Y83385D02*
Y85135D01*
X166150Y123261D02*
X167650D01*
X166900Y122511D02*
Y124011D01*
X166150Y117800D02*
X167650D01*
X166900Y117050D02*
Y118550D01*
X166150Y112339D02*
X167650D01*
X166900Y111589D02*
Y113089D01*
X75000Y129750D02*
X76300D01*
X75650Y129100D02*
Y130400D01*
X75000Y124750D02*
X76300D01*
X75650Y124100D02*
Y125400D01*
X82700Y124750D02*
X84000D01*
X83350Y124100D02*
Y125400D01*
X82700Y129750D02*
X84000D01*
X83350Y129100D02*
Y130400D01*
X156250Y129630D02*
X156950D01*
X156600Y129280D02*
Y129980D01*
X154980Y130900D02*
X155680D01*
X155330Y130550D02*
Y131250D01*
X156250Y132170D02*
X156950D01*
X156600Y131820D02*
Y132520D01*
X136900Y81750D02*
X138200D01*
X137550Y81100D02*
Y82400D01*
X161900Y81750D02*
X163200D01*
X162550Y81100D02*
Y82400D01*
X87100Y112420D02*
X88400D01*
X87750Y111770D02*
Y113070D01*
X87100Y117500D02*
X88400D01*
X87750Y116850D02*
Y118150D01*
X146960Y111000D02*
X147960D01*
X147460Y110500D02*
Y111500D01*
X152040Y111000D02*
X153040D01*
X152540Y110500D02*
Y111500D01*
X138750Y140300D02*
X139450D01*
X139100Y139950D02*
Y140650D01*
X136250Y140300D02*
X136950D01*
X136600Y139950D02*
Y140650D01*
X80250Y113500D02*
X81250D01*
X80750Y113000D02*
Y114000D01*
X75250Y113500D02*
X76250D01*
X75750Y113000D02*
Y114000D01*
X148350Y131100D02*
X149050D01*
X148700Y130750D02*
Y131450D01*
X150850Y131100D02*
X151550D01*
X151200Y130750D02*
Y131450D01*
X142650Y92000D02*
X143650D01*
X143150Y91500D02*
Y92500D01*
X157650Y92000D02*
X158650D01*
X158150Y91500D02*
Y92500D01*
X168850Y109500D02*
X169150D01*
X169000Y109350D02*
Y109650D01*
X168850Y105500D02*
X169150D01*
X169000Y105350D02*
Y105650D01*
X163850Y105500D02*
X164150D01*
X164000Y105350D02*
Y105650D01*
X163850Y109500D02*
X164150D01*
X164000Y109350D02*
Y109650D01*
X162850Y115500D02*
X163150D01*
X163000Y115350D02*
Y115650D01*
X160850Y113500D02*
X161150D01*
X161000Y113350D02*
Y113650D01*
X158850Y111500D02*
X159150D01*
X159000Y111350D02*
Y111650D01*
X156850Y109500D02*
X157150D01*
X157000Y109350D02*
Y109650D01*
X154350Y109000D02*
X154650D01*
X154500Y108850D02*
Y109150D01*
X153350Y113500D02*
X153650D01*
X153500Y113350D02*
Y113650D01*
X155350Y115500D02*
X155650D01*
X155500Y115350D02*
Y115650D01*
X157350Y117500D02*
X157650D01*
X157500Y117350D02*
Y117650D01*
X159350Y119500D02*
X159650D01*
X159500Y119350D02*
Y119650D01*
X162850Y119500D02*
X163150D01*
X163000Y119350D02*
Y119650D01*
X138350Y87000D02*
X138650D01*
X138500Y86850D02*
Y87150D01*
X138850Y90000D02*
X139150D01*
X139000Y89850D02*
Y90150D01*
X138850Y94000D02*
X139150D01*
X139000Y93850D02*
Y94150D01*
X138850Y98000D02*
X139150D01*
X139000Y97850D02*
Y98150D01*
X150600Y90000D02*
X150900D01*
X150750Y89850D02*
Y90150D01*
X150600Y94000D02*
X150900D01*
X150750Y93850D02*
Y94150D01*
X150600Y98000D02*
X150900D01*
X150750Y97850D02*
Y98150D01*
X150600Y102000D02*
X150900D01*
X150750Y101850D02*
Y102150D01*
X164950Y87800D02*
X165250D01*
X165100Y87650D02*
Y87950D01*
X149350Y80500D02*
X149650D01*
X149500Y80350D02*
Y80650D01*
X152350Y83500D02*
X152650D01*
X152500Y83350D02*
Y83650D01*
X155350Y86500D02*
X155650D01*
X155500Y86350D02*
Y86650D01*
X144350Y80500D02*
X144650D01*
X144500Y80350D02*
Y80650D01*
X146850Y83500D02*
X147150D01*
X147000Y83350D02*
Y83650D01*
X149850Y86500D02*
X150150D01*
X150000Y86350D02*
Y86650D01*
X140850Y90000D02*
X141150D01*
X141000Y89850D02*
Y90150D01*
X140850Y94000D02*
X141150D01*
X141000Y93850D02*
Y94150D01*
X140850Y98000D02*
X141150D01*
X141000Y97850D02*
Y98150D01*
X142350Y102000D02*
X142650D01*
X142500Y101850D02*
Y102150D01*
X143350Y106000D02*
X143650D01*
X143500Y105850D02*
Y106150D01*
X143350Y110000D02*
X143650D01*
X143500Y109850D02*
Y110150D01*
X144350Y112500D02*
X144650D01*
X144500Y112350D02*
Y112650D01*
X147850Y106000D02*
X148150D01*
X148000Y105850D02*
Y106150D01*
X148350Y102000D02*
X148650D01*
X148500Y101850D02*
Y102150D01*
X148350Y98000D02*
X148650D01*
X148500Y97850D02*
Y98150D01*
X148350Y94000D02*
X148650D01*
X148500Y93850D02*
Y94150D01*
X148350Y90000D02*
X148650D01*
X148500Y89850D02*
Y90150D01*
X146850Y86500D02*
X147150D01*
X147000Y86350D02*
Y86650D01*
X143850Y83500D02*
X144150D01*
X144000Y83350D02*
Y83650D01*
X140850Y80500D02*
X141150D01*
X141000Y80350D02*
Y80650D01*
X139850Y85500D02*
X140150D01*
X140000Y85350D02*
Y85650D01*
X89750Y93300D02*
X90050D01*
X89900Y93150D02*
Y93450D01*
X142850Y68000D02*
X143150D01*
X143000Y67850D02*
Y68150D01*
X114750Y113400D02*
X115050D01*
X114900Y113250D02*
Y113550D01*
X101850Y113700D02*
X102150D01*
X102000Y113550D02*
Y113850D01*
X154650Y118200D02*
X154950D01*
X154800Y118050D02*
Y118350D01*
X129650Y122600D02*
X129950D01*
X129800Y122450D02*
Y122750D01*
X132200Y128800D02*
X132500D01*
X132350Y128650D02*
Y128950D01*
X125850Y123800D02*
X126150D01*
X126000Y123650D02*
Y123950D01*
X124450Y131450D02*
X124750D01*
X124600Y131300D02*
Y131600D01*
X114850Y126000D02*
X115150D01*
X115000Y125850D02*
Y126150D01*
X125600Y85000D02*
X125900D01*
X125750Y84850D02*
Y85150D01*
X128850Y85000D02*
X129150D01*
X129000Y84850D02*
Y85150D01*
X125600Y80000D02*
X125900D01*
X125750Y79850D02*
Y80150D01*
X125600Y90000D02*
X125900D01*
X125750Y89850D02*
Y90150D01*
X125600Y95000D02*
X125900D01*
X125750Y94850D02*
Y95150D01*
X128850Y80000D02*
X129150D01*
X129000Y79850D02*
Y80150D01*
X128850Y90000D02*
X129150D01*
X129000Y89850D02*
Y90150D01*
X128850Y95000D02*
X129150D01*
X129000Y94850D02*
Y95150D01*
X132695Y98200D02*
X132995D01*
X132845Y98050D02*
Y98350D01*
X120150Y128250D02*
X120450D01*
X120300Y128100D02*
Y128400D01*
X146650Y120025D02*
X146950D01*
X146800Y119875D02*
Y120175D01*
X131450Y117825D02*
X131750D01*
X131600Y117675D02*
Y117975D01*
X112500Y120100D02*
X112800D01*
X112650Y119950D02*
Y120250D01*
X145350Y125000D02*
X145650D01*
X145500Y124850D02*
Y125150D01*
X128750Y111400D02*
X129050D01*
X128900Y111250D02*
Y111550D01*
X126450Y109100D02*
X126750D01*
X126600Y108950D02*
Y109250D01*
X125250Y105750D02*
X125550D01*
X125400Y105600D02*
Y105900D01*
X128850Y106800D02*
X129150D01*
X129000Y106650D02*
Y106950D01*
X99650Y108200D02*
X99950D01*
X99800Y108050D02*
Y108350D01*
X102550Y111125D02*
X102850D01*
X102700Y110975D02*
Y111275D01*
X114425Y118135D02*
X114725D01*
X114575Y117985D02*
Y118285D01*
X149150Y114300D02*
X149450D01*
X149300Y114150D02*
Y114450D01*
X98150Y110875D02*
X98450D01*
X98300Y110725D02*
Y111025D01*
X95150Y110875D02*
X95450D01*
X95300Y110725D02*
Y111025D01*
X116400Y125900D02*
X116700D01*
X116550Y125750D02*
Y126050D01*
X105250Y119505D02*
X105550D01*
X105400Y119355D02*
Y119655D01*
X124850Y100000D02*
X125150D01*
X125000Y99850D02*
Y100150D01*
X117750Y109300D02*
X118050D01*
X117900Y109150D02*
Y109450D01*
X125850Y117825D02*
X126150D01*
X126000Y117675D02*
Y117975D01*
X123350Y127000D02*
X123650D01*
X123500Y126850D02*
Y127150D01*
X123350Y132500D02*
X123650D01*
X123500Y132350D02*
Y132650D01*
X106650Y134700D02*
X106950D01*
X106800Y134550D02*
Y134850D01*
X115750Y134700D02*
X116050D01*
X115900Y134550D02*
Y134850D01*
X104550Y111900D02*
X104850D01*
X104700Y111750D02*
Y112050D01*
X91950Y120700D02*
X92250D01*
X92100Y120550D02*
Y120850D01*
X121900Y120700D02*
X122200D01*
X122050Y120550D02*
Y120850D01*
X99500Y120700D02*
X99800D01*
X99650Y120550D02*
Y120850D01*
X145850Y116500D02*
X146150D01*
X146000Y116350D02*
Y116650D01*
X159250Y123800D02*
X159550D01*
X159400Y123650D02*
Y123950D01*
X168850Y82000D02*
X169150D01*
X169000Y81850D02*
Y82150D01*
X168850Y79000D02*
X169150D01*
X169000Y78850D02*
Y79150D01*
X168850Y76000D02*
X169150D01*
X169000Y75850D02*
Y76150D01*
X167350Y73500D02*
X167650D01*
X167500Y73350D02*
Y73650D01*
X163350Y73000D02*
X163650D01*
X163500Y72850D02*
Y73150D01*
X161350Y70500D02*
X161650D01*
X161500Y70350D02*
Y70650D01*
X166350Y82000D02*
X166650D01*
X166500Y81850D02*
Y82150D01*
X166350Y79000D02*
X166650D01*
X166500Y78850D02*
Y79150D01*
X163850Y77000D02*
X164150D01*
X164000Y76850D02*
Y77150D01*
X160350Y75750D02*
X160650D01*
X160500Y75600D02*
Y75900D01*
X158100Y73500D02*
X158400D01*
X158250Y73350D02*
Y73650D01*
X161450Y84800D02*
X161750D01*
X161600Y84650D02*
Y84950D01*
X157550Y84800D02*
X157850D01*
X157700Y84650D02*
Y84950D01*
X154350Y81900D02*
X154650D01*
X154500Y81750D02*
Y82050D01*
X151150Y78900D02*
X151450D01*
X151300Y78750D02*
Y79050D01*
X151150Y75500D02*
X151450D01*
X151300Y75350D02*
Y75650D01*
X151150Y72400D02*
X151450D01*
X151300Y72250D02*
Y72550D01*
X160450Y78700D02*
X160750D01*
X160600Y78550D02*
Y78850D01*
X156750Y76500D02*
X157050D01*
X156900Y76350D02*
Y76650D01*
X154350Y73500D02*
X154650D01*
X154500Y73350D02*
Y73650D01*
X116050Y129900D02*
X116350D01*
X116200Y129750D02*
Y130050D01*
X160050Y90600D02*
X160350D01*
X160200Y90450D02*
Y90750D01*
X161350Y89300D02*
X161650D01*
X161500Y89150D02*
Y89450D01*
X158750Y87400D02*
X159050D01*
X158900Y87250D02*
Y87550D01*
X157550Y88500D02*
X157850D01*
X157700Y88350D02*
Y88650D01*
X153850Y106500D02*
X154150D01*
X154000Y106350D02*
Y106650D01*
X156350Y104000D02*
X156650D01*
X156500Y103850D02*
Y104150D01*
X158850Y101500D02*
X159150D01*
X159000Y101350D02*
Y101650D01*
X156600Y99250D02*
X156900D01*
X156750Y99100D02*
Y99400D01*
X154100Y101750D02*
X154400D01*
X154250Y101600D02*
Y101900D01*
X151600Y104250D02*
X151900D01*
X151750Y104100D02*
Y104400D01*
X135850Y77000D02*
X136150D01*
X136000Y76850D02*
Y77150D01*
X135850Y73500D02*
X136150D01*
X136000Y73350D02*
Y73650D01*
X165350Y128400D02*
X165650D01*
X165500Y128250D02*
Y128550D01*
X165350Y130500D02*
X165650D01*
X165500Y130350D02*
Y130650D01*
X141750Y126900D02*
X142050D01*
X141900Y126750D02*
Y127050D01*
X141750Y124900D02*
X142050D01*
X141900Y124750D02*
Y125050D01*
X150850Y124900D02*
X151150D01*
X151000Y124750D02*
Y125050D01*
X150850Y126900D02*
X151150D01*
X151000Y126750D02*
Y127050D01*
X120050Y102000D02*
X120350D01*
X120200Y101850D02*
Y102150D01*
X120050Y100000D02*
X120350D01*
X120200Y99850D02*
Y100150D01*
X123750Y103800D02*
X124050D01*
X123900Y103650D02*
Y103950D01*
X125450Y102300D02*
X125750D01*
X125600Y102150D02*
Y102450D01*
X138450Y113800D02*
X138750D01*
X138600Y113650D02*
Y113950D01*
X138450Y115800D02*
X138750D01*
X138600Y115650D02*
Y115950D01*
X106450Y104500D02*
X106750D01*
X106600Y104350D02*
Y104650D01*
X113950Y102000D02*
X114250D01*
X114100Y101850D02*
Y102150D01*
X113950Y100000D02*
X114250D01*
X114100Y99850D02*
Y100150D01*
X126350Y116100D02*
X126650D01*
X126500Y115950D02*
Y116250D01*
X129750Y116100D02*
X130050D01*
X129900Y115950D02*
Y116250D01*
X120850Y122100D02*
X121150D01*
X121000Y121950D02*
Y122250D01*
X117850Y122100D02*
X118150D01*
X118000Y121950D02*
Y122250D01*
X124750Y127100D02*
X125050D01*
X124900Y126950D02*
Y127250D01*
X132050Y142200D02*
X132350D01*
X132200Y142050D02*
Y142350D01*
X127050Y142200D02*
X127350D01*
X127200Y142050D02*
Y142350D01*
X122050Y142200D02*
X122350D01*
X122200Y142050D02*
Y142350D01*
X117050Y142200D02*
X117350D01*
X117200Y142050D02*
Y142350D01*
X133450Y135300D02*
X133750D01*
X133600Y135150D02*
Y135450D01*
X81950Y107000D02*
X82250D01*
X82100Y106850D02*
Y107150D01*
X79250Y107000D02*
X79550D01*
X79400Y106850D02*
Y107150D01*
X82550Y119000D02*
X82850D01*
X82700Y118850D02*
Y119150D01*
X78650Y119000D02*
X78950D01*
X78800Y118850D02*
Y119150D01*
X92150Y127300D02*
X92450D01*
X92300Y127150D02*
Y127450D01*
X89250Y130100D02*
X89550D01*
X89400Y129950D02*
Y130250D01*
X97650Y138500D02*
X97950D01*
X97800Y138350D02*
Y138650D01*
X94450Y138400D02*
X94750D01*
X94600Y138250D02*
Y138550D01*
X112050Y142200D02*
X112350D01*
X112200Y142050D02*
Y142350D01*
X110850Y137100D02*
X111150D01*
X111000Y136950D02*
Y137250D01*
X109150Y115200D02*
X109450D01*
X109300Y115050D02*
Y115350D01*
X109050Y123300D02*
X109350D01*
X109200Y123150D02*
Y123450D01*
X139050Y101400D02*
X139350D01*
X139200Y101250D02*
Y101550D01*
X135850Y101400D02*
X136150D01*
X136000Y101250D02*
Y101550D01*
X133950Y103200D02*
X134250D01*
X134100Y103050D02*
Y103350D01*
X101450Y132100D02*
X101750D01*
X101600Y131950D02*
Y132250D01*
X92250Y111200D02*
X92550D01*
X92400Y111050D02*
Y111350D01*
X112950Y110000D02*
X113250D01*
X113100Y109850D02*
Y110150D01*
X108050Y104500D02*
X108350D01*
X108200Y104350D02*
Y104650D01*
M02*
