G04 Layer_Color=7318015*
%FSLAX43Y43*%
%MOMM*%
G71*
G01*
G75*
G04:AMPARAMS|DCode=10|XSize=0.85mm|YSize=1.3mm|CornerRadius=0.043mm|HoleSize=0mm|Usage=FLASHONLY|Rotation=270.000|XOffset=0mm|YOffset=0mm|HoleType=Round|Shape=RoundedRectangle|*
%AMROUNDEDRECTD10*
21,1,0.850,1.215,0,0,270.0*
21,1,0.765,1.300,0,0,270.0*
1,1,0.085,-0.608,-0.383*
1,1,0.085,-0.608,0.383*
1,1,0.085,0.608,0.383*
1,1,0.085,0.608,-0.383*
%
%ADD10ROUNDEDRECTD10*%
%ADD11R,0.900X1.300*%
%ADD13R,1.150X0.600*%
%ADD14R,3.000X2.250*%
G04:AMPARAMS|DCode=15|XSize=0.85mm|YSize=1.3mm|CornerRadius=0.043mm|HoleSize=0mm|Usage=FLASHONLY|Rotation=0.000|XOffset=0mm|YOffset=0mm|HoleType=Round|Shape=RoundedRectangle|*
%AMROUNDEDRECTD15*
21,1,0.850,1.215,0,0,0.0*
21,1,0.765,1.300,0,0,0.0*
1,1,0.085,0.383,-0.608*
1,1,0.085,-0.383,-0.608*
1,1,0.085,-0.383,0.608*
1,1,0.085,0.383,0.608*
%
%ADD15ROUNDEDRECTD15*%
%ADD16R,0.800X2.300*%
%ADD17R,0.600X2.050*%
%ADD18R,0.600X1.150*%
%ADD19R,2.250X1.500*%
%ADD20R,2.500X4.000*%
%ADD21R,2.000X0.600*%
%ADD22R,0.600X2.000*%
%ADD23R,1.200X1.200*%
%ADD24R,1.200X1.200*%
%ADD25R,1.000X1.200*%
%ADD26R,3.500X2.750*%
%ADD27R,1.350X1.800*%
%ADD28R,2.250X3.000*%
%ADD29R,1.800X1.350*%
G04:AMPARAMS|DCode=30|XSize=1.05mm|YSize=1.45mm|CornerRadius=0.053mm|HoleSize=0mm|Usage=FLASHONLY|Rotation=0.000|XOffset=0mm|YOffset=0mm|HoleType=Round|Shape=RoundedRectangle|*
%AMROUNDEDRECTD30*
21,1,1.050,1.345,0,0,0.0*
21,1,0.945,1.450,0,0,0.0*
1,1,0.105,0.472,-0.672*
1,1,0.105,-0.472,-0.672*
1,1,0.105,-0.472,0.672*
1,1,0.105,0.472,0.672*
%
%ADD30ROUNDEDRECTD30*%
G04:AMPARAMS|DCode=31|XSize=1.05mm|YSize=1.45mm|CornerRadius=0.053mm|HoleSize=0mm|Usage=FLASHONLY|Rotation=90.000|XOffset=0mm|YOffset=0mm|HoleType=Round|Shape=RoundedRectangle|*
%AMROUNDEDRECTD31*
21,1,1.050,1.345,0,0,90.0*
21,1,0.945,1.450,0,0,90.0*
1,1,0.105,0.672,0.472*
1,1,0.105,0.672,-0.472*
1,1,0.105,-0.672,-0.472*
1,1,0.105,-0.672,0.472*
%
%ADD31ROUNDEDRECTD31*%
%ADD32R,1.700X1.600*%
D10*
X114800Y114950D02*
D03*
Y116850D02*
D03*
X92825Y116600D02*
D03*
Y114700D02*
D03*
X126700Y122550D02*
D03*
Y120650D02*
D03*
X124100Y128350D02*
D03*
Y130250D02*
D03*
X107700Y128250D02*
D03*
Y126350D02*
D03*
X126700Y132150D02*
D03*
Y130250D02*
D03*
X107700Y131050D02*
D03*
Y132950D02*
D03*
X120200Y133550D02*
D03*
Y131650D02*
D03*
X122200Y130250D02*
D03*
Y128350D02*
D03*
X109500Y128250D02*
D03*
Y126350D02*
D03*
X161300Y131530D02*
D03*
Y129630D02*
D03*
X120450Y115100D02*
D03*
Y117000D02*
D03*
X118650Y115100D02*
D03*
Y117000D02*
D03*
X96450Y116600D02*
D03*
Y114700D02*
D03*
X98250D02*
D03*
Y116600D02*
D03*
X102550Y103550D02*
D03*
Y101650D02*
D03*
X102200Y109150D02*
D03*
Y107250D02*
D03*
X94650Y116600D02*
D03*
Y114700D02*
D03*
X104400Y101650D02*
D03*
Y103550D02*
D03*
X133500Y137150D02*
D03*
Y139050D02*
D03*
X157200Y138050D02*
D03*
Y139950D02*
D03*
X145550Y129150D02*
D03*
Y131050D02*
D03*
X105100Y118185D02*
D03*
Y116285D02*
D03*
X105400Y120850D02*
D03*
Y122750D02*
D03*
X115800Y108700D02*
D03*
Y106800D02*
D03*
X125900Y71150D02*
D03*
Y73050D02*
D03*
X113950Y106805D02*
D03*
Y108705D02*
D03*
X110400Y101550D02*
D03*
Y103450D02*
D03*
X112150Y107065D02*
D03*
Y105165D02*
D03*
X162400Y121715D02*
D03*
Y123615D02*
D03*
X133400Y123550D02*
D03*
Y121650D02*
D03*
X131600D02*
D03*
Y123550D02*
D03*
X127700Y71150D02*
D03*
Y73050D02*
D03*
X129200Y105550D02*
D03*
Y103650D02*
D03*
D11*
X142200Y121900D02*
D03*
X144000D02*
D03*
X138900D02*
D03*
X140700D02*
D03*
X135600D02*
D03*
X137400D02*
D03*
D13*
X128775Y131700D02*
D03*
X131025Y132650D02*
D03*
Y130750D02*
D03*
X116025Y110250D02*
D03*
Y112150D02*
D03*
X113775Y111200D02*
D03*
X110625Y133250D02*
D03*
Y135150D02*
D03*
X108375Y134200D02*
D03*
X122575Y133450D02*
D03*
Y131550D02*
D03*
X124825Y132500D02*
D03*
D14*
X99200Y134125D02*
D03*
Y127875D02*
D03*
X104100Y134125D02*
D03*
Y127875D02*
D03*
D15*
X95250Y109100D02*
D03*
X97150D02*
D03*
X136150Y115900D02*
D03*
X134250D02*
D03*
X132175Y135000D02*
D03*
X130275D02*
D03*
X116550Y127400D02*
D03*
X118450D02*
D03*
X114150Y134700D02*
D03*
X112250D02*
D03*
X95575Y96000D02*
D03*
X93675D02*
D03*
X118450Y102300D02*
D03*
X116550D02*
D03*
X93350Y124750D02*
D03*
X91450D02*
D03*
X106450Y110400D02*
D03*
X108350D02*
D03*
X112750Y113750D02*
D03*
X110850D02*
D03*
X106850Y103000D02*
D03*
X108750D02*
D03*
X161450Y97200D02*
D03*
X163350D02*
D03*
Y99100D02*
D03*
X161450D02*
D03*
X132075Y108000D02*
D03*
X130175D02*
D03*
D16*
X138600Y127625D02*
D03*
X134000D02*
D03*
X130700Y127625D02*
D03*
X126100D02*
D03*
X125500Y108775D02*
D03*
X120900D02*
D03*
X101600Y140175D02*
D03*
X105200D02*
D03*
X128100Y140150D02*
D03*
X131700D02*
D03*
X123350Y122025D02*
D03*
X115750D02*
D03*
X100950Y122025D02*
D03*
X93350D02*
D03*
D17*
X137300Y124600D02*
D03*
X136300D02*
D03*
X135300D02*
D03*
X129400Y124600D02*
D03*
X128400D02*
D03*
X127400D02*
D03*
X124200Y105750D02*
D03*
X123200D02*
D03*
X122200D02*
D03*
X102900Y137150D02*
D03*
X103900D02*
D03*
X129400Y137125D02*
D03*
X130400D02*
D03*
X122050Y119000D02*
D03*
X121050D02*
D03*
X120050D02*
D03*
X119050D02*
D03*
X118050D02*
D03*
X117050D02*
D03*
X99650Y119000D02*
D03*
X98650D02*
D03*
X97650D02*
D03*
X96650D02*
D03*
X95650D02*
D03*
X94650D02*
D03*
D18*
X126550Y133775D02*
D03*
X128450D02*
D03*
X127500Y136025D02*
D03*
X117700Y111275D02*
D03*
X119600D02*
D03*
X118650Y113525D02*
D03*
X99450Y110875D02*
D03*
X101350D02*
D03*
X100400Y113125D02*
D03*
X121050Y111275D02*
D03*
X122950D02*
D03*
X122000Y113525D02*
D03*
X98000Y113125D02*
D03*
X96100D02*
D03*
X97050Y110875D02*
D03*
X94650Y113125D02*
D03*
X92750D02*
D03*
X93700Y110875D02*
D03*
X132750Y117825D02*
D03*
X134650D02*
D03*
X133700Y120075D02*
D03*
X136100Y117825D02*
D03*
X138000D02*
D03*
X137050Y120075D02*
D03*
D19*
X115000Y141600D02*
D03*
Y137000D02*
D03*
Y139300D02*
D03*
X88825Y100400D02*
D03*
Y105000D02*
D03*
Y102700D02*
D03*
D20*
X108250Y139300D02*
D03*
X95575Y102700D02*
D03*
D21*
X112800Y132905D02*
D03*
Y131635D02*
D03*
Y130365D02*
D03*
Y129095D02*
D03*
X118000Y132905D02*
D03*
Y131635D02*
D03*
Y130365D02*
D03*
Y129095D02*
D03*
X112650Y115595D02*
D03*
Y116865D02*
D03*
Y118135D02*
D03*
Y119405D02*
D03*
X107450Y115595D02*
D03*
Y116865D02*
D03*
Y118135D02*
D03*
Y119405D02*
D03*
X104800Y108655D02*
D03*
Y107385D02*
D03*
Y106115D02*
D03*
Y104845D02*
D03*
X110000Y108655D02*
D03*
Y107385D02*
D03*
Y106115D02*
D03*
Y104845D02*
D03*
X148200Y124355D02*
D03*
Y123085D02*
D03*
Y121815D02*
D03*
Y120545D02*
D03*
X153400Y124355D02*
D03*
Y123085D02*
D03*
Y121815D02*
D03*
Y120545D02*
D03*
D22*
X134755Y105700D02*
D03*
X133485D02*
D03*
X132215D02*
D03*
X130945D02*
D03*
X134755Y100500D02*
D03*
X133485D02*
D03*
X132215D02*
D03*
X130945D02*
D03*
D23*
X86275Y97325D02*
D03*
Y95125D02*
D03*
X95600Y128050D02*
D03*
Y125850D02*
D03*
D24*
X163500Y135600D02*
D03*
X161300D02*
D03*
X118900Y104300D02*
D03*
X116700D02*
D03*
X157500Y141800D02*
D03*
X155300D02*
D03*
D25*
X86325Y102700D02*
D03*
Y99300D02*
D03*
X159350Y129630D02*
D03*
Y133030D02*
D03*
D26*
X146500Y74450D02*
D03*
Y67850D02*
D03*
X139500D02*
D03*
Y74450D02*
D03*
X132250D02*
D03*
Y67850D02*
D03*
Y84500D02*
D03*
Y77900D02*
D03*
D27*
X135500Y135500D02*
D03*
X138700D02*
D03*
X140500Y127700D02*
D03*
X143700D02*
D03*
D28*
X136975Y132100D02*
D03*
X143225D02*
D03*
D29*
X148000Y118950D02*
D03*
Y115750D02*
D03*
D30*
X134750Y96200D02*
D03*
X136650D02*
D03*
X114250Y123200D02*
D03*
X112350D02*
D03*
X91850Y109000D02*
D03*
X93750D02*
D03*
X113150Y127500D02*
D03*
X115050D02*
D03*
X111900Y110400D02*
D03*
X110000D02*
D03*
X122250Y116700D02*
D03*
X124150D02*
D03*
X95575Y98200D02*
D03*
X93675D02*
D03*
X90725D02*
D03*
X88825D02*
D03*
X156600Y127300D02*
D03*
X154700D02*
D03*
Y134500D02*
D03*
X156600D02*
D03*
X112650Y121200D02*
D03*
X110750D02*
D03*
X107450Y113750D02*
D03*
X109350D02*
D03*
X108700Y101000D02*
D03*
X106800D02*
D03*
X109150Y121200D02*
D03*
X107250D02*
D03*
X150250Y118900D02*
D03*
X152150D02*
D03*
X133500Y108000D02*
D03*
X135400D02*
D03*
X130945Y98200D02*
D03*
X132845D02*
D03*
X130525Y120000D02*
D03*
X128625D02*
D03*
X134750Y98200D02*
D03*
X136650D02*
D03*
X145450Y127200D02*
D03*
X147350D02*
D03*
D31*
X132350Y127350D02*
D03*
Y125450D02*
D03*
X118300Y134250D02*
D03*
Y136150D02*
D03*
X120300Y128250D02*
D03*
Y130150D02*
D03*
X110500Y131650D02*
D03*
Y129750D02*
D03*
X120300Y126650D02*
D03*
Y124750D02*
D03*
X100100Y114850D02*
D03*
Y116750D02*
D03*
X100650Y103400D02*
D03*
Y101500D02*
D03*
X132900Y132650D02*
D03*
Y130750D02*
D03*
X145800Y120150D02*
D03*
Y118250D02*
D03*
X143800D02*
D03*
Y120150D02*
D03*
X155800Y123300D02*
D03*
Y125200D02*
D03*
X157800D02*
D03*
Y123300D02*
D03*
X114100Y105350D02*
D03*
Y103450D02*
D03*
X145800Y123715D02*
D03*
Y121815D02*
D03*
X141800Y120150D02*
D03*
Y118250D02*
D03*
X139800Y118250D02*
D03*
Y120150D02*
D03*
D32*
X146250Y142800D02*
D03*
X142450D02*
D03*
M02*
