G04 Layer_Physical_Order=1*
G04 Layer_Color=11767835*
%FSLAX43Y43*%
%MOMM*%
G71*
G01*
G75*
G04:AMPARAMS|DCode=10|XSize=0.85mm|YSize=1.3mm|CornerRadius=0.043mm|HoleSize=0mm|Usage=FLASHONLY|Rotation=270.000|XOffset=0mm|YOffset=0mm|HoleType=Round|Shape=RoundedRectangle|*
%AMROUNDEDRECTD10*
21,1,0.850,1.215,0,0,270.0*
21,1,0.765,1.300,0,0,270.0*
1,1,0.085,-0.608,-0.383*
1,1,0.085,-0.608,0.383*
1,1,0.085,0.608,0.383*
1,1,0.085,0.608,-0.383*
%
%ADD10ROUNDEDRECTD10*%
%ADD11R,0.900X1.300*%
%ADD12C,1.000*%
%ADD13R,1.150X0.600*%
%ADD14R,3.000X2.250*%
G04:AMPARAMS|DCode=15|XSize=0.85mm|YSize=1.3mm|CornerRadius=0.043mm|HoleSize=0mm|Usage=FLASHONLY|Rotation=0.000|XOffset=0mm|YOffset=0mm|HoleType=Round|Shape=RoundedRectangle|*
%AMROUNDEDRECTD15*
21,1,0.850,1.215,0,0,0.0*
21,1,0.765,1.300,0,0,0.0*
1,1,0.085,0.383,-0.608*
1,1,0.085,-0.383,-0.608*
1,1,0.085,-0.383,0.608*
1,1,0.085,0.383,0.608*
%
%ADD15ROUNDEDRECTD15*%
%ADD16R,0.800X2.300*%
%ADD17R,0.600X2.050*%
%ADD18R,0.600X1.150*%
%ADD19R,2.250X1.500*%
%ADD20R,2.500X4.000*%
%ADD21R,2.000X0.600*%
%ADD22R,0.600X2.000*%
%ADD23R,1.200X1.200*%
%ADD24R,1.200X1.200*%
%ADD25R,1.000X1.200*%
%ADD26R,3.500X2.750*%
%ADD27R,1.350X1.800*%
%ADD28R,2.250X3.000*%
%ADD29R,1.800X1.350*%
G04:AMPARAMS|DCode=30|XSize=1.05mm|YSize=1.45mm|CornerRadius=0.053mm|HoleSize=0mm|Usage=FLASHONLY|Rotation=0.000|XOffset=0mm|YOffset=0mm|HoleType=Round|Shape=RoundedRectangle|*
%AMROUNDEDRECTD30*
21,1,1.050,1.345,0,0,0.0*
21,1,0.945,1.450,0,0,0.0*
1,1,0.105,0.472,-0.672*
1,1,0.105,-0.472,-0.672*
1,1,0.105,-0.472,0.672*
1,1,0.105,0.472,0.672*
%
%ADD30ROUNDEDRECTD30*%
G04:AMPARAMS|DCode=31|XSize=1.05mm|YSize=1.45mm|CornerRadius=0.053mm|HoleSize=0mm|Usage=FLASHONLY|Rotation=90.000|XOffset=0mm|YOffset=0mm|HoleType=Round|Shape=RoundedRectangle|*
%AMROUNDEDRECTD31*
21,1,1.050,1.345,0,0,90.0*
21,1,0.945,1.450,0,0,90.0*
1,1,0.105,0.672,0.472*
1,1,0.105,0.672,-0.472*
1,1,0.105,-0.672,-0.472*
1,1,0.105,-0.672,0.472*
%
%ADD31ROUNDEDRECTD31*%
%ADD32R,1.700X1.600*%
%ADD33C,1.000*%
%ADD34C,0.500*%
%ADD35C,0.400*%
%ADD36C,0.750*%
%ADD37C,0.200*%
%ADD38C,0.600*%
%ADD39C,2.000*%
%ADD40C,0.300*%
%ADD41C,2.250*%
%ADD42C,1.500*%
%ADD43C,0.850*%
%ADD44C,2.300*%
%ADD45C,7.000*%
%ADD46C,3.000*%
%ADD47R,1.800X1.800*%
%ADD48C,1.800*%
%ADD49O,2.200X2.500*%
%ADD50R,2.200X2.500*%
G04:AMPARAMS|DCode=51|XSize=1.5mm|YSize=2mm|CornerRadius=0.225mm|HoleSize=0mm|Usage=FLASHONLY|Rotation=0.000|XOffset=0mm|YOffset=0mm|HoleType=Round|Shape=RoundedRectangle|*
%AMROUNDEDRECTD51*
21,1,1.500,1.550,0,0,0.0*
21,1,1.050,2.000,0,0,0.0*
1,1,0.450,0.525,-0.775*
1,1,0.450,-0.525,-0.775*
1,1,0.450,-0.525,0.775*
1,1,0.450,0.525,0.775*
%
%ADD51ROUNDEDRECTD51*%
%ADD52O,1.500X2.000*%
%ADD53O,1.750X0.900*%
%ADD54C,1.750*%
%ADD55R,3.000X2.500*%
%ADD56O,3.000X2.500*%
%ADD57R,4.000X3.000*%
%ADD58O,4.000X3.000*%
%ADD59C,2.300*%
%ADD60R,2.300X2.300*%
%ADD61O,3.000X4.000*%
%ADD62C,2.000*%
%ADD63O,2.000X3.000*%
G04:AMPARAMS|DCode=64|XSize=2mm|YSize=3mm|CornerRadius=0.5mm|HoleSize=0mm|Usage=FLASHONLY|Rotation=180.000|XOffset=0mm|YOffset=0mm|HoleType=Round|Shape=RoundedRectangle|*
%AMROUNDEDRECTD64*
21,1,2.000,2.000,0,0,180.0*
21,1,1.000,3.000,0,0,180.0*
1,1,1.000,-0.500,1.000*
1,1,1.000,0.500,1.000*
1,1,1.000,0.500,-1.000*
1,1,1.000,-0.500,-1.000*
%
%ADD64ROUNDEDRECTD64*%
%ADD65R,1.500X1.500*%
%ADD66C,1.500*%
%ADD67R,2.000X2.000*%
%ADD68O,2.000X2.500*%
%ADD69C,0.700*%
G36*
X121477Y129588D02*
X121592Y129565D01*
X122276D01*
X122288Y129536D01*
X122313Y129438D01*
X122222Y129302D01*
X122187Y129125D01*
X122106Y129035D01*
X121592D01*
X121477Y129012D01*
X121379Y128946D01*
X121313Y128848D01*
X121311Y128837D01*
X121226Y128819D01*
X121179Y128823D01*
X121136Y128887D01*
X121061Y128937D01*
X120972Y128954D01*
X120450D01*
Y128250D01*
X120300D01*
Y128100D01*
X119396D01*
Y127777D01*
X119413Y127689D01*
X119463Y127613D01*
X119539Y127563D01*
X119580Y127555D01*
Y127426D01*
X119508Y127411D01*
X119436Y127363D01*
X119142D01*
X119135Y127370D01*
Y128007D01*
X119112Y128123D01*
X119046Y128221D01*
X118948Y128287D01*
X118832Y128310D01*
X118067D01*
X117952Y128287D01*
X117854Y128221D01*
X117788Y128123D01*
X117765Y128007D01*
Y127190D01*
X117762Y127175D01*
X117762Y127175D01*
Y125867D01*
X117358Y125463D01*
X117137D01*
X117069Y125590D01*
X117119Y125664D01*
X117166Y125900D01*
X117119Y126136D01*
X117064Y126218D01*
Y126524D01*
X117146Y126579D01*
X117212Y126677D01*
X117235Y126792D01*
Y128007D01*
X117212Y128123D01*
X117146Y128221D01*
X117048Y128287D01*
X116932Y128310D01*
X116167D01*
X116052Y128287D01*
X116009Y128258D01*
X115864Y128298D01*
X115856Y128314D01*
X115932Y128437D01*
X116900D01*
X116900Y128437D01*
X117077Y128472D01*
X117180Y128541D01*
X119254D01*
Y129456D01*
X119381Y129495D01*
X119407Y129457D01*
X119508Y129389D01*
X119627Y129365D01*
X120972D01*
X121092Y129389D01*
X121193Y129457D01*
X121261Y129558D01*
X121277Y129636D01*
X121405D01*
X121477Y129588D01*
D02*
G37*
G36*
X110500Y108950D02*
X113685Y108950D01*
X113775Y108860D01*
X113775Y108350D01*
X109000D01*
Y108950D01*
X109500D01*
Y109425D01*
X110500D01*
Y108950D01*
D02*
G37*
G36*
X98483Y144573D02*
X98451Y144549D01*
X98451Y144549D01*
X95476Y141574D01*
X95308Y141355D01*
X95202Y141099D01*
X95166Y140825D01*
X95166Y140825D01*
Y135134D01*
X86244Y126212D01*
X83350D01*
X82971Y126163D01*
X82619Y126017D01*
X82316Y125784D01*
X82083Y125481D01*
X81982Y125236D01*
X79823Y123077D01*
X79614Y122806D01*
X79538Y122620D01*
X79483Y122489D01*
X79439Y122150D01*
X79439Y122150D01*
Y113500D01*
X79450Y113415D01*
Y112200D01*
X79943D01*
Y102250D01*
X79971Y102041D01*
X80051Y101847D01*
X80179Y101679D01*
X83129Y98729D01*
X83297Y98601D01*
X83491Y98521D01*
X83700Y98493D01*
X85525D01*
Y98400D01*
X87125D01*
Y99248D01*
X87132Y99300D01*
Y99516D01*
X87209Y99593D01*
X87400D01*
Y99350D01*
X88018D01*
Y98998D01*
X87993Y98873D01*
Y97528D01*
X88020Y97390D01*
X88098Y97273D01*
X88215Y97195D01*
X88352Y97168D01*
X89297D01*
X89435Y97195D01*
X89552Y97273D01*
X89630Y97390D01*
X89657Y97528D01*
Y98873D01*
X89632Y98998D01*
Y99350D01*
X90250D01*
Y101450D01*
X87400D01*
Y101207D01*
X86875D01*
X86666Y101179D01*
X86472Y101099D01*
X86304Y100971D01*
X85754Y100421D01*
X85626Y100253D01*
X85604Y100200D01*
X85525D01*
Y100107D01*
X84034D01*
X81557Y102584D01*
Y112189D01*
X86127D01*
X86823Y111493D01*
X86823Y111493D01*
X87048Y111320D01*
X87075Y111168D01*
X85912Y110005D01*
X85900Y110007D01*
X85691Y109979D01*
X85497Y109899D01*
X85329Y109771D01*
X85201Y109603D01*
X85121Y109409D01*
X85093Y109200D01*
X85121Y108991D01*
X85201Y108797D01*
X85329Y108629D01*
X85497Y108501D01*
X85691Y108421D01*
X85900Y108393D01*
X86109Y108421D01*
X86303Y108501D01*
X86471Y108629D01*
X86599Y108797D01*
X86679Y108991D01*
X86707Y109200D01*
X86705Y109212D01*
X88147Y110653D01*
X88268Y110835D01*
X88311Y111050D01*
Y111245D01*
X88406Y111284D01*
X88677Y111493D01*
X88886Y111764D01*
X89017Y112081D01*
X89061Y112420D01*
X89017Y112759D01*
X88962Y112890D01*
X88886Y113076D01*
X88677Y113347D01*
X88677Y113347D01*
X87597Y114427D01*
X87326Y114636D01*
X87167Y114701D01*
X87009Y114767D01*
X86670Y114811D01*
X86670Y114811D01*
X82061D01*
Y121607D01*
X83742Y123287D01*
X86850D01*
X87229Y123337D01*
X87581Y123483D01*
X87884Y123716D01*
X88357Y124189D01*
X90718D01*
Y124142D01*
X90745Y124009D01*
X90821Y123896D01*
X90934Y123820D01*
X91067Y123793D01*
X91832D01*
X91966Y123820D01*
X92079Y123896D01*
X92155Y124009D01*
X92182Y124142D01*
Y125357D01*
X92155Y125491D01*
X92079Y125604D01*
X91966Y125680D01*
X91832Y125707D01*
X91067D01*
X90934Y125680D01*
X90821Y125604D01*
X90745Y125491D01*
X90718Y125357D01*
Y125311D01*
X89645D01*
X89596Y125428D01*
X96856Y132688D01*
X104100D01*
X104193Y132700D01*
X105900D01*
Y134139D01*
X106463D01*
X106472Y134132D01*
X106630Y134067D01*
X106800Y134044D01*
X106970Y134067D01*
X107128Y134132D01*
X107264Y134236D01*
X107368Y134372D01*
X107419Y134496D01*
X107546Y134471D01*
Y133646D01*
X107424Y133635D01*
X107092D01*
X106977Y133612D01*
X106879Y133546D01*
X106813Y133448D01*
X106790Y133332D01*
Y132567D01*
X106813Y132452D01*
X106879Y132354D01*
X106977Y132288D01*
X107092Y132265D01*
X108307D01*
X108423Y132288D01*
X108521Y132354D01*
X108587Y132452D01*
X108610Y132567D01*
Y133133D01*
X108738Y133262D01*
X108850Y133428D01*
X108889Y133625D01*
Y133646D01*
X109204D01*
Y134754D01*
X107577D01*
X107546Y134754D01*
X107441Y134808D01*
X107441Y134808D01*
X107433Y134870D01*
X107368Y135028D01*
X107264Y135164D01*
X107128Y135268D01*
X106970Y135333D01*
X106800Y135356D01*
X106630Y135333D01*
X106472Y135268D01*
X106463Y135261D01*
X105900D01*
Y135550D01*
X104193D01*
X104100Y135562D01*
X103596D01*
X103506Y135652D01*
Y135871D01*
X103765D01*
X103790Y135866D01*
X105825Y135866D01*
X105924Y135886D01*
X106008Y135942D01*
X107112Y137046D01*
X109754D01*
Y138539D01*
X113621D01*
Y138296D01*
X116379D01*
Y138539D01*
X116860D01*
X116895Y138495D01*
X117131Y138314D01*
X117405Y138200D01*
X117700Y138161D01*
X117995Y138200D01*
X118269Y138314D01*
X118505Y138495D01*
X118686Y138731D01*
X118800Y139005D01*
X118839Y139300D01*
X118800Y139595D01*
X118686Y139869D01*
X118505Y140105D01*
X118269Y140286D01*
X117995Y140400D01*
X117700Y140439D01*
X117405Y140400D01*
X117131Y140286D01*
X116895Y140105D01*
X116860Y140060D01*
X116379D01*
Y140304D01*
X113621D01*
Y140060D01*
X109754D01*
Y141554D01*
X106746D01*
Y138687D01*
X106493Y138434D01*
X103700Y138434D01*
X103675Y138429D01*
X103500D01*
Y138475D01*
X103140D01*
X103110Y138481D01*
X103110Y138481D01*
X100575Y138481D01*
X100458Y138458D01*
X100359Y138391D01*
X97530Y135562D01*
X97284D01*
Y140386D01*
X99639Y142741D01*
X132769D01*
Y139757D01*
X132759Y139755D01*
X132646Y139679D01*
X132570Y139566D01*
X132544Y139437D01*
X132392Y139285D01*
X132275Y139334D01*
Y140000D01*
X131700D01*
X131125D01*
Y138825D01*
X131766D01*
X131815Y138708D01*
X131778Y138672D01*
X131657Y138490D01*
X131614Y138275D01*
Y135900D01*
X131546Y135854D01*
X131470Y135741D01*
X131443Y135607D01*
Y134392D01*
X131470Y134259D01*
X131546Y134146D01*
X131659Y134070D01*
X131792Y134043D01*
X132557D01*
X132691Y134070D01*
X132804Y134146D01*
X132880Y134259D01*
X132907Y134392D01*
Y135607D01*
X132880Y135741D01*
X132804Y135854D01*
X132736Y135900D01*
Y136374D01*
X132863Y136471D01*
X132892Y136465D01*
X133736D01*
X134571Y135630D01*
Y135070D01*
X134301Y134799D01*
X134178Y134616D01*
X134135Y134400D01*
X134135Y134400D01*
Y131834D01*
X133841Y131540D01*
X133125D01*
X133125Y131540D01*
X133101Y131535D01*
X132227D01*
X132108Y131511D01*
X132007Y131443D01*
X131939Y131342D01*
X131933Y131315D01*
X131025D01*
X130970Y131304D01*
X130196D01*
Y131264D01*
X129850D01*
X129731Y131240D01*
X129604Y131333D01*
Y132254D01*
X127946D01*
Y131146D01*
X129340D01*
X129392Y131019D01*
X128198Y129825D01*
X128184Y129822D01*
X128096Y129763D01*
X127689D01*
X127609Y129861D01*
X127610Y129867D01*
Y130632D01*
X127587Y130748D01*
X127521Y130846D01*
X127423Y130912D01*
X127307Y130935D01*
X126092D01*
X125977Y130912D01*
X125879Y130846D01*
X125824Y130764D01*
X124976D01*
X124921Y130846D01*
X124823Y130912D01*
X124707Y130935D01*
X123492D01*
X123377Y130912D01*
X123279Y130846D01*
X123224Y130764D01*
X123076D01*
X123021Y130846D01*
X122923Y130912D01*
X122807Y130935D01*
X121592D01*
X121477Y130912D01*
X121379Y130846D01*
X121362Y130821D01*
X121209D01*
X121193Y130843D01*
X121092Y130911D01*
X121049Y130920D01*
X121021Y131054D01*
X121087Y131152D01*
X121110Y131267D01*
Y131483D01*
X121731Y132104D01*
X121825Y132019D01*
Y131700D01*
X122575D01*
X123325D01*
Y131819D01*
X123423Y131899D01*
X123500Y131884D01*
X123736Y131931D01*
X123869Y132020D01*
X123996Y131952D01*
Y131946D01*
X125654D01*
X125654Y131946D01*
Y131946D01*
X125654Y131946D01*
X125765Y131908D01*
X125790Y131883D01*
Y131767D01*
X125813Y131652D01*
X125879Y131554D01*
X125977Y131488D01*
X126092Y131465D01*
X127307D01*
X127423Y131488D01*
X127521Y131554D01*
X127587Y131652D01*
X127610Y131767D01*
Y132532D01*
X127587Y132648D01*
X127521Y132746D01*
X127423Y132812D01*
X127307Y132835D01*
X127142D01*
X127104Y132946D01*
X127104Y132946D01*
X127104D01*
X127104Y132946D01*
Y134604D01*
X125996D01*
Y134289D01*
X123675D01*
X123478Y134250D01*
X123312Y134138D01*
X123177Y134004D01*
X121746D01*
Y133573D01*
X121273Y133099D01*
X121156Y133162D01*
X121157Y133167D01*
Y133932D01*
X121130Y134066D01*
X121054Y134179D01*
X120941Y134255D01*
X120807Y134282D01*
X120261D01*
X119897Y134647D01*
X119715Y134768D01*
X119500Y134811D01*
X119314D01*
X119305Y134860D01*
X119227Y134977D01*
X119110Y135055D01*
X118972Y135082D01*
X117627D01*
X117490Y135055D01*
X117373Y134977D01*
X117295Y134860D01*
X117286Y134811D01*
X116582D01*
X116535Y134858D01*
X116533Y134870D01*
X116468Y135028D01*
X116364Y135164D01*
X116228Y135268D01*
X116070Y135333D01*
X115900Y135356D01*
X115730Y135333D01*
X115572Y135268D01*
X115563Y135261D01*
X114882D01*
Y135307D01*
X114855Y135441D01*
X114779Y135554D01*
X114666Y135630D01*
X114532Y135657D01*
X113767D01*
X113634Y135630D01*
X113521Y135554D01*
X113445Y135441D01*
X113418Y135307D01*
Y134092D01*
X113445Y133959D01*
X113521Y133846D01*
X113634Y133770D01*
X113767Y133743D01*
X114532D01*
X114666Y133770D01*
X114779Y133846D01*
X114855Y133959D01*
X114882Y134092D01*
Y134139D01*
X115563D01*
X115572Y134132D01*
X115730Y134067D01*
X115742Y134065D01*
X115953Y133853D01*
X116135Y133732D01*
X116350Y133689D01*
X117187D01*
X117222Y133632D01*
X117150Y133505D01*
X116700D01*
Y132305D01*
X116719D01*
X116746Y132189D01*
X116746Y132178D01*
Y131081D01*
X119254D01*
X119254Y131081D01*
Y131081D01*
X119351Y131056D01*
X119409Y130954D01*
X119381Y130908D01*
X119254Y130919D01*
Y130919D01*
X116746D01*
Y129811D01*
X119150D01*
X119215Y129706D01*
X119202Y129675D01*
X119186Y129649D01*
X116746D01*
Y129401D01*
X116708Y129363D01*
X115092D01*
X114863Y129592D01*
Y130100D01*
X114863Y130100D01*
X114828Y130277D01*
X114727Y130427D01*
X114727Y130427D01*
X114462Y130692D01*
X114312Y130793D01*
X114135Y130828D01*
X114054Y130915D01*
Y130919D01*
X111546D01*
Y129811D01*
X113937D01*
Y129570D01*
X112950D01*
Y129095D01*
Y128620D01*
X113975D01*
Y129002D01*
X114102Y129043D01*
X114437Y128708D01*
Y128447D01*
X114357Y128393D01*
X114289Y128292D01*
X114265Y128172D01*
Y126827D01*
X114289Y126708D01*
X114357Y126607D01*
X114458Y126539D01*
X114577Y126515D01*
X115522D01*
X115642Y126539D01*
X115743Y126607D01*
X115769Y126644D01*
X115789Y126650D01*
X115916Y126636D01*
X115954Y126579D01*
X116036Y126524D01*
Y126218D01*
X115981Y126136D01*
X115934Y125900D01*
X115981Y125664D01*
X116031Y125590D01*
X115963Y125463D01*
X111042D01*
X110410Y126095D01*
Y126732D01*
X110387Y126848D01*
X110321Y126946D01*
X110223Y127012D01*
X110107Y127035D01*
X108892D01*
X108777Y127012D01*
X108679Y126946D01*
X108623Y126863D01*
X108623Y126863D01*
X108547Y126853D01*
X108486Y126857D01*
X108464Y126889D01*
X108392Y126937D01*
X108307Y126954D01*
X107850D01*
Y126350D01*
Y125746D01*
X108307D01*
X108392Y125763D01*
X108464Y125811D01*
X108486Y125842D01*
X108547Y125847D01*
X108623Y125837D01*
X108623Y125837D01*
X108679Y125754D01*
X108777Y125688D01*
X108892Y125665D01*
X109530D01*
X110523Y124673D01*
X110673Y124572D01*
X110850Y124537D01*
X110850Y124537D01*
X117550D01*
X117550Y124537D01*
X117727Y124572D01*
X117877Y124673D01*
X118552Y125348D01*
X118552Y125348D01*
X118653Y125498D01*
X118688Y125675D01*
X118688Y125675D01*
Y126376D01*
X118710Y126401D01*
X118815Y126464D01*
X118950Y126437D01*
X119315D01*
Y126177D01*
X119339Y126058D01*
X119407Y125957D01*
X119508Y125889D01*
X119627Y125865D01*
X120972D01*
X121092Y125889D01*
X121193Y125957D01*
X121261Y126058D01*
X121285Y126177D01*
Y126314D01*
X121300Y126437D01*
X121477Y126472D01*
X121627Y126573D01*
X122077Y127023D01*
X122077Y127023D01*
X122178Y127173D01*
X122213Y127350D01*
X122213Y127350D01*
Y127665D01*
X122807D01*
X122923Y127688D01*
X123021Y127754D01*
X123087Y127852D01*
X123110Y127967D01*
Y128711D01*
X123144Y128736D01*
X123145Y128736D01*
X123271Y128621D01*
Y128500D01*
X124100D01*
X124929D01*
Y128732D01*
X125038Y128837D01*
X125525D01*
Y127775D01*
X126100D01*
X126675D01*
Y128837D01*
X127835D01*
Y125879D01*
X126846D01*
Y123801D01*
X126823Y123777D01*
X126722Y123627D01*
X126687Y123450D01*
X126687Y123450D01*
Y123235D01*
X126092D01*
X125977Y123212D01*
X125879Y123146D01*
X125813Y123048D01*
X125790Y122932D01*
Y122167D01*
X125813Y122052D01*
X125879Y121954D01*
X125977Y121888D01*
X126092Y121865D01*
X127307D01*
X127423Y121888D01*
X127521Y121954D01*
X127587Y122052D01*
X127610Y122167D01*
Y122932D01*
X127605Y122958D01*
X127613Y123000D01*
X127613Y123000D01*
Y123258D01*
X127676Y123321D01*
X127835D01*
Y121448D01*
X127708Y121409D01*
X127699Y121424D01*
X127519Y121544D01*
X127307Y121586D01*
X126092D01*
X125881Y121544D01*
X125701Y121424D01*
X125581Y121244D01*
X125539Y121032D01*
Y120267D01*
X125581Y120056D01*
X125701Y119876D01*
X125881Y119756D01*
X126092Y119714D01*
X126444D01*
Y118750D01*
X126468Y118567D01*
X126539Y118397D01*
X126651Y118251D01*
X126994Y117908D01*
Y109698D01*
X126882Y109638D01*
X126836Y109669D01*
X126600Y109716D01*
X126364Y109669D01*
X126202Y109560D01*
X126075Y109613D01*
Y110100D01*
X125650D01*
Y108775D01*
Y107450D01*
X126075D01*
X126086Y107328D01*
Y106096D01*
X126061Y106076D01*
X125891Y106102D01*
X125835Y106185D01*
X125636Y106319D01*
X125400Y106366D01*
X125164Y106319D01*
X125006Y106213D01*
X124754D01*
Y107029D01*
X123646D01*
Y107029D01*
X123567Y106950D01*
X123350D01*
Y105750D01*
Y104550D01*
X123646D01*
Y104471D01*
X124754D01*
Y105287D01*
X125006D01*
X125164Y105181D01*
X125400Y105134D01*
X125636Y105181D01*
X125835Y105315D01*
X125891Y105398D01*
X126061Y105424D01*
X126086Y105404D01*
Y105113D01*
X122487Y101514D01*
X119211D01*
X119125Y101641D01*
X119135Y101692D01*
Y102907D01*
X119112Y103023D01*
X119046Y103121D01*
X118948Y103187D01*
X118832Y103210D01*
X118067D01*
X117952Y103187D01*
X117854Y103121D01*
X117788Y103023D01*
X117765Y102907D01*
Y101692D01*
X117775Y101641D01*
X117689Y101514D01*
X117311D01*
X117225Y101641D01*
X117235Y101692D01*
Y102907D01*
X117212Y103023D01*
X117146Y103121D01*
X117064Y103176D01*
Y103446D01*
X117554D01*
Y105154D01*
X117141D01*
X117103Y105281D01*
X117202Y105348D01*
X118227Y106373D01*
X118227Y106373D01*
X118287Y106463D01*
X118328Y106523D01*
X118363Y106700D01*
Y108906D01*
X118469Y109064D01*
X118516Y109300D01*
X118469Y109536D01*
X118335Y109735D01*
X118136Y109869D01*
X117900Y109916D01*
X117664Y109869D01*
X117465Y109735D01*
X117331Y109536D01*
X117284Y109300D01*
X117331Y109064D01*
X117437Y108906D01*
Y106892D01*
X116796Y106251D01*
X116761Y106267D01*
X116692Y106326D01*
X116710Y106418D01*
Y107183D01*
X116687Y107298D01*
X116621Y107396D01*
X116523Y107462D01*
X116407Y107485D01*
X115192D01*
X115077Y107462D01*
X114979Y107396D01*
X114947Y107349D01*
X114804Y107352D01*
X114771Y107401D01*
X114673Y107467D01*
X114557Y107490D01*
X113342D01*
X113278Y107477D01*
X113054D01*
X113037Y107563D01*
X112971Y107661D01*
X112873Y107727D01*
X112757Y107750D01*
X111542D01*
X111432Y107728D01*
X111344D01*
X111254Y107818D01*
Y107917D01*
X111254Y107939D01*
X111307Y108044D01*
X113143D01*
X113209Y108000D01*
X113342Y107973D01*
X114557D01*
X114691Y108000D01*
X114804Y108076D01*
X114825Y108106D01*
X114977D01*
X114979Y108104D01*
X115077Y108038D01*
X115192Y108015D01*
X116407D01*
X116523Y108038D01*
X116621Y108104D01*
X116687Y108202D01*
X116710Y108318D01*
Y109083D01*
X116687Y109198D01*
X116621Y109296D01*
X116523Y109362D01*
X116514Y109364D01*
Y109696D01*
X116854D01*
Y109736D01*
X116950D01*
X117147Y109775D01*
X117313Y109887D01*
X117873Y110446D01*
X118254D01*
Y112104D01*
X117146D01*
Y111173D01*
X116777Y110804D01*
X115196D01*
Y109696D01*
X115486D01*
Y109385D01*
X115192D01*
X115077Y109362D01*
X114981Y109298D01*
X114978Y109296D01*
X114828Y109299D01*
X114804Y109334D01*
X114691Y109410D01*
X114557Y109437D01*
X113342D01*
X113209Y109410D01*
X113096Y109334D01*
X113043Y109256D01*
X110897Y109256D01*
X110807Y109346D01*
Y109602D01*
X110832Y109728D01*
Y111073D01*
X110805Y111210D01*
X110727Y111327D01*
X110610Y111405D01*
X110472Y111432D01*
X109527D01*
X109390Y111405D01*
X109273Y111327D01*
X109195Y111210D01*
X109180Y111131D01*
X109057D01*
X109055Y111141D01*
X108979Y111254D01*
X108911Y111300D01*
Y111450D01*
X108868Y111665D01*
X108747Y111847D01*
X108297Y112297D01*
X108115Y112418D01*
X108011Y112439D01*
Y112736D01*
X108060Y112745D01*
X108177Y112823D01*
X108255Y112940D01*
X108282Y113078D01*
Y114423D01*
X108281Y114428D01*
Y114995D01*
X108750D01*
Y116195D01*
X108731D01*
X108704Y116311D01*
X108704D01*
Y117419D01*
X106196D01*
Y117329D01*
X106115D01*
X105918Y117290D01*
X105752Y117178D01*
X105543Y116970D01*
X104492D01*
X104377Y116947D01*
X104279Y116881D01*
X104213Y116783D01*
X104190Y116668D01*
Y116045D01*
X103073Y114927D01*
X102972Y114777D01*
X102937Y114600D01*
X102937Y114600D01*
Y112017D01*
X102652Y111731D01*
X102464Y111694D01*
X102265Y111560D01*
X102131Y111361D01*
X102084Y111125D01*
X102131Y110889D01*
X102265Y110690D01*
X102464Y110556D01*
X102700Y110509D01*
X102936Y110556D01*
X103135Y110690D01*
X103269Y110889D01*
X103306Y111077D01*
X103727Y111498D01*
X103727Y111498D01*
X103828Y111648D01*
X103863Y111825D01*
X103863Y111825D01*
Y114408D01*
X105055Y115600D01*
X105707D01*
X105823Y115623D01*
X105921Y115689D01*
X105987Y115787D01*
X106005Y115880D01*
X106023Y115895D01*
X106132Y115848D01*
X106150Y115828D01*
Y114995D01*
X106619D01*
Y114428D01*
X106618Y114423D01*
Y113078D01*
X106645Y112940D01*
X106723Y112823D01*
X106840Y112745D01*
X106889Y112736D01*
Y112461D01*
X105037D01*
X105028Y112468D01*
X104870Y112533D01*
X104700Y112556D01*
X104530Y112533D01*
X104372Y112468D01*
X104236Y112364D01*
X104132Y112228D01*
X104067Y112070D01*
X104044Y111900D01*
X104067Y111730D01*
X104132Y111572D01*
X104236Y111436D01*
X104372Y111332D01*
X104530Y111267D01*
X104700Y111244D01*
X104870Y111267D01*
X105028Y111332D01*
X105037Y111339D01*
X105802D01*
X105837Y111259D01*
X105848Y111212D01*
X105788Y111123D01*
X105765Y111008D01*
Y109793D01*
X105788Y109677D01*
X105837Y109604D01*
Y109492D01*
X105554Y109209D01*
X103746D01*
X103477Y109477D01*
X103327Y109578D01*
X103150Y109613D01*
X103087Y109648D01*
X103021Y109746D01*
X102923Y109812D01*
X102807Y109835D01*
X101592D01*
X101477Y109812D01*
X101379Y109746D01*
X101313Y109648D01*
X101306Y109613D01*
X100392D01*
X100061Y109943D01*
X100004Y110046D01*
X100004D01*
X100004Y110046D01*
Y111704D01*
X98896D01*
Y111338D01*
X98694D01*
X98536Y111444D01*
X98300Y111491D01*
X98064Y111444D01*
X97865Y111310D01*
X97731Y111111D01*
X97731Y111110D01*
X97604Y111123D01*
Y111704D01*
X97513D01*
Y112296D01*
X98554D01*
Y112611D01*
X99846D01*
Y112296D01*
X100954D01*
Y113954D01*
X99846D01*
Y113639D01*
X98644D01*
X98554Y113729D01*
Y113954D01*
X98656Y114015D01*
X98857D01*
X98973Y114038D01*
X99071Y114104D01*
X99128Y114188D01*
X99219Y114209D01*
X99263Y114213D01*
X99339Y114163D01*
X99427Y114146D01*
X99950D01*
Y114850D01*
Y115554D01*
X99427D01*
X99339Y115537D01*
X99263Y115487D01*
X99213Y115411D01*
X99198Y115335D01*
X99160Y115315D01*
X99158Y115315D01*
X99069Y115298D01*
X98973Y115362D01*
X98857Y115385D01*
X97642D01*
X97527Y115362D01*
X97429Y115296D01*
X97426Y115293D01*
X97274D01*
X97271Y115296D01*
X97173Y115362D01*
X97057Y115385D01*
X95842D01*
X95727Y115362D01*
X95629Y115296D01*
X95626Y115293D01*
X95474D01*
X95471Y115296D01*
X95373Y115362D01*
X95257Y115385D01*
X94042D01*
X93927Y115362D01*
X93829Y115296D01*
X93814Y115274D01*
X93661D01*
X93646Y115296D01*
X93548Y115362D01*
X93432Y115385D01*
X92367D01*
X92139Y115613D01*
Y115851D01*
X92217Y115915D01*
X93432D01*
X93548Y115938D01*
X93646Y116004D01*
X93661Y116026D01*
X93814D01*
X93829Y116004D01*
X93927Y115938D01*
X94042Y115915D01*
X95257D01*
X95373Y115938D01*
X95471Y116004D01*
X95474Y116007D01*
X95626D01*
X95629Y116004D01*
X95727Y115938D01*
X95842Y115915D01*
X97057D01*
X97173Y115938D01*
X97271Y116004D01*
X97274Y116007D01*
X97426D01*
X97429Y116004D01*
X97527Y115938D01*
X97642Y115915D01*
X98857D01*
X98973Y115938D01*
X99071Y116004D01*
X99080Y116017D01*
X99111Y116027D01*
X99243Y116032D01*
X99308Y115989D01*
X99427Y115965D01*
X100772D01*
X100892Y115989D01*
X100993Y116057D01*
X101061Y116158D01*
X101085Y116277D01*
Y117222D01*
X101061Y117342D01*
X100993Y117443D01*
X100892Y117511D01*
X100772Y117535D01*
X100215D01*
Y119000D01*
Y120458D01*
X100219Y120464D01*
X100259Y120664D01*
X100259D01*
X100334Y120687D01*
X100433Y120700D01*
X100433D01*
X100433D01*
X100435Y120700D01*
X100800D01*
Y121875D01*
X100375D01*
Y120827D01*
Y120827D01*
Y120823D01*
X100375Y120804D01*
Y120802D01*
X100362Y120801D01*
X100346Y120799D01*
X100338Y120799D01*
X100271Y120792D01*
X100263Y120791D01*
X100248Y120790D01*
X100248D01*
X100248Y120790D01*
X100219Y120936D01*
X100085Y121135D01*
X99886Y121269D01*
X99650Y121316D01*
X99414Y121269D01*
X99215Y121135D01*
X99081Y120936D01*
X99034Y120700D01*
X99081Y120464D01*
X99085Y120458D01*
Y120200D01*
X98800D01*
Y119000D01*
X98500D01*
Y120200D01*
X98204D01*
Y120279D01*
X96096D01*
Y120200D01*
X95800D01*
Y119000D01*
Y117800D01*
X96096D01*
Y117721D01*
X96136D01*
Y117285D01*
X95842D01*
X95727Y117262D01*
X95629Y117196D01*
X95626Y117193D01*
X95474D01*
X95471Y117196D01*
X95373Y117262D01*
X95257Y117285D01*
X94042D01*
X93927Y117262D01*
X93829Y117196D01*
X93814Y117174D01*
X93661D01*
X93646Y117196D01*
X93548Y117262D01*
X93432Y117285D01*
X92402D01*
X92354Y117402D01*
X92763Y117811D01*
X94096D01*
Y117721D01*
X95204D01*
Y117800D01*
X95500D01*
Y119000D01*
Y120200D01*
X95204D01*
Y120279D01*
X94096D01*
Y118839D01*
X92550D01*
X92353Y118800D01*
X92187Y118688D01*
X91293Y117795D01*
X91166Y117840D01*
Y118859D01*
X92553Y120246D01*
X92692Y120455D01*
X92721Y120596D01*
X92775Y120700D01*
X92861Y120700D01*
X93200D01*
Y121875D01*
X92775D01*
Y121051D01*
X92648Y121012D01*
X92553Y121153D01*
X92345Y121292D01*
X92100Y121341D01*
X91855Y121292D01*
X91646Y121153D01*
X90072Y119578D01*
X89932Y119370D01*
X89884Y119125D01*
Y111291D01*
X85871Y107278D01*
X85732Y107070D01*
X85684Y106825D01*
Y103554D01*
X85571D01*
Y102749D01*
X85564Y102700D01*
X85571Y102651D01*
Y101846D01*
X87079D01*
Y101940D01*
X87446D01*
Y101696D01*
X88759D01*
X88825Y101687D01*
X94071D01*
Y100446D01*
X94814D01*
Y98993D01*
X94814Y98992D01*
X94790Y98873D01*
Y97528D01*
X94814Y97408D01*
X94882Y97307D01*
X94983Y97239D01*
X95061Y97223D01*
Y96876D01*
X94979Y96821D01*
X94913Y96723D01*
X94890Y96607D01*
Y95392D01*
X94913Y95277D01*
X94979Y95179D01*
X95077Y95113D01*
X95192Y95090D01*
X95957D01*
X96073Y95113D01*
X96171Y95179D01*
X96237Y95277D01*
X96260Y95392D01*
Y96607D01*
X96237Y96723D01*
X96171Y96821D01*
X96089Y96876D01*
Y97223D01*
X96167Y97239D01*
X96268Y97307D01*
X96336Y97408D01*
X96360Y97528D01*
Y97686D01*
X97244D01*
X97262Y97662D01*
X97420Y97541D01*
X97603Y97465D01*
X97800Y97439D01*
X97997Y97465D01*
X98180Y97541D01*
X98338Y97662D01*
X98459Y97820D01*
X98535Y98003D01*
X98560Y98200D01*
X98535Y98397D01*
X98459Y98580D01*
X98338Y98738D01*
X98180Y98859D01*
X97997Y98935D01*
X97800Y98960D01*
X97603Y98935D01*
X97420Y98859D01*
X97262Y98738D01*
X97244Y98714D01*
X96360D01*
Y98873D01*
X96336Y98992D01*
X96335Y98993D01*
Y100446D01*
X97079D01*
Y104954D01*
X94071D01*
Y103713D01*
X88825D01*
X88759Y103704D01*
X87446D01*
Y103461D01*
X87079D01*
Y103554D01*
X86966D01*
Y106559D01*
X90978Y110572D01*
X91062Y110696D01*
X91117Y110780D01*
X91166Y111025D01*
Y114960D01*
X91293Y115005D01*
X91915Y114383D01*
Y114317D01*
X91938Y114202D01*
X92004Y114104D01*
X92102Y114038D01*
X92104Y114038D01*
X92196Y113954D01*
X92196D01*
Y112296D01*
X93237D01*
Y111704D01*
X93146D01*
Y110046D01*
X93146Y110046D01*
X93114Y109932D01*
X93057Y109893D01*
X92989Y109792D01*
X92965Y109672D01*
Y108327D01*
X92989Y108208D01*
X93057Y108107D01*
X93158Y108039D01*
X93277Y108015D01*
X94222D01*
X94342Y108039D01*
X94443Y108107D01*
X94511Y108208D01*
X94520Y108251D01*
X94654Y108279D01*
X94752Y108213D01*
X94867Y108190D01*
X95632D01*
X95748Y108213D01*
X95846Y108279D01*
X95912Y108377D01*
X95935Y108492D01*
Y109707D01*
X95912Y109823D01*
X95846Y109921D01*
X95748Y109987D01*
X95632Y110010D01*
X94867D01*
X94752Y109987D01*
X94654Y109921D01*
X94616Y109864D01*
X94489Y109850D01*
X94469Y109856D01*
X94443Y109893D01*
X94342Y109961D01*
X94254Y110046D01*
X94254D01*
Y111704D01*
X94163D01*
Y111933D01*
X94290Y111972D01*
X94323Y111923D01*
X94837Y111408D01*
Y111269D01*
X94731Y111111D01*
X94684Y110875D01*
X94731Y110639D01*
X94865Y110440D01*
X95064Y110306D01*
X95300Y110259D01*
X95536Y110306D01*
X95735Y110440D01*
X95869Y110639D01*
X95916Y110875D01*
X95869Y111111D01*
X95763Y111269D01*
Y111600D01*
X95728Y111777D01*
X95627Y111927D01*
X95627Y111927D01*
X95204Y112351D01*
Y113954D01*
X95302Y114024D01*
X95373Y114038D01*
X95471Y114104D01*
X95474Y114107D01*
X95626D01*
X95629Y114104D01*
X95727Y114038D01*
X95842Y114015D01*
X96325D01*
X96334Y114002D01*
X96266Y113875D01*
X96250D01*
Y113125D01*
Y112375D01*
X96575D01*
X96587Y112253D01*
Y111704D01*
X96496D01*
Y110046D01*
X96512D01*
X96554Y109921D01*
X96488Y109823D01*
X96465Y109707D01*
Y108492D01*
X96488Y108377D01*
X96554Y108279D01*
X96652Y108213D01*
X96767Y108190D01*
X97532D01*
X97648Y108213D01*
X97746Y108279D01*
X97812Y108377D01*
X97835Y108492D01*
Y108637D01*
X98608D01*
X99219Y108027D01*
X99231Y107964D01*
X99365Y107765D01*
X99564Y107631D01*
X99800Y107584D01*
X100036Y107631D01*
X100194Y107737D01*
X101000D01*
X101177Y107772D01*
X101197Y107786D01*
X101204Y107783D01*
X101296Y107661D01*
X101290Y107632D01*
Y106868D01*
X101313Y106752D01*
X101379Y106654D01*
X101477Y106588D01*
X101592Y106565D01*
X102087D01*
Y106115D01*
Y104235D01*
X101942D01*
X101827Y104212D01*
X101729Y104146D01*
X101695Y104096D01*
X101558Y104084D01*
X101548Y104087D01*
X101543Y104093D01*
X101442Y104161D01*
X101322Y104185D01*
X99977D01*
X99858Y104161D01*
X99757Y104093D01*
X99689Y103992D01*
X99665Y103873D01*
Y102928D01*
X99689Y102808D01*
X99757Y102707D01*
X99858Y102639D01*
X99977Y102615D01*
X101322D01*
X101442Y102639D01*
X101543Y102707D01*
X101611Y102808D01*
X101626Y102881D01*
X101657Y102904D01*
X101732Y102931D01*
X101762Y102932D01*
X101827Y102888D01*
X101942Y102865D01*
X103157D01*
X103273Y102888D01*
X103371Y102954D01*
X103403Y103002D01*
X103546Y103002D01*
X103579Y102954D01*
X103677Y102888D01*
X103792Y102865D01*
X105007D01*
X105123Y102888D01*
X105221Y102954D01*
X105287Y103052D01*
X105310Y103167D01*
Y103932D01*
X105287Y104048D01*
X105221Y104146D01*
X105123Y104212D01*
X105007Y104235D01*
X103792D01*
X103677Y104212D01*
X103579Y104146D01*
X103547Y104098D01*
X103403Y104098D01*
X103371Y104146D01*
X103273Y104212D01*
X103157Y104235D01*
X103013D01*
Y105652D01*
X103546D01*
Y105561D01*
X106054D01*
Y106669D01*
X103546D01*
Y106578D01*
X103119D01*
X103055Y106705D01*
X103087Y106752D01*
X103110Y106868D01*
Y107442D01*
X103227Y107490D01*
X103546Y107171D01*
Y106831D01*
X106054D01*
Y107939D01*
X104018D01*
X103993Y107974D01*
X104058Y108101D01*
X106054D01*
Y108399D01*
X106627Y108973D01*
X106627Y108973D01*
X106728Y109123D01*
X106763Y109300D01*
X106763Y109300D01*
Y109490D01*
X106832D01*
X106948Y109513D01*
X107046Y109579D01*
X107112Y109677D01*
X107135Y109793D01*
Y111008D01*
X107112Y111123D01*
X107052Y111212D01*
X107063Y111259D01*
X107098Y111339D01*
X107636D01*
X107636Y111339D01*
X107702Y111226D01*
X107645Y111141D01*
X107618Y111008D01*
Y109793D01*
X107645Y109659D01*
X107721Y109546D01*
X107834Y109470D01*
X107967Y109443D01*
X108732D01*
X108866Y109470D01*
X108979Y109546D01*
X109055Y109659D01*
X109057Y109669D01*
X109180D01*
X109193Y109602D01*
Y109256D01*
X109000D01*
X108996Y109255D01*
X108700D01*
Y108980D01*
X108694Y108950D01*
Y108350D01*
X108700Y108320D01*
Y108055D01*
X108719D01*
Y108055D01*
X108746Y107939D01*
X108746Y107928D01*
Y106831D01*
X110790D01*
X110935Y106802D01*
X111215D01*
X111216Y106796D01*
X111107Y106669D01*
X108746D01*
Y105561D01*
X111229D01*
X111240Y105548D01*
Y105399D01*
X108746D01*
Y104291D01*
X109537D01*
Y103984D01*
X109513Y103948D01*
X109506Y103913D01*
X109200D01*
X109200Y103913D01*
X109158Y103905D01*
X109132Y103910D01*
X108367D01*
X108252Y103887D01*
X108154Y103821D01*
X108088Y103723D01*
X108065Y103608D01*
Y102393D01*
X108088Y102277D01*
X108154Y102179D01*
X108237Y102123D01*
Y101985D01*
X108227D01*
X108108Y101961D01*
X108007Y101893D01*
X107939Y101792D01*
X107915Y101673D01*
Y100328D01*
X107939Y100208D01*
X108007Y100107D01*
X108108Y100039D01*
X108085Y99914D01*
X105913D01*
X104989Y100838D01*
X104997Y100896D01*
X105036Y100971D01*
X105123Y100988D01*
X105221Y101054D01*
X105287Y101152D01*
X105310Y101267D01*
Y102032D01*
X105287Y102148D01*
X105221Y102246D01*
X105123Y102312D01*
X105007Y102335D01*
X103792D01*
X103677Y102312D01*
X103579Y102246D01*
X103513Y102148D01*
X103499Y102079D01*
X103370D01*
X103362Y102117D01*
X103314Y102189D01*
X103242Y102237D01*
X103157Y102254D01*
X102700D01*
Y101650D01*
Y101046D01*
X103157D01*
X103242Y101063D01*
X103314Y101111D01*
X103362Y101183D01*
X103370Y101221D01*
X103499D01*
X103513Y101152D01*
X103579Y101054D01*
X103677Y100988D01*
X103792Y100965D01*
X103886D01*
Y100700D01*
X103925Y100503D01*
X104037Y100337D01*
X105337Y99037D01*
X105503Y98925D01*
X105700Y98886D01*
X109300D01*
X109497Y98925D01*
X109663Y99037D01*
X110363Y99737D01*
X110475Y99903D01*
X110514Y100100D01*
Y100865D01*
X111007D01*
X111123Y100888D01*
X111221Y100954D01*
X111276Y101036D01*
X111837D01*
X112086Y100787D01*
Y99356D01*
X112062Y99338D01*
X111941Y99180D01*
X111865Y98997D01*
X111839Y98800D01*
X111865Y98603D01*
X111941Y98420D01*
X112062Y98262D01*
X112220Y98141D01*
X112403Y98065D01*
X112600Y98039D01*
X112797Y98065D01*
X112980Y98141D01*
X113138Y98262D01*
X113259Y98420D01*
X113335Y98603D01*
X113360Y98800D01*
X113335Y98997D01*
X113259Y99180D01*
X113138Y99338D01*
X113114Y99356D01*
Y100486D01*
X122700D01*
X122897Y100525D01*
X123063Y100637D01*
X126867Y104440D01*
X126994Y104388D01*
Y98827D01*
X126877Y98778D01*
X125606Y100048D01*
X125569Y100236D01*
X125435Y100435D01*
X125236Y100569D01*
X125000Y100616D01*
X124764Y100569D01*
X124565Y100435D01*
X124431Y100236D01*
X124384Y100000D01*
X124431Y99764D01*
X124565Y99565D01*
X124764Y99431D01*
X124952Y99394D01*
X126337Y98008D01*
Y74792D01*
X125573Y74027D01*
X125472Y73877D01*
X125444Y73735D01*
X125292D01*
X125177Y73712D01*
X125079Y73646D01*
X125013Y73548D01*
X124990Y73432D01*
Y72746D01*
X124968Y72743D01*
X124666Y72618D01*
X124406Y72419D01*
X124207Y72159D01*
X124082Y71857D01*
X124039Y71532D01*
Y70767D01*
X124082Y70443D01*
X124207Y70141D01*
X124406Y69881D01*
X124666Y69682D01*
X124968Y69557D01*
X125292Y69514D01*
X126507D01*
X126800Y69553D01*
X127092Y69514D01*
X128307D01*
X128632Y69557D01*
X128934Y69682D01*
X128941Y69687D01*
X144250D01*
Y65975D01*
X148750D01*
Y66091D01*
X150500D01*
Y65390D01*
X150410Y65300D01*
X111162Y65300D01*
X111035Y65300D01*
Y70000D01*
X111010Y70128D01*
X110937Y70237D01*
X110828Y70310D01*
X110700Y70335D01*
X98600D01*
X98472Y70310D01*
X98363Y70237D01*
X98290Y70128D01*
X98265Y70000D01*
Y65390D01*
X98175Y65300D01*
X96604D01*
X96562Y65420D01*
X96572Y65428D01*
X96769Y65668D01*
X96916Y65943D01*
X97006Y66240D01*
X97037Y66550D01*
X97035D01*
Y69050D01*
X97037D01*
X97006Y69360D01*
X96916Y69657D01*
X96769Y69931D01*
X96572Y70172D01*
X96331Y70369D01*
X96057Y70516D01*
X95760Y70606D01*
X95450Y70637D01*
Y70635D01*
X87950D01*
Y70637D01*
X87640Y70606D01*
X87343Y70516D01*
X87068Y70369D01*
X86828Y70172D01*
X86631Y69931D01*
X86484Y69657D01*
X86394Y69360D01*
X86363Y69050D01*
X86365D01*
Y66550D01*
X86363D01*
X86394Y66240D01*
X86484Y65943D01*
X86631Y65668D01*
X86828Y65428D01*
X86838Y65420D01*
X86796Y65300D01*
X84941D01*
X84861Y65398D01*
X84861Y65400D01*
Y67600D01*
X84833Y67738D01*
X84755Y67855D01*
X84638Y67933D01*
X84500Y67961D01*
X80100D01*
X79962Y67933D01*
X79845Y67855D01*
X79767Y67738D01*
X79739Y67600D01*
Y65427D01*
X79699Y65349D01*
X79659Y65300D01*
X74875D01*
X74860Y65427D01*
X75139Y65494D01*
X75674Y65715D01*
X76167Y66018D01*
X76607Y66393D01*
X76982Y66833D01*
X77285Y67326D01*
X77506Y67861D01*
X77641Y68423D01*
X77675Y68850D01*
X74000D01*
Y69000D01*
X73850D01*
Y72675D01*
X73423Y72641D01*
X72861Y72506D01*
X72326Y72285D01*
X71833Y71982D01*
X71393Y71607D01*
X71018Y71167D01*
X70715Y70674D01*
X70494Y70139D01*
X70427Y69860D01*
X70300Y69875D01*
X70300Y127410D01*
X70390Y127500D01*
X85500D01*
X90500Y132500D01*
X90500Y144610D01*
X90590Y144700D01*
X98439Y144700D01*
X98483Y144573D01*
D02*
G37*
G36*
X115846Y105154D02*
Y103446D01*
X116036D01*
Y103176D01*
X115954Y103121D01*
X115888Y103023D01*
X115865Y102907D01*
Y101692D01*
X115875Y101641D01*
X115789Y101514D01*
X112813D01*
X112413Y101913D01*
X112247Y102025D01*
X112050Y102064D01*
X111276D01*
X111221Y102146D01*
X111123Y102212D01*
X111007Y102235D01*
X109792D01*
X109677Y102212D01*
X109579Y102146D01*
X109513Y102048D01*
X109497Y101966D01*
X109459Y101939D01*
X109416Y101922D01*
X109363Y101914D01*
X109292Y101961D01*
X109214Y101977D01*
Y102106D01*
X109248Y102113D01*
X109346Y102179D01*
X109412Y102277D01*
X109435Y102393D01*
Y102841D01*
X109562Y102879D01*
X109579Y102854D01*
X109677Y102788D01*
X109792Y102765D01*
X111007D01*
X111123Y102788D01*
X111221Y102854D01*
X111287Y102952D01*
X111310Y103068D01*
Y103833D01*
X111287Y103948D01*
X111221Y104046D01*
X111123Y104112D01*
X111007Y104135D01*
X110463D01*
Y104291D01*
X111254D01*
Y104382D01*
X111830D01*
X111830Y104382D01*
X112007Y104417D01*
X112101Y104480D01*
X112757D01*
X112873Y104503D01*
X112971Y104569D01*
X113037Y104667D01*
X113039Y104678D01*
X113174Y104705D01*
X113207Y104657D01*
X113308Y104589D01*
X113427Y104565D01*
X114772D01*
X114892Y104589D01*
X114993Y104657D01*
X115061Y104758D01*
X115085Y104877D01*
Y105212D01*
X115743D01*
X115846Y105154D01*
D02*
G37*
G36*
X147197Y113794D02*
X147235Y113765D01*
X147665Y113335D01*
X147694Y113297D01*
X147700Y113250D01*
X147700Y113250D01*
X147700D01*
Y112946D01*
Y112750D01*
X147610Y112671D01*
Y111000D01*
Y109329D01*
X147700Y109250D01*
Y109054D01*
Y107638D01*
Y107283D01*
X149283Y105964D01*
X149298Y105949D01*
X149300Y105928D01*
Y104678D01*
Y104642D01*
Y104446D01*
Y103889D01*
Y103813D01*
Y103618D01*
Y101522D01*
Y101035D01*
Y99361D01*
Y99361D01*
Y97679D01*
Y97200D01*
Y97009D01*
X149300Y96873D01*
Y96242D01*
Y95739D01*
Y95496D01*
Y95287D01*
Y95026D01*
Y94991D01*
Y91157D01*
Y90912D01*
Y87950D01*
X149294Y87903D01*
X149265Y87865D01*
X144965Y83565D01*
X140400Y79000D01*
X136700D01*
X135335Y80365D01*
X135309Y80399D01*
X135300Y80516D01*
Y80516D01*
X135300D01*
X135300D01*
Y80516D01*
Y83800D01*
X136465Y84965D01*
X136503Y84994D01*
X136550Y85000D01*
X138700Y85000D01*
X140144Y86444D01*
X140278Y86578D01*
Y86578D01*
X140500Y86800D01*
Y87113D01*
Y87113D01*
X140500Y100950D01*
X140506Y100997D01*
X140535Y101035D01*
X142778Y103278D01*
X143000Y103500D01*
Y111950D01*
X143006Y111997D01*
X143035Y112035D01*
X144765Y113765D01*
X144803Y113794D01*
X144850Y113800D01*
X147150D01*
X147197Y113794D01*
D02*
G37*
G36*
X169200Y120300D02*
X169700Y119800D01*
Y116300D01*
X169200Y115800D01*
X164200D01*
X156800Y108400D01*
X152800Y108400D01*
X152300Y108900D01*
Y109294D01*
X152390D01*
Y111000D01*
Y112706D01*
X152300D01*
Y113300D01*
X159300Y120300D01*
X169200Y120300D01*
D02*
G37*
G36*
X107975Y114250D02*
X106925D01*
Y115850D01*
X107975D01*
Y114250D01*
D02*
G37*
G36*
X103200Y138085D02*
Y136100D01*
X103200Y133000D01*
X98500Y133000D01*
X97500Y134000D01*
X97500Y135100D01*
X100575Y138175D01*
X103110Y138175D01*
X103200Y138085D01*
D02*
G37*
G36*
X169700Y114000D02*
Y103555D01*
X169600Y103490D01*
X169573Y103490D01*
X168050D01*
Y102040D01*
Y100590D01*
X169573D01*
X169600Y100590D01*
X169700Y100525D01*
Y100000D01*
X165500Y100000D01*
X163500Y102000D01*
X163500Y112500D01*
X165500Y114500D01*
X169200Y114500D01*
X169700Y114000D01*
D02*
G37*
G36*
X169500Y85900D02*
Y85039D01*
X169373Y85007D01*
X169166Y85276D01*
X168869Y85505D01*
X168522Y85648D01*
X168150Y85697D01*
X168050D01*
Y84260D01*
Y82823D01*
X168150D01*
X168522Y82872D01*
X168869Y83015D01*
X169166Y83244D01*
X169373Y83513D01*
X169500Y83481D01*
Y73857D01*
X167748Y72606D01*
X167240Y72816D01*
X166628Y72963D01*
X166000Y73012D01*
X165372Y72963D01*
X164760Y72816D01*
X164178Y72575D01*
X163642Y72246D01*
X163163Y71837D01*
X162754Y71358D01*
X162425Y70822D01*
X162184Y70240D01*
X162037Y69628D01*
X161988Y69000D01*
X162026Y68518D01*
X162000Y68500D01*
X160900Y68200D01*
X156800D01*
X156300Y68700D01*
Y72328D01*
X156303Y72342D01*
X156305Y72372D01*
X156305Y72372D01*
X156306Y72376D01*
X156306Y72377D01*
X156308Y72382D01*
X156308Y72382D01*
X156309Y72384D01*
X156309Y72384D01*
X156310Y72386D01*
X156310Y72386D01*
X156311Y72389D01*
X156312Y72389D01*
X156312Y72393D01*
X156312Y72393D01*
X156322Y72410D01*
X156323Y72410D01*
X156324Y72413D01*
X156324Y72413D01*
X156324Y72413D01*
X156324Y72414D01*
X156325Y72414D01*
X156325Y72414D01*
X156326Y72416D01*
X156326Y72416D01*
X156326Y72417D01*
X156326Y72417D01*
X156326Y72418D01*
X156326Y72418D01*
X156330Y72426D01*
X156330Y72426D01*
X156330Y72426D01*
X156330Y72426D01*
X157214Y73753D01*
X157215Y73754D01*
X157229Y73776D01*
X157238Y73788D01*
X157241Y73793D01*
X157260Y73814D01*
X157260Y73815D01*
X157262Y73818D01*
X157271Y73828D01*
X157275Y73835D01*
X157276Y73836D01*
X157276Y73836D01*
X157279Y73842D01*
X157305Y73870D01*
X157306Y73872D01*
X157311Y73877D01*
X157311Y73877D01*
X157312Y73878D01*
X157315Y73881D01*
X157316Y73883D01*
X157316Y73883D01*
X157330Y73901D01*
X157330Y73901D01*
X157338Y73911D01*
X157364Y73934D01*
X157373Y73946D01*
X159966Y76539D01*
X159966Y76539D01*
X159966Y76539D01*
X159966Y76540D01*
X159966Y76540D01*
X159967Y76540D01*
X159999Y76564D01*
X160000Y76565D01*
X160000Y76565D01*
X160002Y76567D01*
X160010Y76574D01*
X160016Y76578D01*
X160016Y76578D01*
X160016Y76578D01*
X160016Y76578D01*
X160017Y76578D01*
X160021Y76581D01*
X160028Y76583D01*
X160028Y76583D01*
X160029Y76583D01*
X160029D01*
X160029Y76583D01*
X160029Y76584D01*
X160029Y76584D01*
X160029Y76584D01*
X160029Y76584D01*
X160032Y76585D01*
X160033Y76585D01*
X160033Y76585D01*
X160076Y76603D01*
X160076Y76603D01*
X160076Y76603D01*
X160091Y76607D01*
X160100Y76610D01*
X160100Y76610D01*
X161873Y77054D01*
X161925Y77074D01*
X161979Y77085D01*
X164900Y78108D01*
X165001Y78159D01*
X165105Y78202D01*
X165141Y78229D01*
X165182Y78250D01*
X165266Y78325D01*
X165356Y78394D01*
X165384Y78430D01*
X165417Y78461D01*
X165479Y78555D01*
X165548Y78645D01*
X165566Y78687D01*
X165591Y78725D01*
X165626Y78832D01*
X165669Y78937D01*
X165675Y78982D01*
X165689Y79025D01*
X165696Y79138D01*
X165710Y79250D01*
X165710Y83435D01*
X165700Y83514D01*
Y83593D01*
X165690Y83669D01*
X165690Y83669D01*
Y83669D01*
X165670Y83745D01*
X165669Y83749D01*
X165668Y83752D01*
X165661Y83779D01*
X165654Y83831D01*
X165653Y83832D01*
X165653Y83832D01*
X165633Y83881D01*
X165608Y83974D01*
X165608Y83974D01*
X165608Y83974D01*
X165560Y84058D01*
X165533Y84123D01*
X165532Y84124D01*
X165532Y84124D01*
X165532Y84124D01*
X165516Y84146D01*
X165508Y84160D01*
X165507Y84160D01*
X165507Y84160D01*
X165481Y84194D01*
X165450Y84247D01*
X165450Y84248D01*
X165450Y84248D01*
X165445Y84255D01*
X165445Y84255D01*
X165428Y84276D01*
X165416Y84289D01*
X165407Y84304D01*
X165404Y84308D01*
X165361Y84351D01*
X165336Y84383D01*
X165336Y84383D01*
X165315Y84410D01*
X165315Y84410D01*
X165315Y84410D01*
X165303Y84423D01*
X165303Y84423D01*
X165300Y84427D01*
X165257Y84470D01*
X165255Y84472D01*
X165255Y84472D01*
X165255Y84472D01*
X165252Y84477D01*
X165252Y84477D01*
X165252Y84477D01*
X165252Y84477D01*
X165243Y84490D01*
X165237Y84505D01*
X165234Y84510D01*
X165219Y84529D01*
X165219Y84529D01*
X165215Y84536D01*
X165215Y84536D01*
X165205Y84556D01*
X165200Y84563D01*
Y84563D01*
X165200Y84564D01*
X165200Y85600D01*
X165800Y86200D01*
X169200D01*
X169500Y85900D01*
D02*
G37*
G36*
X109400Y138485D02*
X109400Y137400D01*
X107100D01*
X105825Y136125D01*
X103790Y136125D01*
X103700Y136215D01*
X103700Y138175D01*
X106600Y138175D01*
X107000Y138575D01*
X109310D01*
X109400Y138485D01*
D02*
G37*
G36*
X148900Y120610D02*
X148900Y119200D01*
X147227Y119200D01*
X147100Y119265D01*
Y120200D01*
X147200Y120300D01*
Y120700D01*
X148810Y120700D01*
X148900Y120610D01*
D02*
G37*
G36*
X162700Y85500D02*
X164076Y84124D01*
X164082Y84099D01*
X164083Y84098D01*
X164100Y84069D01*
X164101Y84066D01*
X164103Y84062D01*
X164106Y84050D01*
X164113Y84038D01*
X164119Y84022D01*
X164129Y84001D01*
X164142Y83981D01*
X164152Y83958D01*
X164159Y83948D01*
X164167Y83930D01*
X164171Y83924D01*
X164186Y83904D01*
X164186Y83904D01*
X164189Y83899D01*
X164198Y83880D01*
X164204Y83872D01*
Y83872D01*
X164207Y83867D01*
X164207Y83867D01*
X164208Y83865D01*
X164232Y83834D01*
X164248Y83801D01*
X164248Y83801D01*
X164268Y83778D01*
X164283Y83753D01*
X164283Y83753D01*
X164283Y83753D01*
X164292Y83740D01*
X164299Y83734D01*
X164307Y83720D01*
X164318Y83710D01*
X164325Y83697D01*
X164325Y83697D01*
X164335Y83688D01*
X164346Y83673D01*
X164376Y83646D01*
X164401Y83614D01*
X164444Y83571D01*
X164447Y83567D01*
X164459Y83555D01*
X164468Y83539D01*
X164484Y83518D01*
X164485Y83518D01*
X164485Y83518D01*
X164490Y83511D01*
X164500Y83435D01*
X164500Y79250D01*
X161579Y78228D01*
X159806Y77784D01*
X159795Y77780D01*
X159792Y77780D01*
X159777Y77776D01*
X159745Y77763D01*
X159712Y77757D01*
X159694Y77749D01*
X159682Y77746D01*
X159673Y77742D01*
X159653Y77737D01*
X159634Y77727D01*
X159613Y77721D01*
X159570Y77704D01*
X159569Y77703D01*
X159568Y77703D01*
X159567Y77702D01*
X159566Y77702D01*
X159565Y77702D01*
X159562Y77700D01*
X159561Y77700D01*
X159561Y77699D01*
X159560Y77699D01*
X159560Y77699D01*
X159557Y77698D01*
X159552Y77696D01*
X159552Y77696D01*
X159547Y77693D01*
X159541Y77691D01*
X159537Y77690D01*
X159514Y77675D01*
X159488Y77666D01*
X159488Y77666D01*
X159466Y77651D01*
X159441Y77642D01*
X159441Y77641D01*
X159430Y77637D01*
X159427Y77635D01*
X159426Y77635D01*
X159425Y77634D01*
X159424Y77634D01*
X159424Y77634D01*
X159424Y77634D01*
X159422Y77632D01*
X159422Y77632D01*
X159416Y77629D01*
X159416Y77629D01*
X159415Y77629D01*
X159415Y77629D01*
X159415Y77628D01*
X159414Y77628D01*
X159414Y77628D01*
X159414Y77628D01*
X159414Y77628D01*
X159413Y77628D01*
X159403Y77619D01*
X159391Y77614D01*
X159372Y77599D01*
X159347Y77587D01*
X159347Y77587D01*
X159323Y77565D01*
X159293Y77548D01*
X159291Y77546D01*
X159287Y77544D01*
X159286Y77544D01*
X159286Y77543D01*
X159285Y77543D01*
X159279Y77537D01*
X159279Y77537D01*
X159247Y77513D01*
X159246Y77513D01*
X159246Y77513D01*
X159246Y77513D01*
X159238Y77505D01*
X159233Y77500D01*
X159218Y77491D01*
X159210Y77483D01*
X159199Y77476D01*
X159199Y77476D01*
X159172Y77447D01*
X159168Y77444D01*
X159158Y77435D01*
X159125Y77410D01*
X159125Y77410D01*
X159118Y77402D01*
X159110Y77395D01*
X159110Y77395D01*
X159110Y77395D01*
X156514Y74799D01*
X156514Y74799D01*
X156514Y74799D01*
X156513Y74799D01*
X156513Y74798D01*
X156513Y74798D01*
X156484Y74770D01*
X156475Y74757D01*
X156475Y74757D01*
X156475Y74757D01*
X156461Y74739D01*
X156461Y74739D01*
X156459Y74737D01*
X156456Y74734D01*
X156455Y74733D01*
X156455Y74733D01*
X156438Y74716D01*
X156416Y74687D01*
X156410Y74681D01*
X156409Y74680D01*
X156383Y74657D01*
X156377Y74650D01*
X156373Y74644D01*
X156372Y74643D01*
X156371Y74642D01*
X156370Y74641D01*
X156370Y74641D01*
X156358Y74624D01*
X156351Y74615D01*
X156348Y74611D01*
X156329Y74591D01*
X156326Y74588D01*
X156306Y74554D01*
X156306Y74553D01*
X156305Y74553D01*
X156304Y74551D01*
X156303Y74549D01*
X156300Y74547D01*
X156300Y74547D01*
X156298Y74544D01*
X156278Y74521D01*
X156275Y74517D01*
X156275Y74517D01*
X156274Y74516D01*
X156274Y74516D01*
X156274Y74516D01*
X156269Y74508D01*
X156268Y74506D01*
X156268Y74506D01*
X156264Y74499D01*
X156264Y74499D01*
X156258Y74493D01*
X156257Y74493D01*
X156256Y74490D01*
X156235Y74465D01*
X156210Y74429D01*
X156210Y74429D01*
X156209Y74428D01*
X156209Y74427D01*
X156209Y74426D01*
X155323Y73098D01*
X155308Y73068D01*
X155288Y73042D01*
X155288Y73042D01*
X155285Y73036D01*
X155281Y73031D01*
X155277Y73021D01*
X155277Y73020D01*
X155277Y73020D01*
X155275Y73017D01*
X155265Y73000D01*
X155261Y72990D01*
X155260Y72988D01*
X155259Y72986D01*
X155252Y72977D01*
X155250Y72970D01*
X155249Y72968D01*
X155249Y72968D01*
X155248Y72967D01*
X155245Y72960D01*
X155242Y72955D01*
X155242Y72955D01*
X155235Y72937D01*
X155220Y72913D01*
X155213Y72891D01*
X155211Y72889D01*
X155208Y72881D01*
X155208Y72881D01*
X155208Y72881D01*
X155208Y72881D01*
X155207Y72880D01*
X155207Y72880D01*
X155206Y72877D01*
X155206Y72877D01*
X155206Y72876D01*
X155206Y72876D01*
X155203Y72866D01*
X155186Y72836D01*
X155185Y72831D01*
X155184Y72830D01*
X155184Y72830D01*
X155181Y72818D01*
X155177Y72803D01*
X155161Y72771D01*
X155159Y72765D01*
X155159Y72761D01*
X155158Y72760D01*
X155151Y72726D01*
X155139Y72696D01*
X155139Y72694D01*
X155137Y72689D01*
X155135Y72685D01*
X155135Y72681D01*
X155135Y72681D01*
X155134Y72677D01*
X155133Y72673D01*
X155130Y72649D01*
X155120Y72619D01*
X155117Y72583D01*
X155115Y72577D01*
X155113Y72563D01*
X155112Y72560D01*
X155105Y72533D01*
X155105Y72491D01*
X155097Y72450D01*
X155095Y72420D01*
X155097Y72391D01*
X155094Y72372D01*
X155095Y72368D01*
X155090Y72328D01*
Y69090D01*
X154808Y68808D01*
X150892D01*
X150500Y69200D01*
Y79000D01*
X157000Y85500D01*
X162700Y85500D01*
D02*
G37*
G36*
X91350Y69025D02*
X86700D01*
X88025Y70125D01*
X91350D01*
Y69025D01*
D02*
G37*
G36*
X95375Y65475D02*
X92050D01*
Y66575D01*
X96700D01*
X95375Y65475D01*
D02*
G37*
G36*
X93150Y67250D02*
X92050D01*
X92050Y70125D01*
X93150D01*
X93150Y67250D01*
D02*
G37*
G36*
X165140Y144573D02*
X164861Y144506D01*
X164326Y144285D01*
X163833Y143982D01*
X163393Y143607D01*
X163018Y143167D01*
X162715Y142674D01*
X162494Y142139D01*
X162359Y141577D01*
X162325Y141150D01*
X166000D01*
Y141000D01*
X166150D01*
Y137325D01*
X166577Y137359D01*
X167139Y137494D01*
X167674Y137715D01*
X168167Y138018D01*
X168607Y138393D01*
X168982Y138833D01*
X169285Y139326D01*
X169506Y139861D01*
X169573Y140140D01*
X169700Y140125D01*
X169700Y129730D01*
X169573Y129705D01*
X169540Y129785D01*
X169427Y129932D01*
X169280Y130045D01*
X169109Y130116D01*
X168925Y130140D01*
X168075D01*
X167891Y130116D01*
X167720Y130045D01*
X167573Y129932D01*
X167460Y129785D01*
X167389Y129614D01*
X167365Y129430D01*
X167389Y129246D01*
X167460Y129075D01*
X167573Y128928D01*
X167720Y128815D01*
X167891Y128744D01*
X168075Y128720D01*
X168925D01*
X169109Y128744D01*
X169280Y128815D01*
X169427Y128928D01*
X169540Y129075D01*
X169573Y129155D01*
X169700Y129130D01*
X169700Y121005D01*
X169586Y120949D01*
X169578Y120955D01*
X169449Y121009D01*
X169396Y121031D01*
X169200Y121056D01*
X163332Y121056D01*
X163264Y121183D01*
X163287Y121217D01*
X163310Y121332D01*
Y122098D01*
X163287Y122213D01*
X163221Y122311D01*
X163123Y122377D01*
X163007Y122400D01*
X161792D01*
X161677Y122377D01*
X161605Y122329D01*
X154654D01*
Y122369D01*
X152146D01*
X152146Y122369D01*
Y122369D01*
D01*
X152146Y122369D01*
X152146Y122369D01*
X152079Y122272D01*
X152077Y122270D01*
X151938Y122243D01*
X151788Y122142D01*
X151473Y121827D01*
X151372Y121677D01*
X151337Y121500D01*
X151337Y121500D01*
Y119250D01*
X151337Y119250D01*
X151365Y119110D01*
Y118227D01*
X151389Y118108D01*
X151457Y118007D01*
X151558Y117939D01*
X151677Y117915D01*
X152622D01*
X152742Y117939D01*
X152843Y118007D01*
X152911Y118108D01*
X152935Y118227D01*
Y119572D01*
X152911Y119692D01*
X152843Y119793D01*
X152742Y119861D01*
X152728Y119864D01*
X152741Y119991D01*
X154654D01*
Y121099D01*
X152263D01*
Y121261D01*
X154654D01*
Y121301D01*
X161496D01*
X161513Y121217D01*
X161535Y121183D01*
X161468Y121056D01*
X159300D01*
X159104Y121031D01*
X159051Y121009D01*
X158922Y120955D01*
X158765Y120835D01*
X151765Y113835D01*
X151645Y113678D01*
X151591Y113549D01*
X151569Y113496D01*
X151544Y113300D01*
Y113147D01*
X151410Y113092D01*
X151148Y112892D01*
X150948Y112630D01*
X150940Y112611D01*
X150813Y112636D01*
Y117933D01*
X150842Y117939D01*
X150943Y118007D01*
X151011Y118108D01*
X151035Y118227D01*
Y119572D01*
X151011Y119692D01*
X150943Y119793D01*
X150842Y119861D01*
X150813Y119867D01*
Y122350D01*
X150813Y122350D01*
X150778Y122527D01*
X150677Y122677D01*
X150677Y122677D01*
X149942Y123412D01*
X149792Y123513D01*
X149615Y123548D01*
X149615Y123548D01*
X149454D01*
Y123639D01*
X146946D01*
Y122531D01*
X149454D01*
X149454Y122531D01*
Y122531D01*
X149562Y122483D01*
X149887Y122158D01*
Y119885D01*
X149777D01*
X149658Y119861D01*
X149557Y119793D01*
X149489Y119692D01*
X149465Y119572D01*
Y118227D01*
X149489Y118108D01*
X149557Y118007D01*
X149658Y117939D01*
X149777Y117915D01*
X149887D01*
Y114737D01*
X149760Y114699D01*
X149735Y114735D01*
X149536Y114869D01*
X149300Y114916D01*
X149200Y114896D01*
X149075Y115001D01*
Y115600D01*
X148150D01*
Y114900D01*
X148882D01*
X148921Y114773D01*
X148865Y114735D01*
X148731Y114536D01*
X148684Y114300D01*
X148731Y114064D01*
X148865Y113865D01*
X149064Y113731D01*
X149187Y113707D01*
Y112251D01*
X149060Y112219D01*
X148922Y112477D01*
X148703Y112743D01*
X148456Y112946D01*
Y113250D01*
X148450Y113300D01*
Y113349D01*
X148444Y113396D01*
X148431Y113444D01*
X148431Y113446D01*
X148430Y113448D01*
X148393Y113587D01*
X148321Y113711D01*
X148320Y113713D01*
X148319Y113715D01*
X148294Y113758D01*
X148265Y113796D01*
X148230Y113831D01*
X148200Y113870D01*
X147770Y114300D01*
X147731Y114330D01*
X147696Y114365D01*
X147658Y114394D01*
X147615Y114419D01*
X147613Y114420D01*
X147611Y114421D01*
X147487Y114493D01*
X147348Y114530D01*
X147346Y114531D01*
X147344Y114531D01*
X147296Y114544D01*
X147249Y114550D01*
X147200D01*
X147150Y114556D01*
X144850D01*
X144800Y114550D01*
X144751D01*
X144704Y114544D01*
X144656Y114531D01*
X144654Y114531D01*
X144652Y114530D01*
X144513Y114493D01*
X144450Y114457D01*
X144389Y114421D01*
X144387Y114420D01*
X144385Y114419D01*
X144342Y114394D01*
X144304Y114365D01*
X144269Y114330D01*
X144230Y114300D01*
X142500Y112570D01*
X142470Y112531D01*
X142435Y112496D01*
X142406Y112458D01*
X142381Y112415D01*
X142380Y112413D01*
X142379Y112411D01*
X142307Y112287D01*
X142270Y112148D01*
X142269Y112146D01*
X142269Y112144D01*
X142256Y112096D01*
X142250Y112049D01*
Y112000D01*
X142244Y111950D01*
Y103813D01*
X140000Y101570D01*
X139970Y101531D01*
X139935Y101496D01*
X139906Y101458D01*
X139881Y101415D01*
X139880Y101413D01*
X139879Y101411D01*
X139867Y101391D01*
X139807Y101287D01*
X139770Y101148D01*
X139769Y101146D01*
X139769Y101144D01*
X139756Y101096D01*
X139750Y101049D01*
Y101000D01*
X139744Y100950D01*
X139744Y87113D01*
X139744Y87113D01*
X139609Y86979D01*
X139609Y86979D01*
X138387Y85756D01*
X136550Y85756D01*
X136500Y85750D01*
X136451Y85750D01*
X136404Y85744D01*
X136404Y85744D01*
X136356Y85731D01*
X136354Y85731D01*
X136352Y85730D01*
X136314Y85720D01*
X136213Y85693D01*
X136213Y85693D01*
X136213Y85693D01*
X136138Y85649D01*
X136089Y85621D01*
X136087Y85620D01*
X136085Y85619D01*
X136042Y85594D01*
X136004Y85565D01*
X135969Y85530D01*
X135930Y85500D01*
X134877Y84447D01*
X134750Y84499D01*
Y86625D01*
X129750D01*
Y82375D01*
X133242D01*
X134544Y81073D01*
Y80516D01*
Y80516D01*
X134547Y80488D01*
X134546Y80459D01*
X134555Y80342D01*
X134559Y80321D01*
Y80300D01*
X134579Y80225D01*
X134595Y80149D01*
X134605Y80130D01*
X134610Y80110D01*
X134649Y80042D01*
X134684Y79972D01*
X134698Y79957D01*
X134709Y79939D01*
X134735Y79904D01*
X134770Y79869D01*
X134800Y79830D01*
X136165Y78465D01*
X136322Y78345D01*
X136504Y78269D01*
X136700Y78244D01*
X140400D01*
X140596Y78269D01*
X140671Y78301D01*
X140778Y78345D01*
X140935Y78465D01*
X145500Y83030D01*
X145500Y83030D01*
X149800Y87330D01*
X149830Y87369D01*
X149865Y87404D01*
X149894Y87442D01*
X149894Y87442D01*
X149894Y87442D01*
X149919Y87485D01*
X149920Y87487D01*
X149921Y87489D01*
X149957Y87550D01*
X149993Y87613D01*
Y87613D01*
X149993Y87613D01*
X150030Y87752D01*
X150031Y87754D01*
X150031Y87756D01*
X150044Y87804D01*
X150050Y87851D01*
Y87900D01*
X150056Y87950D01*
Y90912D01*
Y91157D01*
Y94991D01*
Y95026D01*
Y95287D01*
Y95496D01*
Y95739D01*
Y96242D01*
Y96873D01*
Y96873D01*
Y96873D01*
X150056Y97009D01*
Y97200D01*
Y97679D01*
Y99361D01*
Y99361D01*
Y101035D01*
Y101522D01*
Y103618D01*
Y103813D01*
Y103889D01*
Y104446D01*
Y104642D01*
Y104678D01*
Y105928D01*
X150054Y105946D01*
X150055Y105949D01*
X150052Y105967D01*
X150053Y105997D01*
X150051Y106018D01*
X150037Y106081D01*
X150029Y106145D01*
X150016Y106177D01*
X150008Y106210D01*
X149978Y106268D01*
X149953Y106327D01*
X149932Y106355D01*
X149916Y106385D01*
X149872Y106433D01*
X149833Y106484D01*
X149818Y106499D01*
X149795Y106517D01*
X149782Y106530D01*
X149780Y106532D01*
X149768Y106545D01*
X148456Y107638D01*
Y109054D01*
X148703Y109257D01*
X148922Y109523D01*
X149060Y109781D01*
X149187Y109749D01*
Y107950D01*
X149187Y107950D01*
X149222Y107773D01*
X149323Y107623D01*
X160073Y96873D01*
X160223Y96772D01*
X160400Y96737D01*
X160400Y96737D01*
X160765D01*
Y96592D01*
X160788Y96477D01*
X160854Y96379D01*
X160952Y96313D01*
X161067Y96290D01*
X161832D01*
X161948Y96313D01*
X162046Y96379D01*
X162112Y96477D01*
X162135Y96592D01*
Y97807D01*
X162112Y97923D01*
X162046Y98021D01*
X161952Y98084D01*
X161948Y98106D01*
Y98194D01*
X161952Y98216D01*
X162046Y98279D01*
X162112Y98377D01*
X162135Y98492D01*
Y99707D01*
X162112Y99823D01*
X162046Y99921D01*
X161948Y99987D01*
X161832Y100010D01*
X161067D01*
X160952Y99987D01*
X160854Y99921D01*
X160788Y99823D01*
X160765Y99707D01*
Y99614D01*
X159913D01*
X150963Y108563D01*
X150813Y108664D01*
Y109364D01*
X150940Y109389D01*
X150948Y109370D01*
X151148Y109108D01*
X151410Y108908D01*
X151550Y108850D01*
X151569Y108704D01*
X151614Y108597D01*
X151645Y108522D01*
X151765Y108365D01*
X152265Y107865D01*
X152422Y107745D01*
X152604Y107669D01*
X152800Y107644D01*
X156800Y107644D01*
X156996Y107669D01*
X157071Y107701D01*
X157178Y107745D01*
X157335Y107865D01*
X164513Y115044D01*
X165185D01*
X165223Y114917D01*
X165139Y114860D01*
X163139Y112860D01*
X163029Y112695D01*
X162990Y112500D01*
X162990Y102000D01*
Y102000D01*
X163029Y101805D01*
X163139Y101639D01*
X165140Y99640D01*
X165239Y99573D01*
X165305Y99529D01*
X165500Y99490D01*
X165500D01*
X169700Y99490D01*
X169700Y99363D01*
Y97469D01*
X169573Y97450D01*
X169546Y97538D01*
X169407Y97800D01*
X169219Y98029D01*
X168990Y98217D01*
X168728Y98356D01*
X168445Y98442D01*
X168150Y98471D01*
X167650D01*
X167355Y98442D01*
X167072Y98356D01*
X166810Y98217D01*
X166581Y98029D01*
X166393Y97800D01*
X166348Y97714D01*
X164035D01*
Y97807D01*
X164012Y97923D01*
X163946Y98021D01*
X163864Y98076D01*
Y98224D01*
X163946Y98279D01*
X164012Y98377D01*
X164035Y98492D01*
Y99707D01*
X164012Y99823D01*
X163946Y99921D01*
X163848Y99987D01*
X163732Y100010D01*
X162967D01*
X162852Y99987D01*
X162754Y99921D01*
X162688Y99823D01*
X162665Y99707D01*
Y98492D01*
X162688Y98377D01*
X162754Y98279D01*
X162836Y98224D01*
Y98076D01*
X162754Y98021D01*
X162688Y97923D01*
X162665Y97807D01*
Y96592D01*
X162688Y96477D01*
X162754Y96379D01*
X162852Y96313D01*
X162967Y96290D01*
X163732D01*
X163848Y96313D01*
X163946Y96379D01*
X164012Y96477D01*
X164035Y96592D01*
Y96686D01*
X166166D01*
X166168Y96665D01*
X166254Y96382D01*
X166393Y96120D01*
X166581Y95891D01*
X166810Y95703D01*
X167072Y95564D01*
X167355Y95478D01*
X167650Y95449D01*
X168150D01*
X168445Y95478D01*
X168728Y95564D01*
X168990Y95703D01*
X169219Y95891D01*
X169407Y96120D01*
X169546Y96382D01*
X169573Y96470D01*
X169700Y96451D01*
X169700Y89457D01*
X169573Y89449D01*
X169538Y89712D01*
X169395Y90059D01*
X169166Y90356D01*
X168869Y90585D01*
X168522Y90728D01*
X168150Y90777D01*
X168050D01*
Y89340D01*
Y87903D01*
X168150D01*
X168522Y87952D01*
X168869Y88095D01*
X169166Y88324D01*
X169395Y88621D01*
X169538Y88968D01*
X169573Y89231D01*
X169700Y89223D01*
Y86700D01*
X169249D01*
X169200Y86710D01*
X165800D01*
X165761Y86702D01*
X165751Y86700D01*
X162779D01*
X162700Y86710D01*
X157000Y86710D01*
X156687Y86669D01*
X156395Y86548D01*
X156144Y86356D01*
X149644Y79856D01*
X149452Y79605D01*
X149331Y79313D01*
X149290Y79000D01*
Y72613D01*
X128973D01*
X128861Y72667D01*
Y73432D01*
X128819Y73644D01*
X128699Y73824D01*
X128519Y73944D01*
X128406Y73966D01*
Y102894D01*
X128533Y102977D01*
X128592Y102965D01*
X128686D01*
Y97700D01*
X128725Y97503D01*
X128837Y97337D01*
X130537Y95637D01*
X130703Y95525D01*
X130900Y95486D01*
X133973D01*
X133989Y95408D01*
X134057Y95307D01*
X134158Y95239D01*
X134277Y95215D01*
X135222D01*
X135342Y95239D01*
X135443Y95307D01*
X135511Y95408D01*
X135535Y95527D01*
Y96872D01*
X135511Y96992D01*
X135510Y96993D01*
Y97407D01*
X135511Y97408D01*
X135535Y97527D01*
Y98872D01*
X135511Y98992D01*
X135443Y99093D01*
X135342Y99161D01*
X135320Y99166D01*
Y100500D01*
X135309Y100555D01*
Y101682D01*
X136463Y102837D01*
X136575Y103003D01*
X136614Y103200D01*
Y106487D01*
X136963Y106837D01*
X137075Y107003D01*
X137114Y107200D01*
Y110187D01*
X142913Y115986D01*
X145682D01*
X145764Y115931D01*
X146000Y115884D01*
X146236Y115931D01*
X146435Y116065D01*
X146569Y116264D01*
X146616Y116500D01*
X146569Y116736D01*
X146435Y116935D01*
X146236Y117069D01*
X146000Y117116D01*
X145764Y117069D01*
X145682Y117014D01*
X142700D01*
X142503Y116975D01*
X142337Y116863D01*
X136237Y110763D01*
X136125Y110597D01*
X136086Y110400D01*
Y108956D01*
X135961Y108887D01*
X135872Y108904D01*
X135550D01*
Y108000D01*
Y107096D01*
X135605D01*
X135673Y106969D01*
X135625Y106897D01*
X135586Y106700D01*
Y103413D01*
X134392Y102218D01*
X134280Y102052D01*
X134241Y101855D01*
Y101754D01*
X134201D01*
Y100555D01*
X134190Y100500D01*
Y99168D01*
X134158Y99161D01*
X134057Y99093D01*
X133989Y98992D01*
X133965Y98872D01*
Y97527D01*
X133989Y97408D01*
X133989Y97407D01*
Y96993D01*
X133989Y96992D01*
X133965Y96872D01*
Y96514D01*
X131113D01*
X130539Y97088D01*
X130591Y97215D01*
X131418D01*
X131537Y97239D01*
X131638Y97307D01*
X131706Y97408D01*
X131730Y97527D01*
Y98872D01*
X131706Y98992D01*
X131638Y99093D01*
X131561Y99145D01*
X131499Y99246D01*
X131499D01*
Y101754D01*
X130391D01*
Y99246D01*
X130391D01*
X130329Y99145D01*
X130252Y99093D01*
X130184Y98992D01*
X130160Y98872D01*
Y97646D01*
X130033Y97594D01*
X129714Y97913D01*
Y102965D01*
X129807D01*
X129923Y102988D01*
X130021Y103054D01*
X130087Y103152D01*
X130110Y103267D01*
Y104032D01*
X130087Y104148D01*
X130021Y104246D01*
X129923Y104312D01*
X129807Y104335D01*
X128592D01*
X128533Y104323D01*
X128406Y104406D01*
Y104794D01*
X128533Y104877D01*
X128592Y104865D01*
X129807D01*
X129923Y104888D01*
X130021Y104954D01*
X130087Y105052D01*
X130110Y105167D01*
Y105237D01*
X130391D01*
Y104446D01*
X131499D01*
Y106954D01*
X130391D01*
Y106163D01*
X129996D01*
X129923Y106212D01*
X129807Y106235D01*
X129463D01*
Y106406D01*
X129569Y106564D01*
X129616Y106800D01*
X129570Y107032D01*
X129578Y107044D01*
X129664Y107122D01*
X129677Y107113D01*
X129792Y107090D01*
X130557D01*
X130673Y107113D01*
X130771Y107179D01*
X130837Y107277D01*
X130860Y107392D01*
Y108185D01*
X130863Y108200D01*
X130863Y108200D01*
Y111283D01*
X131227Y111648D01*
X131227Y111648D01*
X131328Y111798D01*
X131363Y111975D01*
X131363Y111975D01*
Y112043D01*
X131482Y112092D01*
X131723Y112277D01*
X131908Y112518D01*
X132024Y112799D01*
X132064Y113100D01*
X132024Y113401D01*
X131908Y113682D01*
X131723Y113923D01*
X131482Y114108D01*
X131201Y114224D01*
X130900Y114264D01*
X130599Y114224D01*
X130318Y114108D01*
X130077Y113923D01*
X129892Y113682D01*
X129776Y113401D01*
X129736Y113100D01*
X129776Y112799D01*
X129892Y112518D01*
X130077Y112277D01*
X130241Y112151D01*
X130257Y111987D01*
X130073Y111802D01*
X129972Y111652D01*
X129937Y111475D01*
X129937Y111475D01*
Y108910D01*
X129792D01*
X129677Y108887D01*
X129579Y108821D01*
X129513Y108723D01*
X129490Y108607D01*
Y107392D01*
X129500Y107345D01*
X129385Y107269D01*
X129236Y107369D01*
X129000Y107416D01*
X128764Y107369D01*
X128565Y107235D01*
X128533Y107188D01*
X128406Y107227D01*
Y110851D01*
X128533Y110919D01*
X128664Y110831D01*
X128900Y110784D01*
X129136Y110831D01*
X129335Y110965D01*
X129469Y111164D01*
X129516Y111400D01*
X129469Y111636D01*
X129414Y111718D01*
Y119300D01*
X129409Y119323D01*
X129410Y119327D01*
Y120672D01*
X129386Y120792D01*
X129318Y120893D01*
X129217Y120961D01*
X129097Y120985D01*
X128965D01*
Y123321D01*
X129954D01*
Y124086D01*
X130337D01*
X130690Y123733D01*
Y123167D01*
X130713Y123052D01*
X130779Y122954D01*
X130877Y122888D01*
X130992Y122865D01*
X132207D01*
X132323Y122888D01*
X132421Y122954D01*
X132424Y122957D01*
X132576D01*
X132579Y122954D01*
X132677Y122888D01*
X132792Y122865D01*
X134007D01*
X134123Y122888D01*
X134221Y122954D01*
X134287Y123052D01*
X134310Y123167D01*
Y123733D01*
X134619Y124042D01*
X134746Y123990D01*
Y123321D01*
X135428D01*
X135477Y123204D01*
X135437Y123163D01*
X135325Y122997D01*
X135287Y122804D01*
X134896D01*
Y120996D01*
X136304D01*
Y122050D01*
X136314Y122100D01*
Y122587D01*
X136596Y122869D01*
X136596Y122869D01*
X136600Y122866D01*
X136600Y122866D01*
X136600Y122866D01*
X136600Y122866D01*
X136638Y122836D01*
X136675Y122806D01*
X136681Y122802D01*
X136695Y122755D01*
X136696Y122703D01*
X136696Y122683D01*
Y122678D01*
Y122678D01*
Y121750D01*
X136686Y121700D01*
Y120904D01*
X136496D01*
Y120589D01*
X134254D01*
Y120904D01*
X134226D01*
X134187Y121031D01*
X134221Y121054D01*
X134287Y121152D01*
X134310Y121267D01*
Y122032D01*
X134287Y122148D01*
X134221Y122246D01*
X134123Y122312D01*
X134007Y122335D01*
X132792D01*
X132677Y122312D01*
X132579Y122246D01*
X132576Y122243D01*
X132424D01*
X132421Y122246D01*
X132323Y122312D01*
X132207Y122335D01*
X130992D01*
X130877Y122312D01*
X130779Y122246D01*
X130713Y122148D01*
X130690Y122032D01*
Y121267D01*
X130713Y121152D01*
X130779Y121054D01*
X130812Y121031D01*
X130774Y120904D01*
X130675D01*
Y120150D01*
X131229D01*
Y120672D01*
X131212Y120761D01*
X131162Y120837D01*
X131159Y120838D01*
X131198Y120965D01*
X132207D01*
X132323Y120988D01*
X132421Y121054D01*
X132424Y121057D01*
X132576D01*
X132579Y121054D01*
X132677Y120988D01*
X132792Y120965D01*
X133044D01*
X133146Y120904D01*
X133146Y120838D01*
Y119246D01*
X134254D01*
Y119561D01*
X136496D01*
Y119246D01*
X137604D01*
Y119922D01*
X137675Y120028D01*
X137714Y120225D01*
Y120996D01*
X138104D01*
Y120996D01*
X138196D01*
Y120996D01*
X138346D01*
X138378Y120834D01*
X138501Y120651D01*
X138815Y120336D01*
Y119677D01*
X138839Y119558D01*
X138907Y119457D01*
X139008Y119389D01*
X139127Y119365D01*
X140472D01*
X140592Y119389D01*
X140693Y119457D01*
X140729Y119509D01*
X140871Y119509D01*
X140907Y119457D01*
X141008Y119389D01*
X141127Y119365D01*
X142472D01*
X142592Y119389D01*
X142693Y119457D01*
X142729Y119509D01*
X142871Y119509D01*
X142906Y119457D01*
X143008Y119389D01*
X143127Y119365D01*
X144472D01*
X144592Y119389D01*
X144593Y119389D01*
X145007D01*
X145008Y119389D01*
X145127Y119365D01*
X146472D01*
X146592Y119389D01*
X146593Y119389D01*
X146841D01*
Y119265D01*
X146846Y119240D01*
Y118021D01*
X149154D01*
Y119175D01*
X149159Y119200D01*
X149159Y119991D01*
X149454D01*
Y121099D01*
X146946D01*
Y120910D01*
X146593D01*
X146592Y120911D01*
X146559Y120918D01*
Y121047D01*
X146592Y121054D01*
X146693Y121122D01*
X146761Y121223D01*
X146767Y121250D01*
X148200D01*
X148255Y121261D01*
X149454D01*
Y122369D01*
X148255D01*
X148200Y122380D01*
X146767D01*
X146761Y122407D01*
X146693Y122508D01*
X146592Y122576D01*
X146472Y122600D01*
X145127D01*
X145008Y122576D01*
X144907Y122508D01*
X144839Y122407D01*
X144833Y122380D01*
X144704D01*
Y122804D01*
X144440D01*
X144397Y122931D01*
X144438Y122962D01*
X144559Y123120D01*
X144635Y123303D01*
X144660Y123500D01*
X144635Y123697D01*
X144559Y123880D01*
X144438Y124038D01*
X144280Y124159D01*
X144097Y124235D01*
X143900Y124260D01*
X143703Y124235D01*
X143520Y124159D01*
X143362Y124038D01*
X143241Y123880D01*
X143165Y123697D01*
X143139Y123500D01*
X143165Y123303D01*
X143241Y123120D01*
X143362Y122962D01*
X143403Y122931D01*
X143360Y122804D01*
X143296D01*
Y121062D01*
X143296Y120996D01*
X143194Y120935D01*
X143194Y120935D01*
X143127D01*
X143008Y120911D01*
X142906Y120843D01*
X142892Y120822D01*
X142765Y120860D01*
Y120996D01*
X142904D01*
Y122804D01*
X141496D01*
Y122804D01*
X141404D01*
Y122804D01*
X139996D01*
Y121062D01*
X139996Y120996D01*
X139894Y120935D01*
X139894Y120935D01*
X139814D01*
X139604Y121145D01*
Y122804D01*
X138196D01*
Y122804D01*
X138104D01*
Y122804D01*
X136822D01*
X136822D01*
X136817D01*
X136797Y122804D01*
X136763Y122805D01*
X136665Y122909D01*
X136663Y122932D01*
X136663Y122937D01*
X136677Y122957D01*
X136681Y122964D01*
X136681Y122964D01*
X136775Y123103D01*
X136814Y123300D01*
Y123321D01*
X136854D01*
Y123400D01*
X137150D01*
Y124600D01*
Y125800D01*
X136854D01*
Y125879D01*
X134746D01*
Y125114D01*
X134450D01*
X134253Y125075D01*
X134087Y124963D01*
X133358Y124235D01*
X132792D01*
X132677Y124212D01*
X132641Y124188D01*
X132514Y124256D01*
Y124665D01*
X133022D01*
X133142Y124689D01*
X133243Y124757D01*
X133311Y124858D01*
X133335Y124977D01*
Y125922D01*
X133311Y126042D01*
X133243Y126143D01*
X133142Y126211D01*
X133022Y126235D01*
X131677D01*
X131558Y126211D01*
X131457Y126143D01*
X131389Y126042D01*
X131365Y125922D01*
Y124977D01*
X131389Y124858D01*
X131457Y124757D01*
X131486Y124737D01*
Y124557D01*
X131369Y124508D01*
X130913Y124963D01*
X130747Y125075D01*
X130550Y125114D01*
X129954D01*
Y125879D01*
X128965D01*
Y129138D01*
X130063Y130236D01*
X130196D01*
Y130196D01*
X130970D01*
X131025Y130185D01*
X131933D01*
X131939Y130158D01*
X132007Y130057D01*
X132108Y129989D01*
X132227Y129965D01*
X133572D01*
X133692Y129989D01*
X133793Y130057D01*
X133861Y130158D01*
X133885Y130277D01*
Y130410D01*
X134075D01*
X134075Y130410D01*
X134291Y130453D01*
X134474Y130576D01*
X135099Y131201D01*
X135099Y131201D01*
X135222Y131384D01*
X135265Y131600D01*
X135265Y131600D01*
Y134166D01*
X135445Y134346D01*
X136429D01*
Y136654D01*
X135145D01*
X134410Y137389D01*
Y137532D01*
X134387Y137648D01*
X134321Y137746D01*
X134223Y137812D01*
X134107Y137835D01*
X132892D01*
X132863Y137829D01*
X132744Y137919D01*
X132739Y138046D01*
X133011Y138318D01*
X134107D01*
X134241Y138345D01*
X134354Y138421D01*
X134430Y138534D01*
X134457Y138667D01*
Y139432D01*
X134430Y139566D01*
X134354Y139679D01*
X134241Y139755D01*
X134231Y139757D01*
Y142741D01*
X137561D01*
X138041Y142261D01*
Y140300D01*
X138050Y140231D01*
Y139250D01*
X139031D01*
X139100Y139241D01*
X139169Y139250D01*
X140150D01*
Y140231D01*
X140159Y140300D01*
Y141741D01*
X141300D01*
Y141700D01*
X143600D01*
Y143900D01*
X141300D01*
Y143859D01*
X139439D01*
X138749Y144549D01*
X138709Y144580D01*
X138749Y144700D01*
X165125Y144700D01*
X165140Y144573D01*
D02*
G37*
G36*
X91350Y67250D02*
X86700D01*
Y68350D01*
X91350D01*
Y67250D01*
D02*
G37*
G36*
Y65475D02*
X88025D01*
X86700Y66575D01*
X91350D01*
Y65475D01*
D02*
G37*
%LPC*%
G36*
X166750Y112189D02*
X164707D01*
X164725Y112006D01*
X164822Y111685D01*
X164980Y111390D01*
X165192Y111131D01*
X165451Y110919D01*
X165746Y110761D01*
X166067Y110664D01*
X166400Y110631D01*
X166750D01*
Y112189D01*
D02*
G37*
G36*
X112372Y111304D02*
X112050D01*
Y110550D01*
X112604D01*
Y111073D01*
X112587Y111161D01*
X112536Y111237D01*
X112461Y111287D01*
X112372Y111304D01*
D02*
G37*
G36*
X116775Y112625D02*
X116175D01*
Y112300D01*
X116775D01*
Y112625D01*
D02*
G37*
G36*
X101200Y111625D02*
X100875D01*
Y111025D01*
X101200D01*
Y111625D01*
D02*
G37*
G36*
X169093Y112189D02*
X167050D01*
Y110631D01*
X167400D01*
X167733Y110664D01*
X168054Y110761D01*
X168349Y110919D01*
X168608Y111131D01*
X168820Y111390D01*
X168978Y111685D01*
X169075Y112006D01*
X169093Y112189D01*
D02*
G37*
G36*
X76915Y113350D02*
X75900D01*
Y112335D01*
X76057Y112355D01*
X76343Y112474D01*
X76588Y112662D01*
X76776Y112907D01*
X76895Y113193D01*
X76915Y113350D01*
D02*
G37*
G36*
X120075Y111125D02*
X119750D01*
Y110525D01*
X120075D01*
Y111125D01*
D02*
G37*
G36*
X122800D02*
X122475D01*
Y110525D01*
X122800D01*
Y111125D01*
D02*
G37*
G36*
X111750Y111304D02*
X111427D01*
X111339Y111287D01*
X111263Y111237D01*
X111213Y111161D01*
X111196Y111073D01*
Y110550D01*
X111750D01*
Y111304D01*
D02*
G37*
G36*
X123425Y111125D02*
X123100D01*
Y110525D01*
X123425D01*
Y111125D01*
D02*
G37*
G36*
X101825Y111625D02*
X101500D01*
Y111025D01*
X101825D01*
Y111625D01*
D02*
G37*
G36*
X119450Y112025D02*
X119125D01*
Y111425D01*
X119450D01*
Y112025D01*
D02*
G37*
G36*
X115875Y112000D02*
X115275D01*
Y111675D01*
X115875D01*
Y112000D01*
D02*
G37*
G36*
X120075Y112025D02*
X119750D01*
Y111425D01*
X120075D01*
Y112025D01*
D02*
G37*
G36*
X123425D02*
X123100D01*
Y111425D01*
X123425D01*
Y112025D01*
D02*
G37*
G36*
X122800D02*
X122475D01*
Y111425D01*
X122800D01*
Y112025D01*
D02*
G37*
G36*
X115875Y112625D02*
X115275D01*
Y112300D01*
X115875D01*
Y112625D01*
D02*
G37*
G36*
X147310Y112665D02*
X147153Y112645D01*
X146867Y112526D01*
X146622Y112338D01*
X146434Y112093D01*
X146315Y111807D01*
X146275Y111500D01*
Y111150D01*
X147310D01*
Y112665D01*
D02*
G37*
G36*
X98050Y106350D02*
X97539D01*
X97542Y106324D01*
X97610Y106160D01*
X97719Y106019D01*
X97860Y105910D01*
X98024Y105842D01*
X98050Y105839D01*
Y106350D01*
D02*
G37*
G36*
X153040Y112706D02*
X152690D01*
Y111150D01*
X153746D01*
Y112000D01*
X153722Y112183D01*
X153651Y112353D01*
X153539Y112499D01*
X153393Y112611D01*
X153223Y112682D01*
X153040Y112706D01*
D02*
G37*
G36*
X116775Y112000D02*
X116175D01*
Y111675D01*
X116775D01*
Y112000D01*
D02*
G37*
G36*
X119450Y111125D02*
X119125D01*
Y110525D01*
X119450D01*
Y111125D01*
D02*
G37*
G36*
X135230Y106875D02*
X134905D01*
Y105850D01*
X135230D01*
Y106875D01*
D02*
G37*
G36*
X121475Y108625D02*
X121050D01*
Y107450D01*
X121475D01*
Y108625D01*
D02*
G37*
G36*
X120750D02*
X120325D01*
Y107450D01*
X120750D01*
Y108625D01*
D02*
G37*
G36*
X135250Y108904D02*
X134927D01*
X134839Y108887D01*
X134763Y108837D01*
X134713Y108761D01*
X134696Y108672D01*
Y108150D01*
X135250D01*
Y108904D01*
D02*
G37*
G36*
X92554Y108850D02*
X92000D01*
Y108096D01*
X92322D01*
X92411Y108113D01*
X92487Y108163D01*
X92537Y108239D01*
X92554Y108327D01*
Y108850D01*
D02*
G37*
G36*
X91700D02*
X91146D01*
Y108327D01*
X91163Y108239D01*
X91213Y108163D01*
X91289Y108113D01*
X91377Y108096D01*
X91700D01*
Y108850D01*
D02*
G37*
G36*
X98350Y107161D02*
Y106650D01*
X98861D01*
X98858Y106676D01*
X98790Y106840D01*
X98681Y106981D01*
X98540Y107090D01*
X98376Y107158D01*
X98350Y107161D01*
D02*
G37*
G36*
X122050Y106950D02*
X121725D01*
Y105900D01*
X122050D01*
Y106950D01*
D02*
G37*
G36*
X98050Y107161D02*
X98024Y107158D01*
X97860Y107090D01*
X97719Y106981D01*
X97610Y106840D01*
X97542Y106676D01*
X97539Y106650D01*
X98050D01*
Y107161D01*
D02*
G37*
G36*
X125350Y108625D02*
X124925D01*
Y107450D01*
X125350D01*
Y108625D01*
D02*
G37*
G36*
X135250Y107850D02*
X134696D01*
Y107327D01*
X134713Y107239D01*
X134763Y107163D01*
X134839Y107113D01*
X134927Y107096D01*
X135250D01*
Y107850D01*
D02*
G37*
G36*
X122725Y106950D02*
X122700D01*
X122675D01*
X122598Y106950D01*
X122350D01*
Y105750D01*
Y104550D01*
X122598D01*
X122675Y104550D01*
X122700D01*
X122725D01*
X122802Y104550D01*
X123050D01*
Y105750D01*
Y106950D01*
X122802D01*
X122725Y106950D01*
D02*
G37*
G36*
X111750Y110250D02*
X111196D01*
Y109728D01*
X111213Y109639D01*
X111263Y109563D01*
X111339Y109513D01*
X111427Y109496D01*
X111750D01*
Y110250D01*
D02*
G37*
G36*
X147310Y110850D02*
X146275D01*
Y110500D01*
X146315Y110193D01*
X146434Y109907D01*
X146622Y109662D01*
X146867Y109474D01*
X147153Y109355D01*
X147310Y109335D01*
Y110850D01*
D02*
G37*
G36*
X153746D02*
X152690D01*
Y109294D01*
X153040D01*
X153223Y109318D01*
X153393Y109389D01*
X153539Y109501D01*
X153651Y109647D01*
X153722Y109817D01*
X153746Y110000D01*
Y110850D01*
D02*
G37*
G36*
X101825Y110725D02*
X101500D01*
Y110125D01*
X101825D01*
Y110725D01*
D02*
G37*
G36*
X101200D02*
X100875D01*
Y110125D01*
X101200D01*
Y110725D01*
D02*
G37*
G36*
X112604Y110250D02*
X112050D01*
Y109496D01*
X112372D01*
X112461Y109513D01*
X112536Y109563D01*
X112587Y109639D01*
X112604Y109728D01*
Y110250D01*
D02*
G37*
G36*
X125350Y110100D02*
X124925D01*
Y108925D01*
X125350D01*
Y110100D01*
D02*
G37*
G36*
X120750D02*
X120325D01*
Y108925D01*
X120750D01*
Y110100D01*
D02*
G37*
G36*
X134605Y106875D02*
X134280D01*
Y105850D01*
X134605D01*
Y106875D01*
D02*
G37*
G36*
X92322Y109904D02*
X92000D01*
Y109150D01*
X92554D01*
Y109672D01*
X92537Y109761D01*
X92487Y109837D01*
X92411Y109887D01*
X92322Y109904D01*
D02*
G37*
G36*
X91700D02*
X91377D01*
X91289Y109887D01*
X91213Y109837D01*
X91163Y109761D01*
X91146Y109672D01*
Y109150D01*
X91700D01*
Y109904D01*
D02*
G37*
G36*
X121475Y110100D02*
X121050D01*
Y108925D01*
X121475D01*
Y110100D01*
D02*
G37*
G36*
X75600Y113350D02*
X74585D01*
X74605Y113193D01*
X74724Y112907D01*
X74912Y112662D01*
X75157Y112474D01*
X75443Y112355D01*
X75600Y112335D01*
Y113350D01*
D02*
G37*
G36*
X146704Y118100D02*
X145950D01*
Y117546D01*
X146472D01*
X146561Y117563D01*
X146636Y117613D01*
X146687Y117689D01*
X146704Y117777D01*
Y118100D01*
D02*
G37*
G36*
X145650D02*
X144895D01*
Y117777D01*
X144913Y117689D01*
X144963Y117613D01*
X145039Y117563D01*
X145127Y117546D01*
X145650D01*
Y118100D01*
D02*
G37*
G36*
X144704Y118100D02*
X143950D01*
Y117546D01*
X144472D01*
X144561Y117563D01*
X144636Y117613D01*
X144687Y117689D01*
X144704Y117777D01*
Y118100D01*
D02*
G37*
G36*
X166750Y119508D02*
X166400D01*
X166067Y119475D01*
X165746Y119378D01*
X165451Y119220D01*
X165192Y119008D01*
X164980Y118749D01*
X164822Y118454D01*
X164725Y118133D01*
X164707Y117950D01*
X166750D01*
Y119508D01*
D02*
G37*
G36*
X87900Y118665D02*
Y117650D01*
X88915D01*
X88895Y117807D01*
X88776Y118093D01*
X88588Y118338D01*
X88343Y118526D01*
X88057Y118645D01*
X87900Y118665D01*
D02*
G37*
G36*
X87600D02*
X87443Y118645D01*
X87157Y118526D01*
X86912Y118338D01*
X86724Y118093D01*
X86605Y117807D01*
X86585Y117650D01*
X87600D01*
Y118665D01*
D02*
G37*
G36*
X143650Y118100D02*
X142895D01*
Y117777D01*
X142913Y117689D01*
X142963Y117613D01*
X143039Y117563D01*
X143127Y117546D01*
X143650D01*
Y118100D01*
D02*
G37*
G36*
X141650Y118100D02*
X140896D01*
Y117777D01*
X140913Y117689D01*
X140963Y117613D01*
X141039Y117563D01*
X141127Y117546D01*
X141650D01*
Y118100D01*
D02*
G37*
G36*
X123500Y127616D02*
X123264Y127569D01*
X123065Y127435D01*
X122931Y127236D01*
X122884Y127000D01*
X122931Y126764D01*
X123065Y126565D01*
X123264Y126431D01*
X123452Y126394D01*
X124237Y125608D01*
Y119125D01*
X124237Y119125D01*
X124272Y118948D01*
X124373Y118798D01*
X125394Y117777D01*
X125431Y117589D01*
X125565Y117390D01*
X125764Y117256D01*
X126000Y117209D01*
X126236Y117256D01*
X126435Y117390D01*
X126569Y117589D01*
X126616Y117825D01*
X126569Y118061D01*
X126435Y118260D01*
X126236Y118394D01*
X126048Y118431D01*
X125163Y119317D01*
Y125800D01*
X125128Y125977D01*
X125087Y126037D01*
X125027Y126127D01*
X125027Y126127D01*
X124106Y127048D01*
X124069Y127236D01*
X123935Y127435D01*
X123736Y127569D01*
X123500Y127616D01*
D02*
G37*
G36*
X138475Y117675D02*
X138150D01*
Y117075D01*
X138475D01*
Y117675D01*
D02*
G37*
G36*
X140704Y118100D02*
X139950D01*
Y117546D01*
X140472D01*
X140561Y117563D01*
X140637Y117613D01*
X140687Y117689D01*
X140704Y117777D01*
Y118100D01*
D02*
G37*
G36*
X139650D02*
X138896D01*
Y117777D01*
X138913Y117689D01*
X138963Y117613D01*
X139039Y117563D01*
X139127Y117546D01*
X139650D01*
Y118100D01*
D02*
G37*
G36*
X142704Y118100D02*
X141950D01*
Y117546D01*
X142472D01*
X142561Y117563D01*
X142637Y117613D01*
X142687Y117689D01*
X142704Y117777D01*
Y118100D01*
D02*
G37*
G36*
X140472Y118954D02*
X139950D01*
Y118400D01*
X140704D01*
Y118722D01*
X140687Y118811D01*
X140637Y118887D01*
X140561Y118937D01*
X140472Y118954D01*
D02*
G37*
G36*
X139650D02*
X139127D01*
X139039Y118937D01*
X138963Y118887D01*
X138913Y118811D01*
X138896Y118722D01*
Y118400D01*
X139650D01*
Y118954D01*
D02*
G37*
G36*
X142472Y118954D02*
X141950D01*
Y118400D01*
X142704D01*
Y118722D01*
X142687Y118811D01*
X142637Y118887D01*
X142561Y118937D01*
X142472Y118954D01*
D02*
G37*
G36*
X143650Y118954D02*
X143127D01*
X143039Y118937D01*
X142963Y118887D01*
X142913Y118811D01*
X142895Y118723D01*
Y118400D01*
X143650D01*
Y118954D01*
D02*
G37*
G36*
X146472D02*
X145950D01*
Y118400D01*
X146704D01*
Y118723D01*
X146687Y118811D01*
X146636Y118887D01*
X146561Y118937D01*
X146472Y118954D01*
D02*
G37*
G36*
X145650D02*
X145127D01*
X145039Y118937D01*
X144963Y118887D01*
X144913Y118811D01*
X144895Y118723D01*
Y118400D01*
X145650D01*
Y118954D01*
D02*
G37*
G36*
X141650Y118954D02*
X141127D01*
X141039Y118937D01*
X140963Y118887D01*
X140913Y118811D01*
X140896Y118722D01*
Y118400D01*
X141650D01*
Y118954D01*
D02*
G37*
G36*
X137850Y118575D02*
X137525D01*
Y117975D01*
X137850D01*
Y118575D01*
D02*
G37*
G36*
X134500D02*
X134175D01*
Y117975D01*
X134500D01*
Y118575D01*
D02*
G37*
G36*
X167400Y119508D02*
X167050D01*
Y117950D01*
X169093D01*
X169075Y118133D01*
X168978Y118454D01*
X168820Y118749D01*
X168608Y119008D01*
X168349Y119220D01*
X168054Y119378D01*
X167733Y119475D01*
X167400Y119508D01*
D02*
G37*
G36*
X133304Y118654D02*
X132196D01*
Y118288D01*
X131994D01*
X131836Y118394D01*
X131600Y118441D01*
X131364Y118394D01*
X131165Y118260D01*
X131031Y118061D01*
X130984Y117825D01*
X131031Y117589D01*
X131165Y117390D01*
X131364Y117256D01*
X131600Y117209D01*
X131836Y117256D01*
X131994Y117362D01*
X132196D01*
Y116996D01*
X133304D01*
Y118654D01*
D02*
G37*
G36*
X135125Y118575D02*
X134800D01*
Y117975D01*
X135125D01*
Y118575D01*
D02*
G37*
G36*
X138475D02*
X138150D01*
Y117975D01*
X138475D01*
Y118575D01*
D02*
G37*
G36*
X147850Y115600D02*
X146925D01*
Y114900D01*
X147850D01*
Y115600D01*
D02*
G37*
G36*
X101004Y114700D02*
X100250D01*
Y114146D01*
X100772D01*
X100861Y114163D01*
X100937Y114213D01*
X100987Y114289D01*
X101004Y114377D01*
Y114700D01*
D02*
G37*
G36*
X109200Y114654D02*
X108877D01*
X108789Y114637D01*
X108713Y114587D01*
X108663Y114511D01*
X108646Y114423D01*
Y113900D01*
X109200D01*
Y114654D01*
D02*
G37*
G36*
X121057Y115785D02*
X119842D01*
X119727Y115762D01*
X119629Y115696D01*
X119626Y115693D01*
X119474D01*
X119471Y115696D01*
X119373Y115762D01*
X119257Y115785D01*
X118042D01*
X117927Y115762D01*
X117829Y115696D01*
X117763Y115598D01*
X117740Y115483D01*
Y114718D01*
X117763Y114602D01*
X117829Y114504D01*
X117927Y114438D01*
X117998Y114424D01*
X118096Y114354D01*
Y112696D01*
X119204D01*
Y113062D01*
X119383D01*
X120496Y111949D01*
Y110446D01*
X121604D01*
Y112104D01*
X121502D01*
X121478Y112227D01*
X121377Y112377D01*
X121377Y112377D01*
X119902Y113852D01*
X119752Y113953D01*
X119575Y113988D01*
X119575Y113988D01*
X119294D01*
X119204Y114078D01*
Y114354D01*
X119302Y114424D01*
X119373Y114438D01*
X119471Y114504D01*
X119474Y114507D01*
X119626D01*
X119629Y114504D01*
X119727Y114438D01*
X119842Y114415D01*
X119994D01*
X120022Y114273D01*
X120123Y114123D01*
X120973Y113273D01*
X120973Y113273D01*
X121123Y113172D01*
X121300Y113137D01*
X121446D01*
Y112696D01*
X122554D01*
Y114354D01*
X121446D01*
Y114275D01*
X121329Y114226D01*
X121226Y114329D01*
X121247Y114487D01*
X121271Y114504D01*
X121337Y114602D01*
X121360Y114718D01*
Y115483D01*
X121337Y115598D01*
X121271Y115696D01*
X121173Y115762D01*
X121057Y115785D01*
D02*
G37*
G36*
X100772Y115554D02*
X100250D01*
Y115000D01*
X101004D01*
Y115322D01*
X100987Y115411D01*
X100937Y115487D01*
X100861Y115537D01*
X100772Y115554D01*
D02*
G37*
G36*
X136654Y118654D02*
X135546D01*
Y116996D01*
X135637D01*
Y116777D01*
X135554Y116721D01*
X135488Y116623D01*
X135465Y116507D01*
Y115292D01*
X135488Y115177D01*
X135554Y115079D01*
X135652Y115013D01*
X135767Y114990D01*
X136532D01*
X136648Y115013D01*
X136746Y115079D01*
X136812Y115177D01*
X136835Y115292D01*
Y116507D01*
X136812Y116623D01*
X136746Y116721D01*
X136648Y116787D01*
X136563Y116804D01*
Y116996D01*
X136654D01*
Y118654D01*
D02*
G37*
G36*
X75900Y114665D02*
Y113650D01*
X76915D01*
X76895Y113807D01*
X76776Y114093D01*
X76588Y114338D01*
X76343Y114526D01*
X76057Y114645D01*
X75900Y114665D01*
D02*
G37*
G36*
X167400Y114047D02*
X167050D01*
Y112489D01*
X169093D01*
X169075Y112672D01*
X168978Y112993D01*
X168820Y113288D01*
X168608Y113547D01*
X168349Y113759D01*
X168054Y113917D01*
X167733Y114014D01*
X167400Y114047D01*
D02*
G37*
G36*
X166750D02*
X166400D01*
X166067Y114014D01*
X165746Y113917D01*
X165451Y113759D01*
X165192Y113547D01*
X164980Y113288D01*
X164822Y112993D01*
X164725Y112672D01*
X164707Y112489D01*
X166750D01*
Y114047D01*
D02*
G37*
G36*
X95950Y112975D02*
X95625D01*
Y112375D01*
X95950D01*
Y112975D01*
D02*
G37*
G36*
X75600Y114665D02*
X75443Y114645D01*
X75157Y114526D01*
X74912Y114338D01*
X74724Y114093D01*
X74605Y113807D01*
X74585Y113650D01*
X75600D01*
Y114665D01*
D02*
G37*
G36*
X95950Y113875D02*
X95625D01*
Y113275D01*
X95950D01*
Y113875D01*
D02*
G37*
G36*
X109200Y113600D02*
X108646D01*
Y113078D01*
X108663Y112989D01*
X108713Y112913D01*
X108789Y112863D01*
X108877Y112846D01*
X109200D01*
Y113600D01*
D02*
G37*
G36*
X124622Y117604D02*
X124300D01*
Y116850D01*
X124854D01*
Y117372D01*
X124837Y117461D01*
X124787Y117537D01*
X124711Y117587D01*
X124622Y117604D01*
D02*
G37*
G36*
X124000D02*
X123677D01*
X123589Y117587D01*
X123513Y117537D01*
X123463Y117461D01*
X123446Y117372D01*
Y116850D01*
X124000D01*
Y117604D01*
D02*
G37*
G36*
X88915Y117350D02*
X87900D01*
Y116335D01*
X88057Y116355D01*
X88343Y116474D01*
X88588Y116662D01*
X88776Y116907D01*
X88895Y117193D01*
X88915Y117350D01*
D02*
G37*
G36*
X137850Y117675D02*
X137525D01*
Y117075D01*
X137850D01*
Y117675D01*
D02*
G37*
G36*
X135125D02*
X134800D01*
Y117075D01*
X135125D01*
Y117675D01*
D02*
G37*
G36*
X134500D02*
X134175D01*
Y117075D01*
X134500D01*
Y117675D01*
D02*
G37*
G36*
X87600Y117350D02*
X86585D01*
X86605Y117193D01*
X86724Y116907D01*
X86912Y116662D01*
X87157Y116474D01*
X87443Y116355D01*
X87600Y116335D01*
Y117350D01*
D02*
G37*
G36*
X147850Y116600D02*
X146925D01*
Y115900D01*
X147850D01*
Y116600D01*
D02*
G37*
G36*
X124854Y116550D02*
X124300D01*
Y115796D01*
X124622D01*
X124711Y115813D01*
X124787Y115863D01*
X124837Y115939D01*
X124854Y116027D01*
Y116550D01*
D02*
G37*
G36*
X124000D02*
X123446D01*
Y116027D01*
X123463Y115939D01*
X123513Y115863D01*
X123589Y115813D01*
X123677Y115796D01*
X124000D01*
Y116550D01*
D02*
G37*
G36*
X169093Y117650D02*
X167050D01*
Y116092D01*
X167400D01*
X167733Y116125D01*
X168054Y116222D01*
X168349Y116380D01*
X168608Y116592D01*
X168820Y116851D01*
X168978Y117146D01*
X169075Y117467D01*
X169093Y117650D01*
D02*
G37*
G36*
X166750D02*
X164707D01*
X164725Y117467D01*
X164822Y117146D01*
X164980Y116851D01*
X165192Y116592D01*
X165451Y116380D01*
X165746Y116222D01*
X166067Y116125D01*
X166400Y116092D01*
X166750D01*
Y117650D01*
D02*
G37*
G36*
X149075Y116600D02*
X148150D01*
Y115900D01*
X149075D01*
Y116600D01*
D02*
G37*
G36*
X98861Y106350D02*
X98350D01*
Y105839D01*
X98376Y105842D01*
X98540Y105910D01*
X98681Y106019D01*
X98790Y106160D01*
X98858Y106324D01*
X98861Y106350D01*
D02*
G37*
G36*
X94057Y96910D02*
X93292D01*
X93177Y96887D01*
X93079Y96821D01*
X93013Y96723D01*
X92990Y96607D01*
Y95970D01*
X92608Y95588D01*
X87129D01*
Y95979D01*
X85421D01*
Y94271D01*
X87129D01*
Y94662D01*
X92800D01*
X92800Y94662D01*
X92977Y94697D01*
X93127Y94798D01*
X93420Y95090D01*
X94057D01*
X94173Y95113D01*
X94271Y95179D01*
X94337Y95277D01*
X94360Y95392D01*
Y96607D01*
X94337Y96723D01*
X94271Y96821D01*
X94173Y96887D01*
X94057Y96910D01*
D02*
G37*
G36*
X137354Y96050D02*
X136800D01*
Y95296D01*
X137122D01*
X137211Y95313D01*
X137287Y95363D01*
X137337Y95439D01*
X137354Y95527D01*
Y96050D01*
D02*
G37*
G36*
X136500D02*
X135946D01*
Y95527D01*
X135963Y95439D01*
X136013Y95363D01*
X136089Y95313D01*
X136177Y95296D01*
X136500D01*
Y96050D01*
D02*
G37*
G36*
X106850Y96350D02*
X106339D01*
X106342Y96324D01*
X106410Y96160D01*
X106519Y96019D01*
X106660Y95910D01*
X106824Y95842D01*
X106850Y95839D01*
Y96350D01*
D02*
G37*
G36*
X120950Y99175D02*
Y95650D01*
X124475D01*
X124441Y96077D01*
X124306Y96639D01*
X124085Y97174D01*
X123782Y97667D01*
X123407Y98107D01*
X122967Y98482D01*
X122474Y98785D01*
X121939Y99006D01*
X121377Y99141D01*
X120950Y99175D01*
D02*
G37*
G36*
X120650D02*
X120223Y99141D01*
X119661Y99006D01*
X119126Y98785D01*
X118633Y98482D01*
X118193Y98107D01*
X117818Y97667D01*
X117515Y97174D01*
X117294Y96639D01*
X117159Y96077D01*
X117125Y95650D01*
X120650D01*
Y99175D01*
D02*
G37*
G36*
Y95350D02*
X117125D01*
X117159Y94923D01*
X117294Y94361D01*
X117515Y93826D01*
X117818Y93333D01*
X118193Y92893D01*
X118633Y92518D01*
X119126Y92215D01*
X119661Y91994D01*
X120223Y91859D01*
X120650Y91825D01*
Y95350D01*
D02*
G37*
G36*
X144335Y91850D02*
X143300D01*
Y90585D01*
X143457Y90605D01*
X143743Y90724D01*
X143988Y90912D01*
X144176Y91157D01*
X144295Y91443D01*
X144335Y91750D01*
Y91850D01*
D02*
G37*
G36*
X143000D02*
X141965D01*
Y91750D01*
X142005Y91443D01*
X142124Y91157D01*
X142312Y90912D01*
X142557Y90724D01*
X142843Y90605D01*
X143000Y90585D01*
Y91850D01*
D02*
G37*
G36*
X143300Y93415D02*
Y92150D01*
X144335D01*
Y92250D01*
X144295Y92557D01*
X144176Y92843D01*
X143988Y93088D01*
X143743Y93276D01*
X143457Y93395D01*
X143300Y93415D01*
D02*
G37*
G36*
X143000D02*
X142843Y93395D01*
X142557Y93276D01*
X142312Y93088D01*
X142124Y92843D01*
X142005Y92557D01*
X141965Y92250D01*
Y92150D01*
X143000D01*
Y93415D01*
D02*
G37*
G36*
X124475Y95350D02*
X120950D01*
Y91825D01*
X121377Y91859D01*
X121939Y91994D01*
X122474Y92215D01*
X122967Y92518D01*
X123407Y92893D01*
X123782Y93333D01*
X124085Y93826D01*
X124306Y94361D01*
X124441Y94923D01*
X124475Y95350D01*
D02*
G37*
G36*
X107661Y96350D02*
X107150D01*
Y95839D01*
X107176Y95842D01*
X107340Y95910D01*
X107481Y96019D01*
X107590Y96160D01*
X107658Y96324D01*
X107661Y96350D01*
D02*
G37*
G36*
X136500Y98050D02*
X135946D01*
Y97527D01*
X135963Y97439D01*
X136013Y97363D01*
X136089Y97313D01*
X136177Y97296D01*
X136500D01*
Y98050D01*
D02*
G37*
G36*
X133549D02*
X132995D01*
Y97296D01*
X133318D01*
X133406Y97313D01*
X133482Y97363D01*
X133532Y97439D01*
X133549Y97527D01*
Y98050D01*
D02*
G37*
G36*
X132695D02*
X132141D01*
Y97527D01*
X132158Y97439D01*
X132208Y97363D01*
X132284Y97313D01*
X132373Y97296D01*
X132695D01*
Y98050D01*
D02*
G37*
G36*
X91429Y98050D02*
X90875D01*
Y97296D01*
X91197D01*
X91286Y97313D01*
X91362Y97364D01*
X91412Y97439D01*
X91429Y97528D01*
Y98050D01*
D02*
G37*
G36*
X90575D02*
X90021D01*
Y97528D01*
X90038Y97439D01*
X90088Y97364D01*
X90164Y97313D01*
X90252Y97296D01*
X90575D01*
Y98050D01*
D02*
G37*
G36*
X137354Y98050D02*
X136800D01*
Y97296D01*
X137122D01*
X137211Y97313D01*
X137287Y97363D01*
X137337Y97439D01*
X137354Y97527D01*
Y98050D01*
D02*
G37*
G36*
X86125Y97175D02*
X85500D01*
Y96550D01*
X86125D01*
Y97175D01*
D02*
G37*
G36*
X137122Y97104D02*
X136800D01*
Y96350D01*
X137354D01*
Y96872D01*
X137337Y96961D01*
X137287Y97037D01*
X137211Y97087D01*
X137122Y97104D01*
D02*
G37*
G36*
X136500D02*
X136177D01*
X136089Y97087D01*
X136013Y97037D01*
X135963Y96961D01*
X135946Y96872D01*
Y96350D01*
X136500D01*
Y97104D01*
D02*
G37*
G36*
X107150Y97161D02*
Y96650D01*
X107661D01*
X107658Y96676D01*
X107590Y96840D01*
X107481Y96981D01*
X107340Y97090D01*
X107176Y97158D01*
X107150Y97161D01*
D02*
G37*
G36*
X106850Y97161D02*
X106824Y97158D01*
X106660Y97090D01*
X106519Y96981D01*
X106410Y96840D01*
X106342Y96676D01*
X106339Y96650D01*
X106850D01*
Y97161D01*
D02*
G37*
G36*
X87050Y97175D02*
X86425D01*
Y96550D01*
X87050D01*
Y97175D01*
D02*
G37*
G36*
X158150Y93757D02*
X157856Y93728D01*
X157573Y93643D01*
X157313Y93503D01*
X157084Y93316D01*
X156897Y93087D01*
X156757Y92827D01*
X156672Y92544D01*
X156643Y92250D01*
Y91750D01*
X156672Y91456D01*
X156757Y91173D01*
X156897Y90913D01*
X157084Y90684D01*
X157313Y90497D01*
X157573Y90357D01*
X157856Y90272D01*
X158150Y90243D01*
X158444Y90272D01*
X158727Y90357D01*
X158987Y90497D01*
X159216Y90684D01*
X159403Y90913D01*
X159543Y91173D01*
X159628Y91456D01*
X159657Y91750D01*
Y92250D01*
X159628Y92544D01*
X159543Y92827D01*
X159403Y93087D01*
X159216Y93316D01*
X158987Y93503D01*
X158727Y93643D01*
X158444Y93728D01*
X158150Y93757D01*
D02*
G37*
G36*
X158100Y72175D02*
X156975D01*
Y70900D01*
X158100D01*
Y72175D01*
D02*
G37*
G36*
X153020Y72191D02*
X152831Y72167D01*
X152514Y72036D01*
X152243Y71827D01*
X152034Y71556D01*
X151903Y71239D01*
X151859Y70900D01*
D01*
X153020D01*
Y72191D01*
D02*
G37*
G36*
X159525Y70600D02*
X158400D01*
Y69325D01*
X159525D01*
Y70600D01*
D02*
G37*
G36*
X134254Y79529D02*
X130246D01*
Y76271D01*
X131609D01*
Y76079D01*
X130246D01*
Y72821D01*
X134254D01*
Y76079D01*
X132891D01*
Y76271D01*
X134254D01*
Y79529D01*
D02*
G37*
G36*
X153320Y72191D02*
Y70900D01*
X154481D01*
X154436Y71239D01*
X154305Y71556D01*
X154097Y71827D01*
X153826Y72036D01*
X153509Y72167D01*
X153320Y72191D01*
D02*
G37*
G36*
X159525Y72175D02*
X158400D01*
Y70900D01*
X159525D01*
Y72175D01*
D02*
G37*
G36*
X74150Y72675D02*
Y69150D01*
X77675D01*
X77641Y69577D01*
X77506Y70139D01*
X77285Y70674D01*
X76982Y71167D01*
X76607Y71607D01*
X76167Y71982D01*
X75674Y72285D01*
X75139Y72506D01*
X74577Y72641D01*
X74150Y72675D01*
D02*
G37*
G36*
X141504Y69479D02*
X137496D01*
Y68491D01*
X134254D01*
Y69479D01*
X130246D01*
Y66221D01*
X134254D01*
Y67209D01*
X137496D01*
Y66221D01*
X141504D01*
Y69479D01*
D02*
G37*
G36*
X123700Y68640D02*
X123379Y68598D01*
X123080Y68474D01*
X122823Y68277D01*
X122626Y68020D01*
X122502Y67721D01*
X122460Y67400D01*
X122502Y67079D01*
X122626Y66780D01*
X122823Y66523D01*
X123080Y66326D01*
X123379Y66202D01*
X123700Y66160D01*
X124021Y66202D01*
X124320Y66326D01*
X124577Y66523D01*
X124774Y66780D01*
X124898Y67079D01*
X124940Y67400D01*
X124898Y67721D01*
X124774Y68020D01*
X124577Y68277D01*
X124320Y68474D01*
X124021Y68598D01*
X123700Y68640D01*
D02*
G37*
G36*
X158100Y70600D02*
X156975D01*
Y69325D01*
X158100D01*
Y70600D01*
D02*
G37*
G36*
X154481D02*
X153320D01*
Y69309D01*
X153509Y69333D01*
X153826Y69464D01*
X154097Y69673D01*
X154305Y69944D01*
X154436Y70261D01*
X154481Y70600D01*
D01*
D02*
G37*
G36*
X153020D02*
X151859D01*
X151903Y70261D01*
X152034Y69944D01*
X152243Y69673D01*
X152514Y69464D01*
X152831Y69333D01*
X153020Y69309D01*
Y70600D01*
D02*
G37*
G36*
X148504Y76079D02*
X144496D01*
Y75091D01*
X141504D01*
Y76079D01*
X137496D01*
Y72821D01*
X141504D01*
Y73809D01*
X144496D01*
Y72821D01*
X148504D01*
Y76079D01*
D02*
G37*
G36*
X167750Y84110D02*
X166232D01*
X166262Y83888D01*
X166405Y83541D01*
X166634Y83244D01*
X166931Y83015D01*
X167278Y82872D01*
X167650Y82823D01*
X167750D01*
Y84110D01*
D02*
G37*
G36*
X162700Y83943D02*
Y81900D01*
X164258D01*
Y82250D01*
X164225Y82583D01*
X164128Y82904D01*
X163970Y83199D01*
X163758Y83458D01*
X163499Y83670D01*
X163204Y83828D01*
X162883Y83925D01*
X162700Y83943D01*
D02*
G37*
G36*
X162400D02*
X162217Y83925D01*
X161896Y83828D01*
X161601Y83670D01*
X161342Y83458D01*
X161130Y83199D01*
X160972Y82904D01*
X160875Y82583D01*
X160842Y82250D01*
Y81900D01*
X162400D01*
Y83943D01*
D02*
G37*
G36*
X167750Y90777D02*
X167650D01*
X167278Y90728D01*
X166931Y90585D01*
X166634Y90356D01*
X166405Y90059D01*
X166262Y89712D01*
X166232Y89490D01*
X167750D01*
Y90777D01*
D02*
G37*
G36*
Y89190D02*
X166232D01*
X166262Y88968D01*
X166405Y88621D01*
X166634Y88324D01*
X166931Y88095D01*
X167278Y87952D01*
X167650Y87903D01*
X167750D01*
Y89190D01*
D02*
G37*
G36*
Y85697D02*
X167650D01*
X167278Y85648D01*
X166931Y85505D01*
X166634Y85276D01*
X166405Y84979D01*
X166262Y84632D01*
X166232Y84410D01*
X167750D01*
Y85697D01*
D02*
G37*
G36*
X137400Y81600D02*
X135867D01*
Y81250D01*
X135899Y80922D01*
X135995Y80606D01*
X136151Y80315D01*
X136360Y80060D01*
X136615Y79851D01*
X136906Y79695D01*
X137222Y79599D01*
X137400Y79582D01*
Y81600D01*
D02*
G37*
G36*
X164258D02*
X162700D01*
Y79557D01*
X162883Y79575D01*
X163204Y79672D01*
X163499Y79830D01*
X163758Y80042D01*
X163970Y80301D01*
X164128Y80596D01*
X164225Y80917D01*
X164258Y81250D01*
Y81600D01*
D02*
G37*
G36*
X162400D02*
X160842D01*
Y81250D01*
X160875Y80917D01*
X160972Y80596D01*
X161130Y80301D01*
X161342Y80042D01*
X161601Y79830D01*
X161896Y79672D01*
X162217Y79575D01*
X162400Y79557D01*
Y81600D01*
D02*
G37*
G36*
X137700Y83918D02*
Y81900D01*
X139233D01*
Y82250D01*
X139201Y82578D01*
X139105Y82894D01*
X138949Y83185D01*
X138740Y83440D01*
X138485Y83649D01*
X138194Y83805D01*
X137878Y83901D01*
X137700Y83918D01*
D02*
G37*
G36*
X137400D02*
X137222Y83901D01*
X136906Y83805D01*
X136615Y83649D01*
X136360Y83440D01*
X136151Y83185D01*
X135995Y82894D01*
X135899Y82578D01*
X135867Y82250D01*
Y81900D01*
X137400D01*
Y83918D01*
D02*
G37*
G36*
X139233Y81600D02*
X137700D01*
Y79582D01*
X137878Y79599D01*
X138194Y79695D01*
X138485Y79851D01*
X138740Y80060D01*
X138949Y80315D01*
X139105Y80606D01*
X139201Y80922D01*
X139233Y81250D01*
Y81600D01*
D02*
G37*
G36*
X93525Y98050D02*
X92971D01*
Y97528D01*
X92988Y97439D01*
X93038Y97364D01*
X93114Y97313D01*
X93202Y97296D01*
X93525D01*
Y98050D01*
D02*
G37*
G36*
X114772Y104154D02*
X114250D01*
Y103600D01*
X115004D01*
Y103922D01*
X114987Y104011D01*
X114937Y104087D01*
X114861Y104137D01*
X114772Y104154D01*
D02*
G37*
G36*
X113950D02*
X113427D01*
X113339Y104137D01*
X113263Y104087D01*
X113213Y104011D01*
X113196Y103922D01*
Y103600D01*
X113950D01*
Y104154D01*
D02*
G37*
G36*
X119675Y104150D02*
X119050D01*
Y103525D01*
X119675D01*
Y104150D01*
D02*
G37*
G36*
X139250Y107762D02*
X138906Y107729D01*
X138576Y107628D01*
X138271Y107465D01*
X138004Y107246D01*
X137785Y106979D01*
X137622Y106674D01*
X137521Y106344D01*
X137488Y106000D01*
X137521Y105656D01*
X137622Y105326D01*
X137785Y105021D01*
X138004Y104754D01*
X138271Y104535D01*
X138576Y104372D01*
X138906Y104271D01*
X139250Y104238D01*
X139594Y104271D01*
X139924Y104372D01*
X140229Y104535D01*
X140496Y104754D01*
X140715Y105021D01*
X140878Y105326D01*
X140979Y105656D01*
X141012Y106000D01*
X140979Y106344D01*
X140878Y106674D01*
X140715Y106979D01*
X140496Y107246D01*
X140229Y107465D01*
X139924Y107628D01*
X139594Y107729D01*
X139250Y107762D01*
D02*
G37*
G36*
X90125Y104850D02*
X88975D01*
Y104075D01*
X90125D01*
Y104850D01*
D02*
G37*
G36*
X88675D02*
X87525D01*
Y104075D01*
X88675D01*
Y104850D01*
D02*
G37*
G36*
X115004Y103300D02*
X114250D01*
Y102746D01*
X114772D01*
X114861Y102763D01*
X114937Y102813D01*
X114987Y102889D01*
X115004Y102977D01*
Y103300D01*
D02*
G37*
G36*
X113950D02*
X113196D01*
Y102977D01*
X113213Y102889D01*
X113263Y102813D01*
X113339Y102763D01*
X113427Y102746D01*
X113950D01*
Y103300D01*
D02*
G37*
G36*
X167750Y103490D02*
X166200D01*
Y102190D01*
X167750D01*
Y103490D01*
D02*
G37*
G36*
X118750Y104150D02*
X118125D01*
Y103525D01*
X118750D01*
Y104150D01*
D02*
G37*
G36*
X107232Y103829D02*
X107000D01*
Y103150D01*
X107454D01*
Y103608D01*
X107437Y103692D01*
X107389Y103764D01*
X107317Y103812D01*
X107232Y103829D01*
D02*
G37*
G36*
X106700D02*
X106467D01*
X106383Y103812D01*
X106311Y103764D01*
X106263Y103692D01*
X106246Y103608D01*
Y103150D01*
X106700D01*
Y103829D01*
D02*
G37*
G36*
X160750Y107762D02*
X160406Y107729D01*
X160076Y107628D01*
X159771Y107465D01*
X159504Y107246D01*
X159285Y106979D01*
X159122Y106674D01*
X159021Y106344D01*
X158988Y106000D01*
X159021Y105656D01*
X159122Y105326D01*
X159285Y105021D01*
X159504Y104754D01*
X159771Y104535D01*
X160076Y104372D01*
X160406Y104271D01*
X160750Y104238D01*
X161094Y104271D01*
X161424Y104372D01*
X161729Y104535D01*
X161996Y104754D01*
X162215Y105021D01*
X162378Y105326D01*
X162479Y105656D01*
X162512Y106000D01*
X162479Y106344D01*
X162378Y106674D01*
X162215Y106979D01*
X161996Y107246D01*
X161729Y107465D01*
X161424Y107628D01*
X161094Y107729D01*
X160750Y107762D01*
D02*
G37*
G36*
X105975Y105320D02*
X104950D01*
Y104995D01*
X105975D01*
Y105320D01*
D02*
G37*
G36*
X104650D02*
X103625D01*
Y104995D01*
X104650D01*
Y105320D01*
D02*
G37*
G36*
X122050Y105600D02*
X121725D01*
Y104550D01*
X122050D01*
Y105600D01*
D02*
G37*
G36*
X72300Y108140D02*
X71979Y108098D01*
X71680Y107974D01*
X71423Y107777D01*
X71226Y107520D01*
X71102Y107221D01*
X71060Y106900D01*
X71102Y106579D01*
X71226Y106280D01*
X71423Y106023D01*
X71680Y105826D01*
X71979Y105702D01*
X72300Y105660D01*
X72621Y105702D01*
X72920Y105826D01*
X73177Y106023D01*
X73374Y106280D01*
X73498Y106579D01*
X73540Y106900D01*
X73498Y107221D01*
X73374Y107520D01*
X73177Y107777D01*
X72920Y107974D01*
X72621Y108098D01*
X72300Y108140D01*
D02*
G37*
G36*
X90125Y105925D02*
X88975D01*
Y105150D01*
X90125D01*
Y105925D01*
D02*
G37*
G36*
X88675D02*
X87525D01*
Y105150D01*
X88675D01*
Y105925D01*
D02*
G37*
G36*
X118750Y105075D02*
X118125D01*
Y104450D01*
X118750D01*
Y105075D01*
D02*
G37*
G36*
X105975Y104695D02*
X104950D01*
Y104370D01*
X105975D01*
Y104695D01*
D02*
G37*
G36*
X104650D02*
X103625D01*
Y104370D01*
X104650D01*
Y104695D01*
D02*
G37*
G36*
X135230Y105550D02*
X134905D01*
Y104525D01*
X135230D01*
Y105550D01*
D02*
G37*
G36*
X134605D02*
X134280D01*
Y104525D01*
X134605D01*
Y105550D01*
D02*
G37*
G36*
X119675Y105075D02*
X119050D01*
Y104450D01*
X119675D01*
Y105075D01*
D02*
G37*
G36*
X107454Y102850D02*
X107000D01*
Y102171D01*
X107232D01*
X107317Y102188D01*
X107389Y102236D01*
X107437Y102308D01*
X107454Y102393D01*
Y102850D01*
D02*
G37*
G36*
X90575Y99104D02*
X90252D01*
X90164Y99087D01*
X90088Y99037D01*
X90038Y98961D01*
X90021Y98873D01*
Y98350D01*
X90575D01*
Y99104D01*
D02*
G37*
G36*
X93525D02*
X93202D01*
X93114Y99087D01*
X93038Y99037D01*
X92988Y98961D01*
X92971Y98873D01*
Y98350D01*
X93525D01*
Y99104D01*
D02*
G37*
G36*
X137122Y99104D02*
X136800D01*
Y98350D01*
X137354D01*
Y98872D01*
X137337Y98961D01*
X137287Y99036D01*
X137211Y99087D01*
X137122Y99104D01*
D02*
G37*
G36*
X134632Y116810D02*
X133867D01*
X133752Y116787D01*
X133654Y116721D01*
X133588Y116623D01*
X133565Y116507D01*
Y115292D01*
X133588Y115177D01*
X133654Y115079D01*
X133752Y115013D01*
X133787Y115006D01*
Y114042D01*
X131573Y111827D01*
X131472Y111677D01*
X131437Y111500D01*
X131437Y111500D01*
Y108759D01*
X131413Y108723D01*
X131390Y108607D01*
Y107392D01*
X131413Y107277D01*
X131479Y107179D01*
X131577Y107113D01*
X131693Y107090D01*
X131752D01*
Y106954D01*
X131661D01*
Y104446D01*
X132612D01*
X132664Y104319D01*
X131888Y103542D01*
X131787Y103392D01*
X131752Y103215D01*
X131752Y103215D01*
Y101754D01*
X131661D01*
Y99246D01*
X132769D01*
Y101754D01*
X132678D01*
Y103023D01*
X133812Y104158D01*
X133812Y104158D01*
X133913Y104308D01*
X133940Y104446D01*
X134039D01*
Y106954D01*
X134039Y106954D01*
X134111Y107051D01*
X134193Y107107D01*
X134261Y107208D01*
X134285Y107327D01*
Y108672D01*
X134261Y108792D01*
X134193Y108893D01*
X134092Y108961D01*
X133972Y108985D01*
X133863D01*
Y109543D01*
X133982Y109592D01*
X134223Y109777D01*
X134408Y110018D01*
X134524Y110299D01*
X134564Y110600D01*
X134524Y110901D01*
X134475Y111020D01*
X135401Y111946D01*
X137054D01*
Y114254D01*
X134746D01*
X134713Y114367D01*
Y115006D01*
X134748Y115013D01*
X134846Y115079D01*
X134912Y115177D01*
X134935Y115292D01*
Y116507D01*
X134912Y116623D01*
X134846Y116721D01*
X134748Y116787D01*
X134632Y116810D01*
D02*
G37*
G36*
X94147Y99104D02*
X93825D01*
Y98350D01*
X94379D01*
Y98873D01*
X94362Y98961D01*
X94312Y99037D01*
X94236Y99087D01*
X94147Y99104D01*
D02*
G37*
G36*
X91197D02*
X90875D01*
Y98350D01*
X91429D01*
Y98873D01*
X91412Y98961D01*
X91362Y99037D01*
X91286Y99087D01*
X91197Y99104D01*
D02*
G37*
G36*
X87050Y98100D02*
X86425D01*
Y97475D01*
X87050D01*
Y98100D01*
D02*
G37*
G36*
X86125D02*
X85500D01*
Y97475D01*
X86125D01*
Y98100D01*
D02*
G37*
G36*
X94379Y98050D02*
X93825D01*
Y97296D01*
X94147D01*
X94236Y97313D01*
X94312Y97364D01*
X94362Y97439D01*
X94379Y97528D01*
Y98050D01*
D02*
G37*
G36*
X136500Y99104D02*
X136177D01*
X136089Y99087D01*
X136013Y99036D01*
X135963Y98961D01*
X135946Y98872D01*
Y98350D01*
X136500D01*
Y99104D01*
D02*
G37*
G36*
X133318D02*
X132995D01*
Y98350D01*
X133549D01*
Y98872D01*
X133532Y98961D01*
X133482Y99036D01*
X133406Y99087D01*
X133318Y99104D01*
D02*
G37*
G36*
X132695D02*
X132373D01*
X132284Y99087D01*
X132208Y99036D01*
X132158Y98961D01*
X132141Y98872D01*
Y98350D01*
X132695D01*
Y99104D01*
D02*
G37*
G36*
X134039Y101754D02*
X132931D01*
Y99246D01*
X134039D01*
Y101754D01*
D02*
G37*
G36*
X100500Y102204D02*
X99977D01*
X99889Y102187D01*
X99813Y102137D01*
X99763Y102061D01*
X99746Y101973D01*
Y101650D01*
X100500D01*
Y102204D01*
D02*
G37*
G36*
X107272Y101904D02*
X106950D01*
Y101150D01*
X107504D01*
Y101673D01*
X107487Y101761D01*
X107437Y101837D01*
X107361Y101887D01*
X107272Y101904D01*
D02*
G37*
G36*
X106650D02*
X106327D01*
X106239Y101887D01*
X106163Y101837D01*
X106113Y101761D01*
X106096Y101673D01*
Y101150D01*
X106650D01*
Y101904D01*
D02*
G37*
G36*
X106700Y102850D02*
X106246D01*
Y102393D01*
X106263Y102308D01*
X106311Y102236D01*
X106383Y102188D01*
X106467Y102171D01*
X106700D01*
Y102850D01*
D02*
G37*
G36*
X102400Y102254D02*
X101942D01*
X101858Y102237D01*
X101786Y102189D01*
X101738Y102117D01*
X101721Y102033D01*
Y101800D01*
X102400D01*
Y102254D01*
D02*
G37*
G36*
X101322Y102204D02*
X100800D01*
Y101650D01*
X101554D01*
Y101973D01*
X101537Y102061D01*
X101487Y102137D01*
X101411Y102187D01*
X101322Y102204D01*
D02*
G37*
G36*
X167750Y101890D02*
X166200D01*
Y100590D01*
X167750D01*
Y101890D01*
D02*
G37*
G36*
X107504Y100850D02*
X106950D01*
Y100096D01*
X107272D01*
X107361Y100113D01*
X107437Y100163D01*
X107487Y100239D01*
X107504Y100328D01*
Y100850D01*
D02*
G37*
G36*
X106650D02*
X106096D01*
Y100328D01*
X106113Y100239D01*
X106163Y100163D01*
X106239Y100113D01*
X106327Y100096D01*
X106650D01*
Y100850D01*
D02*
G37*
G36*
X102400Y101500D02*
X101721D01*
Y101268D01*
X101738Y101183D01*
X101786Y101111D01*
X101858Y101063D01*
X101942Y101046D01*
X102400D01*
Y101500D01*
D02*
G37*
G36*
X101554Y101350D02*
X100800D01*
Y100796D01*
X101322D01*
X101411Y100813D01*
X101487Y100864D01*
X101537Y100939D01*
X101554Y101028D01*
Y101350D01*
D02*
G37*
G36*
X100500D02*
X99746D01*
Y101028D01*
X99763Y100939D01*
X99813Y100864D01*
X99889Y100813D01*
X99977Y100796D01*
X100500D01*
Y101350D01*
D02*
G37*
G36*
X133572Y133354D02*
X133050D01*
Y132800D01*
X133804D01*
Y133122D01*
X133787Y133211D01*
X133737Y133287D01*
X133661Y133337D01*
X133572Y133354D01*
D02*
G37*
G36*
X132750D02*
X132227D01*
X132139Y133337D01*
X132063Y133287D01*
X132013Y133211D01*
X131996Y133122D01*
Y132800D01*
X132750D01*
Y133354D01*
D02*
G37*
G36*
X138275Y133775D02*
X137125D01*
Y132250D01*
X138275D01*
Y133775D01*
D02*
G37*
G36*
X128300Y133625D02*
X127975D01*
Y133025D01*
X128300D01*
Y133625D01*
D02*
G37*
G36*
X131775Y133125D02*
X131175D01*
Y132800D01*
X131775D01*
Y133125D01*
D02*
G37*
G36*
X130875D02*
X130275D01*
Y132800D01*
X130875D01*
Y133125D01*
D02*
G37*
G36*
X136825Y133775D02*
X135675D01*
Y132250D01*
X136825D01*
Y133775D01*
D02*
G37*
G36*
X168350Y132607D02*
X168075D01*
X167831Y132559D01*
X167624Y132421D01*
X167486Y132214D01*
X167468Y132120D01*
X168350D01*
Y132607D01*
D02*
G37*
G36*
X133804Y132500D02*
X133050D01*
Y131946D01*
X133572D01*
X133661Y131963D01*
X133737Y132013D01*
X133787Y132089D01*
X133804Y132177D01*
Y132500D01*
D02*
G37*
G36*
X132750D02*
X131996D01*
Y132177D01*
X132013Y132089D01*
X132063Y132013D01*
X132139Y131963D01*
X132227Y131946D01*
X132750D01*
Y132500D01*
D02*
G37*
G36*
X131775Y132500D02*
X131175D01*
Y132175D01*
X131775D01*
Y132500D01*
D02*
G37*
G36*
X130875D02*
X130275D01*
Y132175D01*
X130875D01*
Y132500D01*
D02*
G37*
G36*
X168925Y132607D02*
X168650D01*
Y132120D01*
X169532D01*
X169514Y132214D01*
X169376Y132421D01*
X169169Y132559D01*
X168925Y132607D01*
D02*
G37*
G36*
X128925Y133625D02*
X128600D01*
Y133025D01*
X128925D01*
Y133625D01*
D02*
G37*
G36*
X110475Y135000D02*
X109875D01*
Y134675D01*
X110475D01*
Y135000D01*
D02*
G37*
G36*
X155172Y135404D02*
X154850D01*
Y134650D01*
X155404D01*
Y135172D01*
X155387Y135261D01*
X155336Y135337D01*
X155261Y135387D01*
X155172Y135404D01*
D02*
G37*
G36*
X154550D02*
X154227D01*
X154139Y135387D01*
X154063Y135337D01*
X154013Y135261D01*
X153995Y135172D01*
Y134650D01*
X154550D01*
Y135404D01*
D02*
G37*
G36*
X143510Y135850D02*
X142727D01*
Y135225D01*
X142758Y135069D01*
X142847Y134937D01*
X142979Y134848D01*
X143135Y134817D01*
X143510D01*
Y135850D01*
D02*
G37*
G36*
X147354Y143854D02*
X145146D01*
Y141746D01*
X145439D01*
Y136908D01*
X145323Y136756D01*
X145222Y136512D01*
X145187Y136250D01*
Y135750D01*
X145222Y135488D01*
X145323Y135244D01*
X145484Y135034D01*
X145694Y134873D01*
X145938Y134772D01*
X146200Y134737D01*
X146462Y134772D01*
X146706Y134873D01*
X146916Y135034D01*
X147077Y135244D01*
X147178Y135488D01*
X147213Y135750D01*
Y136250D01*
X147178Y136512D01*
X147077Y136756D01*
X146960Y136908D01*
Y141746D01*
X147354D01*
Y143854D01*
D02*
G37*
G36*
X111375Y135000D02*
X110775D01*
Y134675D01*
X111375D01*
Y135000D01*
D02*
G37*
G36*
X139550Y135350D02*
X138850D01*
Y134425D01*
X139550D01*
Y135350D01*
D02*
G37*
G36*
X128300Y134525D02*
X127975D01*
Y133925D01*
X128300D01*
Y134525D01*
D02*
G37*
G36*
X155404Y134350D02*
X154850D01*
Y133596D01*
X155172D01*
X155261Y133613D01*
X155336Y133663D01*
X155387Y133739D01*
X155404Y133827D01*
Y134350D01*
D02*
G37*
G36*
X154550D02*
X153995D01*
Y133827D01*
X154013Y133739D01*
X154063Y133663D01*
X154139Y133613D01*
X154227Y133596D01*
X154550D01*
Y134350D01*
D02*
G37*
G36*
X138550Y135350D02*
X137850D01*
Y134425D01*
X138550D01*
Y135350D01*
D02*
G37*
G36*
X130954Y138404D02*
X128846D01*
Y137214D01*
X128175D01*
X127978Y137175D01*
X127812Y137063D01*
X127602Y136854D01*
X126946D01*
Y135196D01*
X128054D01*
Y135852D01*
X128388Y136186D01*
X128846D01*
Y135846D01*
X129543D01*
X129613Y135724D01*
X129612Y135719D01*
X129590Y135607D01*
Y134392D01*
X129613Y134277D01*
X129679Y134179D01*
X129777Y134113D01*
X129892Y134090D01*
X130657D01*
X130773Y134113D01*
X130871Y134179D01*
X130937Y134277D01*
X130960Y134392D01*
Y135100D01*
X130965Y135125D01*
Y137125D01*
X130954Y137180D01*
Y138404D01*
D02*
G37*
G36*
X128925Y134525D02*
X128600D01*
Y133925D01*
X128925D01*
Y134525D01*
D02*
G37*
G36*
X112650Y129570D02*
X111625D01*
Y129245D01*
X112650D01*
Y129570D01*
D02*
G37*
G36*
X111404Y129600D02*
X110650D01*
Y129046D01*
X111172D01*
X111261Y129063D01*
X111337Y129113D01*
X111387Y129189D01*
X111404Y129277D01*
Y129600D01*
D02*
G37*
G36*
X112650Y128945D02*
X111625D01*
Y128620D01*
X112650D01*
Y128945D01*
D02*
G37*
G36*
X151050Y130950D02*
X150275D01*
Y130175D01*
X151050D01*
Y130950D01*
D02*
G37*
G36*
X111172Y130454D02*
X110650D01*
Y129900D01*
X111404D01*
Y130222D01*
X111387Y130311D01*
X111337Y130387D01*
X111261Y130437D01*
X111172Y130454D01*
D02*
G37*
G36*
X110350D02*
X109827D01*
X109739Y130437D01*
X109663Y130387D01*
X109613Y130311D01*
X109596Y130222D01*
Y129900D01*
X110350D01*
Y130454D01*
D02*
G37*
G36*
X120150Y128954D02*
X119627D01*
X119539Y128937D01*
X119463Y128887D01*
X119413Y128811D01*
X119396Y128722D01*
Y128400D01*
X120150D01*
Y128954D01*
D02*
G37*
G36*
X103950Y129175D02*
X102425D01*
Y128025D01*
X103950D01*
Y129175D01*
D02*
G37*
G36*
X100875D02*
X99350D01*
Y128025D01*
X100875D01*
Y129175D01*
D02*
G37*
G36*
X99050D02*
X97525D01*
Y128025D01*
X99050D01*
Y129175D01*
D02*
G37*
G36*
X96375Y128825D02*
X95750D01*
Y128200D01*
X96375D01*
Y128825D01*
D02*
G37*
G36*
X95450D02*
X94825D01*
Y128200D01*
X95450D01*
Y128825D01*
D02*
G37*
G36*
X105775Y129175D02*
X104250D01*
Y128025D01*
X105775D01*
Y129175D01*
D02*
G37*
G36*
X152125Y130950D02*
X151350D01*
Y130175D01*
X152125D01*
Y130950D01*
D02*
G37*
G36*
X168350Y131820D02*
X167468D01*
X167486Y131726D01*
X167624Y131519D01*
X167831Y131381D01*
X168075Y131333D01*
X168350D01*
Y131820D01*
D02*
G37*
G36*
X152125Y132025D02*
X151350D01*
Y131250D01*
X152125D01*
Y132025D01*
D02*
G37*
G36*
X151050D02*
X150275D01*
Y131250D01*
X151050D01*
Y132025D01*
D02*
G37*
G36*
X111172Y132435D02*
X109827D01*
X109708Y132411D01*
X109607Y132343D01*
X109539Y132242D01*
X109523Y132164D01*
X109350D01*
X109153Y132125D01*
X108987Y132013D01*
X108611Y131637D01*
X108521Y131646D01*
X108423Y131712D01*
X108307Y131735D01*
X107092D01*
X106977Y131712D01*
X106879Y131646D01*
X106813Y131548D01*
X106790Y131432D01*
Y130667D01*
X106813Y130552D01*
X106879Y130454D01*
X106977Y130388D01*
X107092Y130365D01*
X107186D01*
Y128935D01*
X107092D01*
X106977Y128912D01*
X106879Y128846D01*
X106813Y128748D01*
X106790Y128632D01*
Y127867D01*
X106813Y127752D01*
X106879Y127654D01*
X106977Y127588D01*
X107092Y127565D01*
X108307D01*
X108423Y127588D01*
X108521Y127654D01*
X108524Y127657D01*
X108676D01*
X108679Y127654D01*
X108777Y127588D01*
X108892Y127565D01*
X110107D01*
X110223Y127588D01*
X110321Y127654D01*
X110387Y127752D01*
X110410Y127867D01*
Y128632D01*
X110387Y128748D01*
X110321Y128846D01*
X110223Y128912D01*
X110189Y128919D01*
X110202Y129046D01*
X110350D01*
Y129600D01*
X109596D01*
Y129277D01*
X109613Y129189D01*
X109663Y129113D01*
X109739Y129063D01*
X109746Y129062D01*
X109733Y128935D01*
X108892D01*
X108777Y128912D01*
X108679Y128846D01*
X108676Y128843D01*
X108524D01*
X108521Y128846D01*
X108423Y128912D01*
X108307Y128935D01*
X108214D01*
Y130365D01*
X108307D01*
X108423Y130388D01*
X108521Y130454D01*
X108576Y130536D01*
X108750D01*
X108947Y130575D01*
X109113Y130687D01*
X109430Y131003D01*
X109589Y130983D01*
X109607Y130957D01*
X109708Y130889D01*
X109827Y130865D01*
X111172D01*
X111292Y130889D01*
X111393Y130957D01*
X111440Y131026D01*
X111546Y131081D01*
X111546D01*
X111546Y131081D01*
X111546Y131081D01*
X114054D01*
Y132189D01*
X111546D01*
Y132189D01*
X111449Y132261D01*
X111393Y132343D01*
X111292Y132411D01*
X111172Y132435D01*
D02*
G37*
G36*
X157072Y135532D02*
X156127D01*
X155990Y135505D01*
X155873Y135427D01*
X155795Y135310D01*
X155768Y135172D01*
Y133827D01*
X155793Y133702D01*
Y132822D01*
X155640Y132705D01*
X155520Y132548D01*
X155444Y132366D01*
X155418Y132170D01*
X155444Y131974D01*
X155520Y131792D01*
X155618Y131664D01*
X155585Y131567D01*
X155561Y131537D01*
X155480D01*
Y131050D01*
X156362D01*
X156344Y131144D01*
X156248Y131287D01*
X156316Y131414D01*
X156336D01*
X156391Y131391D01*
X156600Y131363D01*
X158490D01*
X158699Y131391D01*
X158893Y131471D01*
X159061Y131599D01*
X159591Y132130D01*
X160150D01*
Y132978D01*
X160157Y133030D01*
X160150Y133082D01*
Y133930D01*
X158550D01*
Y133371D01*
X158156Y132977D01*
X157407D01*
Y133702D01*
X157432Y133827D01*
Y135172D01*
X157404Y135310D01*
X157327Y135427D01*
X157210Y135505D01*
X157072Y135532D01*
D02*
G37*
G36*
X169532Y131820D02*
X168650D01*
Y131333D01*
X168925D01*
X169169Y131381D01*
X169376Y131519D01*
X169514Y131726D01*
X169532Y131820D01*
D02*
G37*
G36*
X123325Y131400D02*
X122725D01*
Y131075D01*
X123325D01*
Y131400D01*
D02*
G37*
G36*
X138275Y131950D02*
X137125D01*
Y130425D01*
X138275D01*
Y131950D01*
D02*
G37*
G36*
X136825D02*
X135675D01*
Y130425D01*
X136825D01*
Y131950D01*
D02*
G37*
G36*
X155180Y130750D02*
X154298D01*
X154316Y130656D01*
X154454Y130449D01*
X154661Y130311D01*
X154905Y130263D01*
X155180D01*
Y130750D01*
D02*
G37*
G36*
X122425Y131400D02*
X121825D01*
Y131075D01*
X122425D01*
Y131400D01*
D02*
G37*
G36*
X155180Y131537D02*
X154905D01*
X154661Y131489D01*
X154454Y131351D01*
X154316Y131144D01*
X154298Y131050D01*
X155180D01*
Y131537D01*
D02*
G37*
G36*
X162154Y136454D02*
X160446D01*
Y134746D01*
X160659D01*
Y132208D01*
X160577Y132192D01*
X160479Y132126D01*
X160413Y132028D01*
X160390Y131912D01*
Y131147D01*
X160413Y131032D01*
X160479Y130934D01*
X160577Y130868D01*
X160692Y130845D01*
X161907D01*
X162023Y130868D01*
X162121Y130934D01*
X162187Y131032D01*
X162210Y131147D01*
Y131912D01*
X162187Y132028D01*
X162121Y132126D01*
X162023Y132192D01*
X161941Y132208D01*
Y134746D01*
X162154D01*
Y136454D01*
D02*
G37*
G36*
X131550Y141475D02*
X131125D01*
Y140300D01*
X131550D01*
Y141475D01*
D02*
G37*
G36*
X124200Y140339D02*
Y139450D01*
X125089D01*
X125073Y139574D01*
X124967Y139830D01*
X124799Y140049D01*
X124580Y140217D01*
X124324Y140323D01*
X124200Y140339D01*
D02*
G37*
G36*
X123900D02*
X123776Y140323D01*
X123520Y140217D01*
X123301Y140049D01*
X123133Y139830D01*
X123027Y139574D01*
X123011Y139450D01*
X123900D01*
Y140339D01*
D02*
G37*
G36*
X128675Y141475D02*
X128250D01*
Y140300D01*
X128675D01*
Y141475D01*
D02*
G37*
G36*
X127950D02*
X127525D01*
Y140300D01*
X127950D01*
Y141475D01*
D02*
G37*
G36*
X132275D02*
X131850D01*
Y140300D01*
X132275D01*
Y141475D01*
D02*
G37*
G36*
X137513Y140150D02*
X136750D01*
Y139387D01*
X136841Y139399D01*
X137066Y139492D01*
X137260Y139640D01*
X137408Y139833D01*
X137501Y140059D01*
X137513Y140150D01*
D02*
G37*
G36*
X105050Y140025D02*
X104625D01*
Y138850D01*
X105050D01*
Y140025D01*
D02*
G37*
G36*
X102175Y140025D02*
X101750D01*
Y138850D01*
X102175D01*
Y140025D01*
D02*
G37*
G36*
X101450D02*
X101025D01*
Y138850D01*
X101450D01*
Y140025D01*
D02*
G37*
G36*
X136450Y140150D02*
X135687D01*
X135699Y140059D01*
X135792Y139833D01*
X135940Y139640D01*
X136133Y139492D01*
X136359Y139399D01*
X136450Y139387D01*
Y140150D01*
D02*
G37*
G36*
X158354Y142654D02*
X156646D01*
Y140946D01*
X156686D01*
Y140635D01*
X156592D01*
X156477Y140612D01*
X156379Y140546D01*
X156313Y140448D01*
X156290Y140332D01*
Y139567D01*
X156313Y139452D01*
X156379Y139354D01*
X156477Y139288D01*
X156592Y139265D01*
X157807D01*
X157923Y139288D01*
X158021Y139354D01*
X158087Y139452D01*
X158110Y139567D01*
Y140332D01*
X158087Y140448D01*
X158021Y140546D01*
X157923Y140612D01*
X157807Y140635D01*
X157714D01*
Y140946D01*
X158354D01*
Y142654D01*
D02*
G37*
G36*
X105775Y140025D02*
X105350D01*
Y138850D01*
X105775D01*
Y140025D01*
D02*
G37*
G36*
X101450Y141500D02*
X101025D01*
Y140325D01*
X101450D01*
Y141500D01*
D02*
G37*
G36*
X114850Y142525D02*
X113700D01*
Y141750D01*
X114850D01*
Y142525D01*
D02*
G37*
G36*
X156075Y141650D02*
X155450D01*
Y141025D01*
X156075D01*
Y141650D01*
D02*
G37*
G36*
X155150D02*
X154525D01*
Y141025D01*
X155150D01*
Y141650D01*
D02*
G37*
G36*
X156075Y142575D02*
X155450D01*
Y141950D01*
X156075D01*
Y142575D01*
D02*
G37*
G36*
X155150D02*
X154525D01*
Y141950D01*
X155150D01*
Y142575D01*
D02*
G37*
G36*
X116300Y142525D02*
X115150D01*
Y141750D01*
X116300D01*
Y142525D01*
D02*
G37*
G36*
Y141450D02*
X115150D01*
Y140675D01*
X116300D01*
Y141450D01*
D02*
G37*
G36*
X105775Y141500D02*
X105350D01*
Y140325D01*
X105775D01*
Y141500D01*
D02*
G37*
G36*
X105050D02*
X104625D01*
Y140325D01*
X105050D01*
Y141500D01*
D02*
G37*
G36*
X102175D02*
X101750D01*
Y140325D01*
X102175D01*
Y141500D01*
D02*
G37*
G36*
X114850Y141450D02*
X113700D01*
Y140675D01*
X114850D01*
Y141450D01*
D02*
G37*
G36*
X136750Y141213D02*
Y140450D01*
X137513D01*
X137501Y140541D01*
X137408Y140766D01*
X137260Y140960D01*
X137066Y141108D01*
X136841Y141201D01*
X136750Y141213D01*
D02*
G37*
G36*
X136450D02*
X136359Y141201D01*
X136133Y141108D01*
X135940Y140960D01*
X135792Y140766D01*
X135699Y140541D01*
X135687Y140450D01*
X136450D01*
Y141213D01*
D02*
G37*
G36*
X138550Y136575D02*
X137850D01*
Y135650D01*
X138550D01*
Y136575D01*
D02*
G37*
G36*
X119204Y136000D02*
X118450D01*
Y135446D01*
X118972D01*
X119061Y135463D01*
X119137Y135513D01*
X119187Y135589D01*
X119204Y135677D01*
Y136000D01*
D02*
G37*
G36*
X118150D02*
X117396D01*
Y135677D01*
X117413Y135589D01*
X117463Y135513D01*
X117539Y135463D01*
X117627Y135446D01*
X118150D01*
Y136000D01*
D02*
G37*
G36*
X164275Y136375D02*
X163650D01*
Y135750D01*
X164275D01*
Y136375D01*
D02*
G37*
G36*
X163350D02*
X162725D01*
Y135750D01*
X163350D01*
Y136375D01*
D02*
G37*
G36*
X139550Y136575D02*
X138850D01*
Y135650D01*
X139550D01*
Y136575D01*
D02*
G37*
G36*
X111375Y135625D02*
X110775D01*
Y135300D01*
X111375D01*
Y135625D01*
D02*
G37*
G36*
X164275Y135450D02*
X163650D01*
Y134825D01*
X164275D01*
Y135450D01*
D02*
G37*
G36*
X163350D02*
X162725D01*
Y134825D01*
X163350D01*
Y135450D01*
D02*
G37*
G36*
X144593Y135850D02*
X143810D01*
Y134817D01*
X144185D01*
X144341Y134848D01*
X144473Y134937D01*
X144562Y135069D01*
X144593Y135225D01*
Y135850D01*
D02*
G37*
G36*
X110475Y135625D02*
X109875D01*
Y135300D01*
X110475D01*
Y135625D01*
D02*
G37*
G36*
X152213Y135850D02*
X151430D01*
Y134837D01*
X151521Y134849D01*
X151746Y134942D01*
X151940Y135090D01*
X152088Y135283D01*
X152181Y135509D01*
X152213Y135750D01*
Y135850D01*
D02*
G37*
G36*
X151130D02*
X150347D01*
Y135750D01*
X150379Y135509D01*
X150472Y135283D01*
X150620Y135090D01*
X150814Y134942D01*
X151039Y134849D01*
X151130Y134837D01*
Y135850D01*
D02*
G37*
G36*
X116379Y138004D02*
X113621D01*
Y137514D01*
X113000D01*
X112803Y137475D01*
X112637Y137363D01*
X111887Y136613D01*
X111775Y136447D01*
X111736Y136250D01*
Y135576D01*
X111654Y135521D01*
X111588Y135423D01*
X111565Y135307D01*
Y134092D01*
X111588Y133977D01*
X111646Y133891D01*
X111632Y133834D01*
X111597Y133764D01*
X111454D01*
Y133804D01*
X109796D01*
Y132696D01*
X111454D01*
X111546Y132611D01*
Y132351D01*
X114054D01*
Y133459D01*
X112973D01*
X112818Y133613D01*
X112764Y133650D01*
Y133824D01*
X112846Y133879D01*
X112912Y133977D01*
X112935Y134092D01*
Y135307D01*
X112912Y135423D01*
X112846Y135521D01*
X112764Y135576D01*
Y136037D01*
X113213Y136486D01*
X113621D01*
Y135996D01*
X116379D01*
Y138004D01*
D02*
G37*
G36*
X123900Y139150D02*
X123011D01*
X123027Y139026D01*
X123133Y138770D01*
X123301Y138551D01*
X123520Y138383D01*
X123776Y138277D01*
X123900Y138261D01*
Y139150D01*
D02*
G37*
G36*
X157807Y138735D02*
X156592D01*
X156477Y138712D01*
X156446Y138691D01*
X150250D01*
X150005Y138642D01*
X149796Y138503D01*
X148528Y137235D01*
X148478Y137228D01*
X148234Y137127D01*
X148024Y136966D01*
X147863Y136756D01*
X147762Y136512D01*
X147727Y136250D01*
Y135750D01*
X147762Y135488D01*
X147863Y135244D01*
X147979Y135092D01*
Y131810D01*
X147888Y131691D01*
X146304D01*
X146273Y131712D01*
X146157Y131735D01*
X144942D01*
X144827Y131712D01*
X144729Y131646D01*
X144604Y131688D01*
Y133854D01*
X141846D01*
Y130346D01*
X142878D01*
X142939Y130285D01*
Y128854D01*
X142771D01*
Y126546D01*
X143045D01*
X143079Y126490D01*
X143098Y126419D01*
X142991Y126280D01*
X142915Y126097D01*
X142889Y125900D01*
X142915Y125703D01*
X142991Y125520D01*
X143112Y125362D01*
X143270Y125241D01*
X143453Y125165D01*
X143650Y125139D01*
X143847Y125165D01*
X144030Y125241D01*
X144188Y125362D01*
X144309Y125520D01*
X144385Y125703D01*
X144410Y125900D01*
X144385Y126097D01*
X144309Y126280D01*
X144202Y126419D01*
X144221Y126490D01*
X144255Y126546D01*
X144629D01*
Y126546D01*
X144682Y126441D01*
X144689Y126408D01*
X144757Y126307D01*
X144858Y126239D01*
X144977Y126215D01*
X144986D01*
Y125318D01*
X144931Y125236D01*
X144884Y125000D01*
X144931Y124764D01*
X145065Y124565D01*
X145097Y124543D01*
X145070Y124408D01*
X145039Y124402D01*
X144963Y124352D01*
X144913Y124276D01*
X144896Y124188D01*
Y123865D01*
X145800D01*
X146704D01*
Y124188D01*
X146687Y124276D01*
X146637Y124352D01*
X146561Y124402D01*
X146472Y124419D01*
X145947D01*
X145908Y124546D01*
X145935Y124565D01*
X146069Y124764D01*
X146116Y125000D01*
X146069Y125236D01*
X146014Y125318D01*
Y126233D01*
X146042Y126239D01*
X146143Y126307D01*
X146211Y126408D01*
X146235Y126527D01*
Y127872D01*
X146211Y127992D01*
X146210Y127993D01*
Y128476D01*
X146273Y128488D01*
X146371Y128554D01*
X146437Y128652D01*
X146460Y128767D01*
Y129532D01*
X146437Y129648D01*
X146371Y129746D01*
X146273Y129812D01*
X146157Y129835D01*
X144942D01*
X144827Y129812D01*
X144729Y129746D01*
X144663Y129648D01*
X144640Y129532D01*
Y128976D01*
X144640Y128970D01*
X144506Y128899D01*
X144460Y128924D01*
Y130346D01*
X144604D01*
Y130412D01*
X144729Y130454D01*
X144827Y130388D01*
X144942Y130365D01*
X146157D01*
X146273Y130388D01*
X146304Y130409D01*
X147965D01*
X147984Y130384D01*
X148194Y130223D01*
X148438Y130122D01*
X148700Y130087D01*
X148962Y130122D01*
X149206Y130223D01*
X149416Y130384D01*
X149577Y130594D01*
X149678Y130838D01*
X149713Y131100D01*
X149678Y131362D01*
X149577Y131606D01*
X149501Y131706D01*
Y135092D01*
X149617Y135244D01*
X149718Y135488D01*
X149753Y135750D01*
Y136250D01*
X149718Y136512D01*
X149689Y136582D01*
X150516Y137409D01*
X156446D01*
X156477Y137388D01*
X156592Y137365D01*
X157807D01*
X157923Y137388D01*
X158021Y137454D01*
X158087Y137552D01*
X158110Y137667D01*
Y138432D01*
X158087Y138548D01*
X158021Y138646D01*
X157923Y138712D01*
X157807Y138735D01*
D02*
G37*
G36*
X165850Y140850D02*
X162325D01*
X162359Y140423D01*
X162494Y139861D01*
X162715Y139326D01*
X163018Y138833D01*
X163393Y138393D01*
X163833Y138018D01*
X164326Y137715D01*
X164861Y137494D01*
X165423Y137359D01*
X165850Y137325D01*
Y140850D01*
D02*
G37*
G36*
X128675Y140000D02*
X128250D01*
Y138825D01*
X128675D01*
Y140000D01*
D02*
G37*
G36*
X127950D02*
X127525D01*
Y138825D01*
X127950D01*
Y140000D01*
D02*
G37*
G36*
X125089Y139150D02*
X124200D01*
Y138261D01*
X124324Y138277D01*
X124580Y138383D01*
X124799Y138551D01*
X124967Y138770D01*
X125073Y139026D01*
X125089Y139150D01*
D02*
G37*
G36*
X160000Y139240D02*
X159679Y139198D01*
X159380Y139074D01*
X159123Y138877D01*
X158926Y138620D01*
X158802Y138321D01*
X158760Y138000D01*
X158802Y137679D01*
X158926Y137380D01*
X159123Y137123D01*
X159380Y136926D01*
X159679Y136802D01*
X160000Y136760D01*
X160321Y136802D01*
X160620Y136926D01*
X160877Y137123D01*
X161074Y137380D01*
X161198Y137679D01*
X161240Y138000D01*
X161198Y138321D01*
X161074Y138620D01*
X160877Y138877D01*
X160620Y139074D01*
X160321Y139198D01*
X160000Y139240D01*
D02*
G37*
G36*
X151130Y137163D02*
X151039Y137151D01*
X150814Y137058D01*
X150620Y136910D01*
X150472Y136716D01*
X150379Y136491D01*
X150347Y136250D01*
Y136150D01*
X151130D01*
Y137163D01*
D02*
G37*
G36*
X144185Y137183D02*
X143810D01*
Y136150D01*
X144593D01*
Y136775D01*
X144562Y136931D01*
X144473Y137063D01*
X144341Y137152D01*
X144185Y137183D01*
D02*
G37*
G36*
X143510D02*
X143135D01*
X142979Y137152D01*
X142847Y137063D01*
X142758Y136931D01*
X142727Y136775D01*
Y136150D01*
X143510D01*
Y137183D01*
D02*
G37*
G36*
X118972Y136854D02*
X118450D01*
Y136300D01*
X119204D01*
Y136622D01*
X119187Y136711D01*
X119137Y136787D01*
X119061Y136837D01*
X118972Y136854D01*
D02*
G37*
G36*
X118150D02*
X117627D01*
X117539Y136837D01*
X117463Y136787D01*
X117413Y136711D01*
X117396Y136622D01*
Y136300D01*
X118150D01*
Y136854D01*
D02*
G37*
G36*
X151430Y137163D02*
Y136150D01*
X152213D01*
Y136250D01*
X152181Y136491D01*
X152088Y136716D01*
X151940Y136910D01*
X151746Y137058D01*
X151521Y137151D01*
X151430Y137163D01*
D02*
G37*
G36*
X137775Y124450D02*
X137450D01*
Y123400D01*
X137775D01*
Y124450D01*
D02*
G37*
G36*
X112822Y124104D02*
X112500D01*
Y123350D01*
X113054D01*
Y123872D01*
X113037Y123961D01*
X112987Y124037D01*
X112911Y124087D01*
X112822Y124104D01*
D02*
G37*
G36*
X112200D02*
X111877D01*
X111789Y124087D01*
X111713Y124037D01*
X111663Y123961D01*
X111646Y123872D01*
Y123350D01*
X112200D01*
Y124104D01*
D02*
G37*
G36*
X149454Y124909D02*
X146946D01*
Y123801D01*
X149454D01*
Y124909D01*
D02*
G37*
G36*
X76967Y124600D02*
X75800D01*
Y123433D01*
X75996Y123459D01*
X76318Y123593D01*
X76595Y123805D01*
X76807Y124082D01*
X76941Y124404D01*
X76967Y124600D01*
D02*
G37*
G36*
X75500D02*
X74333D01*
X74359Y124404D01*
X74493Y124082D01*
X74705Y123805D01*
X74982Y123593D01*
X75304Y123459D01*
X75500Y123433D01*
Y124600D01*
D02*
G37*
G36*
X146704Y123565D02*
X145950D01*
Y123011D01*
X146472D01*
X146561Y123028D01*
X146637Y123078D01*
X146687Y123154D01*
X146704Y123242D01*
Y123565D01*
D02*
G37*
G36*
X123925Y123350D02*
X123500D01*
Y122175D01*
X123925D01*
Y123350D01*
D02*
G37*
G36*
X123200D02*
X122775D01*
Y122175D01*
X123200D01*
Y123350D01*
D02*
G37*
G36*
X101525Y123350D02*
X101100D01*
Y122175D01*
X101525D01*
Y123350D01*
D02*
G37*
G36*
X145650Y123565D02*
X144896D01*
Y123242D01*
X144913Y123154D01*
X144963Y123078D01*
X145039Y123028D01*
X145127Y123011D01*
X145650D01*
Y123565D01*
D02*
G37*
G36*
X106007Y123354D02*
X105550D01*
Y122900D01*
X106229D01*
Y123132D01*
X106212Y123217D01*
X106164Y123289D01*
X106092Y123337D01*
X106007Y123354D01*
D02*
G37*
G36*
X105250D02*
X104792D01*
X104708Y123337D01*
X104636Y123289D01*
X104588Y123217D01*
X104571Y123132D01*
Y122900D01*
X105250D01*
Y123354D01*
D02*
G37*
G36*
X137775Y125800D02*
X137450D01*
Y124750D01*
X137775D01*
Y125800D01*
D02*
G37*
G36*
X158704Y125050D02*
X157950D01*
Y124496D01*
X158472D01*
X158561Y124513D01*
X158636Y124563D01*
X158687Y124639D01*
X158704Y124728D01*
Y125050D01*
D02*
G37*
G36*
X157650D02*
X156895D01*
Y124728D01*
X156913Y124639D01*
X156963Y124563D01*
X157039Y124513D01*
X157127Y124496D01*
X157650D01*
Y125050D01*
D02*
G37*
G36*
X120150Y125454D02*
X119627D01*
X119539Y125437D01*
X119463Y125387D01*
X119413Y125311D01*
X119396Y125222D01*
Y124900D01*
X120150D01*
Y125454D01*
D02*
G37*
G36*
X75800Y126067D02*
Y124900D01*
X76967D01*
X76941Y125096D01*
X76807Y125418D01*
X76595Y125695D01*
X76318Y125907D01*
X75996Y126041D01*
X75800Y126067D01*
D02*
G37*
G36*
X75500D02*
X75304Y126041D01*
X74982Y125907D01*
X74705Y125695D01*
X74493Y125418D01*
X74359Y125096D01*
X74333Y124900D01*
X75500D01*
Y126067D01*
D02*
G37*
G36*
X156704Y125050D02*
X155950D01*
Y124496D01*
X156472D01*
X156561Y124513D01*
X156636Y124563D01*
X156687Y124639D01*
X156704Y124728D01*
Y125050D01*
D02*
G37*
G36*
X120150Y124600D02*
X119396D01*
Y124277D01*
X119413Y124189D01*
X119463Y124113D01*
X119539Y124063D01*
X119627Y124046D01*
X120150D01*
Y124600D01*
D02*
G37*
G36*
X156362Y130750D02*
X155480D01*
Y130263D01*
X155635D01*
X155678Y130136D01*
X155673Y130132D01*
X155560Y129985D01*
X155489Y129814D01*
X155465Y129630D01*
X155489Y129446D01*
X155560Y129275D01*
X155673Y129128D01*
X155820Y129015D01*
X155839Y129007D01*
Y128093D01*
X155839Y128092D01*
X155815Y127972D01*
Y126627D01*
X155839Y126508D01*
X155906Y126407D01*
X156008Y126339D01*
X156127Y126315D01*
X157072D01*
X157192Y126339D01*
X157293Y126407D01*
X157361Y126508D01*
X157385Y126627D01*
Y126959D01*
X158297D01*
X158320Y126941D01*
X158503Y126865D01*
X158700Y126839D01*
X158897Y126865D01*
X159080Y126941D01*
X159238Y127062D01*
X159359Y127220D01*
X159435Y127403D01*
X159460Y127600D01*
X159435Y127797D01*
X159359Y127980D01*
X159238Y128138D01*
X159080Y128259D01*
X158897Y128335D01*
X158700Y128360D01*
X158503Y128335D01*
X158320Y128259D01*
X158297Y128241D01*
X157360D01*
Y128869D01*
X158596D01*
Y128776D01*
X160104D01*
Y128989D01*
X160359D01*
Y125666D01*
X158689Y123996D01*
X158592Y124061D01*
X158472Y124085D01*
X157127D01*
X157008Y124061D01*
X157007Y124061D01*
X156593D01*
X156592Y124061D01*
X156472Y124085D01*
X155127D01*
X155008Y124061D01*
X154906Y123993D01*
X154839Y123892D01*
X154815Y123772D01*
Y123659D01*
X152400D01*
X152301Y123639D01*
X152300Y123639D01*
X152146D01*
Y123425D01*
X152141Y123400D01*
Y122775D01*
X152146Y122750D01*
Y122531D01*
X152325D01*
X152400Y122516D01*
X155122D01*
X155127Y122515D01*
X156472D01*
X156592Y122539D01*
X156593Y122539D01*
X157007D01*
X157008Y122539D01*
X157127Y122515D01*
X158472D01*
X158592Y122539D01*
X158693Y122607D01*
X158728Y122659D01*
X158900D01*
X159145Y122707D01*
X159353Y122847D01*
X161453Y124947D01*
X161592Y125155D01*
X161641Y125400D01*
Y128945D01*
X161907D01*
X162023Y128968D01*
X162121Y129034D01*
X162187Y129132D01*
X162210Y129247D01*
Y130012D01*
X162187Y130128D01*
X162121Y130226D01*
X162023Y130292D01*
X161907Y130315D01*
X160692D01*
X160577Y130292D01*
X160546Y130271D01*
X160104D01*
Y130484D01*
X158596D01*
Y130390D01*
X156600D01*
X156403Y130365D01*
X156349Y130342D01*
X156288Y130373D01*
X156250Y130515D01*
X156344Y130656D01*
X156362Y130750D01*
D02*
G37*
G36*
X154654Y124909D02*
X152146D01*
Y123801D01*
X154654D01*
Y124909D01*
D02*
G37*
G36*
X155650Y125050D02*
X154895D01*
Y124728D01*
X154913Y124639D01*
X154963Y124563D01*
X155039Y124513D01*
X155127Y124496D01*
X155650D01*
Y125050D01*
D02*
G37*
G36*
X169154Y125015D02*
X164646D01*
Y124256D01*
X163154D01*
X163123Y124277D01*
X163007Y124300D01*
X161792D01*
X161677Y124277D01*
X161579Y124211D01*
X161513Y124113D01*
X161490Y123997D01*
Y123232D01*
X161513Y123117D01*
X161579Y123019D01*
X161677Y122953D01*
X161792Y122930D01*
X163007D01*
X163123Y122953D01*
X163154Y122974D01*
X164646D01*
Y121507D01*
X169154D01*
Y125015D01*
D02*
G37*
G36*
X121204Y124600D02*
X120450D01*
Y124046D01*
X120972D01*
X121061Y124063D01*
X121137Y124113D01*
X121187Y124189D01*
X121204Y124277D01*
Y124600D01*
D02*
G37*
G36*
X100800Y123350D02*
X100375D01*
Y122175D01*
X100800D01*
Y123350D01*
D02*
G37*
G36*
X111454Y121050D02*
X110900D01*
Y120296D01*
X111222D01*
X111311Y120313D01*
X111387Y120363D01*
X111437Y120439D01*
X111454Y120527D01*
Y121050D01*
D02*
G37*
G36*
X110600D02*
X110046D01*
Y120527D01*
X110063Y120439D01*
X110113Y120363D01*
X110189Y120313D01*
X110277Y120296D01*
X110600D01*
Y121050D01*
D02*
G37*
G36*
X109854Y121050D02*
X109300D01*
Y120296D01*
X109622D01*
X109711Y120313D01*
X109787Y120363D01*
X109837Y120439D01*
X109854Y120527D01*
Y121050D01*
D02*
G37*
G36*
X116325Y121875D02*
X115900D01*
Y120700D01*
X116325D01*
Y121875D01*
D02*
G37*
G36*
X115600D02*
X115175D01*
Y120700D01*
X115600D01*
Y121875D01*
D02*
G37*
G36*
X114722Y124185D02*
X113777D01*
X113658Y124161D01*
X113557Y124093D01*
X113489Y123992D01*
X113465Y123872D01*
Y122527D01*
X113489Y122408D01*
X113557Y122307D01*
X113658Y122239D01*
X113777Y122215D01*
X114112D01*
Y118598D01*
X113904D01*
Y118689D01*
X111396D01*
Y117581D01*
X113904D01*
Y117672D01*
X114072D01*
X114111Y117650D01*
X114112Y117648D01*
X114077Y117512D01*
X114013Y117469D01*
X113904Y117419D01*
X113904D01*
X113904Y117419D01*
X113904Y117419D01*
X111396D01*
Y117314D01*
X111288Y117293D01*
X111228Y117252D01*
X111138Y117192D01*
X111138Y117192D01*
X110673Y116727D01*
X110572Y116577D01*
X110537Y116400D01*
X110537Y116400D01*
Y114660D01*
X110467D01*
X110352Y114637D01*
X110254Y114571D01*
X110188Y114473D01*
X110179Y114428D01*
X110054Y114423D01*
X110037Y114511D01*
X109987Y114587D01*
X109911Y114637D01*
X109822Y114654D01*
X109500D01*
Y113750D01*
Y112846D01*
X109822D01*
X109911Y112863D01*
X109987Y112913D01*
X110037Y112989D01*
X110054Y113078D01*
X110179Y113072D01*
X110188Y113027D01*
X110254Y112929D01*
X110352Y112863D01*
X110467Y112840D01*
X111232D01*
X111348Y112863D01*
X111446Y112929D01*
X111512Y113027D01*
X111535Y113143D01*
Y114358D01*
X111512Y114473D01*
X111463Y114546D01*
Y115041D01*
X112549D01*
X112743Y114848D01*
X112743Y114848D01*
X112834Y114787D01*
X112795Y114660D01*
X112367D01*
X112252Y114637D01*
X112154Y114571D01*
X112088Y114473D01*
X112065Y114358D01*
Y113143D01*
X112088Y113027D01*
X112154Y112929D01*
X112252Y112863D01*
X112367Y112840D01*
X112933D01*
X113261Y112512D01*
Y111754D01*
X112946D01*
Y110646D01*
X114604D01*
Y111754D01*
X114289D01*
Y112725D01*
X114250Y112922D01*
X114138Y113088D01*
X113435Y113792D01*
Y114358D01*
X113412Y114473D01*
X113346Y114571D01*
X113326Y114585D01*
X113364Y114712D01*
X113890D01*
Y114567D01*
X113913Y114452D01*
X113979Y114354D01*
X114077Y114288D01*
X114192Y114265D01*
X115407D01*
X115523Y114288D01*
X115621Y114354D01*
X115687Y114452D01*
X115710Y114567D01*
Y114611D01*
X115925D01*
X116122Y114650D01*
X116288Y114762D01*
X117413Y115887D01*
X117525Y116053D01*
X117564Y116250D01*
Y117721D01*
X117604D01*
Y117800D01*
X117971D01*
X117983Y117673D01*
X117927Y117662D01*
X117829Y117596D01*
X117763Y117498D01*
X117740Y117383D01*
Y116618D01*
X117763Y116502D01*
X117829Y116404D01*
X117927Y116338D01*
X118042Y116315D01*
X119257D01*
X119373Y116338D01*
X119471Y116404D01*
X119474Y116407D01*
X119626D01*
X119629Y116404D01*
X119727Y116338D01*
X119842Y116315D01*
X121057D01*
X121173Y116338D01*
X121271Y116404D01*
X121337Y116502D01*
X121338Y116508D01*
X121465Y116495D01*
Y116027D01*
X121489Y115908D01*
X121557Y115807D01*
X121658Y115739D01*
X121777Y115715D01*
X122722D01*
X122842Y115739D01*
X122943Y115807D01*
X123011Y115908D01*
X123035Y116027D01*
Y117372D01*
X123011Y117492D01*
X122943Y117593D01*
X122842Y117661D01*
X122722Y117685D01*
X122615D01*
Y119000D01*
Y120458D01*
X122619Y120464D01*
X122659Y120664D01*
X122659D01*
X122734Y120687D01*
X122833Y120700D01*
X122833D01*
D01*
X122833D01*
X122835Y120700D01*
X123200D01*
Y121875D01*
X122775D01*
Y120827D01*
Y120827D01*
Y120823D01*
X122775Y120804D01*
Y120802D01*
X122762Y120801D01*
X122746Y120799D01*
X122738Y120799D01*
X122671Y120792D01*
X122663Y120791D01*
X122648Y120790D01*
X122648D01*
X122648Y120790D01*
X122619Y120936D01*
X122485Y121135D01*
X122286Y121269D01*
X122050Y121316D01*
X121814Y121269D01*
X121615Y121135D01*
X121481Y120936D01*
X121434Y120700D01*
X121481Y120464D01*
X121485Y120458D01*
Y120200D01*
X121200D01*
Y119000D01*
X120900D01*
Y120200D01*
X120604D01*
Y120279D01*
X118496D01*
Y120200D01*
X118200D01*
Y119000D01*
X117900D01*
Y120200D01*
X117604D01*
Y120279D01*
X116496D01*
Y117721D01*
X116536D01*
Y116463D01*
X115712Y115639D01*
X114975D01*
X114955Y115635D01*
X114591D01*
X114575Y115638D01*
X114575Y115638D01*
X113904D01*
Y116149D01*
X111698D01*
X111630Y116276D01*
X111654Y116311D01*
X113904D01*
Y116311D01*
X113979Y116254D01*
X114077Y116188D01*
X114192Y116165D01*
X115407D01*
X115523Y116188D01*
X115621Y116254D01*
X115687Y116352D01*
X115710Y116467D01*
Y117232D01*
X115687Y117348D01*
X115621Y117446D01*
X115523Y117512D01*
X115407Y117535D01*
X114992D01*
X114954Y117662D01*
X115010Y117700D01*
X115144Y117899D01*
X115191Y118135D01*
X115144Y118371D01*
X115038Y118529D01*
Y122875D01*
X115038Y122875D01*
X115035Y122890D01*
Y123872D01*
X115011Y123992D01*
X114943Y124093D01*
X114842Y124161D01*
X114722Y124185D01*
D02*
G37*
G36*
X109000Y121050D02*
X108446D01*
Y120527D01*
X108463Y120439D01*
X108513Y120363D01*
X108589Y120313D01*
X108677Y120296D01*
X109000D01*
Y121050D01*
D02*
G37*
G36*
X130375Y119850D02*
X129821D01*
Y119327D01*
X129838Y119239D01*
X129888Y119163D01*
X129964Y119113D01*
X130052Y119096D01*
X130375D01*
Y119850D01*
D02*
G37*
G36*
X113054Y123050D02*
X112350D01*
X111646D01*
Y122527D01*
X111663Y122439D01*
X111713Y122363D01*
X111789Y122313D01*
X111877Y122296D01*
X112082D01*
X112095Y122169D01*
X112058Y122161D01*
X111957Y122093D01*
X111889Y121992D01*
X111865Y121872D01*
Y120527D01*
X111889Y120408D01*
X111957Y120307D01*
X112058Y120239D01*
X112061Y120234D01*
X112034Y120100D01*
X112043Y120057D01*
X111962Y119959D01*
X111396D01*
Y118851D01*
X112595D01*
X112650Y118840D01*
X112705Y118851D01*
X113904D01*
Y119959D01*
X113338D01*
X113257Y120057D01*
X113266Y120100D01*
X113239Y120234D01*
X113242Y120239D01*
X113343Y120307D01*
X113411Y120408D01*
X113435Y120527D01*
Y121872D01*
X113411Y121992D01*
X113343Y122093D01*
X113242Y122161D01*
X113122Y122185D01*
X112918D01*
X112905Y122312D01*
X112911Y122313D01*
X112987Y122363D01*
X113037Y122439D01*
X113054Y122527D01*
Y123050D01*
D02*
G37*
G36*
X144472Y118954D02*
X143950D01*
Y118400D01*
X144704D01*
Y118723D01*
X144687Y118811D01*
X144636Y118887D01*
X144561Y118937D01*
X144472Y118954D01*
D02*
G37*
G36*
X130375Y120904D02*
X130052D01*
X129964Y120887D01*
X129888Y120837D01*
X129838Y120761D01*
X129821Y120672D01*
Y120150D01*
X130375D01*
Y120904D01*
D02*
G37*
G36*
X107722Y122185D02*
X106777D01*
X106658Y122161D01*
X106557Y122093D01*
X106489Y121992D01*
X106465Y121872D01*
Y120527D01*
X106489Y120408D01*
X106557Y120307D01*
X106658Y120239D01*
X106736Y120223D01*
Y119968D01*
X105863D01*
Y120165D01*
X106007D01*
X106123Y120188D01*
X106221Y120254D01*
X106287Y120352D01*
X106310Y120467D01*
Y121232D01*
X106287Y121348D01*
X106221Y121446D01*
X106123Y121512D01*
X106007Y121535D01*
X104792D01*
X104677Y121512D01*
X104579Y121446D01*
X104513Y121348D01*
X104490Y121232D01*
Y120467D01*
X104513Y120352D01*
X104579Y120254D01*
X104677Y120188D01*
X104792Y120165D01*
X104937D01*
Y119899D01*
X104831Y119741D01*
X104784Y119505D01*
X104831Y119269D01*
X104965Y119070D01*
X105073Y118997D01*
X105035Y118870D01*
X104492D01*
X104377Y118847D01*
X104279Y118781D01*
X104213Y118683D01*
X104190Y118568D01*
Y117803D01*
X104213Y117687D01*
X104279Y117589D01*
X104377Y117523D01*
X104492Y117500D01*
X105707D01*
X105823Y117523D01*
X105921Y117589D01*
X105943Y117621D01*
X106196D01*
Y117581D01*
X108704D01*
Y118689D01*
X106196D01*
Y118649D01*
X105994D01*
X105987Y118683D01*
X105921Y118781D01*
X105823Y118847D01*
X105813Y118849D01*
X105773Y118985D01*
X105827Y119042D01*
X106196D01*
Y118851D01*
X108704D01*
Y119959D01*
X107764D01*
Y120223D01*
X107842Y120239D01*
X107943Y120307D01*
X108011Y120408D01*
X108035Y120527D01*
Y121872D01*
X108011Y121992D01*
X107943Y122093D01*
X107842Y122161D01*
X107722Y122185D01*
D02*
G37*
G36*
X131229Y119850D02*
X130675D01*
Y119096D01*
X130997D01*
X131086Y119113D01*
X131162Y119163D01*
X131212Y119239D01*
X131229Y119327D01*
Y119850D01*
D02*
G37*
G36*
X93200Y123350D02*
X92775D01*
Y122175D01*
X93200D01*
Y123350D01*
D02*
G37*
G36*
X106229Y122600D02*
X105550D01*
Y122146D01*
X106007D01*
X106092Y122163D01*
X106164Y122211D01*
X106212Y122283D01*
X106229Y122367D01*
Y122600D01*
D02*
G37*
G36*
X105250D02*
X104571D01*
Y122367D01*
X104588Y122283D01*
X104636Y122211D01*
X104708Y122163D01*
X104792Y122146D01*
X105250D01*
Y122600D01*
D02*
G37*
G36*
X116325Y123350D02*
X115900D01*
Y122175D01*
X116325D01*
Y123350D01*
D02*
G37*
G36*
X115600D02*
X115175D01*
Y122175D01*
X115600D01*
Y123350D01*
D02*
G37*
G36*
X93925Y123350D02*
X93500D01*
Y122175D01*
X93925D01*
Y123350D01*
D02*
G37*
G36*
X109622Y122104D02*
X109300D01*
Y121350D01*
X109854D01*
Y121872D01*
X109837Y121961D01*
X109787Y122036D01*
X109711Y122087D01*
X109622Y122104D01*
D02*
G37*
G36*
X101525Y121875D02*
X101100D01*
Y120700D01*
X101525D01*
Y121875D01*
D02*
G37*
G36*
X93925Y121875D02*
X93500D01*
Y120700D01*
X93925D01*
Y121875D01*
D02*
G37*
G36*
X123925Y121875D02*
X123500D01*
Y120700D01*
X123925D01*
Y121875D01*
D02*
G37*
G36*
X109000Y122104D02*
X108677D01*
X108589Y122087D01*
X108513Y122036D01*
X108463Y121961D01*
X108446Y121872D01*
Y121350D01*
X109000D01*
Y122104D01*
D02*
G37*
G36*
X111222D02*
X110900D01*
Y121350D01*
X111454D01*
Y121872D01*
X111437Y121961D01*
X111387Y122036D01*
X111311Y122087D01*
X111222Y122104D01*
D02*
G37*
G36*
X110600D02*
X110277D01*
X110189Y122087D01*
X110113Y122036D01*
X110063Y121961D01*
X110046Y121872D01*
Y121350D01*
X110600D01*
Y122104D01*
D02*
G37*
G36*
X120972Y125454D02*
X120450D01*
Y124900D01*
X121204D01*
Y125222D01*
X121187Y125311D01*
X121137Y125387D01*
X121061Y125437D01*
X120972Y125454D01*
D02*
G37*
G36*
X154550Y128204D02*
X154227D01*
X154139Y128187D01*
X154063Y128137D01*
X154013Y128061D01*
X153995Y127972D01*
Y127450D01*
X154550D01*
Y128204D01*
D02*
G37*
G36*
X147822Y128104D02*
X147500D01*
Y127350D01*
X148054D01*
Y127872D01*
X148037Y127961D01*
X147987Y128036D01*
X147911Y128087D01*
X147822Y128104D01*
D02*
G37*
G36*
X147200D02*
X146877D01*
X146789Y128087D01*
X146713Y128036D01*
X146663Y127961D01*
X146646Y127872D01*
Y127350D01*
X147200D01*
Y128104D01*
D02*
G37*
G36*
X133022Y128054D02*
X132500D01*
Y127500D01*
X133254D01*
Y127822D01*
X133237Y127911D01*
X133187Y127987D01*
X133111Y128037D01*
X133022Y128054D01*
D02*
G37*
G36*
X132200D02*
X131677D01*
X131589Y128037D01*
X131513Y127987D01*
X131463Y127911D01*
X131446Y127822D01*
Y127500D01*
X132200D01*
Y128054D01*
D02*
G37*
G36*
X155172Y128204D02*
X154850D01*
Y127450D01*
X155404D01*
Y127972D01*
X155387Y128061D01*
X155336Y128137D01*
X155261Y128187D01*
X155172Y128204D01*
D02*
G37*
G36*
X96375Y127900D02*
X95750D01*
Y127275D01*
X96375D01*
Y127900D01*
D02*
G37*
G36*
X133254Y127200D02*
X132500D01*
Y126646D01*
X133022D01*
X133111Y126663D01*
X133187Y126713D01*
X133237Y126789D01*
X133254Y126877D01*
Y127200D01*
D02*
G37*
G36*
X132200D02*
X131446D01*
Y126877D01*
X131463Y126789D01*
X131513Y126713D01*
X131589Y126663D01*
X131677Y126646D01*
X132200D01*
Y127200D01*
D02*
G37*
G36*
X141350Y127550D02*
X140650D01*
Y126625D01*
X141350D01*
Y127550D01*
D02*
G37*
G36*
X95450Y127900D02*
X94825D01*
Y127275D01*
X95450D01*
Y127900D01*
D02*
G37*
G36*
X149761Y127250D02*
X149250D01*
Y126739D01*
X149276Y126742D01*
X149440Y126810D01*
X149581Y126919D01*
X149690Y127060D01*
X149758Y127224D01*
X149761Y127250D01*
D02*
G37*
G36*
X148950D02*
X148439D01*
X148442Y127224D01*
X148510Y127060D01*
X148619Y126919D01*
X148760Y126810D01*
X148924Y126742D01*
X148950Y126739D01*
Y127250D01*
D02*
G37*
G36*
Y128061D02*
X148924Y128058D01*
X148760Y127990D01*
X148619Y127881D01*
X148510Y127740D01*
X148442Y127576D01*
X148439Y127550D01*
X148950D01*
Y128061D01*
D02*
G37*
G36*
X130550Y128950D02*
X130125D01*
Y127775D01*
X130550D01*
Y128950D01*
D02*
G37*
G36*
X139175Y128950D02*
X138750D01*
Y127775D01*
X139175D01*
Y128950D01*
D02*
G37*
G36*
X134575D02*
X134150D01*
Y127775D01*
X134575D01*
Y128950D01*
D02*
G37*
G36*
X141350Y128775D02*
X140650D01*
Y127850D01*
X141350D01*
Y128775D01*
D02*
G37*
G36*
X140350D02*
X139650D01*
Y127850D01*
X140350D01*
Y128775D01*
D02*
G37*
G36*
X131275Y128950D02*
X130850D01*
Y127775D01*
X131275D01*
Y128950D01*
D02*
G37*
G36*
X138450Y128950D02*
X138025D01*
Y127775D01*
X138450D01*
Y128950D01*
D02*
G37*
G36*
X113622Y128404D02*
X113300D01*
Y127650D01*
X113854D01*
Y128172D01*
X113837Y128261D01*
X113787Y128337D01*
X113711Y128387D01*
X113622Y128404D01*
D02*
G37*
G36*
X113000D02*
X112677D01*
X112589Y128387D01*
X112513Y128337D01*
X112463Y128261D01*
X112446Y128172D01*
Y127650D01*
X113000D01*
Y128404D01*
D02*
G37*
G36*
X149250Y128061D02*
Y127550D01*
X149761D01*
X149758Y127576D01*
X149690Y127740D01*
X149581Y127881D01*
X149440Y127990D01*
X149276Y128058D01*
X149250Y128061D01*
D02*
G37*
G36*
X133850Y128950D02*
X133425D01*
Y127775D01*
X133850D01*
Y128950D01*
D02*
G37*
G36*
X124929Y128200D02*
X124250D01*
Y127746D01*
X124707D01*
X124792Y127763D01*
X124864Y127811D01*
X124912Y127883D01*
X124929Y127967D01*
Y128200D01*
D02*
G37*
G36*
X123950D02*
X123271D01*
Y127967D01*
X123288Y127883D01*
X123336Y127811D01*
X123408Y127763D01*
X123492Y127746D01*
X123950D01*
Y128200D01*
D02*
G37*
G36*
X134575Y127475D02*
X134150D01*
Y126300D01*
X134575D01*
Y127475D01*
D02*
G37*
G36*
X133850D02*
X133425D01*
Y126300D01*
X133850D01*
Y127475D01*
D02*
G37*
G36*
X148054Y127050D02*
X147500D01*
Y126296D01*
X147822D01*
X147911Y126313D01*
X147987Y126363D01*
X148037Y126439D01*
X148054Y126527D01*
Y127050D01*
D02*
G37*
G36*
X125950Y127475D02*
X125525D01*
Y126300D01*
X125950D01*
Y127475D01*
D02*
G37*
G36*
X139175Y127475D02*
X138750D01*
Y126300D01*
X139175D01*
Y127475D01*
D02*
G37*
G36*
X138450D02*
X138025D01*
Y126300D01*
X138450D01*
Y127475D01*
D02*
G37*
G36*
X147200Y127050D02*
X146646D01*
Y126527D01*
X146663Y126439D01*
X146713Y126363D01*
X146789Y126313D01*
X146877Y126296D01*
X147200D01*
Y127050D01*
D02*
G37*
G36*
X156472Y125904D02*
X155950D01*
Y125350D01*
X156704D01*
Y125673D01*
X156687Y125761D01*
X156636Y125837D01*
X156561Y125887D01*
X156472Y125904D01*
D02*
G37*
G36*
X155650D02*
X155127D01*
X155039Y125887D01*
X154963Y125837D01*
X154913Y125761D01*
X154895Y125673D01*
Y125350D01*
X155650D01*
Y125904D01*
D02*
G37*
G36*
X96454Y126704D02*
X94746D01*
Y125723D01*
X94287Y125264D01*
X94035D01*
Y125357D01*
X94012Y125473D01*
X93946Y125571D01*
X93848Y125637D01*
X93732Y125660D01*
X92967D01*
X92852Y125637D01*
X92754Y125571D01*
X92688Y125473D01*
X92665Y125357D01*
Y124142D01*
X92688Y124027D01*
X92754Y123929D01*
X92852Y123863D01*
X92967Y123840D01*
X93732D01*
X93848Y123863D01*
X93946Y123929D01*
X94012Y124027D01*
X94035Y124142D01*
Y124236D01*
X94500D01*
X94697Y124275D01*
X94863Y124387D01*
X95473Y124996D01*
X96454D01*
Y126704D01*
D02*
G37*
G36*
X107550Y126200D02*
X106871D01*
Y125967D01*
X106888Y125883D01*
X106936Y125811D01*
X107008Y125763D01*
X107092Y125746D01*
X107550D01*
Y126200D01*
D02*
G37*
G36*
X158472Y125904D02*
X157950D01*
Y125350D01*
X158704D01*
Y125673D01*
X158687Y125761D01*
X158636Y125837D01*
X158561Y125887D01*
X158472Y125904D01*
D02*
G37*
G36*
X157650D02*
X157127D01*
X157039Y125887D01*
X156963Y125837D01*
X156913Y125761D01*
X156895Y125673D01*
Y125350D01*
X157650D01*
Y125904D01*
D02*
G37*
G36*
X126675Y127475D02*
X126250D01*
Y126300D01*
X126675D01*
Y127475D01*
D02*
G37*
G36*
X105775Y127725D02*
X104250D01*
Y126575D01*
X105775D01*
Y127725D01*
D02*
G37*
G36*
X103950D02*
X102425D01*
Y126575D01*
X103950D01*
Y127725D01*
D02*
G37*
G36*
X100875Y127725D02*
X99350D01*
Y126575D01*
X100875D01*
Y127725D01*
D02*
G37*
G36*
X140350Y127550D02*
X139650D01*
Y126625D01*
X140350D01*
Y127550D01*
D02*
G37*
G36*
X113854Y127350D02*
X113300D01*
Y126596D01*
X113622D01*
X113711Y126613D01*
X113787Y126663D01*
X113837Y126739D01*
X113854Y126827D01*
Y127350D01*
D02*
G37*
G36*
X113000D02*
X112446D01*
Y126827D01*
X112463Y126739D01*
X112513Y126663D01*
X112589Y126613D01*
X112677Y126596D01*
X113000D01*
Y127350D01*
D02*
G37*
G36*
X130550Y127475D02*
X130125D01*
Y126300D01*
X130550D01*
Y127475D01*
D02*
G37*
G36*
X154550Y127150D02*
X153995D01*
Y126627D01*
X154013Y126539D01*
X154063Y126463D01*
X154139Y126413D01*
X154227Y126396D01*
X154550D01*
Y127150D01*
D02*
G37*
G36*
X131275Y127475D02*
X130850D01*
Y126300D01*
X131275D01*
Y127475D01*
D02*
G37*
G36*
X99050Y127725D02*
X97525D01*
Y126575D01*
X99050D01*
Y127725D01*
D02*
G37*
G36*
X107550Y126954D02*
X107092D01*
X107008Y126937D01*
X106936Y126889D01*
X106888Y126817D01*
X106871Y126732D01*
Y126500D01*
X107550D01*
Y126954D01*
D02*
G37*
G36*
X155404Y127150D02*
X154850D01*
Y126396D01*
X155172D01*
X155261Y126413D01*
X155336Y126463D01*
X155387Y126539D01*
X155404Y126627D01*
Y127150D01*
D02*
G37*
%LPD*%
G36*
X155975Y122775D02*
X152400D01*
Y123400D01*
X155975D01*
Y122775D01*
D02*
G37*
D10*
X114800Y114950D02*
D03*
Y116850D02*
D03*
X92825Y116600D02*
D03*
Y114700D02*
D03*
X126700Y122550D02*
D03*
Y120650D02*
D03*
X124100Y128350D02*
D03*
Y130250D02*
D03*
X107700Y128250D02*
D03*
Y126350D02*
D03*
X126700Y132150D02*
D03*
Y130250D02*
D03*
X107700Y131050D02*
D03*
Y132950D02*
D03*
X120200Y133550D02*
D03*
Y131650D02*
D03*
X122200Y130250D02*
D03*
Y128350D02*
D03*
X109500Y128250D02*
D03*
Y126350D02*
D03*
X161300Y131530D02*
D03*
Y129630D02*
D03*
X120450Y115100D02*
D03*
Y117000D02*
D03*
X118650Y115100D02*
D03*
Y117000D02*
D03*
X96450Y116600D02*
D03*
Y114700D02*
D03*
X98250D02*
D03*
Y116600D02*
D03*
X102550Y103550D02*
D03*
Y101650D02*
D03*
X102200Y109150D02*
D03*
Y107250D02*
D03*
X94650Y116600D02*
D03*
Y114700D02*
D03*
X104400Y101650D02*
D03*
Y103550D02*
D03*
X133500Y137150D02*
D03*
Y139050D02*
D03*
X157200Y138050D02*
D03*
Y139950D02*
D03*
X145550Y129150D02*
D03*
Y131050D02*
D03*
X105100Y118185D02*
D03*
Y116285D02*
D03*
X105400Y120850D02*
D03*
Y122750D02*
D03*
X115800Y108700D02*
D03*
Y106800D02*
D03*
X125900Y71150D02*
D03*
Y73050D02*
D03*
X113950Y106805D02*
D03*
Y108705D02*
D03*
X110400Y101550D02*
D03*
Y103450D02*
D03*
X112150Y107065D02*
D03*
Y105165D02*
D03*
X162400Y121715D02*
D03*
Y123615D02*
D03*
X133400Y123550D02*
D03*
Y121650D02*
D03*
X131600D02*
D03*
Y123550D02*
D03*
X127700Y71150D02*
D03*
Y73050D02*
D03*
X129200Y105550D02*
D03*
Y103650D02*
D03*
D11*
X142200Y121900D02*
D03*
X144000D02*
D03*
X138900D02*
D03*
X140700D02*
D03*
X135600D02*
D03*
X137400D02*
D03*
D12*
X72300Y106900D02*
D03*
X123700Y67400D02*
D03*
X160000Y138000D02*
D03*
X143650Y125900D02*
D03*
X107000Y96500D02*
D03*
X149100Y127400D02*
D03*
X98200Y106500D02*
D03*
X97800Y98200D02*
D03*
X112600Y98800D02*
D03*
X158700Y127600D02*
D03*
X85900Y109200D02*
D03*
X143900Y123500D02*
D03*
D13*
X128775Y131700D02*
D03*
X131025Y132650D02*
D03*
Y130750D02*
D03*
X116025Y110250D02*
D03*
Y112150D02*
D03*
X113775Y111200D02*
D03*
X110625Y133250D02*
D03*
Y135150D02*
D03*
X108375Y134200D02*
D03*
X122575Y133450D02*
D03*
Y131550D02*
D03*
X124825Y132500D02*
D03*
D14*
X99200Y134125D02*
D03*
Y127875D02*
D03*
X104100Y134125D02*
D03*
Y127875D02*
D03*
D15*
X95250Y109100D02*
D03*
X97150D02*
D03*
X136150Y115900D02*
D03*
X134250D02*
D03*
X132175Y135000D02*
D03*
X130275D02*
D03*
X116550Y127400D02*
D03*
X118450D02*
D03*
X114150Y134700D02*
D03*
X112250D02*
D03*
X95575Y96000D02*
D03*
X93675D02*
D03*
X118450Y102300D02*
D03*
X116550D02*
D03*
X93350Y124750D02*
D03*
X91450D02*
D03*
X106450Y110400D02*
D03*
X108350D02*
D03*
X112750Y113750D02*
D03*
X110850D02*
D03*
X106850Y103000D02*
D03*
X108750D02*
D03*
X161450Y97200D02*
D03*
X163350D02*
D03*
Y99100D02*
D03*
X161450D02*
D03*
X132075Y108000D02*
D03*
X130175D02*
D03*
D16*
X138600Y127625D02*
D03*
X134000D02*
D03*
X130700Y127625D02*
D03*
X126100D02*
D03*
X125500Y108775D02*
D03*
X120900D02*
D03*
X101600Y140175D02*
D03*
X105200D02*
D03*
X128100Y140150D02*
D03*
X131700D02*
D03*
X123350Y122025D02*
D03*
X115750D02*
D03*
X100950Y122025D02*
D03*
X93350D02*
D03*
D17*
X137300Y124600D02*
D03*
X136300D02*
D03*
X135300D02*
D03*
X129400Y124600D02*
D03*
X128400D02*
D03*
X127400D02*
D03*
X124200Y105750D02*
D03*
X123200D02*
D03*
X122200D02*
D03*
X102900Y137150D02*
D03*
X103900D02*
D03*
X129400Y137125D02*
D03*
X130400D02*
D03*
X122050Y119000D02*
D03*
X121050D02*
D03*
X120050D02*
D03*
X119050D02*
D03*
X118050D02*
D03*
X117050D02*
D03*
X99650Y119000D02*
D03*
X98650D02*
D03*
X97650D02*
D03*
X96650D02*
D03*
X95650D02*
D03*
X94650D02*
D03*
D18*
X126550Y133775D02*
D03*
X128450D02*
D03*
X127500Y136025D02*
D03*
X117700Y111275D02*
D03*
X119600D02*
D03*
X118650Y113525D02*
D03*
X99450Y110875D02*
D03*
X101350D02*
D03*
X100400Y113125D02*
D03*
X121050Y111275D02*
D03*
X122950D02*
D03*
X122000Y113525D02*
D03*
X98000Y113125D02*
D03*
X96100D02*
D03*
X97050Y110875D02*
D03*
X94650Y113125D02*
D03*
X92750D02*
D03*
X93700Y110875D02*
D03*
X132750Y117825D02*
D03*
X134650D02*
D03*
X133700Y120075D02*
D03*
X136100Y117825D02*
D03*
X138000D02*
D03*
X137050Y120075D02*
D03*
D19*
X115000Y141600D02*
D03*
Y137000D02*
D03*
Y139300D02*
D03*
X88825Y100400D02*
D03*
Y105000D02*
D03*
Y102700D02*
D03*
D20*
X108250Y139300D02*
D03*
X95575Y102700D02*
D03*
D21*
X112800Y132905D02*
D03*
Y131635D02*
D03*
Y130365D02*
D03*
Y129095D02*
D03*
X118000Y132905D02*
D03*
Y131635D02*
D03*
Y130365D02*
D03*
Y129095D02*
D03*
X112650Y115595D02*
D03*
Y116865D02*
D03*
Y118135D02*
D03*
Y119405D02*
D03*
X107450Y115595D02*
D03*
Y116865D02*
D03*
Y118135D02*
D03*
Y119405D02*
D03*
X104800Y108655D02*
D03*
Y107385D02*
D03*
Y106115D02*
D03*
Y104845D02*
D03*
X110000Y108655D02*
D03*
Y107385D02*
D03*
Y106115D02*
D03*
Y104845D02*
D03*
X148200Y124355D02*
D03*
Y123085D02*
D03*
Y121815D02*
D03*
Y120545D02*
D03*
X153400Y124355D02*
D03*
Y123085D02*
D03*
Y121815D02*
D03*
Y120545D02*
D03*
D22*
X134755Y105700D02*
D03*
X133485D02*
D03*
X132215D02*
D03*
X130945D02*
D03*
X134755Y100500D02*
D03*
X133485D02*
D03*
X132215D02*
D03*
X130945D02*
D03*
D23*
X86275Y97325D02*
D03*
Y95125D02*
D03*
X95600Y128050D02*
D03*
Y125850D02*
D03*
D24*
X163500Y135600D02*
D03*
X161300D02*
D03*
X118900Y104300D02*
D03*
X116700D02*
D03*
X157500Y141800D02*
D03*
X155300D02*
D03*
D25*
X86325Y102700D02*
D03*
Y99300D02*
D03*
X159350Y129630D02*
D03*
Y133030D02*
D03*
D26*
X146500Y74450D02*
D03*
Y67850D02*
D03*
X139500D02*
D03*
Y74450D02*
D03*
X132250D02*
D03*
Y67850D02*
D03*
Y84500D02*
D03*
Y77900D02*
D03*
D27*
X135500Y135500D02*
D03*
X138700D02*
D03*
X140500Y127700D02*
D03*
X143700D02*
D03*
D28*
X136975Y132100D02*
D03*
X143225D02*
D03*
D29*
X148000Y118950D02*
D03*
Y115750D02*
D03*
D30*
X134750Y96200D02*
D03*
X136650D02*
D03*
X114250Y123200D02*
D03*
X112350D02*
D03*
X91850Y109000D02*
D03*
X93750D02*
D03*
X113150Y127500D02*
D03*
X115050D02*
D03*
X111900Y110400D02*
D03*
X110000D02*
D03*
X122250Y116700D02*
D03*
X124150D02*
D03*
X95575Y98200D02*
D03*
X93675D02*
D03*
X90725D02*
D03*
X88825D02*
D03*
X156600Y127300D02*
D03*
X154700D02*
D03*
Y134500D02*
D03*
X156600D02*
D03*
X112650Y121200D02*
D03*
X110750D02*
D03*
X107450Y113750D02*
D03*
X109350D02*
D03*
X108700Y101000D02*
D03*
X106800D02*
D03*
X109150Y121200D02*
D03*
X107250D02*
D03*
X150250Y118900D02*
D03*
X152150D02*
D03*
X133500Y108000D02*
D03*
X135400D02*
D03*
X130945Y98200D02*
D03*
X132845D02*
D03*
X130525Y120000D02*
D03*
X128625D02*
D03*
X134750Y98200D02*
D03*
X136650D02*
D03*
X145450Y127200D02*
D03*
X147350D02*
D03*
D31*
X132350Y127350D02*
D03*
Y125450D02*
D03*
X118300Y134250D02*
D03*
Y136150D02*
D03*
X120300Y128250D02*
D03*
Y130150D02*
D03*
X110500Y131650D02*
D03*
Y129750D02*
D03*
X120300Y126650D02*
D03*
Y124750D02*
D03*
X100100Y114850D02*
D03*
Y116750D02*
D03*
X100650Y103400D02*
D03*
Y101500D02*
D03*
X132900Y132650D02*
D03*
Y130750D02*
D03*
X145800Y120150D02*
D03*
Y118250D02*
D03*
X143800D02*
D03*
Y120150D02*
D03*
X155800Y123300D02*
D03*
Y125200D02*
D03*
X157800D02*
D03*
Y123300D02*
D03*
X114100Y105350D02*
D03*
Y103450D02*
D03*
X145800Y123715D02*
D03*
Y121815D02*
D03*
X141800Y120150D02*
D03*
Y118250D02*
D03*
X139800Y118250D02*
D03*
Y120150D02*
D03*
D32*
X146250Y142800D02*
D03*
X142450D02*
D03*
D33*
X135650Y81750D02*
X137550D01*
X132900Y84500D02*
X135650Y81750D01*
X132250Y84500D02*
X132900D01*
X145800Y120150D02*
X148050D01*
X144950Y127700D02*
X145450Y127200D01*
X143700Y127700D02*
X144950D01*
X156600Y127300D02*
Y129630D01*
X115000Y139300D02*
X117700D01*
X108250D02*
X115000D01*
X143650Y127650D02*
X143700Y127700D01*
X148700Y131140D02*
X148740D01*
X148610Y131050D02*
X148700Y131140D01*
X148740D02*
Y136000D01*
X145450Y127200D02*
Y129050D01*
X86325Y99300D02*
Y99850D01*
X86875Y100400D01*
X88825D01*
X109750Y110400D02*
X110000Y110150D01*
Y110400D01*
Y109050D02*
Y110150D01*
X95575Y98200D02*
Y102700D01*
X86325D02*
X88825D01*
Y98200D02*
Y100400D01*
X156600Y129630D02*
X159350D01*
X148050Y120150D02*
X148200Y120000D01*
X143800Y120150D02*
X145800D01*
X155800Y123300D02*
X157800D01*
X146500Y67850D02*
X147250Y67100D01*
X156300D01*
X158250Y69050D01*
Y70750D01*
X156600Y132170D02*
Y134500D01*
Y132170D02*
X158490D01*
X159350Y133030D01*
X146200Y136000D02*
Y142800D01*
X143225Y131075D02*
Y132100D01*
Y131075D02*
X143700Y130600D01*
Y127700D02*
Y130600D01*
X80750Y102250D02*
Y113500D01*
Y102250D02*
X83700Y99300D01*
X86325D01*
X134750Y96200D02*
Y98200D01*
D34*
X92325Y114700D02*
X92750D01*
X91625Y115400D02*
X92325Y114700D01*
X91625Y115400D02*
Y117400D01*
X92550Y118325D02*
X94375D01*
X91625Y117400D02*
X92550Y118325D01*
X94650Y118600D02*
Y119000D01*
X94375Y118325D02*
X94650Y118600D01*
X92750Y113125D02*
Y114700D01*
X92825D01*
X128900Y111400D02*
Y119300D01*
X128625Y119575D02*
X128900Y119300D01*
X128625Y119575D02*
Y120000D01*
X126600Y104900D02*
Y109100D01*
X122700Y101000D02*
X126600Y104900D01*
X145500Y125000D02*
Y127150D01*
X145450Y127200D02*
X145500Y127150D01*
X112600Y98800D02*
Y101000D01*
X115900Y134700D02*
X116350Y134250D01*
X118300D01*
X114150Y134700D02*
X115900D01*
X110000Y100100D02*
Y101150D01*
X109300Y99400D02*
X110000Y100100D01*
X105700Y99400D02*
X109300D01*
X110000Y101150D02*
X110400Y101550D01*
X104400Y100700D02*
X105700Y99400D01*
X104400Y100700D02*
Y101650D01*
X116550Y104150D02*
X116700Y104300D01*
X116550Y102300D02*
Y104150D01*
X118400Y101000D02*
X122700D01*
X112600D02*
X118400D01*
X118450Y101050D01*
Y102300D01*
X112050Y101550D02*
X112600Y101000D01*
X110400Y101550D02*
X112050D01*
X122575Y133450D02*
X123350D01*
X130945Y98200D02*
Y100500D01*
X117050Y116250D02*
Y119000D01*
X115925Y115125D02*
X117050Y116250D01*
X114975Y115125D02*
X115925D01*
X114800Y114950D02*
X114975Y115125D01*
X143900Y122000D02*
X144000Y121900D01*
X107250Y119605D02*
X107350Y119505D01*
X107250Y119605D02*
Y121200D01*
X107400Y116815D02*
X107450Y116865D01*
X97650Y117250D02*
X98250Y116650D01*
X97650Y117250D02*
Y119000D01*
X98250Y116550D02*
Y116650D01*
X112750Y113750D02*
X113775Y112725D01*
Y111200D02*
Y112725D01*
X117700Y111000D02*
Y111275D01*
X116950Y110250D02*
X117700Y111000D01*
X116025Y110250D02*
X116950D01*
X116000Y110225D02*
X116025Y110250D01*
X116000Y108900D02*
Y110225D01*
X157200Y139950D02*
Y141500D01*
X124100Y130250D02*
X126700D01*
X122200D02*
X124100D01*
X122200Y130250D02*
X122200Y130250D01*
X122100Y130150D02*
X122200Y130250D01*
X120300Y130150D02*
X122100D01*
X120085Y130365D02*
X120300Y130150D01*
X118000Y130365D02*
X120085D01*
X110500Y131650D02*
X112785D01*
X107700Y128250D02*
X109500D01*
X107700D02*
Y131050D01*
X107700Y131050D01*
X109350Y131650D02*
X110500D01*
X108750Y131050D02*
X109350Y131650D01*
X107700Y131050D02*
X108750D01*
X108375Y133625D02*
Y134200D01*
X107700Y132950D02*
X108375Y133625D01*
X112455Y133250D02*
X112800Y132905D01*
X110625Y133250D02*
X112455D01*
X112250Y132905D02*
X112800D01*
X112250D02*
Y134700D01*
Y136250D01*
X113000Y137000D01*
X115000D01*
X126250Y132150D02*
X126700D01*
X125900Y132500D02*
X126250Y132150D01*
X125125Y132500D02*
X125900D01*
X120185Y131635D02*
X120200Y131650D01*
X118000Y131635D02*
X120185D01*
X143650Y125900D02*
Y127650D01*
X120050Y117350D02*
X120450Y116950D01*
X120050Y117350D02*
Y119000D01*
X118650Y116950D02*
X119050Y117350D01*
Y119000D01*
X96450Y116550D02*
X96650Y116750D01*
Y119000D01*
X105100Y118135D02*
X107450D01*
X144050Y121850D02*
X144085Y121815D01*
X140700Y121900D02*
X142200D01*
X137400D02*
X138900D01*
X133700Y120075D02*
X137050D01*
X163350Y97200D02*
Y99100D01*
Y97200D02*
X167660D01*
X167900Y96960D01*
X159700Y99100D02*
X161450D01*
X150600Y108200D02*
X159700Y99100D01*
X130550Y124600D02*
X131600Y123550D01*
Y121650D02*
X133400D01*
X137050Y120075D02*
X137200Y120225D01*
Y121700D01*
X137400Y121900D01*
X85900Y109200D02*
X87750Y111050D01*
Y112420D01*
X94650Y114700D02*
Y114750D01*
X98025Y114475D02*
X98250Y114700D01*
X98000Y113125D02*
X98025D01*
X100400D01*
X98025D02*
Y114475D01*
X93850Y109100D02*
X95250D01*
X93750Y109000D02*
X93850Y109100D01*
X93700Y109000D02*
Y110875D01*
X151350Y70750D02*
X153170D01*
X150950Y71150D02*
X151350Y70750D01*
X127700Y71150D02*
X150950D01*
X125900D02*
X127700D01*
X157200Y141500D02*
X157500Y141800D01*
X105585Y116285D02*
X106115Y116815D01*
X107400D01*
X162300Y121815D02*
X162400Y121715D01*
X153400Y121815D02*
X162300D01*
X123350Y133450D02*
X123675Y133775D01*
X126550D01*
X122350Y133450D02*
X122575D01*
X120200Y131650D02*
X120550D01*
X122350Y133450D01*
X129400Y136700D02*
Y137125D01*
X127500Y136025D02*
X128175Y136700D01*
X129400D01*
X115800Y108700D02*
X116000Y108900D01*
X135600Y121900D02*
X135800Y122100D01*
Y122800D01*
X136300Y123300D01*
Y124600D01*
X131600Y123550D02*
X132000Y123950D01*
Y125100D01*
X132350Y125450D01*
X104100Y134125D02*
X104675Y134700D01*
X106800D01*
X118300Y134250D02*
X119500D01*
X120200Y133550D01*
X118300Y133205D02*
Y134250D01*
X118000Y132905D02*
X118300Y133205D01*
X132175Y135000D02*
Y138275D01*
X132950Y139050D01*
X133500D01*
X107900Y111900D02*
X108350Y111450D01*
Y110400D02*
Y111450D01*
X107450Y111950D02*
Y113750D01*
X107400Y111900D02*
X107450Y111950D01*
X104700Y111900D02*
X107400D01*
X107900D01*
X86850Y124750D02*
X91450D01*
X93350D02*
X94500D01*
X95600Y125850D01*
X129850Y130750D02*
X131025D01*
X133400Y123550D02*
X134450Y124600D01*
X135300D01*
X129400Y124600D02*
X130550D01*
X128400Y129300D02*
X129850Y130750D01*
X115050Y127500D02*
X116450D01*
X116550Y125900D02*
Y127300D01*
X116450Y127400D02*
X116550Y127300D01*
X116450Y127400D02*
Y127500D01*
X95575Y96000D02*
Y98200D01*
X97800D01*
X97800Y98200D01*
X134755Y100500D02*
Y101855D01*
X136100Y103200D01*
X142700Y116500D02*
X146000D01*
X136100Y103200D02*
Y106700D01*
X136600Y107200D01*
Y110400D01*
X142700Y116500D01*
X134550Y96000D02*
X134750Y96200D01*
X129200Y97700D02*
Y103650D01*
Y97700D02*
X130900Y96000D01*
X134550D01*
X105100Y116285D02*
X105585D01*
D35*
X97050Y110875D02*
Y114050D01*
X96450Y114650D02*
X97050Y114050D01*
X96450Y114650D02*
Y114750D01*
X93700Y113750D02*
X94650Y114700D01*
X93700Y110875D02*
Y113750D01*
X94650Y116600D02*
X94650Y116600D01*
X92825Y116600D02*
X94650D01*
X150350Y108450D02*
Y122350D01*
X149615Y123085D02*
X150350Y122350D01*
X148200Y123085D02*
X149615D01*
X117900Y106700D02*
Y109300D01*
X127700Y73050D02*
Y118200D01*
X127150Y118750D02*
X127700Y118200D01*
X127150Y118750D02*
Y120225D01*
X131600Y117825D02*
X132750D01*
X124700Y119125D02*
X126000Y117825D01*
X124700Y119125D02*
Y125800D01*
X136100Y115950D02*
X136150Y115900D01*
X136100Y115950D02*
Y117825D01*
X102550Y106115D02*
Y106900D01*
X111830Y104845D02*
X112150Y105165D01*
X110000Y104845D02*
X111830D01*
X110000Y103850D02*
Y104845D01*
Y103850D02*
X110400Y103450D01*
X109200D02*
X110400D01*
X108750Y103000D02*
X109200Y103450D01*
X108700Y102950D02*
X108750Y103000D01*
X108700Y101000D02*
Y102950D01*
X116875Y105675D02*
X117900Y106700D01*
X114425Y105675D02*
X116875D01*
X114100Y105350D02*
X114425Y105675D01*
X111950Y107265D02*
X112150Y107065D01*
X110935Y107265D02*
X111135D01*
X111950D01*
X110815Y107385D02*
X110935Y107265D01*
X134250Y113850D02*
Y115900D01*
X129000Y105750D02*
X129200Y105550D01*
X129000Y105750D02*
Y106800D01*
X124200Y105750D02*
X125400D01*
X129200Y105550D02*
X129350Y105700D01*
X127000Y120375D02*
X127150Y120225D01*
X127000Y120375D02*
Y120600D01*
X129350Y105700D02*
X130945D01*
X99700Y108200D02*
X101000D01*
X98800Y109100D02*
X99700Y108200D01*
X100200Y109150D02*
X102200D01*
X99450Y109900D02*
X100200Y109150D01*
X99450Y109900D02*
Y110875D01*
X114575Y115175D02*
X114800Y114950D01*
X113070Y115175D02*
X114575D01*
X112650Y115595D02*
X113070Y115175D01*
X112650Y116865D02*
X114785D01*
X143900Y122000D02*
Y123500D01*
X112650Y118135D02*
X114575D01*
X98300Y110875D02*
X99450D01*
X95300D02*
Y111600D01*
X94650Y112250D02*
X95300Y111600D01*
X94650Y112250D02*
Y113125D01*
X105400Y119505D02*
Y120850D01*
Y119505D02*
X107350D01*
X114900Y127650D02*
X115050Y127500D01*
X111465Y116865D02*
X112650D01*
X110000Y107385D02*
X110815D01*
X112800Y130365D02*
X114135D01*
X130945Y105700D02*
X130945Y105700D01*
X132215Y100500D02*
Y103215D01*
X133485Y104485D01*
Y105700D01*
X149650Y107950D02*
Y113950D01*
Y107950D02*
X160400Y97200D01*
X161450D01*
X152115Y121815D02*
X153400D01*
X151800Y119250D02*
X152150Y118900D01*
X151800Y119250D02*
Y121500D01*
X152115Y121815D01*
X149300Y114300D02*
X149650Y113950D01*
X150350Y108450D02*
X150600Y108200D01*
X118650Y113525D02*
Y115100D01*
Y113525D02*
X119575D01*
X121050Y112050D01*
Y111275D02*
Y112050D01*
X121925Y113600D02*
X122000Y113525D01*
X120450Y114450D02*
Y115100D01*
Y114450D02*
X121300Y113600D01*
X121925D01*
X104800Y108655D02*
X105655D01*
X102550Y106115D02*
X104800D01*
X102200Y107250D02*
X102550Y106900D01*
X97150Y109100D02*
X98800D01*
X102200Y109150D02*
X103150D01*
X103645Y108655D01*
X104800D01*
X125900Y73050D02*
Y73700D01*
X110850Y113750D02*
X111000Y113900D01*
Y116400D01*
X111465Y116865D01*
X125900Y73700D02*
X126800Y74600D01*
Y98200D01*
X125000Y100000D02*
X126800Y98200D01*
X126700Y122550D02*
X127150Y123000D01*
X114250Y123200D02*
X114575Y122875D01*
Y118135D02*
Y122875D01*
X86275Y95125D02*
X92800D01*
X93675Y96000D01*
X114135Y130365D02*
X114400Y130100D01*
Y129400D02*
Y130100D01*
X114900Y127650D02*
Y128900D01*
X114400Y129400D02*
X114900Y128900D01*
X116900D01*
X117095Y129095D01*
X118000D01*
X102700Y111125D02*
X103400Y111825D01*
X105655Y108655D02*
X106300Y109300D01*
Y110250D01*
X106450Y110400D01*
X122825Y129300D02*
X128400D01*
X122650Y129125D02*
X122825Y129300D01*
X122200Y128350D02*
X122250D01*
X122650Y128750D01*
Y129125D01*
X121750Y127975D02*
X122125Y128350D01*
X122200D01*
X109500Y126350D02*
X110850Y125000D01*
X117550D01*
X118225Y125675D01*
Y127175D01*
X118450Y127400D01*
X123500Y127000D02*
X124700Y125800D01*
X118450Y127400D02*
X118950Y126900D01*
X120050D01*
X120300Y126650D01*
X120550Y126900D01*
X121300D01*
X121750Y127350D01*
Y127975D01*
X131900Y111500D02*
X134250Y113850D01*
X127150Y123000D02*
Y123450D01*
X127375Y123675D01*
Y124625D01*
X133400Y110600D02*
X135900Y113100D01*
X133485Y105700D02*
Y107985D01*
X133400Y108070D02*
Y110600D01*
Y108070D02*
X133485Y107985D01*
X131900Y108200D02*
Y111500D01*
X132215Y105700D02*
Y107860D01*
X132075Y108000D02*
X132215Y107860D01*
X132075Y108000D02*
Y108025D01*
X131900Y108200D02*
X132075Y108025D01*
X130200Y108000D02*
X130400Y108200D01*
Y111475D01*
X130900Y111975D01*
Y113100D01*
X102550Y103550D02*
Y106115D01*
X100800Y103550D02*
X102550D01*
X100650Y103400D02*
X100800Y103550D01*
X102550D02*
X104400D01*
X104400Y103550D01*
X103400Y111825D02*
Y114600D01*
X105135Y116335D01*
X123500Y132500D02*
Y133300D01*
X123350Y133450D02*
X123500Y133300D01*
D36*
X90525Y119125D02*
X92100Y120700D01*
X90525Y111025D02*
Y119125D01*
X86325Y106825D02*
X90525Y111025D01*
X156900Y127600D02*
X158700D01*
X156600Y127300D02*
X156900Y127600D01*
X161000Y125400D02*
Y129330D01*
X158900Y123300D02*
X161000Y125400D01*
X157800Y123300D02*
X158900D01*
X150250Y138050D02*
X157200D01*
X148740Y136540D02*
X150250Y138050D01*
X148740Y136000D02*
Y136540D01*
X161300Y131530D02*
Y135600D01*
X145550Y131050D02*
X148610D01*
X161000Y129330D02*
X161300Y129630D01*
X166546Y123615D02*
X166900Y123261D01*
X162400Y123615D02*
X166546D01*
X159350Y129630D02*
X161300D01*
X132250Y74450D02*
Y77900D01*
Y67850D02*
X139500D01*
Y74450D02*
X146500D01*
X86325Y102700D02*
Y106825D01*
D37*
X80100Y67600D02*
X84500D01*
X82300Y65400D02*
Y67600D01*
X80100Y65400D02*
X84500D01*
X80100D02*
Y67600D01*
X84500Y65400D02*
Y67600D01*
X81000Y65750D02*
X81500D01*
X81250D01*
Y67249D01*
X81000Y67000D01*
X98950Y66000D02*
X99373D01*
X99162D01*
Y67270D01*
X98950Y67058D01*
X100854Y67270D02*
X100431Y67058D01*
X100008Y66635D01*
Y66212D01*
X100220Y66000D01*
X100643D01*
X100854Y66212D01*
Y66423D01*
X100643Y66635D01*
X100008D01*
X101278Y66000D02*
Y66212D01*
X101489D01*
Y66000D01*
X101278D01*
X102336D02*
X102759D01*
X102547D01*
Y67270D01*
X102336Y67058D01*
X104240Y66000D02*
X103394D01*
X104240Y66846D01*
Y67058D01*
X104028Y67270D01*
X103605D01*
X103394Y67058D01*
X104663Y66000D02*
Y66212D01*
X104875D01*
Y66000D01*
X104663D01*
X106568D02*
X105721D01*
X106568Y66846D01*
Y67058D01*
X106356Y67270D01*
X105933D01*
X105721Y67058D01*
X106991D02*
X107202Y67270D01*
X107626D01*
X107837Y67058D01*
Y66212D01*
X107626Y66000D01*
X107202D01*
X106991Y66212D01*
Y67058D01*
X108260Y66000D02*
X108684D01*
X108472D01*
Y67270D01*
X108260Y67058D01*
X109318Y66212D02*
X109530Y66000D01*
X109953D01*
X110165Y66212D01*
Y67058D01*
X109953Y67270D01*
X109530D01*
X109318Y67058D01*
Y66846D01*
X109530Y66635D01*
X110165D01*
X99796Y69470D02*
X98950D01*
Y68200D01*
X99796D01*
X98950Y68835D02*
X99373D01*
X100220D02*
X101066D01*
X101489Y69470D02*
Y68200D01*
X102336D01*
X102970Y69046D02*
X103394D01*
X103605Y68835D01*
Y68200D01*
X102970D01*
X102759Y68412D01*
X102970Y68623D01*
X103605D01*
X104028Y68200D02*
X104663D01*
X104875Y68412D01*
X104663Y68623D01*
X104240D01*
X104028Y68835D01*
X104240Y69046D01*
X104875D01*
X105510Y69258D02*
Y69046D01*
X105298D01*
X105721D01*
X105510D01*
Y68412D01*
X105721Y68200D01*
D38*
X134700Y131600D02*
Y134400D01*
X134075Y130975D02*
X134700Y131600D01*
X133125Y130975D02*
X134075D01*
X133500Y137150D02*
X133850D01*
X135500Y135200D02*
Y135500D01*
X134700Y134400D02*
X135500Y135200D01*
X133850Y137150D02*
X135500Y135500D01*
X128625Y120000D02*
Y120475D01*
X128400Y120700D02*
X128625Y120475D01*
X128400Y120700D02*
Y124600D01*
X112650Y120100D02*
Y121200D01*
Y119405D02*
Y120100D01*
X112650Y121200D02*
X112650Y121200D01*
X132900Y130750D02*
X133125Y130975D01*
X138900Y121050D02*
X139800Y120150D01*
X138900Y121050D02*
Y121900D01*
X141800Y120150D02*
X142200Y120550D01*
Y121900D01*
X145800Y121815D02*
X148200D01*
X144085D02*
X145800D01*
X131025Y132650D02*
X132900D01*
X131025Y130750D02*
X132900D01*
X130400Y135125D02*
Y137125D01*
X130275Y135000D02*
X130400Y135125D01*
X128400Y124600D02*
Y129300D01*
X122050Y119000D02*
Y120700D01*
Y116900D02*
Y119000D01*
Y116900D02*
X122250Y116700D01*
X99650Y117200D02*
Y119000D01*
Y117200D02*
X100100Y116750D01*
X99650Y119000D02*
Y120700D01*
X134755Y98200D02*
Y100500D01*
D39*
X87080Y135480D02*
Y139250D01*
X83350Y131750D02*
X87080Y135480D01*
X83350Y129750D02*
Y131750D01*
X75650Y132900D02*
X82000Y139250D01*
X75650Y129750D02*
Y132900D01*
X80750Y122150D02*
X83350Y124750D01*
X80750Y113500D02*
Y122150D01*
Y113500D02*
X86670D01*
X87750Y112420D01*
D40*
X101000Y108200D02*
X103100D01*
X103915Y107385D02*
X104800D01*
X103100Y108200D02*
X103915Y107385D01*
X110000Y106115D02*
X112985D01*
X113750Y105350D01*
X114100D01*
X112150Y107065D02*
X113690D01*
X113955Y106800D01*
X115800D01*
D41*
X96225Y134125D02*
X99200D01*
X104100D01*
D42*
X88825Y102700D02*
X95575D01*
X96225Y140825D02*
X99200Y143800D01*
X138000D02*
X139100Y142700D01*
Y140300D02*
Y142700D01*
X139200Y142800D01*
X142450D01*
X99200Y143800D02*
X138000D01*
X96225Y134125D02*
Y140825D01*
D43*
X108350Y110400D02*
X109750D01*
X133500Y139050D02*
Y143700D01*
D44*
X83350Y124750D02*
X86850D01*
X96225Y134125D01*
D45*
X74000Y141000D02*
D03*
X166000D02*
D03*
Y69000D02*
D03*
X74000D02*
D03*
X120800Y95500D02*
D03*
D46*
X160750Y106000D02*
D03*
X139250D02*
D03*
D47*
X135900Y113100D02*
D03*
D48*
X133400Y110600D02*
D03*
X130900Y113100D02*
D03*
D49*
X87080Y139250D02*
D03*
X153170Y70750D02*
D03*
D50*
X82000Y139250D02*
D03*
X158250Y70750D02*
D03*
D51*
X143660Y136000D02*
D03*
D52*
X146200D02*
D03*
X148740D02*
D03*
X151280D02*
D03*
D53*
X168500Y129430D02*
D03*
Y131970D02*
D03*
X156600Y129630D02*
D03*
X155330Y130900D02*
D03*
X156600Y132170D02*
D03*
D54*
X124050Y139300D02*
D03*
X117700D02*
D03*
D55*
X167900Y102040D02*
D03*
D56*
Y96960D02*
D03*
Y89340D02*
D03*
Y84260D02*
D03*
D57*
X166900Y123261D02*
D03*
D58*
Y117800D02*
D03*
Y112339D02*
D03*
D59*
X75650Y129750D02*
D03*
Y124750D02*
D03*
X83350D02*
D03*
D60*
Y129750D02*
D03*
D61*
X137550Y81750D02*
D03*
X162550D02*
D03*
D62*
X87750Y112420D02*
D03*
Y117500D02*
D03*
X75750Y113500D02*
D03*
D63*
X147460Y111000D02*
D03*
D64*
X152540D02*
D03*
D65*
X139100Y140300D02*
D03*
X151200Y131100D02*
D03*
D66*
X136600Y140300D02*
D03*
X148700Y131100D02*
D03*
D67*
X80750Y113500D02*
D03*
D68*
X143150Y92000D02*
D03*
X158150D02*
D03*
D69*
X169000Y109500D02*
D03*
Y105500D02*
D03*
X164000D02*
D03*
Y109500D02*
D03*
X163000Y115500D02*
D03*
X161000Y113500D02*
D03*
X159000Y111500D02*
D03*
X157000Y109500D02*
D03*
X154500Y109000D02*
D03*
X153500Y113500D02*
D03*
X155500Y115500D02*
D03*
X157500Y117500D02*
D03*
X159500Y119500D02*
D03*
X163000D02*
D03*
X138500Y87000D02*
D03*
X139000Y90000D02*
D03*
Y94000D02*
D03*
Y98000D02*
D03*
X150750Y90000D02*
D03*
Y94000D02*
D03*
Y98000D02*
D03*
Y102000D02*
D03*
X165100Y87800D02*
D03*
X149500Y80500D02*
D03*
X152500Y83500D02*
D03*
X155500Y86500D02*
D03*
X144500Y80500D02*
D03*
X147000Y83500D02*
D03*
X150000Y86500D02*
D03*
X141000Y90000D02*
D03*
Y94000D02*
D03*
Y98000D02*
D03*
X142500Y102000D02*
D03*
X143500Y106000D02*
D03*
Y110000D02*
D03*
X144500Y112500D02*
D03*
X148000Y106000D02*
D03*
X148500Y102000D02*
D03*
Y98000D02*
D03*
Y94000D02*
D03*
Y90000D02*
D03*
X147000Y86500D02*
D03*
X144000Y83500D02*
D03*
X141000Y80500D02*
D03*
X140000Y85500D02*
D03*
X89900Y93300D02*
D03*
X143000Y68000D02*
D03*
X114900Y113400D02*
D03*
X102000Y113700D02*
D03*
X154800Y118200D02*
D03*
X129800Y122600D02*
D03*
X132350Y128800D02*
D03*
X126000Y123800D02*
D03*
X124600Y131450D02*
D03*
X115000Y126000D02*
D03*
X125750Y85000D02*
D03*
X129000D02*
D03*
X125750Y80000D02*
D03*
Y90000D02*
D03*
Y95000D02*
D03*
X129000Y80000D02*
D03*
Y90000D02*
D03*
Y95000D02*
D03*
X132845Y98200D02*
D03*
X120300Y128250D02*
D03*
X146800Y120025D02*
D03*
X131600Y117825D02*
D03*
X112650Y120100D02*
D03*
X145500Y125000D02*
D03*
X128900Y111400D02*
D03*
X126600Y109100D02*
D03*
X125400Y105750D02*
D03*
X129000Y106800D02*
D03*
X99800Y108200D02*
D03*
X102700Y111125D02*
D03*
X114575Y118135D02*
D03*
X149300Y114300D02*
D03*
X98300Y110875D02*
D03*
X95300D02*
D03*
X116550Y125900D02*
D03*
X105400Y119505D02*
D03*
X125000Y100000D02*
D03*
X117900Y109300D02*
D03*
X126000Y117825D02*
D03*
X123500Y127000D02*
D03*
Y132500D02*
D03*
X106800Y134700D02*
D03*
X115900D02*
D03*
X104700Y111900D02*
D03*
X92100Y120700D02*
D03*
X122050D02*
D03*
X99650D02*
D03*
X146000Y116500D02*
D03*
X159400Y123800D02*
D03*
X169000Y82000D02*
D03*
Y79000D02*
D03*
Y76000D02*
D03*
X167500Y73500D02*
D03*
X163500Y73000D02*
D03*
X161500Y70500D02*
D03*
X166500Y82000D02*
D03*
Y79000D02*
D03*
X164000Y77000D02*
D03*
X160500Y75750D02*
D03*
X158250Y73500D02*
D03*
X161600Y84800D02*
D03*
X157700D02*
D03*
X154500Y81900D02*
D03*
X151300Y78900D02*
D03*
Y75500D02*
D03*
Y72400D02*
D03*
X160600Y78700D02*
D03*
X156900Y76500D02*
D03*
X154500Y73500D02*
D03*
X116200Y129900D02*
D03*
X160200Y90600D02*
D03*
X161500Y89300D02*
D03*
X158900Y87400D02*
D03*
X157700Y88500D02*
D03*
X154000Y106500D02*
D03*
X156500Y104000D02*
D03*
X159000Y101500D02*
D03*
X156750Y99250D02*
D03*
X154250Y101750D02*
D03*
X151750Y104250D02*
D03*
X136000Y77000D02*
D03*
Y73500D02*
D03*
X165500Y128400D02*
D03*
Y130500D02*
D03*
X141900Y126900D02*
D03*
Y124900D02*
D03*
X151000D02*
D03*
Y126900D02*
D03*
X120200Y102000D02*
D03*
Y100000D02*
D03*
X123900Y103800D02*
D03*
X125600Y102300D02*
D03*
X138600Y113800D02*
D03*
Y115800D02*
D03*
X106600Y104500D02*
D03*
X114100Y102000D02*
D03*
Y100000D02*
D03*
X126500Y116100D02*
D03*
X129900D02*
D03*
X121000Y122100D02*
D03*
X118000D02*
D03*
X124900Y127100D02*
D03*
X132200Y142200D02*
D03*
X127200D02*
D03*
X122200D02*
D03*
X117200D02*
D03*
X133600Y135300D02*
D03*
X82100Y107000D02*
D03*
X79400D02*
D03*
X82700Y119000D02*
D03*
X78800D02*
D03*
X92300Y127300D02*
D03*
X89400Y130100D02*
D03*
X97800Y138500D02*
D03*
X94600Y138400D02*
D03*
X112200Y142200D02*
D03*
X111000Y137100D02*
D03*
X109300Y115200D02*
D03*
X109200Y123300D02*
D03*
X139200Y101400D02*
D03*
X136000D02*
D03*
X134100Y103200D02*
D03*
X101600Y132100D02*
D03*
X92400Y111200D02*
D03*
X113100Y110000D02*
D03*
X108200Y104500D02*
D03*
M02*
