M48
;Layer_Color=6321
;FILE_FORMAT=4:3
METRIC,TZ
;TYPE=PLATED
T1F00S00C0.300
T2F00S00C0.700
T3F00S00C0.900
T4F00S00C1.000
T5F00S00C1.200
T6F00S00C1.300
T7F00S00C1.500
T8F00S00C1.750
T9F00S00C3.400
%
T01
X161500Y70500
X163500Y73000
X164000Y77000
X166500Y79000
X169000
Y76000
X167500Y73500
X160500Y75750
X160600Y78700
X156900Y76500
X158250Y73500
X154500
X151300Y72400
Y75500
Y78900
X136000Y77000
Y73500
X143000Y68000
X78800Y119000
X82700
X82100Y107000
X79400
X92400Y111200
X95300Y110875
X98300
X99800Y108200
X102700Y111125
X104700Y111900
X102000Y113700
X109300Y115200
X114900Y113400
X114575Y118135
X113100Y110000
X117900Y109300
X114100Y102000
Y100000
X108200Y104500
X106600
X89900Y93300
X120200Y100000
Y102000
X123900Y103800
X125600Y102300
X125000Y100000
X125750Y95000
X129000
Y90000
X125750
Y85000
X129000
Y80000
X125750
X141000Y80500
X144500
X144000Y83500
X147000
Y86500
X150000
X150750Y90000
X148500
Y94000
X150750
Y98000
X148500
Y102000
X150750
X151750Y104250
X154000Y106500
X154500Y109000
X157000Y109500
X156500Y104000
X154250Y101750
X156750Y99250
X157700Y88500
Y84800
X155500Y86500
X154500Y81900
X152500Y83500
X149500Y80500
X140000Y85500
X138500Y87000
X139000Y90000
X141000
Y94000
X139000
Y98000
X141000
X139200Y101400
X136000
X134100Y103200
X132845Y98200
X129000Y106800
X125400Y105750
X126600Y109100
X128900Y111400
X129900Y116100
X126500
X126000Y117825
X131600
X138600Y115800
Y113800
X144500Y112500
X143500Y110000
Y106000
X148000
X142500Y102000
X146000Y116500
X149300Y114300
X153500Y113500
X155500Y115500
X154800Y118200
X157500Y117500
X163000Y115500
X161000Y113500
X159000Y111500
X164000Y109500
Y105500
X169000
Y109500
X159000Y101500
X160200Y90600
X161500Y89300
X158900Y87400
X161600Y84800
X165100Y87800
X166500Y82000
X169000
X163000Y119500
X159500
X159400Y123800
X165500Y128400
Y130500
X151000Y126900
Y124900
X145500Y125000
X141900Y124900
Y126900
X132350Y128800
X133600Y135300
X132200Y142200
X127200
X122200
X123500Y132500
X124600Y131450
X124900Y127100
X123500Y127000
X120300Y128250
X121000Y122100
X122050Y120700
X126000Y123800
X129800Y122600
X146800Y120025
X118000Y122100
X116550Y125900
X115000Y126000
X116200Y129900
X115900Y134700
X111000Y137100
X112200Y142200
X117200
X106800Y134700
X101600Y132100
X97800Y138500
X94600Y138400
X92300Y127300
X89400Y130100
X92100Y120700
X99650
X105400Y119505
X109200Y123300
X112650Y120100
T02
X168500Y129430
Y131970
X156600Y132170
Y129630
X155330Y130900
X151200Y131100
X148700
X139100Y140300
X136600
T03
X133400Y110600
X135900Y113100
X130900
T04
X75750Y113500
X80750
X147460Y111000
X152540
X158150Y92000
X143150
X143660Y136000
X146200
X148740
X151280
X124050Y139300
X117700
T05
X153170Y70750
X158250
X87080Y139250
X82000
T06
X87750Y112420
Y117500
X137550Y81750
X162550
X167900Y89340
Y96960
X83350Y124750
Y129750
X75650
Y124750
T07
X166900Y112339
Y117800
Y123261
T08
X139250Y106000
X160750
X167900Y102040
Y84260
T09
X166000Y69000
X74000
X120800Y95500
X166000Y141000
X74000
M30
